<svg width="28" height="28" viewBox="0 0 28 28" fill="none" xmlns="http://www.w3.org/2000/svg">
<path d="M13.8865 6.97769C13.1942 6.97769 12.5175 7.18296 11.942 7.56755C11.3664 7.95213 10.9178 8.49876 10.6529 9.1383C10.388 9.77784 10.3187 10.4816 10.4537 11.1605C10.5888 11.8394 10.9221 12.4631 11.4116 12.9526C11.9011 13.442 12.5247 13.7754 13.2037 13.9104C13.8826 14.0455 14.5863 13.9762 15.2259 13.7113C15.8654 13.4464 16.412 12.9978 16.7966 12.4222C17.1812 11.8466 17.3865 11.1699 17.3865 10.4777C17.3854 9.54976 17.0163 8.66013 16.3602 8.00398C15.704 7.34784 14.8144 6.97875 13.8865 6.97769ZM13.8865 12.2277C13.5404 12.2277 13.202 12.1251 12.9142 11.9328C12.6264 11.7405 12.4021 11.4672 12.2697 11.1474C12.1372 10.8276 12.1026 10.4757 12.1701 10.1363C12.2376 9.79682 12.4043 9.485 12.649 9.24025C12.8938 8.99551 13.2056 8.82884 13.5451 8.76132C13.8845 8.69379 14.2364 8.72845 14.5562 8.8609C14.8759 8.99336 15.1492 9.21766 15.3415 9.50544C15.5338 9.79323 15.6365 10.1316 15.6365 10.4777C15.6359 10.9417 15.4514 11.3865 15.1233 11.7145C14.7952 12.0426 14.3504 12.2272 13.8865 12.2277Z" fill="black"/>
<path d="M20.612 3.74691C18.9491 2.08444 16.7294 1.09686 14.3812 0.974781C12.0329 0.852704 9.72272 1.60478 7.8964 3.08587C6.07008 4.56695 4.85711 6.67204 4.49161 8.99485C4.1261 11.3177 4.63397 13.6935 5.91719 15.6639L12.5293 25.8146C12.6764 26.0405 12.8776 26.2261 13.1146 26.3545C13.3516 26.483 13.6169 26.5503 13.8865 26.5503C14.1561 26.5503 14.4214 26.483 14.6584 26.3545C14.8954 26.2261 15.0966 26.0405 15.2437 25.8146L21.856 15.6639C23.0467 13.8361 23.5729 11.6546 23.3464 9.48491C23.1199 7.31527 22.1545 5.28942 20.612 3.74691ZM20.3897 14.7087L13.8865 24.6919L7.38325 14.7087C5.39263 11.6528 5.81957 7.56328 8.39842 4.98433C9.11912 4.26361 9.97472 3.6919 10.9164 3.30184C11.858 2.91179 12.8673 2.71103 13.8865 2.71103C14.9058 2.71103 15.915 2.91179 16.8567 3.30184C17.7983 3.6919 18.6539 4.26361 19.3746 4.98433C21.9535 7.56328 22.3804 11.6528 20.3897 14.7087Z" fill="black"/>
</svg>
