<svg width="32" height="32" viewBox="0 0 32 32" fill="none" xmlns="http://www.w3.org/2000/svg">
<g clip-path="url(#clip0_5_17)">
<path d="M29 4H3C2.20435 4 1.44129 4.31607 0.87868 4.87868C0.31607 5.44129 0 6.20435 0 7L0 25C0 25.7956 0.31607 26.5587 0.87868 27.1213C1.44129 27.6839 2.20435 28 3 28H16V26H3C2.73478 26 2.48043 25.8946 2.29289 25.7071C2.10536 25.5196 2 25.2652 2 25V7.23L15.42 16.81C15.5894 16.9306 15.7921 16.9954 16 16.9954C16.2079 16.9954 16.4106 16.9306 16.58 16.81L30 7.23V17H32V7C32 6.20435 31.6839 5.44129 31.1213 4.87868C30.5587 4.31607 29.7956 4 29 4ZM16 14.77L3.72 6H28.28L16 14.77Z" fill="black"/>
<path d="M27 25H21V24H19V25C19 25.5304 19.2107 26.0391 19.5858 26.4142C19.9609 26.7893 20.4696 27 21 27H27C27.5304 27 28.0391 26.7893 28.4142 26.4142C28.7893 26.0391 29 25.5304 29 25V24H27V25Z" fill="black"/>
<path d="M23 19H21V21H23V19Z" fill="black"/>
<path d="M27 19H25V21H27V19Z" fill="black"/>
</g>
<defs>
<clipPath id="clip0_5_17">
<rect width="32" height="32" fill="white"/>
</clipPath>
</defs>
</svg>
