<svg width="190" height="762" viewBox="0 0 190 762" fill="none" xmlns="http://www.w3.org/2000/svg">
<g filter="url(#filter0_di_206_8)">
<rect x="39" y="32" width="112" height="684" rx="4" fill="#8B1D19"/>
<rect x="39.25" y="32.25" width="111.5" height="683.5" rx="3.75" stroke="#787F8F" stroke-width="0.5"/>
</g>
<path d="M39 605H151V711C151 713.761 148.761 716 146 716H44C41.2386 716 39 713.761 39 711V605Z" fill="#F8F9FB"/>
<rect x="39" y="96" width="112" height="37" fill="#FAF9FE"/>
<rect x="39" y="32" width="13" height="684" fill="url(#paint0_linear_206_8)" fill-opacity="0.29"/>
<rect x="138" y="32" width="13" height="684" fill="url(#paint1_linear_206_8)" fill-opacity="0.29"/>
<path d="M105.58 185.951C105.58 182.848 106.63 180.433 108.73 178.706C110.853 176.979 113.968 176.116 118.075 176.116C122.182 176.116 125.332 176.979 127.525 178.706C129.742 180.433 130.85 182.848 130.85 185.951C130.85 188.004 130.383 189.719 129.45 191.096C128.517 192.496 127.198 193.581 125.495 194.351L124.06 191.971C125.32 191.481 126.323 190.734 127.07 189.731C127.84 188.728 128.225 187.468 128.225 185.951C128.225 184.901 128.027 183.956 127.63 183.116C127.233 182.299 126.662 181.599 125.915 181.016C125.192 180.456 124.317 180.024 123.29 179.721C122.287 179.418 121.155 179.266 119.895 179.266H116.255C113.735 179.266 111.763 179.849 110.34 181.016C108.917 182.183 108.205 183.828 108.205 185.951C108.205 187.514 108.602 188.821 109.395 189.871C110.212 190.921 111.285 191.691 112.615 192.181L111.145 194.526C109.418 193.756 108.053 192.648 107.05 191.201C106.07 189.754 105.58 188.004 105.58 185.951ZM105.58 207.77C105.58 206.183 105.848 204.748 106.385 203.465C106.945 202.205 107.75 201.12 108.8 200.21C109.873 199.323 111.192 198.635 112.755 198.145C114.342 197.655 116.162 197.41 118.215 197.41C120.268 197.41 122.077 197.655 123.64 198.145C125.203 198.635 126.522 199.323 127.595 200.21C128.668 201.12 129.473 202.205 130.01 203.465C130.57 204.748 130.85 206.183 130.85 207.77C130.85 209.333 130.57 210.757 130.01 212.04C129.473 213.323 128.668 214.408 127.595 215.295C126.522 216.205 125.203 216.905 123.64 217.395C122.077 217.885 120.268 218.13 118.215 218.13C116.162 218.13 114.342 217.885 112.755 217.395C111.192 216.905 109.873 216.205 108.8 215.295C107.75 214.408 106.945 213.323 106.385 212.04C105.848 210.757 105.58 209.333 105.58 207.77ZM108.205 207.77C108.205 208.82 108.392 209.788 108.765 210.675C109.138 211.562 109.675 212.32 110.375 212.95C111.075 213.603 111.915 214.105 112.895 214.455C113.875 214.805 114.972 214.98 116.185 214.98H120.245C121.458 214.98 122.555 214.805 123.535 214.455C124.515 214.105 125.355 213.603 126.055 212.95C126.755 212.32 127.292 211.562 127.665 210.675C128.038 209.788 128.225 208.82 128.225 207.77C128.225 206.72 128.038 205.752 127.665 204.865C127.292 203.978 126.755 203.208 126.055 202.555C125.355 201.925 124.515 201.435 123.535 201.085C122.555 200.735 121.458 200.56 120.245 200.56H116.185C114.972 200.56 113.875 200.735 112.895 201.085C111.915 201.435 111.075 201.925 110.375 202.555C109.675 203.208 109.138 203.978 108.765 204.865C108.392 205.752 108.205 206.72 108.205 207.77ZM126.58 242.455V242.28L122.485 240.215L111.845 234.37L122.485 228.525L126.58 226.46V226.285H106L106 223.415H130.43V227.335L117.27 234.335V234.51L130.43 241.545V245.325H106V242.455H126.58ZM106 251.818H130.43V261.548C130.43 263.742 129.8 265.422 128.54 266.588C127.303 267.778 125.6 268.373 123.43 268.373C121.26 268.373 119.545 267.778 118.285 266.588C117.048 265.422 116.43 263.742 116.43 261.548L116.43 254.758H106V251.818ZM119.02 254.758L119.02 261.548C119.02 262.715 119.323 263.613 119.93 264.243C120.537 264.897 121.4 265.223 122.52 265.223H124.34C125.46 265.223 126.323 264.897 126.93 264.243C127.537 263.613 127.84 262.715 127.84 261.548L127.84 254.758H119.02ZM130.43 275.809H115.31C112.977 275.809 111.203 276.241 109.99 277.104C108.8 277.967 108.205 279.484 108.205 281.654C108.205 283.824 108.8 285.341 109.99 286.204C111.203 287.067 112.977 287.499 115.31 287.499H130.43V290.439H116.01C114.237 290.439 112.697 290.276 111.39 289.949C110.083 289.646 108.998 289.144 108.135 288.444C107.272 287.744 106.63 286.822 106.21 285.679C105.79 284.559 105.58 283.182 105.58 281.549C105.58 279.916 105.79 278.539 106.21 277.419C106.63 276.322 107.272 275.436 108.135 274.759C108.998 274.082 110.083 273.592 111.39 273.289C112.697 273.009 114.237 272.869 116.01 272.869H130.43V275.809ZM127.84 304.99H106V302.05H127.84V294.28H130.43L130.43 312.76H127.84V304.99ZM106 316.794H130.43V331.704H127.84L127.84 319.734H119.65L119.65 331.004H117.06L117.06 319.734H108.59L108.59 331.704H106L106 316.794ZM106 340.139V337.199H130.43V346.929C130.43 349.076 129.835 350.744 128.645 351.934C127.455 353.148 125.74 353.754 123.5 353.754C121.703 353.754 120.222 353.334 119.055 352.494C117.912 351.678 117.153 350.464 116.78 348.854L106 354.454V351.129L116.5 345.844V340.139H106ZM119.02 346.929C119.02 348.096 119.323 348.994 119.93 349.624C120.537 350.278 121.4 350.604 122.52 350.604H124.34C125.46 350.604 126.323 350.278 126.93 349.624C127.537 348.994 127.84 348.096 127.84 346.929V340.139H119.02V346.929ZM105.58 374.719C105.58 372.735 105.953 371.044 106.7 369.644C107.47 368.244 108.52 367.054 109.85 366.074L111.67 368.244C110.527 369.107 109.652 370.064 109.045 371.114C108.462 372.164 108.17 373.4 108.17 374.824C108.17 376.574 108.59 377.904 109.43 378.814C110.27 379.747 111.39 380.214 112.79 380.214C113.957 380.214 114.855 379.864 115.485 379.164C116.115 378.464 116.617 377.309 116.99 375.699L117.445 373.704C117.958 371.464 118.728 369.749 119.755 368.559C120.805 367.392 122.275 366.809 124.165 366.809C125.238 366.809 126.195 367.007 127.035 367.404C127.875 367.8 128.575 368.349 129.135 369.049C129.695 369.772 130.115 370.624 130.395 371.604C130.698 372.607 130.85 373.704 130.85 374.894C130.85 376.737 130.512 378.312 129.835 379.619C129.158 380.949 128.167 382.069 126.86 382.979L125.25 380.774C126.183 380.097 126.918 379.28 127.455 378.324C127.992 377.367 128.26 376.177 128.26 374.754C128.26 373.19 127.922 371.954 127.245 371.044C126.592 370.157 125.6 369.714 124.27 369.714C123.103 369.714 122.217 370.087 121.61 370.834C121.027 371.604 120.56 372.759 120.21 374.299L119.755 376.294C119.218 378.697 118.402 380.435 117.305 381.509C116.208 382.582 114.75 383.119 112.93 383.119C111.81 383.119 110.795 382.92 109.885 382.524C108.975 382.15 108.205 381.602 107.575 380.879C106.945 380.155 106.455 379.269 106.105 378.219C105.755 377.192 105.58 376.025 105.58 374.719ZM106 388.195H130.43V403.105H127.84V391.135H119.65V402.405H117.06V391.135H108.59V403.105H106V388.195ZM105.58 417.211C105.58 414.107 106.63 411.692 108.73 409.966C110.853 408.239 113.968 407.376 118.075 407.376C122.182 407.376 125.332 408.239 127.525 409.966C129.742 411.692 130.85 414.107 130.85 417.211C130.85 419.264 130.383 420.979 129.45 422.356C128.517 423.756 127.198 424.841 125.495 425.611L124.06 423.231C125.32 422.741 126.323 421.994 127.07 420.991C127.84 419.987 128.225 418.727 128.225 417.211C128.225 416.161 128.027 415.216 127.63 414.376C127.233 413.559 126.662 412.859 125.915 412.276C125.192 411.716 124.317 411.284 123.29 410.981C122.287 410.677 121.155 410.526 119.895 410.526H116.255C113.735 410.526 111.763 411.109 110.34 412.276C108.917 413.442 108.205 415.087 108.205 417.211C108.205 418.774 108.602 420.081 109.395 421.131C110.212 422.181 111.285 422.951 112.615 423.441L111.145 425.786C109.418 425.016 108.053 423.907 107.05 422.461C106.07 421.014 105.58 419.264 105.58 417.211ZM130.43 433.104H115.31C112.977 433.104 111.203 433.536 109.99 434.399C108.8 435.262 108.205 436.779 108.205 438.949C108.205 441.119 108.8 442.636 109.99 443.499C111.203 444.362 112.977 444.794 115.31 444.794H130.43V447.734H116.01C114.237 447.734 112.697 447.571 111.39 447.244C110.083 446.941 108.998 446.439 108.135 445.739C107.272 445.039 106.63 444.117 106.21 442.974C105.79 441.854 105.58 440.477 105.58 438.844C105.58 437.211 105.79 435.834 106.21 434.714C106.63 433.617 107.272 432.731 108.135 432.054C108.998 431.377 110.083 430.887 111.39 430.584C112.697 430.304 114.237 430.164 116.01 430.164H130.43V433.104ZM106 457V454.06H130.43V463.79C130.43 465.936 129.835 467.605 128.645 468.795C127.455 470.008 125.74 470.615 123.5 470.615C121.703 470.615 120.222 470.195 119.055 469.355C117.912 468.538 117.153 467.325 116.78 465.715L106 471.315V467.99L116.5 462.705V457H106ZM119.02 463.79C119.02 464.956 119.323 465.855 119.93 466.485C120.537 467.138 121.4 467.465 122.52 467.465H124.34C125.46 467.465 126.323 467.138 126.93 466.485C127.537 465.855 127.84 464.956 127.84 463.79V457H119.02V463.79ZM106 475.292H108.45V478.722H127.98V475.292H130.43V485.092H127.98V481.662H108.45V485.092H106V475.292ZM127.84 498.447H106V495.507H127.84L127.84 487.737H130.43L130.43 506.217H127.84V498.447ZM106 516.022H115.66L130.43 507.622V510.982L118.67 517.492V517.597L130.43 524.107V527.467L115.765 518.962H106V516.022Z" fill="#F5C130"/>
<path d="M56 200.509H76.94V208.849C76.94 210.729 76.4 212.169 75.32 213.169C74.26 214.189 72.8 214.699 70.94 214.699C69.08 214.699 67.61 214.189 66.53 213.169C65.47 212.169 64.94 210.729 64.94 208.849V203.029H56V200.509ZM67.16 203.029V208.849C67.16 209.849 67.42 210.619 67.94 211.159C68.46 211.719 69.2 211.999 70.16 211.999H71.72C72.68 211.999 73.42 211.719 73.94 211.159C74.46 210.619 74.72 209.849 74.72 208.849V203.029H67.16ZM56 218.169L71.48 218.169V220.569L68.63 220.569V220.719C69.37 220.999 70.03 221.499 70.61 222.219C71.19 222.939 71.48 223.929 71.48 225.189V226.119L69.08 226.119V224.709C69.08 223.409 68.83 222.389 68.33 221.649C67.85 220.929 67.24 220.569 66.5 220.569H56V218.169ZM75.11 230.385C75.11 229.865 75.23 229.485 75.47 229.245C75.73 229.025 76.06 228.915 76.46 228.915H76.85C77.25 228.915 77.57 229.025 77.81 229.245C78.07 229.485 78.2 229.865 78.2 230.385C78.2 230.905 78.07 231.275 77.81 231.495C77.57 231.735 77.25 231.855 76.85 231.855H76.46C76.06 231.855 75.73 231.735 75.47 231.495C75.23 231.275 75.11 230.905 75.11 230.385ZM71.48 229.185V231.585L56 231.585V229.185L71.48 229.185ZM56 236.685L71.48 236.685V239.085L68.96 239.085V239.205C69.84 239.585 70.54 240.115 71.06 240.795C71.58 241.495 71.84 242.425 71.84 243.585C71.84 245.185 71.32 246.445 70.28 247.365C69.26 248.305 67.81 248.775 65.93 248.775H56L56 246.375H65.51C68.29 246.375 69.68 245.205 69.68 242.865C69.68 242.385 69.62 241.915 69.5 241.455C69.38 241.015 69.2 240.615 68.96 240.255C68.72 239.895 68.41 239.605 68.03 239.385C67.67 239.185 67.24 239.085 66.74 239.085H56V236.685ZM55.64 259.496C55.64 258.416 55.83 257.446 56.21 256.586C56.59 255.726 57.13 254.996 57.83 254.396C58.53 253.816 59.38 253.366 60.38 253.046C61.38 252.746 62.5 252.596 63.74 252.596C64.98 252.596 66.1 252.746 67.1 253.046C68.1 253.366 68.95 253.816 69.65 254.396C70.35 254.996 70.89 255.726 71.27 256.586C71.65 257.446 71.84 258.416 71.84 259.496C71.84 261.036 71.5 262.266 70.82 263.186C70.16 264.126 69.29 264.826 68.21 265.286L67.19 263.276C67.99 262.996 68.61 262.536 69.05 261.896C69.49 261.256 69.71 260.456 69.71 259.496C69.71 258.776 69.59 258.146 69.35 257.606C69.13 257.066 68.81 256.616 68.39 256.256C67.99 255.896 67.5 255.626 66.92 255.446C66.36 255.266 65.74 255.176 65.06 255.176H62.42C61.06 255.176 59.94 255.536 59.06 256.256C58.2 256.996 57.77 258.076 57.77 259.496C57.77 261.436 58.67 262.836 60.47 263.696L59.3 265.436C58.18 264.936 57.29 264.186 56.63 263.186C55.97 262.206 55.64 260.976 55.64 259.496ZM75.11 270.023C75.11 269.503 75.23 269.123 75.47 268.883C75.73 268.663 76.06 268.553 76.46 268.553H76.85C77.25 268.553 77.57 268.663 77.81 268.883C78.07 269.123 78.2 269.503 78.2 270.023C78.2 270.543 78.07 270.913 77.81 271.133C77.57 271.373 77.25 271.493 76.85 271.493H76.46C76.06 271.493 75.73 271.373 75.47 271.133C75.23 270.913 75.11 270.543 75.11 270.023ZM71.48 268.823V271.223H56V268.823H71.48ZM71.48 276.323V278.723H68.96V278.843C69.94 279.243 70.66 279.823 71.12 280.583C71.6 281.363 71.84 282.293 71.84 283.373C71.84 284.333 71.65 285.203 71.27 285.983C70.89 286.763 70.35 287.423 69.65 287.963C68.95 288.523 68.1 288.943 67.1 289.223C66.1 289.523 64.98 289.673 63.74 289.673C62.5 289.673 61.38 289.523 60.38 289.223C59.38 288.943 58.53 288.523 57.83 287.963C57.13 287.423 56.59 286.763 56.21 285.983C55.83 285.203 55.64 284.333 55.64 283.373C55.64 281.273 56.6 279.763 58.52 278.843V278.723H50V276.323H71.48ZM57.8 282.713C57.8 284.073 58.22 285.143 59.06 285.923C59.92 286.703 61.04 287.093 62.42 287.093H65.06C66.44 287.093 67.55 286.703 68.39 285.923C69.25 285.143 69.68 284.073 69.68 282.713C69.68 282.173 69.6 281.653 69.44 281.153C69.3 280.673 69.1 280.253 68.84 279.893C68.58 279.533 68.26 279.243 67.88 279.023C67.52 278.823 67.13 278.723 66.71 278.723H60.95C60.45 278.723 60 278.823 59.6 279.023C59.22 279.243 58.89 279.533 58.61 279.893C58.35 280.253 58.15 280.673 58.01 281.153C57.87 281.653 57.8 282.173 57.8 282.713ZM56 296.276C56 295.436 56.23 294.796 56.69 294.356C57.17 293.936 57.77 293.726 58.49 293.726H78.2V296.126H58.1V298.406H56V296.276ZM55.64 307.72C55.64 306.66 55.83 305.7 56.21 304.84C56.59 304 57.13 303.27 57.83 302.65C58.55 302.05 59.4 301.58 60.38 301.24C61.38 300.92 62.5 300.76 63.74 300.76C64.96 300.76 66.07 300.92 67.07 301.24C68.07 301.58 68.92 302.05 69.62 302.65C70.34 303.27 70.89 304 71.27 304.84C71.65 305.7 71.84 306.66 71.84 307.72C71.84 308.76 71.65 309.69 71.27 310.51C70.89 311.33 70.36 312.03 69.68 312.61C69.02 313.19 68.23 313.63 67.31 313.93C66.39 314.25 65.38 314.41 64.28 314.41H63.14V303.28H62.42C61.76 303.28 61.14 303.38 60.56 303.58C60 303.8 59.51 304.1 59.09 304.48C58.67 304.88 58.34 305.36 58.1 305.92C57.86 306.5 57.74 307.15 57.74 307.87C57.74 308.85 57.97 309.7 58.43 310.42C58.89 311.16 59.55 311.73 60.41 312.13L59.18 313.84C58.12 313.34 57.26 312.56 56.6 311.5C55.96 310.44 55.64 309.18 55.64 307.72ZM69.83 307.72C69.83 307.06 69.71 306.46 69.47 305.92C69.25 305.38 68.93 304.91 68.51 304.51C68.09 304.13 67.59 303.83 67.01 303.61C66.45 303.39 65.83 303.28 65.15 303.28H64.94V311.83H65.27C66.65 311.83 67.75 311.45 68.57 310.69C69.41 309.95 69.83 308.96 69.83 307.72ZM55.64 323.014C55.64 321.574 55.91 320.364 56.45 319.384C57.01 318.424 57.75 317.594 58.67 316.894L60.05 318.604C59.29 319.204 58.7 319.874 58.28 320.614C57.88 321.354 57.68 322.214 57.68 323.194C57.68 324.214 57.9 325.004 58.34 325.564C58.78 326.144 59.4 326.434 60.2 326.434C60.8 326.434 61.31 326.234 61.73 325.834C62.17 325.454 62.47 324.754 62.63 323.734L62.81 322.504C62.91 321.784 63.06 321.124 63.26 320.524C63.48 319.924 63.76 319.394 64.1 318.934C64.46 318.494 64.9 318.144 65.42 317.884C65.94 317.644 66.56 317.524 67.28 317.524C68.04 317.524 68.7 317.664 69.26 317.944C69.84 318.224 70.32 318.604 70.7 319.084C71.08 319.584 71.36 320.174 71.54 320.854C71.74 321.534 71.84 322.264 71.84 323.044C71.84 324.304 71.62 325.354 71.18 326.194C70.74 327.054 70.13 327.804 69.35 328.444L67.91 326.854C68.39 326.514 68.82 326.014 69.2 325.354C69.6 324.694 69.8 323.864 69.8 322.864C69.8 321.864 69.58 321.104 69.14 320.584C68.72 320.084 68.14 319.834 67.4 319.834C66.64 319.834 66.09 320.084 65.75 320.584C65.41 321.104 65.16 321.844 65 322.804L64.82 324.004C64.56 325.724 64.06 326.944 63.32 327.664C62.6 328.384 61.65 328.744 60.47 328.744C58.97 328.744 57.79 328.234 56.93 327.214C56.07 326.194 55.64 324.794 55.64 323.014ZM56 351.323C56 350.423 56.24 349.773 56.72 349.373C57.2 348.993 57.8 348.753 58.52 348.653V348.503C57.56 348.163 56.84 347.603 56.36 346.823C55.88 346.043 55.64 345.113 55.64 344.033C55.64 342.393 56.06 341.113 56.9 340.193C57.74 339.293 58.88 338.843 60.32 338.843C61.78 338.843 62.9 339.373 63.68 340.433C64.46 341.513 64.85 343.183 64.85 345.443V348.503H66.38C67.48 348.503 68.32 348.203 68.9 347.603C69.48 347.003 69.77 346.083 69.77 344.843C69.77 343.903 69.56 343.113 69.14 342.473C68.72 341.853 68.16 341.333 67.46 340.913L68.81 339.473C69.65 339.893 70.36 340.563 70.94 341.483C71.54 342.403 71.84 343.563 71.84 344.963C71.84 346.843 71.38 348.303 70.46 349.343C69.54 350.383 68.26 350.903 66.62 350.903H58.1V352.673H56V351.323ZM57.68 344.423C57.68 345.023 57.75 345.573 57.89 346.073C58.03 346.573 58.23 347.003 58.49 347.363C58.75 347.723 59.05 348.003 59.39 348.203C59.73 348.403 60.1 348.503 60.5 348.503H63.05L63.05 345.323C63.05 343.943 62.85 342.933 62.45 342.293C62.05 341.673 61.47 341.363 60.71 341.363H60.08C59.32 341.363 58.73 341.633 58.31 342.173C57.89 342.733 57.68 343.483 57.68 344.423ZM56 356.099H71.48V358.499H68.96V358.619C69.84 358.999 70.54 359.529 71.06 360.209C71.58 360.909 71.84 361.839 71.84 362.999C71.84 364.599 71.32 365.859 70.28 366.779C69.26 367.719 67.81 368.189 65.93 368.189H56V365.789H65.51C68.29 365.789 69.68 364.619 69.68 362.279C69.68 361.799 69.62 361.329 69.5 360.869C69.38 360.429 69.2 360.029 68.96 359.669C68.72 359.309 68.41 359.019 68.03 358.799C67.67 358.599 67.24 358.499 66.74 358.499H56V356.099ZM58.52 383.05V382.93C56.6 381.99 55.64 380.48 55.64 378.4C55.64 377.44 55.83 376.57 56.21 375.79C56.59 375.01 57.13 374.34 57.83 373.78C58.53 373.24 59.38 372.82 60.38 372.52C61.38 372.24 62.5 372.1 63.74 372.1C64.98 372.1 66.1 372.24 67.1 372.52C68.1 372.82 68.95 373.24 69.65 373.78C70.35 374.34 70.89 375.01 71.27 375.79C71.65 376.57 71.84 377.44 71.84 378.4C71.84 379.48 71.6 380.4 71.12 381.16C70.66 381.94 69.94 382.53 68.96 382.93V383.05H78.2V385.45H56V383.05H58.52ZM57.8 379.06C57.8 379.6 57.87 380.11 58.01 380.59C58.15 381.09 58.35 381.52 58.61 381.88C58.89 382.24 59.22 382.52 59.6 382.72C60 382.94 60.45 383.05 60.95 383.05H66.71C67.13 383.05 67.52 382.94 67.88 382.72C68.26 382.52 68.58 382.24 68.84 381.88C69.1 381.52 69.3 381.09 69.44 380.59C69.6 380.11 69.68 379.6 69.68 379.06C69.68 377.7 69.25 376.63 68.39 375.85C67.55 375.07 66.44 374.68 65.06 374.68H62.42C61.04 374.68 59.92 375.07 59.06 375.85C58.22 376.63 57.8 377.7 57.8 379.06ZM56 397.882H76.94V406.222C76.94 408.102 76.4 409.542 75.32 410.542C74.26 411.562 72.8 412.072 70.94 412.072C69.08 412.072 67.61 411.562 66.53 410.542C65.47 409.542 64.94 408.102 64.94 406.222V400.402H56L56 397.882ZM67.16 400.402V406.222C67.16 407.222 67.42 407.992 67.94 408.532C68.46 409.092 69.2 409.372 70.16 409.372H71.72C72.68 409.372 73.42 409.092 73.94 408.532C74.46 407.992 74.72 407.222 74.72 406.222V400.402H67.16ZM56 415.542H71.48V417.942H68.63V418.092C69.37 418.372 70.03 418.872 70.61 419.592C71.19 420.312 71.48 421.302 71.48 422.562V423.492H69.08V422.082C69.08 420.782 68.83 419.762 68.33 419.022C67.85 418.302 67.24 417.942 66.5 417.942H56V415.542ZM56 437.691C56 436.791 56.24 436.141 56.72 435.741C57.2 435.361 57.8 435.121 58.52 435.021V434.871C57.56 434.531 56.84 433.971 56.36 433.191C55.88 432.411 55.64 431.481 55.64 430.401C55.64 428.761 56.06 427.481 56.9 426.561C57.74 425.661 58.88 425.211 60.32 425.211C61.78 425.211 62.9 425.741 63.68 426.801C64.46 427.881 64.85 429.551 64.85 431.811V434.871H66.38C67.48 434.871 68.32 434.571 68.9 433.971C69.48 433.371 69.77 432.451 69.77 431.211C69.77 430.271 69.56 429.481 69.14 428.841C68.72 428.221 68.16 427.701 67.46 427.281L68.81 425.841C69.65 426.261 70.36 426.931 70.94 427.851C71.54 428.771 71.84 429.931 71.84 431.331C71.84 433.211 71.38 434.671 70.46 435.711C69.54 436.751 68.26 437.271 66.62 437.271H58.1V439.041H56V437.691ZM57.68 430.791C57.68 431.391 57.75 431.941 57.89 432.441C58.03 432.941 58.23 433.371 58.49 433.731C58.75 434.091 59.05 434.371 59.39 434.571C59.73 434.771 60.1 434.871 60.5 434.871H63.05V431.691C63.05 430.311 62.85 429.301 62.45 428.661C62.05 428.041 61.47 427.731 60.71 427.731H60.08C59.32 427.731 58.73 428.001 58.31 428.541C57.89 429.101 57.68 429.851 57.68 430.791ZM55.64 448.226C55.64 447.146 55.83 446.176 56.21 445.316C56.59 444.456 57.13 443.726 57.83 443.126C58.53 442.546 59.38 442.096 60.38 441.776C61.38 441.476 62.5 441.326 63.74 441.326C64.98 441.326 66.1 441.476 67.1 441.776C68.1 442.096 68.95 442.546 69.65 443.126C70.35 443.726 70.89 444.456 71.27 445.316C71.65 446.176 71.84 447.146 71.84 448.226C71.84 449.766 71.5 450.996 70.82 451.916C70.16 452.856 69.29 453.556 68.21 454.016L67.19 452.006C67.99 451.726 68.61 451.266 69.05 450.626C69.49 449.986 69.71 449.186 69.71 448.226C69.71 447.506 69.59 446.876 69.35 446.336C69.13 445.796 68.81 445.346 68.39 444.986C67.99 444.626 67.5 444.356 66.92 444.176C66.36 443.996 65.74 443.906 65.06 443.906H62.42C61.06 443.906 59.94 444.266 59.06 444.986C58.2 445.726 57.77 446.806 57.77 448.226C57.77 450.166 58.67 451.566 60.47 452.426L59.3 454.166C58.18 453.666 57.29 452.916 56.63 451.916C55.97 450.936 55.64 449.706 55.64 448.226ZM56 460.974C56 460.134 56.23 459.494 56.69 459.054C57.17 458.634 57.79 458.424 58.55 458.424H69.38V455.874H71.48V457.314C71.48 457.834 71.58 458.184 71.78 458.364C72 458.564 72.37 458.664 72.89 458.664H75.77V460.824H71.48V464.214H69.38V460.824H58.1V463.974H56V460.974ZM75.11 469.271C75.11 468.751 75.23 468.371 75.47 468.131C75.73 467.911 76.06 467.801 76.46 467.801H76.85C77.25 467.801 77.57 467.911 77.81 468.131C78.07 468.371 78.2 468.751 78.2 469.271C78.2 469.791 78.07 470.161 77.81 470.381C77.57 470.621 77.25 470.741 76.85 470.741H76.46C76.06 470.741 75.73 470.621 75.47 470.381C75.23 470.161 75.11 469.791 75.11 469.271ZM71.48 468.071V470.471H56V468.071H71.48ZM55.64 481.331C55.64 480.251 55.83 479.281 56.21 478.421C56.59 477.561 57.13 476.831 57.83 476.231C58.53 475.651 59.38 475.201 60.38 474.881C61.38 474.581 62.5 474.431 63.74 474.431C64.98 474.431 66.1 474.581 67.1 474.881C68.1 475.201 68.95 475.651 69.65 476.231C70.35 476.831 70.89 477.561 71.27 478.421C71.65 479.281 71.84 480.251 71.84 481.331C71.84 482.871 71.5 484.101 70.82 485.021C70.16 485.961 69.29 486.661 68.21 487.121L67.19 485.111C67.99 484.831 68.61 484.371 69.05 483.731C69.49 483.091 69.71 482.291 69.71 481.331C69.71 480.611 69.59 479.981 69.35 479.441C69.13 478.901 68.81 478.451 68.39 478.091C67.99 477.731 67.5 477.461 66.92 477.281C66.36 477.101 65.74 477.011 65.06 477.011H62.42C61.06 477.011 59.94 477.371 59.06 478.091C58.2 478.831 57.77 479.911 57.77 481.331C57.77 483.271 58.67 484.671 60.47 485.531L59.3 487.271C58.18 486.771 57.29 486.021 56.63 485.021C55.97 484.041 55.64 482.811 55.64 481.331ZM55.64 496.304C55.64 495.244 55.83 494.284 56.21 493.424C56.59 492.584 57.13 491.854 57.83 491.234C58.55 490.634 59.4 490.164 60.38 489.824C61.38 489.504 62.5 489.344 63.74 489.344C64.96 489.344 66.07 489.504 67.07 489.824C68.07 490.164 68.92 490.634 69.62 491.234C70.34 491.854 70.89 492.584 71.27 493.424C71.65 494.284 71.84 495.244 71.84 496.304C71.84 497.344 71.65 498.274 71.27 499.094C70.89 499.914 70.36 500.614 69.68 501.194C69.02 501.774 68.23 502.214 67.31 502.514C66.39 502.834 65.38 502.994 64.28 502.994H63.14L63.14 491.864H62.42C61.76 491.864 61.14 491.964 60.56 492.164C60 492.384 59.51 492.684 59.09 493.064C58.67 493.464 58.34 493.944 58.1 494.504C57.86 495.084 57.74 495.734 57.74 496.454C57.74 497.434 57.97 498.284 58.43 499.004C58.89 499.744 59.55 500.314 60.41 500.714L59.18 502.424C58.12 501.924 57.26 501.144 56.6 500.084C55.96 499.024 55.64 497.764 55.64 496.304ZM69.83 496.304C69.83 495.644 69.71 495.044 69.47 494.504C69.25 493.964 68.93 493.494 68.51 493.094C68.09 492.714 67.59 492.414 67.01 492.194C66.45 491.974 65.83 491.864 65.15 491.864H64.94L64.94 500.414H65.27C66.65 500.414 67.75 500.034 68.57 499.274C69.41 498.534 69.83 497.544 69.83 496.304ZM55.64 511.598C55.64 510.158 55.91 508.948 56.45 507.968C57.01 507.008 57.75 506.178 58.67 505.478L60.05 507.188C59.29 507.788 58.7 508.458 58.28 509.198C57.88 509.938 57.68 510.798 57.68 511.778C57.68 512.798 57.9 513.588 58.34 514.148C58.78 514.728 59.4 515.018 60.2 515.018C60.8 515.018 61.31 514.818 61.73 514.418C62.17 514.038 62.47 513.338 62.63 512.318L62.81 511.088C62.91 510.368 63.06 509.708 63.26 509.108C63.48 508.508 63.76 507.978 64.1 507.518C64.46 507.078 64.9 506.728 65.42 506.468C65.94 506.228 66.56 506.108 67.28 506.108C68.04 506.108 68.7 506.248 69.26 506.528C69.84 506.808 70.32 507.188 70.7 507.668C71.08 508.168 71.36 508.758 71.54 509.438C71.74 510.118 71.84 510.848 71.84 511.628C71.84 512.888 71.62 513.938 71.18 514.778C70.74 515.638 70.13 516.388 69.35 517.028L67.91 515.438C68.39 515.098 68.82 514.598 69.2 513.938C69.6 513.278 69.8 512.448 69.8 511.448C69.8 510.448 69.58 509.688 69.14 509.168C68.72 508.668 68.14 508.418 67.4 508.418C66.64 508.418 66.09 508.668 65.75 509.168C65.41 509.688 65.16 510.428 65 511.388L64.82 512.588C64.56 514.308 64.06 515.528 63.32 516.248C62.6 516.968 61.65 517.328 60.47 517.328C58.97 517.328 57.79 516.818 56.93 515.798C56.07 514.778 55.64 513.378 55.64 511.598Z" fill="#FCF9F8"/>
<defs>
<filter id="filter0_di_206_8" x="0" y="0" width="190" height="762" filterUnits="userSpaceOnUse" color-interpolation-filters="sRGB">
<feFlood flood-opacity="0" result="BackgroundImageFix"/>
<feColorMatrix in="SourceAlpha" type="matrix" values="0 0 0 0 0 0 0 0 0 0 0 0 0 0 0 0 0 0 127 0" result="hardAlpha"/>
<feMorphology radius="4" operator="dilate" in="SourceAlpha" result="effect1_dropShadow_206_8"/>
<feOffset dy="7"/>
<feGaussianBlur stdDeviation="17.5"/>
<feColorMatrix type="matrix" values="0 0 0 0 0.125542 0 0 0 0 0.119792 0 0 0 0 0.191667 0 0 0 0.2 0"/>
<feBlend mode="normal" in2="BackgroundImageFix" result="effect1_dropShadow_206_8"/>
<feBlend mode="normal" in="SourceGraphic" in2="effect1_dropShadow_206_8" result="shape"/>
<feColorMatrix in="SourceAlpha" type="matrix" values="0 0 0 0 0 0 0 0 0 0 0 0 0 0 0 0 0 0 127 0" result="hardAlpha"/>
<feOffset/>
<feGaussianBlur stdDeviation="5"/>
<feComposite in2="hardAlpha" operator="arithmetic" k2="-1" k3="1"/>
<feColorMatrix type="matrix" values="0 0 0 0 0.165625 0 0 0 0 0.1665 0 0 0 0 0.1875 0 0 0 0.25 0"/>
<feBlend mode="normal" in2="shape" result="effect2_innerShadow_206_8"/>
</filter>
<linearGradient id="paint0_linear_206_8" x1="39" y1="381.092" x2="54.5" y2="381.092" gradientUnits="userSpaceOnUse">
<stop offset="0.145833" stop-opacity="0"/>
<stop offset="0.48408" stop-color="#1A1D37" stop-opacity="0.35"/>
<stop offset="0.854167" stop-opacity="0"/>
</linearGradient>
<linearGradient id="paint1_linear_206_8" x1="138" y1="381.092" x2="153.5" y2="381.092" gradientUnits="userSpaceOnUse">
<stop offset="0.145833" stop-opacity="0"/>
<stop offset="0.48408" stop-color="#1A1D37" stop-opacity="0.35"/>
<stop offset="0.854167" stop-opacity="0"/>
</linearGradient>
</defs>
</svg>
