<svg width="119" height="621" viewBox="0 0 119 621" fill="none" xmlns="http://www.w3.org/2000/svg">
<g filter="url(#filter0_di_206_8)">
<rect x="39" y="32" width="41" height="543" rx="4" fill="#831B1E"/>
<rect x="39.25" y="32.25" width="40.5" height="542.5" rx="3.75" stroke="#787F8F" stroke-width="0.5"/>
</g>
<rect x="39" y="32" width="13" height="543" fill="url(#paint0_linear_206_8)" fill-opacity="0.29"/>
<rect x="67" y="32" width="13" height="543" fill="url(#paint1_linear_206_8)" fill-opacity="0.29"/>
<g filter="url(#filter1_d_206_8)">
<path d="M69.45 92.925V99.5C69.45 100.65 69.2667 101.7 68.9 102.65C68.5333 103.6 67.9833 104.408 67.25 105.075C66.5333 105.742 65.625 106.258 64.525 106.625C63.4417 106.992 62.175 107.175 60.725 107.175C59.275 107.175 58 106.992 56.9 106.625C55.8167 106.258 54.9083 105.742 54.175 105.075C53.4583 104.408 52.9167 103.6 52.55 102.65C52.1833 101.7 52 100.65 52 99.5V92.925L69.45 92.925ZM55.375 99.5C55.375 100.633 55.6917 101.525 56.325 102.175C56.9583 102.825 57.975 103.15 59.375 103.15H62.075C63.475 103.15 64.4917 102.825 65.125 102.175C65.7583 101.525 66.075 100.633 66.075 99.5V96.725H55.375V99.5ZM51.7 117.357C51.7 116.207 51.8917 115.157 52.275 114.207C52.6583 113.257 53.225 112.448 53.975 111.782C54.7417 111.115 55.6833 110.598 56.8 110.232C57.9333 109.865 59.2417 109.682 60.725 109.682C62.2083 109.682 63.5083 109.865 64.625 110.232C65.7583 110.598 66.7 111.115 67.45 111.782C68.2167 112.448 68.7917 113.257 69.175 114.207C69.5583 115.157 69.75 116.207 69.75 117.357C69.75 118.507 69.5583 119.557 69.175 120.507C68.7917 121.457 68.2167 122.265 67.45 122.932C66.7 123.598 65.7583 124.115 64.625 124.482C63.5083 124.848 62.2083 125.032 60.725 125.032C59.2417 125.032 57.9333 124.848 56.8 124.482C55.6833 124.115 54.7417 123.598 53.975 122.932C53.225 122.265 52.6583 121.457 52.275 120.507C51.8917 119.557 51.7 118.507 51.7 117.357ZM55.075 117.357C55.075 118.507 55.45 119.398 56.2 120.032C56.95 120.682 58.025 121.007 59.425 121.007H62.025C63.425 121.007 64.5 120.682 65.25 120.032C66 119.398 66.375 118.507 66.375 117.357C66.375 116.207 66 115.307 65.25 114.657C64.5 114.023 63.425 113.707 62.025 113.707H59.425C58.025 113.707 56.95 114.023 56.2 114.657C55.45 115.307 55.075 116.207 55.075 117.357ZM60.25 133.528L63.75 131.853V131.778H52V128.203H69.45V132.353L61.2 137.128L57.7 138.803V138.878H69.45L69.45 142.453H52V138.303L60.25 133.528ZM70.75 148.169C70.75 148.919 70.575 149.461 70.225 149.794C69.8917 150.144 69.4667 150.319 68.95 150.319H68.425C67.9417 150.319 67.45 150.244 66.95 150.094C66.4667 149.961 66 149.769 65.55 149.519C65.1 149.286 64.675 149.002 64.275 148.669C63.8917 148.336 63.55 147.977 63.25 147.594V145.269C63.75 145.819 64.2583 146.286 64.775 146.669C65.2917 147.069 65.8667 147.369 66.5 147.569C66.6 147.036 66.8167 146.644 67.15 146.394C67.5 146.144 67.8917 146.019 68.325 146.019H68.95C69.4667 146.019 69.8917 146.186 70.225 146.519C70.575 146.869 70.75 147.419 70.75 148.169ZM66.075 161.308H52V157.508H66.075V152.783H69.45V166.033H66.075V161.308ZM63.45 187.591V187.516L60.9 186.241L54.725 182.841L60.875 179.516L63.625 178.191V178.116H52L52 174.541H69.45V178.566L61.275 182.841V182.891L69.45 187.116V191.166H52V187.591H63.45ZM52 205.775L56.15 204.525L56.15 198.7L52 197.45V193.6L69.45 199.35V204.05L52 209.725V205.775ZM66 201.65V201.525L59.375 199.6L59.375 203.6L66 201.65ZM59.6 218.214L56.85 215.939H52V212.139H69.45V215.939H61.15V216.089L64.525 218.564L69.45 222.489V226.789L62.275 220.914L52 227.314V222.839L59.6 218.214ZM52 229.546H69.45L69.45 241.421H66.075L66.075 233.346H62.5L62.5 240.271H59.15L59.15 233.346H55.375L55.375 241.421H52L52 229.546ZM63.45 263.69V263.615L60.9 262.34L54.725 258.94L60.875 255.615L63.625 254.29V254.215H52V250.64H69.45V254.665L61.275 258.94V258.99L69.45 263.215V267.265H52V263.69H63.45ZM52 271.123H69.45L69.45 282.998H66.075V274.923H62.5L62.5 281.848H59.15L59.15 274.923H55.375L55.375 282.998H52L52 271.123ZM66.075 299.492H52V295.692H66.075V290.967H69.45V304.217H66.075V299.492ZM59.15 317.267L59.15 310.617H52V306.817H69.45V310.617H62.5L62.5 317.267H69.45V321.067H52V317.267H59.15ZM52 324.232H55.025V326.482H66.425V324.232H69.45V332.532H66.425V330.282H55.025V332.532H52V324.232ZM60.25 341.023L63.75 339.348V339.273H52V335.698H69.45L69.45 339.848L61.2 344.623L57.7 346.298V346.373H69.45V349.948H52V345.798L60.25 341.023ZM59.6 359.864L56.85 357.589H52V353.789H69.45V357.589H61.15V357.739L64.525 360.214L69.45 364.139V368.439L62.275 362.564L52 368.964L52 364.489L59.6 359.864Z" fill="white"/>
<path d="M57.6641 382.748C57.8757 382.65 58.0465 382.569 58.1768 382.504C58.307 382.455 58.4616 382.431 58.6406 382.431C58.7871 382.431 58.9173 382.447 59.0312 382.479C59.1615 382.528 59.2998 382.553 59.4463 382.553C59.8044 382.553 60.138 382.536 60.4473 382.504C60.7565 382.488 61.0983 382.463 61.4727 382.431C61.5215 382.414 61.5622 382.357 61.5947 382.26C61.6273 382.162 61.668 382.056 61.7168 381.942C61.7819 381.828 61.8714 381.723 61.9854 381.625C62.0993 381.544 62.262 381.503 62.4736 381.503C62.6689 381.503 62.8317 381.544 62.9619 381.625C63.1084 381.723 63.2386 381.82 63.3525 381.918C63.4827 382.016 63.613 382.105 63.7432 382.187C63.8896 382.284 64.0605 382.333 64.2559 382.333C64.3372 382.333 64.4837 382.325 64.6953 382.309C64.9232 382.292 65.1592 382.276 65.4033 382.26C65.6475 382.26 65.8753 382.252 66.0869 382.235C66.3148 382.235 66.4694 382.235 66.5508 382.235H66.5996H66.6484C66.7949 382.3 66.917 382.349 67.0146 382.382C67.1123 382.431 67.1855 382.479 67.2344 382.528C67.2832 382.577 67.3158 382.642 67.332 382.724C67.3646 382.805 67.3809 382.911 67.3809 383.041C67.3809 383.383 67.3158 383.635 67.1855 383.798C67.0553 383.961 66.9007 384.075 66.7217 384.14C66.5589 384.205 66.4043 384.245 66.2578 384.262C66.1113 384.278 66.0299 384.319 66.0137 384.384L67.5518 386.142V386.239C67.9261 386.809 68.2109 387.411 68.4062 388.046C68.6178 388.681 68.7236 389.348 68.7236 390.048C68.7236 390.259 68.6992 390.512 68.6504 390.805C68.6016 391.114 68.512 391.399 68.3818 391.659C68.2679 391.936 68.1133 392.164 67.918 392.343C67.7227 392.538 67.4785 392.636 67.1855 392.636C66.86 392.636 66.5264 392.595 66.1846 392.514C65.8428 392.432 65.501 392.318 65.1592 392.172C64.8337 392.042 64.5163 391.879 64.207 391.684C63.9141 391.505 63.6618 391.309 63.4502 391.098C63.2712 391.016 62.8154 390.495 62.083 389.535C61.3506 388.575 60.2601 387.143 58.8115 385.238L58.0791 396.957C58.0628 397.12 58.0465 397.34 58.0303 397.616C58.0303 397.909 58.0059 398.186 57.957 398.446C57.9082 398.723 57.8105 398.959 57.6641 399.154C57.5339 399.35 57.3304 399.447 57.0537 399.447C56.9072 399.447 56.7852 399.423 56.6875 399.374C56.6061 399.341 56.5329 399.293 56.4678 399.228C56.4189 399.179 56.3701 399.114 56.3213 399.032C56.2725 398.967 56.2074 398.902 56.126 398.837V398.422V398.007C56.1585 397.681 56.1992 397.34 56.248 396.981C56.2969 396.64 56.3538 396.233 56.4189 395.761C56.484 395.305 56.5492 394.768 56.6143 394.149C56.6794 393.531 56.7363 392.79 56.7852 391.928C56.834 391.065 56.8747 390.056 56.9072 388.9C56.9398 387.761 56.9561 386.435 56.9561 384.921C56.9561 384.905 56.9316 384.88 56.8828 384.848C56.834 384.831 56.7933 384.823 56.7607 384.823C56.1423 384.823 55.5319 384.872 54.9297 384.97C54.3437 385.084 53.7578 385.141 53.1719 385.141C53.0579 385.141 52.9277 385.124 52.7812 385.092C52.651 385.076 52.5208 385.035 52.3906 384.97C52.2767 384.905 52.179 384.823 52.0977 384.726C52.0163 384.628 51.9756 384.506 51.9756 384.359C51.9756 384.262 51.9919 384.148 52.0244 384.018C52.0732 383.887 52.1383 383.757 52.2197 383.627C52.3011 383.513 52.3906 383.407 52.4883 383.31C52.5859 383.212 52.6999 383.155 52.8301 383.139L57.6641 382.748ZM63.0596 384.384C62.6527 384.384 62.2702 384.392 61.9121 384.408C61.554 384.424 61.1634 384.449 60.7402 384.481V384.555C60.7402 384.571 60.7565 384.612 60.7891 384.677C60.8216 384.742 60.9193 384.905 61.082 385.165C61.2611 385.425 61.5296 385.824 61.8877 386.361C62.262 386.898 62.7829 387.655 63.4502 388.632C63.5641 388.827 63.7594 389.039 64.0361 389.267C64.3128 389.494 64.6139 389.706 64.9395 389.901C65.265 390.097 65.5824 390.259 65.8916 390.39C66.2171 390.52 66.4857 390.585 66.6973 390.585C66.86 390.585 66.9414 390.504 66.9414 390.341C66.9414 390.194 66.9414 390.064 66.9414 389.95C66.9414 389.706 66.9007 389.429 66.8193 389.12C66.738 388.811 66.5752 388.437 66.3311 387.997C66.0869 387.574 65.737 387.061 65.2812 386.459C64.8255 385.873 64.2152 385.181 63.4502 384.384H63.0596ZM58.9336 410.409C58.6406 410.377 58.4128 410.336 58.25 410.287C58.0872 410.255 57.9408 410.189 57.8105 410.092C57.6803 409.994 57.542 409.856 57.3955 409.677C57.2653 409.498 57.07 409.254 56.8096 408.944C56.5654 408.635 56.2399 408.253 55.833 407.797C55.4261 407.341 54.8971 406.788 54.2461 406.137C54.002 405.876 53.7497 405.608 53.4893 405.331C53.2288 405.054 52.9928 404.761 52.7812 404.452C52.5859 404.159 52.4232 403.85 52.293 403.524C52.1628 403.199 52.0977 402.857 52.0977 402.499C52.0977 401.799 52.3337 401.286 52.8057 400.961C53.2777 400.635 53.8229 400.473 54.4414 400.473C54.8483 400.473 55.1901 400.481 55.4668 400.497C55.7435 400.53 56.1016 400.595 56.541 400.692C56.7038 400.513 56.8421 400.359 56.9561 400.229C57.0863 400.098 57.2572 400.033 57.4687 400.033C57.6641 400.033 57.7943 400.074 57.8594 400.155C57.9245 400.253 57.9652 400.359 57.9814 400.473C58.014 400.603 58.0465 400.725 58.0791 400.839C58.1117 400.953 58.1768 401.034 58.2744 401.083C58.3721 401.116 58.5511 401.173 58.8115 401.254C59.0719 401.352 59.3405 401.449 59.6172 401.547C59.9102 401.645 60.1787 401.734 60.4229 401.815C60.6833 401.913 60.8623 401.978 60.96 402.011C61.2367 402.125 61.5133 402.247 61.79 402.377C62.083 402.523 62.3434 402.686 62.5713 402.865C62.7992 403.061 62.9863 403.28 63.1328 403.524C63.2793 403.785 63.3525 404.086 63.3525 404.428C63.3525 404.623 63.263 404.859 63.084 405.136C62.9049 405.429 62.6852 405.705 62.4248 405.966C62.1807 406.226 61.9202 406.446 61.6436 406.625C61.3669 406.804 61.1309 406.894 60.9355 406.894C60.6914 406.894 60.4635 406.837 60.252 406.723C60.0566 406.609 59.8695 406.462 59.6904 406.283C59.5277 406.12 59.373 405.941 59.2266 405.746C59.0801 405.551 58.9417 405.372 58.8115 405.209C58.8115 405.193 58.7952 405.16 58.7627 405.111C58.7301 405.062 58.7057 405.022 58.6895 404.989C58.6732 404.973 58.6325 404.932 58.5674 404.867C58.5186 404.818 58.4616 404.761 58.3965 404.696C58.3314 404.631 58.2663 404.566 58.2012 404.501C58.1361 404.452 58.0954 404.42 58.0791 404.403C58.0303 404.354 57.9489 404.257 57.835 404.11C57.7373 403.98 57.6234 403.834 57.4932 403.671C57.3792 403.508 57.2653 403.354 57.1514 403.207C57.0537 403.077 56.9886 402.987 56.9561 402.938L56.7607 402.841C56.6956 402.808 56.5492 402.776 56.3213 402.743C56.1097 402.727 55.8656 402.702 55.5889 402.67C55.3122 402.637 55.0273 402.605 54.7344 402.572C54.4577 402.556 54.2298 402.548 54.0508 402.548C54.0345 402.548 54.0182 402.556 54.002 402.572C53.9694 402.605 53.9531 402.629 53.9531 402.646C53.9531 402.776 54.0101 402.898 54.124 403.012C54.238 403.126 54.3193 403.248 54.3682 403.378L57.9814 407.284L59.5195 408.285C59.6335 408.367 59.7555 408.521 59.8857 408.749C60.0322 408.993 60.1055 409.237 60.1055 409.481C60.1217 409.726 60.0485 409.937 59.8857 410.116C59.723 410.312 59.4056 410.409 58.9336 410.409ZM60.8379 405.038C60.903 405.119 61.0007 405.152 61.1309 405.136C61.2611 405.119 61.375 405.071 61.4727 404.989C61.5703 404.924 61.6273 404.835 61.6436 404.721C61.6761 404.607 61.6191 404.501 61.4727 404.403C61.4076 404.354 61.2773 404.265 61.082 404.135C60.8867 404.021 60.6833 403.899 60.4717 403.769C60.2764 403.655 60.1055 403.557 59.959 403.476C59.8125 403.394 59.7555 403.378 59.7881 403.427L60.8379 405.038ZM55.4912 413.607L62.0098 410.922C62.026 410.906 62.0423 410.897 62.0586 410.897H62.1562C62.3027 410.897 62.4248 410.938 62.5225 411.02C62.6364 411.117 62.734 411.231 62.8154 411.361C62.8154 411.394 62.8154 411.459 62.8154 411.557C62.8317 411.654 62.8398 411.719 62.8398 411.752C62.8398 412.061 62.791 412.281 62.6934 412.411C62.5957 412.558 62.4655 412.745 62.3027 412.973C62.0586 413.038 61.8063 413.119 61.5459 413.217C61.2855 413.331 60.9518 413.461 60.5449 413.607C60.1543 413.77 59.6579 413.974 59.0557 414.218C58.4535 414.462 57.6885 414.771 56.7607 415.146L56.6387 415.268C56.7201 415.316 56.8258 415.357 56.9561 415.39C57.0863 415.438 57.3141 415.512 57.6396 415.609C57.9652 415.723 58.4372 415.878 59.0557 416.073C59.6742 416.269 60.5124 416.545 61.5703 416.903C61.7819 417.034 62.026 417.123 62.3027 417.172C62.5794 417.221 62.8398 417.278 63.084 417.343C63.3281 417.408 63.5316 417.506 63.6943 417.636C63.8571 417.782 63.9385 418.002 63.9385 418.295C63.9385 418.572 63.8245 418.84 63.5967 419.101C63.3851 419.361 63.1247 419.491 62.8154 419.491C62.6689 419.491 62.5062 419.442 62.3271 419.345C62.1644 419.247 62.026 419.149 61.9121 419.052L52 416.073V415.927C52 415.862 52.0081 415.764 52.0244 415.634C52.0407 415.52 52.0651 415.398 52.0977 415.268C52.1465 415.137 52.1953 415.023 52.2441 414.926C52.293 414.828 52.3499 414.771 52.415 414.755L55.3936 413.607H55.4912ZM52.9277 421.688C54.5553 421.526 55.9469 421.387 57.1025 421.273C58.2581 421.16 59.2266 421.062 60.0078 420.98C60.7891 420.899 61.4076 420.826 61.8633 420.761C62.3353 420.712 62.6852 420.671 62.9131 420.639C63.1572 420.606 63.32 420.582 63.4014 420.565C63.4827 420.549 63.5316 420.541 63.5479 420.541H63.6455C63.8245 420.541 63.971 420.614 64.085 420.761C64.2152 420.924 64.2803 421.086 64.2803 421.249C64.2803 421.493 64.2396 421.754 64.1582 422.03C64.0768 422.323 63.9059 422.519 63.6455 422.616C62.848 422.763 62.0423 422.86 61.2285 422.909C60.4147 422.974 59.6009 423.023 58.7871 423.056C57.9896 423.104 57.1839 423.161 56.3701 423.227C55.5563 423.308 54.7507 423.446 53.9531 423.642C53.9206 423.642 53.8555 423.65 53.7578 423.666C53.6602 423.699 53.5544 423.723 53.4404 423.739C53.3265 423.772 53.2207 423.796 53.123 423.812C53.0254 423.829 52.9603 423.837 52.9277 423.837H52.8789C52.8626 423.837 52.8464 423.845 52.8301 423.861C52.6348 423.861 52.4395 423.772 52.2441 423.593C52.0488 423.414 51.9674 423.227 52 423.031C52.0163 422.982 52.0407 422.86 52.0732 422.665C52.1221 422.486 52.1628 422.364 52.1953 422.299C52.2116 422.25 52.2441 422.185 52.293 422.104C52.3581 422.022 52.4232 421.941 52.4883 421.859C52.5534 421.794 52.6266 421.737 52.708 421.688C52.7894 421.64 52.8626 421.64 52.9277 421.688ZM70.7256 420.321C70.8395 420.321 70.9372 420.411 71.0186 420.59C71.1162 420.785 71.165 420.932 71.165 421.029C71.165 421.273 71.0918 421.542 70.9453 421.835C70.8151 422.144 70.6117 422.299 70.335 422.299C70.0583 422.299 69.8711 422.258 69.7734 422.177C69.6758 422.112 69.627 421.941 69.627 421.664C69.627 421.371 69.7246 421.07 69.9199 420.761C70.1152 420.468 70.3838 420.321 70.7256 420.321ZM52.9277 428.451C53.0091 428.451 53.0824 428.451 53.1475 428.451C53.2126 428.467 53.2777 428.508 53.3428 428.573C53.5869 428.769 53.8392 428.988 54.0996 429.232C54.3763 429.477 54.6449 429.713 54.9053 429.94C55.182 430.168 55.4668 430.38 55.7598 430.575C56.0527 430.771 56.3457 430.933 56.6387 431.063H56.7852L56.126 427.865V427.499C56.126 427.271 56.1423 426.986 56.1748 426.645C56.2074 426.319 56.2725 425.993 56.3701 425.668C56.484 425.359 56.6387 425.09 56.834 424.862C57.0293 424.651 57.2897 424.545 57.6152 424.545C57.9896 424.561 58.4046 424.757 58.8604 425.131C59.3161 425.505 59.7637 425.945 60.2031 426.449C60.6426 426.954 61.0495 427.458 61.4238 427.963C61.7982 428.484 62.0911 428.899 62.3027 429.208C62.498 429.55 62.6527 429.957 62.7666 430.429C62.8968 430.901 62.9619 431.332 62.9619 431.723C62.9619 432.048 62.8968 432.333 62.7666 432.577C62.6527 432.821 62.4167 432.943 62.0586 432.943C61.9121 432.943 61.7738 432.927 61.6436 432.895C61.5133 432.878 61.4238 432.781 61.375 432.602C61.4238 432.081 61.3831 431.592 61.2529 431.137C61.139 430.681 60.96 430.25 60.7158 429.843C60.4717 429.436 60.1787 429.053 59.8369 428.695C59.5114 428.337 59.1696 427.987 58.8115 427.646C58.6976 427.548 58.5348 427.426 58.3232 427.279C58.1279 427.133 58.014 427.06 57.9814 427.06H57.957C57.957 427.483 57.9977 427.898 58.0791 428.305C58.1605 428.728 58.2419 429.143 58.3232 429.55C58.4209 429.973 58.5104 430.388 58.5918 430.795C58.6732 431.218 58.7139 431.649 58.7139 432.089C58.7139 432.252 58.6976 432.431 58.665 432.626C58.6488 432.821 58.5999 433 58.5186 433.163C58.4372 433.342 58.3232 433.48 58.1768 433.578C58.0465 433.692 57.8757 433.749 57.6641 433.749C57.3548 433.749 57.0537 433.668 56.7607 433.505C56.484 433.358 56.1423 433.131 55.7354 432.821C55.3447 432.528 54.8646 432.146 54.2949 431.674C53.7253 431.218 52.9928 430.673 52.0977 430.038C52.0488 430.006 52.0163 429.924 52 429.794C51.9837 429.68 51.9756 429.582 51.9756 429.501C51.9756 429.273 52.0732 429.037 52.2686 428.793C52.4639 428.565 52.6836 428.451 52.9277 428.451ZM52.9277 435.971C54.5553 435.808 55.9469 435.67 57.1025 435.556C58.2581 435.442 59.2266 435.344 60.0078 435.263C60.7891 435.181 61.4076 435.108 61.8633 435.043C62.3353 434.994 62.6852 434.953 62.9131 434.921C63.1572 434.888 63.32 434.864 63.4014 434.848C63.4827 434.831 63.5316 434.823 63.5479 434.823H63.6455C63.8245 434.823 63.971 434.896 64.085 435.043C64.2152 435.206 64.2803 435.368 64.2803 435.531C64.2803 435.775 64.2396 436.036 64.1582 436.312C64.0768 436.605 63.9059 436.801 63.6455 436.898C62.848 437.045 62.0423 437.143 61.2285 437.191C60.4147 437.257 59.6009 437.305 58.7871 437.338C57.9896 437.387 57.1839 437.444 56.3701 437.509C55.5563 437.59 54.7507 437.729 53.9531 437.924C53.9206 437.924 53.8555 437.932 53.7578 437.948C53.6602 437.981 53.5544 438.005 53.4404 438.021C53.3265 438.054 53.2207 438.078 53.123 438.095C53.0254 438.111 52.9603 438.119 52.9277 438.119H52.8789C52.8626 438.119 52.8464 438.127 52.8301 438.144C52.6348 438.144 52.4395 438.054 52.2441 437.875C52.0488 437.696 51.9674 437.509 52 437.313C52.0163 437.265 52.0407 437.143 52.0732 436.947C52.1221 436.768 52.1628 436.646 52.1953 436.581C52.2116 436.532 52.2441 436.467 52.293 436.386C52.3581 436.304 52.4232 436.223 52.4883 436.142C52.5534 436.076 52.6266 436.02 52.708 435.971C52.7894 435.922 52.8626 435.922 52.9277 435.971ZM70.7256 434.604C70.8395 434.604 70.9372 434.693 71.0186 434.872C71.1162 435.067 71.165 435.214 71.165 435.312C71.165 435.556 71.0918 435.824 70.9453 436.117C70.8151 436.426 70.6117 436.581 70.335 436.581C70.0583 436.581 69.8711 436.54 69.7734 436.459C69.6758 436.394 69.627 436.223 69.627 435.946C69.627 435.653 69.7246 435.352 69.9199 435.043C70.1152 434.75 70.3838 434.604 70.7256 434.604ZM59.1289 441.391C59.1289 441.163 59.0719 440.959 58.958 440.78C58.8441 440.601 58.7871 440.39 58.7871 440.146C58.7871 440.113 58.7871 440.023 58.7871 439.877C58.8034 439.747 58.8115 439.665 58.8115 439.633C58.8929 439.568 58.958 439.494 59.0068 439.413C59.0557 439.332 59.1045 439.25 59.1533 439.169C59.2184 439.088 59.2917 439.014 59.373 438.949C59.4544 438.9 59.5684 438.876 59.7148 438.876C59.959 438.876 60.1543 438.974 60.3008 439.169C60.4635 439.364 60.6019 439.592 60.7158 439.853C60.8298 440.113 60.9355 440.373 61.0332 440.634C61.1309 440.91 61.2448 441.13 61.375 441.293H62.4492C63.6536 441.293 64.8581 441.236 66.0625 441.122C67.2832 441.008 68.4876 440.951 69.6758 440.951C70.0013 440.951 70.2129 441.033 70.3105 441.195C70.4082 441.358 70.457 441.578 70.457 441.854C70.457 442.18 70.3594 442.416 70.1641 442.562C69.985 442.725 69.7572 442.839 69.4805 442.904C69.2201 442.969 68.9352 443.002 68.626 443.002C68.333 443.002 68.0807 443.01 67.8691 443.026C67.6576 443.026 67.2832 443.043 66.7461 443.075C66.209 443.108 65.6393 443.14 65.0371 443.173C64.4349 443.205 63.8652 443.238 63.3281 443.271C62.791 443.303 62.4167 443.327 62.2051 443.344C62.2214 443.409 62.262 443.531 62.3271 443.71C62.4085 443.905 62.4818 444.109 62.5469 444.32C62.6283 444.532 62.7015 444.727 62.7666 444.906C62.8317 445.102 62.8805 445.24 62.9131 445.321C63.0921 445.744 63.2874 446.184 63.499 446.64C63.7269 447.095 63.8408 447.559 63.8408 448.031C63.8408 448.357 63.7269 448.601 63.499 448.764C63.2874 448.943 63.0352 449.032 62.7422 449.032C62.5306 449.032 62.376 448.951 62.2783 448.788C62.1807 448.625 62.0911 448.454 62.0098 448.275L60.3496 443.832C60.3171 443.783 60.2845 443.734 60.252 443.686C60.2357 443.637 60.2031 443.588 60.1543 443.539H59.373C58.8034 443.539 58.2093 443.547 57.5908 443.563C56.9886 443.596 56.4027 443.653 55.833 443.734C55.3447 443.816 54.8646 443.905 54.3926 444.003C53.9206 444.101 53.4404 444.149 52.9521 444.149C52.8057 444.149 52.6104 444.101 52.3662 444.003C52.1221 443.905 52 443.751 52 443.539C52 443.1 52.1302 442.742 52.3906 442.465C52.651 442.188 53.001 442.034 53.4404 442.001C54.2868 441.92 55.2145 441.83 56.2236 441.732C57.2327 441.651 58.2012 441.57 59.1289 441.488V441.391ZM58.9336 460.019C58.6406 459.986 58.4128 459.945 58.25 459.896C58.0872 459.864 57.9408 459.799 57.8105 459.701C57.6803 459.604 57.542 459.465 57.3955 459.286C57.2653 459.107 57.07 458.863 56.8096 458.554C56.5654 458.244 56.2399 457.862 55.833 457.406C55.4261 456.951 54.8971 456.397 54.2461 455.746C54.002 455.486 53.7497 455.217 53.4893 454.94C53.2288 454.664 52.9928 454.371 52.7812 454.062C52.5859 453.769 52.4232 453.459 52.293 453.134C52.1628 452.808 52.0977 452.466 52.0977 452.108C52.0977 451.409 52.3337 450.896 52.8057 450.57C53.2777 450.245 53.8229 450.082 54.4414 450.082C54.8483 450.082 55.1901 450.09 55.4668 450.106C55.7435 450.139 56.1016 450.204 56.541 450.302C56.7038 450.123 56.8421 449.968 56.9561 449.838C57.0863 449.708 57.2572 449.643 57.4687 449.643C57.6641 449.643 57.7943 449.683 57.8594 449.765C57.9245 449.862 57.9652 449.968 57.9814 450.082C58.014 450.212 58.0465 450.334 58.0791 450.448C58.1117 450.562 58.1768 450.644 58.2744 450.692C58.3721 450.725 58.5511 450.782 58.8115 450.863C59.0719 450.961 59.3405 451.059 59.6172 451.156C59.9102 451.254 60.1787 451.343 60.4229 451.425C60.6833 451.522 60.8623 451.588 60.96 451.62C61.2367 451.734 61.5133 451.856 61.79 451.986C62.083 452.133 62.3434 452.296 62.5713 452.475C62.7992 452.67 62.9863 452.89 63.1328 453.134C63.2793 453.394 63.3525 453.695 63.3525 454.037C63.3525 454.232 63.263 454.468 63.084 454.745C62.9049 455.038 62.6852 455.315 62.4248 455.575C62.1807 455.836 61.9202 456.055 61.6436 456.234C61.3669 456.413 61.1309 456.503 60.9355 456.503C60.6914 456.503 60.4635 456.446 60.252 456.332C60.0566 456.218 59.8695 456.072 59.6904 455.893C59.5277 455.73 59.373 455.551 59.2266 455.355C59.0801 455.16 58.9417 454.981 58.8115 454.818C58.8115 454.802 58.7952 454.77 58.7627 454.721C58.7301 454.672 58.7057 454.631 58.6895 454.599C58.6732 454.582 58.6325 454.542 58.5674 454.477C58.5186 454.428 58.4616 454.371 58.3965 454.306C58.3314 454.241 58.2663 454.175 58.2012 454.11C58.1361 454.062 58.0954 454.029 58.0791 454.013C58.0303 453.964 57.9489 453.866 57.835 453.72C57.7373 453.59 57.6234 453.443 57.4932 453.28C57.3792 453.118 57.2653 452.963 57.1514 452.816C57.0537 452.686 56.9886 452.597 56.9561 452.548L56.7607 452.45C56.6956 452.418 56.5492 452.385 56.3213 452.353C56.1097 452.336 55.8656 452.312 55.5889 452.279C55.3122 452.247 55.0273 452.214 54.7344 452.182C54.4577 452.165 54.2298 452.157 54.0508 452.157C54.0345 452.157 54.0182 452.165 54.002 452.182C53.9694 452.214 53.9531 452.239 53.9531 452.255C53.9531 452.385 54.0101 452.507 54.124 452.621C54.238 452.735 54.3193 452.857 54.3682 452.987L57.9814 456.894L59.5195 457.895C59.6335 457.976 59.7555 458.131 59.8857 458.358C60.0322 458.603 60.1055 458.847 60.1055 459.091C60.1217 459.335 60.0485 459.547 59.8857 459.726C59.723 459.921 59.4056 460.019 58.9336 460.019ZM60.8379 454.647C60.903 454.729 61.0007 454.761 61.1309 454.745C61.2611 454.729 61.375 454.68 61.4727 454.599C61.5703 454.534 61.6273 454.444 61.6436 454.33C61.6761 454.216 61.6191 454.11 61.4727 454.013C61.4076 453.964 61.2773 453.874 61.082 453.744C60.8867 453.63 60.6833 453.508 60.4717 453.378C60.2764 453.264 60.1055 453.166 59.959 453.085C59.8125 453.004 59.7555 452.987 59.7881 453.036L60.8379 454.647ZM55.8574 466.806C55.8574 466.789 55.6784 466.675 55.3203 466.464C54.9622 466.269 54.5716 466 54.1484 465.658C53.7253 465.316 53.3346 464.91 52.9766 464.438C52.6185 463.982 52.4395 463.493 52.4395 462.973C52.4395 462.257 52.6592 461.654 53.0986 461.166C53.5381 460.694 54.1403 460.458 54.9053 460.458C55.2959 460.425 55.7598 460.474 56.2969 460.604C56.834 460.751 57.3874 460.954 57.957 461.215C58.543 461.492 59.1045 461.817 59.6416 462.191C60.195 462.582 60.667 462.997 61.0576 463.437C61.4645 463.876 61.7656 464.332 61.9609 464.804C62.1562 465.292 62.1888 465.78 62.0586 466.269H62.4004C62.8236 466.269 63.2549 466.252 63.6943 466.22C64.1501 466.203 64.6628 466.179 65.2324 466.146C65.8184 466.13 66.4857 466.106 67.2344 466.073C67.9993 466.057 68.9108 466.049 69.9687 466.049C70.1478 466.098 70.2617 466.179 70.3105 466.293C70.3757 466.423 70.4082 466.562 70.4082 466.708C70.4082 467.082 70.2861 467.375 70.042 467.587C69.7979 467.815 69.4967 467.953 69.1387 468.002C68.5853 467.969 68.0156 467.953 67.4297 467.953C66.86 467.969 66.209 468.002 65.4766 468.051C64.7441 468.1 63.9141 468.173 62.9863 468.271C62.0586 468.384 60.96 468.523 59.6904 468.686C58.4372 468.848 56.9886 469.044 55.3447 469.271C53.7171 469.499 51.8291 469.768 49.6807 470.077H48.8506C48.7529 470.077 48.6797 470.036 48.6309 469.955C48.582 469.89 48.5495 469.8 48.5332 469.687C48.5007 469.589 48.4844 469.483 48.4844 469.369C48.4681 469.271 48.46 469.198 48.46 469.149C48.46 468.905 48.5332 468.645 48.6797 468.368C48.8099 468.091 48.9971 467.929 49.2412 467.88L55.7598 466.977C55.8086 466.977 55.833 466.952 55.833 466.903C55.8493 466.871 55.8574 466.838 55.8574 466.806ZM55.3203 462.509C55.2715 462.509 55.182 462.501 55.0518 462.484C54.9378 462.484 54.8158 462.484 54.6855 462.484C54.5553 462.501 54.4414 462.525 54.3437 462.558C54.2461 462.59 54.1973 462.655 54.1973 462.753C54.181 463.16 54.3356 463.575 54.6611 463.998C54.9867 464.438 55.3854 464.836 55.8574 465.194C56.3457 465.552 56.8665 465.845 57.4199 466.073C57.9733 466.317 58.4697 466.448 58.9092 466.464C59.3486 466.496 59.6823 466.391 59.9102 466.146C60.1543 465.919 60.2113 465.52 60.0811 464.95C59.4626 464.25 58.7546 463.664 57.957 463.192C57.1595 462.737 56.2806 462.509 55.3203 462.509Z" fill="#F7D009"/>
</g>
<defs>
<filter id="filter0_di_206_8" x="0" y="0" width="119" height="621" filterUnits="userSpaceOnUse" color-interpolation-filters="sRGB">
<feFlood flood-opacity="0" result="BackgroundImageFix"/>
<feColorMatrix in="SourceAlpha" type="matrix" values="0 0 0 0 0 0 0 0 0 0 0 0 0 0 0 0 0 0 127 0" result="hardAlpha"/>
<feMorphology radius="4" operator="dilate" in="SourceAlpha" result="effect1_dropShadow_206_8"/>
<feOffset dy="7"/>
<feGaussianBlur stdDeviation="17.5"/>
<feColorMatrix type="matrix" values="0 0 0 0 0.125542 0 0 0 0 0.119792 0 0 0 0 0.191667 0 0 0 0.2 0"/>
<feBlend mode="normal" in2="BackgroundImageFix" result="effect1_dropShadow_206_8"/>
<feBlend mode="normal" in="SourceGraphic" in2="effect1_dropShadow_206_8" result="shape"/>
<feColorMatrix in="SourceAlpha" type="matrix" values="0 0 0 0 0 0 0 0 0 0 0 0 0 0 0 0 0 0 127 0" result="hardAlpha"/>
<feOffset/>
<feGaussianBlur stdDeviation="5"/>
<feComposite in2="hardAlpha" operator="arithmetic" k2="-1" k3="1"/>
<feColorMatrix type="matrix" values="0 0 0 0 0.165625 0 0 0 0 0.1665 0 0 0 0 0.1875 0 0 0 0.25 0"/>
<feBlend mode="normal" in2="shape" result="effect2_innerShadow_206_8"/>
</filter>
<filter id="filter1_d_206_8" x="44.46" y="92.925" width="30.7051" height="385.152" filterUnits="userSpaceOnUse" color-interpolation-filters="sRGB">
<feFlood flood-opacity="0" result="BackgroundImageFix"/>
<feColorMatrix in="SourceAlpha" type="matrix" values="0 0 0 0 0 0 0 0 0 0 0 0 0 0 0 0 0 0 127 0" result="hardAlpha"/>
<feOffset dy="4"/>
<feGaussianBlur stdDeviation="2"/>
<feComposite in2="hardAlpha" operator="out"/>
<feColorMatrix type="matrix" values="0 0 0 0 0 0 0 0 0 0 0 0 0 0 0 0 0 0 0.25 0"/>
<feBlend mode="normal" in2="BackgroundImageFix" result="effect1_dropShadow_206_8"/>
<feBlend mode="normal" in="SourceGraphic" in2="effect1_dropShadow_206_8" result="shape"/>
</filter>
<linearGradient id="paint0_linear_206_8" x1="39" y1="309.13" x2="54.5" y2="309.13" gradientUnits="userSpaceOnUse">
<stop offset="0.145833" stop-opacity="0"/>
<stop offset="0.48408" stop-color="#1A1D37" stop-opacity="0.35"/>
<stop offset="0.854167" stop-opacity="0"/>
</linearGradient>
<linearGradient id="paint1_linear_206_8" x1="67" y1="309.13" x2="82.5" y2="309.13" gradientUnits="userSpaceOnUse">
<stop offset="0.145833" stop-opacity="0"/>
<stop offset="0.48408" stop-color="#1A1D37" stop-opacity="0.35"/>
<stop offset="0.854167" stop-opacity="0"/>
</linearGradient>
</defs>
</svg>
