<svg width="120" height="486" viewBox="0 0 120 486" fill="none" xmlns="http://www.w3.org/2000/svg">
<g filter="url(#filter0_di_206_8)">
<rect x="39" y="32" width="42" height="408" rx="4" fill="#53515B"/>
<rect x="39.25" y="32.25" width="41.5" height="407.5" rx="3.75" stroke="#787F8F" stroke-width="0.5"/>
</g>
<rect x="39" y="32" width="13" height="408" fill="url(#paint0_linear_206_8)" fill-opacity="0.29"/>
<rect x="68" y="32" width="13" height="408" fill="url(#paint1_linear_206_8)" fill-opacity="0.29"/>
<path d="M53 95.009H53.306L53.493 96.046C53.5837 96.5107 53.6857 96.8053 53.799 96.93C53.9123 97.066 54.1447 97.134 54.496 97.134L64.033 97.134V95.519C64.033 94.9637 63.914 94.4933 63.676 94.108C63.4493 93.734 63.1377 93.428 62.741 93.19C62.3557 92.952 61.9193 92.7593 61.432 92.612V92.255C61.874 92.3343 62.2593 92.391 62.588 92.425C62.9167 92.4703 63.2283 92.493 63.523 92.493C63.8177 92.493 64.1237 92.4703 64.441 92.425V103.356C64.1237 103.311 63.8177 103.288 63.523 103.288C63.2283 103.288 62.9167 103.311 62.588 103.356C62.2593 103.401 61.874 103.464 61.432 103.543V103.186C61.9193 103.05 62.3557 102.857 62.741 102.608C63.1377 102.37 63.4493 102.058 63.676 101.673C63.914 101.299 64.033 100.834 64.033 100.279V98.664L54.496 98.664C54.1447 98.664 53.9123 98.7263 53.799 98.851C53.6857 98.987 53.5837 99.2873 53.493 99.752L53.306 100.789H53V95.009ZM53 109.176H53.255L53.442 109.89C53.4873 110.06 53.5497 110.173 53.629 110.23C53.7083 110.298 53.8273 110.332 53.986 110.332L57.794 110.332C58.338 110.332 58.7517 110.179 59.035 109.873C59.3297 109.578 59.477 109.147 59.477 108.581C59.477 108.025 59.29 107.572 58.916 107.221C58.5533 106.881 58.1227 106.711 57.624 106.711L59.307 106.252V106.677C59.4203 106.949 59.5733 107.277 59.766 107.663C59.97 108.048 60.1457 108.382 60.293 108.666C60.3157 108.722 60.3327 108.773 60.344 108.819C60.3667 108.864 60.378 108.904 60.378 108.938C60.378 109.742 60.174 110.366 59.766 110.808C59.3693 111.25 58.7857 111.471 58.015 111.471L53.986 111.471C53.8273 111.471 53.7083 111.499 53.629 111.556C53.5497 111.624 53.4873 111.743 53.442 111.913L53.255 112.627H53V109.176ZM53 104.399H53.255L53.442 105.113C53.4873 105.283 53.5497 105.396 53.629 105.453C53.7083 105.521 53.8273 105.555 53.986 105.555L63.302 105.589C63.5287 105.589 63.6873 105.56 63.778 105.504C63.8687 105.447 63.9367 105.339 63.982 105.181L64.186 104.399H64.356C64.4467 104.807 64.543 105.209 64.645 105.606C64.7583 106.014 64.9113 106.405 65.104 106.779L65.002 106.932C64.7527 106.841 64.492 106.784 64.22 106.762C63.9593 106.739 63.6307 106.728 63.234 106.728L53.986 106.694C53.8273 106.694 53.7083 106.722 53.629 106.779C53.5497 106.847 53.4873 106.966 53.442 107.136L53.255 107.85H53L53 104.399ZM52.864 117.033C52.864 116.375 53.0283 115.792 53.357 115.282C53.6857 114.772 54.122 114.369 54.666 114.075C55.2213 113.791 55.839 113.65 56.519 113.65C57.2783 113.65 57.947 113.803 58.525 114.109C59.103 114.415 59.5563 114.828 59.885 115.35C60.2137 115.882 60.378 116.477 60.378 117.135C60.378 117.667 60.2477 118.126 59.987 118.512C59.7377 118.908 59.392 119.214 58.95 119.43C58.5193 119.656 58.032 119.77 57.488 119.77C57.42 119.77 57.3577 119.747 57.301 119.702C57.2443 119.668 57.216 119.6 57.216 119.498V114.585L57.607 114.585L57.709 118.07C57.709 118.285 57.811 118.393 58.015 118.393C58.5477 118.393 59.001 118.274 59.375 118.036C59.749 117.809 59.936 117.446 59.936 116.948C59.936 116.324 59.6527 115.82 59.086 115.435C58.5307 115.049 57.7997 114.857 56.893 114.857C56.2357 114.857 55.6803 114.976 55.227 115.214C54.7737 115.452 54.428 115.769 54.19 116.166C53.9633 116.562 53.85 116.999 53.85 117.475C53.85 118.189 54.1503 118.908 54.751 119.634L54.581 119.838C53.9803 119.418 53.544 118.954 53.272 118.444C53 117.945 52.864 117.475 52.864 117.033ZM53 125.821L53.36 125.821L53.58 127.041C53.6867 127.587 53.8067 127.934 53.94 128.081C54.0733 128.241 54.3467 128.321 54.76 128.321H64.7C65.1267 128.321 65.4067 128.241 65.54 128.081C65.6733 127.934 65.7867 127.587 65.88 127.041L66.1 125.821H66.46V132.381C66.46 133.301 66.3267 134.094 66.06 134.761C65.8067 135.441 65.4467 135.961 64.98 136.321C64.5133 136.694 63.9667 136.881 63.34 136.881C62.5 136.881 61.86 136.567 61.42 135.941C60.98 135.327 60.6733 134.547 60.5 133.601H60.46C60.38 134.227 60.2067 134.847 59.94 135.461C59.6733 136.087 59.2933 136.601 58.8 137.001C58.32 137.414 57.7067 137.621 56.96 137.621C56.0667 137.621 55.3267 137.367 54.74 136.861C54.1533 136.354 53.7133 135.674 53.42 134.821C53.14 133.967 53 133.021 53 131.981V125.821ZM53.48 131.581V132.061C53.48 132.674 53.6067 133.241 53.86 133.761C54.1267 134.294 54.5067 134.727 55 135.061C55.5067 135.394 56.1067 135.561 56.8 135.561C57.4267 135.561 57.9867 135.421 58.48 135.141C58.9867 134.861 59.3867 134.461 59.68 133.941C59.9867 133.421 60.14 132.794 60.14 132.061V130.101H54.8C54.36 130.101 54.0333 130.201 53.82 130.401C53.6067 130.601 53.4933 130.994 53.48 131.581ZM60.66 130.101V132.181C60.66 133.061 60.92 133.754 61.44 134.261C61.96 134.767 62.5733 135.021 63.28 135.021C64.1467 135.021 64.8133 134.761 65.28 134.241C65.7467 133.734 65.98 132.994 65.98 132.021V130.101H60.66ZM52.84 143.807C52.84 143.033 53.0333 142.347 53.42 141.747C53.8067 141.147 54.32 140.673 54.96 140.327C55.6133 139.993 56.34 139.827 57.14 139.827C58.0333 139.827 58.82 140.007 59.5 140.367C60.18 140.727 60.7133 141.213 61.1 141.827C61.4867 142.453 61.68 143.153 61.68 143.927C61.68 144.553 61.5267 145.093 61.22 145.547C60.9267 146.013 60.52 146.373 60 146.627C59.4933 146.893 58.92 147.027 58.28 147.027C58.2 147.027 58.1267 147 58.06 146.947C57.9933 146.907 57.96 146.827 57.96 146.707L57.96 140.927H58.42L58.54 145.027C58.54 145.28 58.66 145.407 58.9 145.407C59.5267 145.407 60.06 145.267 60.5 144.987C60.94 144.72 61.16 144.293 61.16 143.707C61.16 142.973 60.8267 142.38 60.16 141.927C59.5067 141.473 58.6467 141.247 57.58 141.247C56.8067 141.247 56.1533 141.387 55.62 141.667C55.0867 141.947 54.68 142.32 54.4 142.787C54.1333 143.253 54 143.767 54 144.327C54 145.167 54.3533 146.013 55.06 146.867L54.86 147.107C54.1533 146.613 53.64 146.067 53.32 145.467C53 144.88 52.84 144.327 52.84 143.807ZM52.84 153.186C52.84 152.24 53.04 151.453 53.44 150.826C53.84 150.213 54.36 149.753 55 149.446C55.6533 149.153 56.3467 149.006 57.08 149.006C57.64 149.006 58.1933 149.093 58.74 149.266C59.2867 149.44 59.78 149.7 60.22 150.046C60.6733 150.393 61.0267 150.833 61.28 151.366C61.5467 151.913 61.68 152.546 61.68 153.266C61.68 153.773 61.6133 154.246 61.48 154.686C61.36 155.126 61.2067 155.473 61.02 155.726H65.12C65.3867 155.726 65.5733 155.693 65.68 155.626C65.8 155.56 65.88 155.433 65.92 155.246L66.16 154.146H66.36C66.4667 154.626 66.58 155.133 66.7 155.666C66.8333 156.2 67.0133 156.686 67.24 157.126L67.12 157.306C66.8267 157.2 66.52 157.133 66.2 157.106C65.8933 157.08 65.5067 157.066 65.04 157.066H54.46C54.0733 157.066 53.8067 157.206 53.66 157.486C53.5133 157.78 53.4533 158.2 53.48 158.746H53.1C53.0867 158.32 53.0533 157.893 53 157.466C52.9467 157.04 52.8933 156.613 52.84 156.186L52.92 156.026L54 155.886V155.806L53.06 153.926C53.0067 153.833 52.96 153.72 52.92 153.586C52.8667 153.453 52.84 153.32 52.84 153.186ZM53.78 153.566C53.78 154.22 53.9667 154.746 54.34 155.146C54.7267 155.56 55.16 155.766 55.64 155.766H58.46C58.9667 155.766 59.42 155.646 59.82 155.406C60.2333 155.166 60.56 154.853 60.8 154.466C61.04 154.093 61.16 153.68 61.16 153.226C61.16 152.586 61 152.053 60.68 151.626C60.36 151.213 59.9333 150.906 59.4 150.706C58.88 150.506 58.32 150.406 57.72 150.406C56.9733 150.406 56.3 150.513 55.7 150.726C55.1133 150.953 54.6467 151.3 54.3 151.766C53.9533 152.233 53.78 152.833 53.78 153.566ZM52.84 162.821C52.84 162.247 52.9333 161.707 53.12 161.201C53.3067 160.707 53.48 160.327 53.64 160.061C54.0267 160.087 54.4133 160.094 54.8 160.081C55.1867 160.081 55.5867 160.047 56 159.981V160.521C55.4667 160.601 54.9933 160.741 54.58 160.941C54.18 161.154 53.8667 161.434 53.64 161.781C53.4133 162.141 53.3 162.581 53.3 163.101C53.3 163.487 53.44 163.827 53.72 164.121C54.0133 164.427 54.36 164.581 54.76 164.581C55.1067 164.581 55.3933 164.521 55.62 164.401C55.8467 164.294 56.0533 164.087 56.24 163.781C56.4267 163.474 56.6267 163.027 56.84 162.441C57.12 161.734 57.4333 161.187 57.78 160.801C58.14 160.414 58.6467 160.221 59.3 160.221C59.7133 160.221 60.1 160.334 60.46 160.561C60.82 160.801 61.1133 161.134 61.34 161.561C61.5667 161.987 61.68 162.481 61.68 163.041C61.68 163.427 61.64 163.741 61.56 163.981C61.48 164.221 61.38 164.474 61.26 164.741V165.201C60.8067 165.187 60.4067 165.181 60.06 165.181C59.7267 165.194 59.34 165.241 58.9 165.321V164.881C59.6333 164.747 60.2 164.514 60.6 164.181C61 163.847 61.2 163.427 61.2 162.921C61.2 162.481 61.0733 162.121 60.82 161.841C60.5667 161.561 60.2467 161.421 59.86 161.421C59.54 161.421 59.2733 161.467 59.06 161.561C58.86 161.667 58.6733 161.861 58.5 162.141C58.34 162.421 58.1533 162.841 57.94 163.401C57.6067 164.281 57.2533 164.887 56.88 165.221C56.52 165.567 56.0267 165.741 55.4 165.741C54.9733 165.741 54.56 165.634 54.16 165.421C53.7733 165.207 53.4533 164.887 53.2 164.461C52.96 164.034 52.84 163.487 52.84 162.821ZM53 167.146H53.3L53.52 167.986C53.6133 168.333 53.8267 168.506 54.16 168.506H59.64C59.9067 168.506 60.0933 168.473 60.2 168.406C60.3067 168.34 60.3867 168.213 60.44 168.026L60.68 167.166H60.88C60.9867 167.646 61.1 168.113 61.22 168.566C61.3533 169.02 61.5333 169.466 61.76 169.906L61.64 170.086C61.3467 169.98 61.04 169.913 60.72 169.886C60.4133 169.86 60.0267 169.846 59.56 169.846H54.16C53.9867 169.846 53.8467 169.886 53.74 169.966C53.6333 170.046 53.56 170.166 53.52 170.326L53.3 171.166H53L53 167.146ZM64.24 169.146C64.24 168.853 64.3533 168.593 64.58 168.366C64.8067 168.14 65.0667 168.026 65.36 168.026C65.68 168.026 65.9533 168.14 66.18 168.366C66.4067 168.593 66.52 168.853 66.52 169.146C66.52 169.466 66.4067 169.74 66.18 169.966C65.9533 170.193 65.68 170.306 65.36 170.306C65.0667 170.306 64.8067 170.193 64.58 169.966C64.3533 169.74 64.24 169.466 64.24 169.146ZM52.84 176.546C52.84 175.599 53.04 174.812 53.44 174.186C53.84 173.572 54.36 173.112 55 172.806C55.6533 172.512 56.3467 172.366 57.08 172.366C57.64 172.366 58.1933 172.452 58.74 172.626C59.2867 172.799 59.78 173.059 60.22 173.406C60.6733 173.752 61.0267 174.192 61.28 174.726C61.5467 175.272 61.68 175.906 61.68 176.626C61.68 177.132 61.6133 177.606 61.48 178.046C61.36 178.486 61.2067 178.832 61.02 179.086H65.12C65.3867 179.086 65.5733 179.052 65.68 178.986C65.8 178.919 65.88 178.792 65.92 178.606L66.16 177.506H66.36C66.4667 177.986 66.58 178.492 66.7 179.026C66.8333 179.559 67.0133 180.046 67.24 180.486L67.12 180.666C66.8267 180.559 66.52 180.492 66.2 180.466C65.8933 180.439 65.5067 180.426 65.04 180.426H54.46C54.0733 180.426 53.8067 180.566 53.66 180.846C53.5133 181.139 53.4533 181.559 53.48 182.106H53.1C53.0867 181.679 53.0533 181.252 53 180.826C52.9467 180.399 52.8933 179.972 52.84 179.546L52.92 179.386L54 179.246V179.166L53.06 177.286C53.0067 177.192 52.96 177.079 52.92 176.946C52.8667 176.812 52.84 176.679 52.84 176.546ZM53.78 176.926C53.78 177.579 53.9667 178.106 54.34 178.506C54.7267 178.919 55.16 179.126 55.64 179.126H58.46C58.9667 179.126 59.42 179.006 59.82 178.766C60.2333 178.526 60.56 178.212 60.8 177.826C61.04 177.452 61.16 177.039 61.16 176.586C61.16 175.946 61 175.412 60.68 174.986C60.36 174.572 59.9333 174.266 59.4 174.066C58.88 173.866 58.32 173.766 57.72 173.766C56.9733 173.766 56.3 173.872 55.7 174.086C55.1133 174.312 54.6467 174.659 54.3 175.126C53.9533 175.592 53.78 176.192 53.78 176.926ZM52.84 187.127C52.84 186.354 53.0333 185.667 53.42 185.067C53.8067 184.467 54.32 183.994 54.96 183.647C55.6133 183.314 56.34 183.147 57.14 183.147C58.0333 183.147 58.82 183.327 59.5 183.687C60.18 184.047 60.7133 184.534 61.1 185.147C61.4867 185.774 61.68 186.474 61.68 187.247C61.68 187.874 61.5267 188.414 61.22 188.867C60.9267 189.334 60.52 189.694 60 189.947C59.4933 190.214 58.92 190.347 58.28 190.347C58.2 190.347 58.1267 190.32 58.06 190.267C57.9933 190.227 57.96 190.147 57.96 190.027V184.247H58.42L58.54 188.347C58.54 188.6 58.66 188.727 58.9 188.727C59.5267 188.727 60.06 188.587 60.5 188.307C60.94 188.04 61.16 187.614 61.16 187.027C61.16 186.294 60.8267 185.7 60.16 185.247C59.5067 184.794 58.6467 184.567 57.58 184.567C56.8067 184.567 56.1533 184.707 55.62 184.987C55.0867 185.267 54.68 185.64 54.4 186.107C54.1333 186.574 54 187.087 54 187.647C54 188.487 54.3533 189.334 55.06 190.187L54.86 190.427C54.1533 189.934 53.64 189.387 53.32 188.787C53 188.2 52.84 187.647 52.84 187.127ZM53 197.324H53.36L53.58 198.544C53.6867 199.091 53.8067 199.438 53.94 199.584C54.0733 199.744 54.3467 199.824 54.76 199.824H64.7C65.1267 199.824 65.4067 199.744 65.54 199.584C65.6733 199.438 65.7867 199.091 65.88 198.544L66.1 197.324H66.46V203.884C66.46 204.804 66.3267 205.598 66.06 206.264C65.8067 206.944 65.4467 207.464 64.98 207.824C64.5133 208.198 63.9667 208.384 63.34 208.384C62.5 208.384 61.86 208.071 61.42 207.444C60.98 206.831 60.6733 206.051 60.5 205.104H60.46C60.38 205.731 60.2067 206.351 59.94 206.964C59.6733 207.591 59.2933 208.104 58.8 208.504C58.32 208.918 57.7067 209.124 56.96 209.124C56.0667 209.124 55.3267 208.871 54.74 208.364C54.1533 207.858 53.7133 207.178 53.42 206.324C53.14 205.471 53 204.524 53 203.484V197.324ZM53.48 203.084V203.564C53.48 204.178 53.6067 204.744 53.86 205.264C54.1267 205.798 54.5067 206.231 55 206.564C55.5067 206.898 56.1067 207.064 56.8 207.064C57.4267 207.064 57.9867 206.924 58.48 206.644C58.9867 206.364 59.3867 205.964 59.68 205.444C59.9867 204.924 60.14 204.298 60.14 203.564V201.604H54.8C54.36 201.604 54.0333 201.704 53.82 201.904C53.6067 202.104 53.4933 202.498 53.48 203.084ZM60.66 201.604V203.684C60.66 204.564 60.92 205.258 61.44 205.764C61.96 206.271 62.5733 206.524 63.28 206.524C64.1467 206.524 64.8133 206.264 65.28 205.744C65.7467 205.238 65.98 204.498 65.98 203.524V201.604H60.66ZM52.84 215.511C52.84 214.684 53.0267 213.951 53.4 213.311C53.7867 212.684 54.3067 212.197 54.96 211.851C55.6267 211.504 56.3667 211.331 57.18 211.331C58.06 211.331 58.84 211.504 59.52 211.851C60.2 212.197 60.7267 212.684 61.1 213.311C61.4867 213.951 61.68 214.684 61.68 215.511C61.68 216.351 61.4867 217.084 61.1 217.711C60.7267 218.337 60.2133 218.824 59.56 219.171C58.9067 219.517 58.1667 219.691 57.34 219.691C56.46 219.691 55.68 219.517 55 219.171C54.3333 218.824 53.8067 218.337 53.42 217.711C53.0333 217.084 52.84 216.351 52.84 215.511ZM53.32 215.531C53.32 216.357 53.6467 217.004 54.3 217.471C54.9667 217.937 55.9067 218.171 57.12 218.171C58.3733 218.171 59.3667 217.937 60.1 217.471C60.8333 217.004 61.2 216.344 61.2 215.491C61.2 214.664 60.8733 214.017 60.22 213.551C59.5667 213.084 58.6267 212.851 57.4 212.851C56.1467 212.851 55.1533 213.084 54.42 213.551C53.6867 214.017 53.32 214.677 53.32 215.531ZM52.84 225.862C52.84 225.036 53.0267 224.302 53.4 223.662C53.7867 223.036 54.3067 222.549 54.96 222.202C55.6267 221.856 56.3667 221.682 57.18 221.682C58.06 221.682 58.84 221.856 59.52 222.202C60.2 222.549 60.7267 223.036 61.1 223.662C61.4867 224.302 61.68 225.036 61.68 225.862C61.68 226.702 61.4867 227.436 61.1 228.062C60.7267 228.689 60.2133 229.176 59.56 229.522C58.9067 229.869 58.1667 230.042 57.34 230.042C56.46 230.042 55.68 229.869 55 229.522C54.3333 229.176 53.8067 228.689 53.42 228.062C53.0333 227.436 52.84 226.702 52.84 225.862ZM53.32 225.882C53.32 226.709 53.6467 227.356 54.3 227.822C54.9667 228.289 55.9067 228.522 57.12 228.522C58.3733 228.522 59.3667 228.289 60.1 227.822C60.8333 227.356 61.2 226.696 61.2 225.842C61.2 225.016 60.8733 224.369 60.22 223.902C59.5667 223.436 58.6267 223.202 57.4 223.202C56.1467 223.202 55.1533 223.436 54.42 223.902C53.6867 224.369 53.32 225.029 53.32 225.882ZM53 231.288H53.3L53.52 232.128C53.5733 232.328 53.6467 232.461 53.74 232.528C53.8333 232.608 53.9733 232.648 54.16 232.648H65.12C65.3867 232.648 65.5733 232.615 65.68 232.548C65.7867 232.481 65.8667 232.355 65.92 232.168L66.16 231.248H66.36C66.4667 231.728 66.58 232.201 66.7 232.668C66.8333 233.148 67.0133 233.608 67.24 234.048L67.12 234.228C66.8267 234.121 66.52 234.055 66.2 234.028C65.8933 234.001 65.5067 233.988 65.04 233.988H54.16C53.9733 233.988 53.8333 234.021 53.74 234.088C53.6467 234.168 53.5733 234.308 53.52 234.508L53.3 235.348H53V231.288ZM53 236.528H53.3L53.46 237.328C53.5 237.488 53.5733 237.568 53.68 237.568C53.8 237.568 53.9067 237.541 54 237.488L57.66 235.088L58.62 236.048L54.24 238.888C54 239.048 53.8267 239.215 53.72 239.388C53.6133 239.561 53.5333 239.741 53.48 239.928L53.32 240.588H53L53 236.528ZM55.78 233.768L56.08 233.268L60.58 237.448C60.6467 237.515 60.7267 237.535 60.82 237.508C60.9267 237.495 60.9933 237.428 61.02 237.308L61.22 236.368H61.52L61.52 239.848H61.22L61.04 239.068C60.9867 238.868 60.9333 238.715 60.88 238.608C60.8267 238.515 60.74 238.408 60.62 238.288L55.78 233.768ZM52.864 249.814C52.864 249.111 53.0227 248.488 53.34 247.944C53.6687 247.411 54.1107 246.998 54.666 246.703C55.2327 246.408 55.8617 246.261 56.553 246.261C57.301 246.261 57.964 246.408 58.542 246.703C59.12 246.998 59.5677 247.411 59.885 247.944C60.2137 248.488 60.378 249.111 60.378 249.814C60.378 250.528 60.2137 251.151 59.885 251.684C59.5677 252.217 59.1313 252.63 58.576 252.925C58.0207 253.22 57.3917 253.367 56.689 253.367C55.941 253.367 55.278 253.22 54.7 252.925C54.1333 252.63 53.6857 252.217 53.357 251.684C53.0283 251.151 52.864 250.528 52.864 249.814ZM53.272 249.831C53.272 250.534 53.5497 251.083 54.105 251.48C54.6717 251.877 55.4707 252.075 56.502 252.075C57.5673 252.075 58.4117 251.877 59.035 251.48C59.6583 251.083 59.97 250.522 59.97 249.797C59.97 249.094 59.6923 248.545 59.137 248.148C58.5817 247.751 57.7827 247.553 56.74 247.553C55.6747 247.553 54.8303 247.751 54.207 248.148C53.5837 248.545 53.272 249.106 53.272 249.831ZM53 254.724H53.255L53.442 255.438C53.4873 255.608 53.5497 255.721 53.629 255.778C53.7083 255.846 53.8273 255.88 53.986 255.88H59.766V254.741H60.242V255.88H61.466C62.146 255.88 62.758 255.993 63.302 256.22C63.846 256.458 64.2767 256.809 64.594 257.274C64.9227 257.739 65.087 258.305 65.087 258.974C65.087 259.507 64.9737 259.949 64.747 260.3C64.5203 260.663 64.237 260.844 63.897 260.844C63.6817 260.844 63.5003 260.776 63.353 260.64C63.217 260.515 63.149 260.34 63.149 260.113C63.149 259.864 63.2113 259.671 63.336 259.535C63.4607 259.399 63.6137 259.331 63.795 259.331C63.8403 259.331 63.88 259.337 63.914 259.348C63.948 259.359 63.982 259.371 64.016 259.382C64.05 259.393 64.084 259.405 64.118 259.416C64.152 259.427 64.1917 259.433 64.237 259.433C64.3617 259.433 64.458 259.376 64.526 259.263C64.6053 259.161 64.645 259.031 64.645 258.872C64.645 258.385 64.492 258.005 64.186 257.733C63.8913 257.461 63.4947 257.274 62.996 257.172C62.5087 257.07 61.9647 257.019 61.364 257.019H60.242V259.297L59.766 259.127V257.019H53.986C53.8273 257.019 53.7083 257.047 53.629 257.104C53.5497 257.172 53.4873 257.291 53.442 257.461L53.255 258.362H53V254.724Z" fill="#FBFDE3"/>
<path d="M53 264.871H53.36L53.52 265.811C53.6 266.264 53.7267 266.611 53.9 266.851C54.0867 267.091 54.3467 267.277 54.68 267.411L64.6 271.471L65.7 271.051C65.7133 271.331 65.7933 271.564 65.94 271.751C66.1 271.937 66.2733 272.077 66.46 272.171C66.66 272.264 66.8267 272.311 66.96 272.311V272.491L55.14 277.371C54.5533 277.611 54.1533 277.857 53.94 278.111C53.74 278.377 53.6 278.717 53.52 279.131L53.36 279.931H53L53 273.351H53.36L53.54 274.431C53.6067 274.857 53.6867 275.151 53.78 275.311C53.8733 275.471 54 275.551 54.16 275.551C54.2667 275.551 54.3933 275.524 54.54 275.471C54.6867 275.417 54.8533 275.357 55.04 275.291L64.28 271.631V272.091L54.64 268.111C54.5467 268.071 54.4533 268.037 54.36 268.011C54.28 267.984 54.2067 267.971 54.14 267.971C53.98 267.971 53.86 268.031 53.78 268.151C53.7 268.284 53.64 268.471 53.6 268.711L53.36 270.011H53V264.871ZM57.58 269.311L58.22 269.171L58.22 275.031H57.58L57.58 269.311ZM53 280.724H53.3L53.52 281.564C53.5733 281.764 53.6467 281.898 53.74 281.964C53.8333 282.044 53.9733 282.084 54.16 282.084L65.12 282.124C65.3867 282.124 65.5733 282.091 65.68 282.024C65.7867 281.958 65.8667 281.831 65.92 281.644L66.16 280.724H66.36C66.4667 281.204 66.58 281.678 66.7 282.144C66.8333 282.624 67.0133 283.084 67.24 283.524L67.12 283.704C66.8267 283.598 66.52 283.531 66.2 283.504C65.8933 283.478 65.5067 283.464 65.04 283.464L54.16 283.424C53.9733 283.424 53.8333 283.458 53.74 283.524C53.6467 283.604 53.5733 283.744 53.52 283.944L53.3 284.784H53V280.724ZM47.8 289.941C47.8 288.941 47.9133 288.134 48.14 287.521C48.3667 286.908 48.6667 286.461 49.04 286.181C49.4 285.901 49.7867 285.761 50.2 285.761C50.5467 285.761 50.92 285.894 51.32 286.161C51.72 286.441 52.0733 286.874 52.38 287.461C52.6867 288.061 52.8733 288.841 52.94 289.801L52.78 289.941C52.6467 288.968 52.36 288.254 51.92 287.801C51.48 287.348 51.0533 287.121 50.64 287.121C50.08 287.121 49.6067 287.388 49.22 287.921C48.82 288.468 48.62 289.248 48.62 290.261C48.62 291.394 48.8333 292.268 49.26 292.881C49.6867 293.508 50.1867 293.821 50.76 293.821C51.4267 293.821 51.9333 293.514 52.28 292.901C52.6133 292.301 52.78 291.501 52.78 290.501C52.78 290.141 52.7667 289.781 52.74 289.421C52.7133 289.074 52.7 288.721 52.7 288.361C52.7 287.748 52.8333 287.241 53.1 286.841C53.3667 286.441 53.7267 286.241 54.18 286.241C54.1933 286.241 54.2133 286.248 54.24 286.261C54.28 286.274 54.3133 286.308 54.34 286.361C54.62 286.721 54.86 287.041 55.06 287.321C55.26 287.601 55.5267 287.848 55.86 288.061H55.94C56.1933 287.568 56.5467 287.174 57 286.881C57.4667 286.601 57.9933 286.461 58.58 286.461C59.4867 286.461 60.2267 286.754 60.8 287.341C61.3867 287.941 61.68 288.728 61.68 289.701C61.68 289.928 61.6533 290.174 61.6 290.441C61.56 290.708 61.5133 290.968 61.46 291.221C61.4067 291.474 61.36 291.721 61.32 291.961C61.28 292.201 61.26 292.408 61.26 292.581C61.26 292.928 61.3667 293.101 61.58 293.101C61.7 293.101 61.8067 293.074 61.9 293.021C61.9933 292.981 62.0867 292.928 62.18 292.861C62.2733 292.808 62.3667 292.754 62.46 292.701C62.5533 292.661 62.6533 292.641 62.76 292.641C63.0133 292.641 63.1933 292.714 63.3 292.861C63.42 293.008 63.48 293.181 63.48 293.381C63.48 293.648 63.3733 293.854 63.16 294.001C62.96 294.148 62.7133 294.221 62.42 294.221C61.8067 294.221 61.3667 294.081 61.1 293.801C60.8333 293.534 60.7 293.208 60.7 292.821C60.7 292.501 60.78 292.181 60.94 291.861H60.84C60.5467 292.248 60.2 292.514 59.8 292.661C59.4133 292.821 58.96 292.901 58.44 292.901C57.9067 292.901 57.4267 292.774 57 292.521C56.5733 292.281 56.2333 291.928 55.98 291.461C55.74 291.008 55.6067 290.461 55.58 289.821C55.5533 289.048 55.42 288.488 55.18 288.141C54.9533 287.808 54.7067 287.641 54.44 287.641C54.2667 287.641 54.1333 287.721 54.04 287.881C53.9467 288.041 53.9 288.314 53.9 288.701C53.9 289.048 53.9067 289.394 53.92 289.741C53.9467 290.088 53.96 290.434 53.96 290.781C53.96 291.568 53.86 292.254 53.66 292.841C53.46 293.428 53.1667 293.881 52.78 294.201C52.3933 294.521 51.9133 294.681 51.34 294.681C50.7933 294.681 50.2467 294.488 49.7 294.101C49.1533 293.728 48.7 293.188 48.34 292.481C47.98 291.774 47.8 290.928 47.8 289.941ZM56.06 289.721C56.06 290.268 56.2867 290.694 56.74 291.001C57.1933 291.308 57.7933 291.461 58.54 291.461C59.3 291.461 59.9333 291.301 60.44 290.981C60.9467 290.674 61.2 290.234 61.2 289.661C61.2 289.154 60.9733 288.741 60.52 288.421C60.0667 288.101 59.4667 287.941 58.72 287.941C57.96 287.941 57.3267 288.101 56.82 288.421C56.3133 288.754 56.06 289.188 56.06 289.721ZM52.84 299.26C52.84 298.487 53.0333 297.8 53.42 297.2C53.8067 296.6 54.32 296.127 54.96 295.78C55.6133 295.447 56.34 295.28 57.14 295.28C58.0333 295.28 58.82 295.46 59.5 295.82C60.18 296.18 60.7133 296.667 61.1 297.28C61.4867 297.907 61.68 298.607 61.68 299.38C61.68 300.007 61.5267 300.547 61.22 301C60.9267 301.467 60.52 301.827 60 302.08C59.4933 302.347 58.92 302.48 58.28 302.48C58.2 302.48 58.1267 302.453 58.06 302.4C57.9933 302.36 57.96 302.28 57.96 302.16V296.38H58.42L58.54 300.48C58.54 300.733 58.66 300.86 58.9 300.86C59.5267 300.86 60.06 300.72 60.5 300.44C60.94 300.173 61.16 299.747 61.16 299.16C61.16 298.427 60.8267 297.833 60.16 297.38C59.5067 296.927 58.6467 296.7 57.58 296.7C56.8067 296.7 56.1533 296.84 55.62 297.12C55.0867 297.4 54.68 297.773 54.4 298.24C54.1333 298.707 54 299.22 54 299.78C54 300.62 54.3533 301.467 55.06 302.32L54.86 302.56C54.1533 302.067 53.64 301.52 53.32 300.92C53 300.333 52.84 299.78 52.84 299.26ZM52.76 305.151L52.8 304.971H65.12C65.3867 304.971 65.5733 304.938 65.68 304.871C65.7867 304.805 65.8667 304.678 65.92 304.491L66.16 303.571H66.36C66.4667 304.051 66.58 304.525 66.7 304.991C66.8333 305.458 67.0133 305.911 67.24 306.351L67.12 306.531C66.8267 306.425 66.52 306.358 66.2 306.331C65.8933 306.305 65.5067 306.291 65.04 306.291H60.54L61.46 308.111C61.5 308.205 61.5467 308.318 61.6 308.451C61.6533 308.585 61.68 308.718 61.68 308.851C61.68 309.811 61.48 310.598 61.08 311.211C60.68 311.838 60.16 312.298 59.52 312.591C58.88 312.898 58.1867 313.051 57.44 313.051C56.6933 313.051 55.9667 312.898 55.26 312.591C54.5533 312.285 53.9733 311.818 53.52 311.191C53.0667 310.565 52.84 309.765 52.84 308.791C52.84 308.285 52.94 307.785 53.14 307.291C53.3533 306.798 53.6133 306.398 53.92 306.091C53.76 305.905 53.5867 305.738 53.4 305.591C53.2133 305.445 53 305.298 52.76 305.151ZM53.36 308.831C53.36 309.485 53.52 310.018 53.84 310.431C54.1733 310.845 54.6 311.151 55.12 311.351C55.64 311.551 56.2 311.651 56.8 311.651C57.4667 311.651 58.0933 311.538 58.68 311.311C59.2667 311.085 59.74 310.738 60.1 310.271C60.4733 309.805 60.66 309.205 60.66 308.471C60.66 307.778 60.48 307.238 60.12 306.851C59.7733 306.478 59.36 306.291 58.88 306.291H56.06C55.5667 306.291 55.1133 306.411 54.7 306.651C54.2867 306.891 53.96 307.205 53.72 307.591C53.48 307.978 53.36 308.391 53.36 308.831ZM53 314.65H53.3L53.52 315.49C53.5733 315.69 53.6467 315.824 53.74 315.89C53.8333 315.97 53.9733 316.01 54.16 316.01H59.62C59.8867 316.01 60.0733 315.977 60.18 315.91C60.2867 315.844 60.3667 315.717 60.42 315.53L60.66 314.67H60.86C60.9267 314.977 61 315.277 61.08 315.57C61.16 315.877 61.2533 316.17 61.36 316.45C61.4667 316.744 61.5933 317.024 61.74 317.29L61.62 317.47C61.4467 317.404 61.2533 317.344 61.04 317.29C60.84 317.25 60.6467 317.23 60.46 317.23H60.26L59.96 317.35H54.16C53.9733 317.35 53.8333 317.384 53.74 317.45C53.6467 317.53 53.5733 317.67 53.52 317.87L53.3 318.83H53V314.65ZM58.64 317.35L60.26 316.99L61.58 319.31C61.62 319.39 61.6467 319.47 61.66 319.55C61.6867 319.644 61.7 319.73 61.7 319.81C61.7 320.05 61.62 320.264 61.46 320.45C61.3 320.637 61.0667 320.73 60.76 320.73C60.52 320.73 60.3067 320.644 60.12 320.47C59.9333 320.297 59.84 320.057 59.84 319.75C59.84 319.564 59.88 319.41 59.96 319.29C60.04 319.17 60.1267 319.064 60.22 318.97C60.3 318.904 60.3733 318.83 60.44 318.75C60.5067 318.684 60.54 318.604 60.54 318.51C60.54 318.417 60.48 318.277 60.36 318.09C60.2533 317.904 60.06 317.73 59.78 317.57C59.5 317.424 59.12 317.35 58.64 317.35ZM52.86 324.19C52.86 323.79 52.9867 323.41 53.24 323.05C53.4933 322.69 53.82 322.397 54.22 322.17C54.6333 321.943 55.0533 321.83 55.48 321.83C55.7067 321.83 55.8667 321.85 55.96 321.89C56.0533 321.943 56.12 322.017 56.16 322.11L57.54 325.93C57.66 326.25 57.7933 326.47 57.94 326.59C58.1 326.71 58.3133 326.77 58.58 326.77H58.94C59.5533 326.77 60.0867 326.623 60.54 326.33C60.9933 326.037 61.22 325.583 61.22 324.97C61.22 324.57 61.1267 324.237 60.94 323.97C60.7533 323.717 60.5 323.59 60.18 323.59C60.1 323.59 60.02 323.61 59.94 323.65C59.8733 323.69 59.8067 323.737 59.74 323.79C59.6333 323.87 59.52 323.937 59.4 323.99C59.28 324.043 59.1533 324.07 59.02 324.07C58.7667 324.07 58.56 323.977 58.4 323.79C58.2533 323.617 58.18 323.397 58.18 323.13C58.18 322.837 58.2667 322.603 58.44 322.43C58.6267 322.27 58.8867 322.19 59.22 322.19C59.6733 322.19 60.0867 322.337 60.46 322.63C60.8333 322.937 61.1267 323.33 61.34 323.81C61.5667 324.29 61.68 324.783 61.68 325.29C61.68 325.93 61.5533 326.457 61.3 326.87C61.0467 327.297 60.7133 327.61 60.3 327.81C59.8867 328.023 59.4333 328.13 58.94 328.13H54.74C54.46 328.13 54.22 328.157 54.02 328.21C53.8333 328.277 53.74 328.443 53.74 328.71C53.74 329.003 53.8067 329.317 53.94 329.65H53.64C53.48 329.397 53.3067 329.077 53.12 328.69C52.9467 328.317 52.86 328.01 52.86 327.77C52.86 327.477 52.9333 327.257 53.08 327.11C53.24 326.977 53.4333 326.89 53.66 326.85C53.9 326.81 54.14 326.79 54.38 326.79H54.62L54.34 326.99C54.1267 326.723 53.9067 326.43 53.68 326.11C53.4533 325.79 53.26 325.463 53.1 325.13C52.94 324.81 52.86 324.497 52.86 324.19ZM53.82 324.75C53.82 325.017 53.8867 325.29 54.02 325.57C54.1533 325.863 54.3267 326.157 54.54 326.45C54.7267 326.677 54.9867 326.79 55.32 326.79H57.16C57.2 326.79 57.2333 326.77 57.26 326.73C57.2867 326.703 57.2867 326.67 57.26 326.63L56.08 323.49C56.0533 323.41 55.9867 323.35 55.88 323.31C55.7867 323.283 55.6333 323.27 55.42 323.27C55.1667 323.27 54.9133 323.35 54.66 323.51C54.42 323.67 54.22 323.863 54.06 324.09C53.9 324.33 53.82 324.55 53.82 324.75Z" fill="#F9F9F7"/>
<defs>
<filter id="filter0_di_206_8" x="0" y="0" width="120" height="486" filterUnits="userSpaceOnUse" color-interpolation-filters="sRGB">
<feFlood flood-opacity="0" result="BackgroundImageFix"/>
<feColorMatrix in="SourceAlpha" type="matrix" values="0 0 0 0 0 0 0 0 0 0 0 0 0 0 0 0 0 0 127 0" result="hardAlpha"/>
<feMorphology radius="4" operator="dilate" in="SourceAlpha" result="effect1_dropShadow_206_8"/>
<feOffset dy="7"/>
<feGaussianBlur stdDeviation="17.5"/>
<feColorMatrix type="matrix" values="0 0 0 0 0.125542 0 0 0 0 0.119792 0 0 0 0 0.191667 0 0 0 0.2 0"/>
<feBlend mode="normal" in2="BackgroundImageFix" result="effect1_dropShadow_206_8"/>
<feBlend mode="normal" in="SourceGraphic" in2="effect1_dropShadow_206_8" result="shape"/>
<feColorMatrix in="SourceAlpha" type="matrix" values="0 0 0 0 0 0 0 0 0 0 0 0 0 0 0 0 0 0 127 0" result="hardAlpha"/>
<feOffset/>
<feGaussianBlur stdDeviation="5"/>
<feComposite in2="hardAlpha" operator="arithmetic" k2="-1" k3="1"/>
<feColorMatrix type="matrix" values="0 0 0 0 0.165625 0 0 0 0 0.1665 0 0 0 0 0.1875 0 0 0 0.25 0"/>
<feBlend mode="normal" in2="shape" result="effect2_innerShadow_206_8"/>
</filter>
<linearGradient id="paint0_linear_206_8" x1="39" y1="240.23" x2="54.5" y2="240.23" gradientUnits="userSpaceOnUse">
<stop offset="0.145833" stop-opacity="0"/>
<stop offset="0.48408" stop-color="#1A1D37" stop-opacity="0.35"/>
<stop offset="0.854167" stop-opacity="0"/>
</linearGradient>
<linearGradient id="paint1_linear_206_8" x1="68" y1="240.23" x2="83.5" y2="240.23" gradientUnits="userSpaceOnUse">
<stop offset="0.145833" stop-opacity="0"/>
<stop offset="0.48408" stop-color="#1A1D37" stop-opacity="0.35"/>
<stop offset="0.854167" stop-opacity="0"/>
</linearGradient>
</defs>
</svg>
