<svg width="121" height="617" viewBox="0 0 121 617" fill="none" xmlns="http://www.w3.org/2000/svg">
<g filter="url(#filter0_di_206_8)">
<rect x="39" y="32" width="43" height="539" rx="4" fill="#332D5D"/>
<rect x="39.25" y="32.25" width="42.5" height="538.5" rx="3.75" stroke="#787F8F" stroke-width="0.5"/>
</g>
<rect x="39" y="32" width="13" height="539" fill="url(#paint0_linear_206_8)" fill-opacity="0.29"/>
<rect x="68" y="32" width="13" height="539" fill="url(#paint1_linear_206_8)" fill-opacity="0.29"/>
<path d="M53 117.025H54.475V120.1L67.1 120.1V117.2H68.575V124.925H67.1V121.85L54.45 121.85V125.075H53V117.025ZM53 129.3H64.425V131.05H62.4C62.8667 131.35 63.2667 131.7 63.6 132.1C63.95 132.5 64.2167 132.942 64.4 133.425C64.6 133.908 64.7 134.408 64.7 134.925C64.7 135.558 64.5417 136.125 64.225 136.625C63.9083 137.125 63.4 137.525 62.7 137.825C62 138.125 61.075 138.275 59.925 138.275H53V136.525H59.875C60.675 136.525 61.3083 136.433 61.775 136.25C62.2583 136.067 62.6 135.817 62.8 135.5C63.0167 135.183 63.125 134.825 63.125 134.425C63.125 134.042 63.0417 133.65 62.875 133.25C62.7083 132.867 62.4667 132.508 62.15 132.175C61.85 131.842 61.4833 131.567 61.05 131.35C60.6167 131.15 60.125 131.05 59.575 131.05H53V129.3ZM52.825 147.475C52.825 146.742 52.95 146.142 53.2 145.675C53.45 145.208 53.8333 144.85 54.35 144.6C54.8833 144.35 55.55 144.183 56.35 144.1C57.15 144.033 58.1 144.017 59.2 144.05L67.35 144.35L67.575 146.225L67.6 146.475L67.425 146.5C67.3083 146.417 67.1917 146.342 67.075 146.275C66.9583 146.225 66.7583 146.183 66.475 146.15L63.65 145.925L63.2 146L59.075 145.825C57.8083 145.775 56.825 145.808 56.125 145.925C55.4417 146.042 54.9667 146.25 54.7 146.55C54.45 146.85 54.325 147.25 54.325 147.75C54.325 148.3 54.4333 148.783 54.65 149.2C54.8667 149.633 55.1417 150.083 55.475 150.55L54.05 151.1C53.6333 150.533 53.325 149.95 53.125 149.35C52.925 148.75 52.825 148.125 52.825 147.475ZM64.425 141.75V149.975H62.95V141.75H64.425ZM64.425 155.475V157.35L61.1 157.275L61.475 157.05C61.9917 157.15 62.45 157.325 62.85 157.575C63.25 157.825 63.5833 158.125 63.85 158.475C64.1333 158.825 64.3417 159.208 64.475 159.625C64.625 160.042 64.7 160.475 64.7 160.925C64.7 161.525 64.5917 162.075 64.375 162.575C64.175 163.092 63.8667 163.55 63.45 163.95L62.05 163.15L61.825 163.05L61.925 162.875C62.0583 162.842 62.1833 162.792 62.3 162.725C62.4167 162.658 62.5583 162.517 62.725 162.3C62.8917 162.033 63 161.783 63.05 161.55C63.1167 161.333 63.15 161.083 63.15 160.8C63.15 160.383 63.0667 159.967 62.9 159.55C62.75 159.133 62.5083 158.75 62.175 158.4C61.8417 158.067 61.4167 157.8 60.9 157.6C60.3833 157.4 59.7667 157.3 59.05 157.3H52.975V155.475H64.425ZM52.8 171.25C52.8 170.217 53.05 169.3 53.55 168.5C54.0667 167.717 54.7667 167.1 55.65 166.65C56.55 166.2 57.575 165.975 58.725 165.975C59.8917 165.975 60.9167 166.2 61.8 166.65C62.7 167.1 63.4 167.717 63.9 168.5C64.4167 169.3 64.675 170.217 64.675 171.25C64.675 172.283 64.4167 173.192 63.9 173.975C63.4 174.775 62.7 175.4 61.8 175.85C60.9167 176.3 59.8917 176.525 58.725 176.525C57.575 176.525 56.55 176.3 55.65 175.85C54.7667 175.4 54.0667 174.775 53.55 173.975C53.05 173.192 52.8 172.283 52.8 171.25ZM54.3 171.25C54.3 171.917 54.4917 172.5 54.875 173C55.2583 173.5 55.7833 173.892 56.45 174.175C57.1167 174.475 57.8833 174.625 58.75 174.625C59.6167 174.625 60.3833 174.475 61.05 174.175C61.7167 173.892 62.2333 173.5 62.6 173C62.9833 172.5 63.175 171.917 63.175 171.25C63.175 170.6 62.9833 170.017 62.6 169.5C62.2333 169 61.7167 168.6 61.05 168.3C60.3833 168.017 59.6167 167.875 58.75 167.875C57.8833 167.875 57.1167 168.017 56.45 168.3C55.7833 168.6 55.2583 169 54.875 169.5C54.4917 170.017 54.3 170.6 54.3 171.25ZM52.75 183.35C52.75 182.767 52.875 182.192 53.125 181.625C53.375 181.075 53.75 180.567 54.25 180.1C54.75 179.65 55.3833 179.292 56.15 179.025C56.9167 178.758 57.8083 178.625 58.825 178.625C59.875 178.625 60.7667 178.767 61.5 179.05C62.25 179.333 62.8583 179.708 63.325 180.175C63.8083 180.642 64.1583 181.158 64.375 181.725C64.6083 182.292 64.725 182.867 64.725 183.45C64.725 183.983 64.6417 184.458 64.475 184.875C64.3083 185.308 64.075 185.683 63.775 186C63.4917 186.333 63.15 186.592 62.75 186.775H69.625V188.425V188.675H69.45C69.35 188.575 69.2417 188.508 69.125 188.475C69.0083 188.458 68.8083 188.45 68.525 188.45L54.775 188.475C54.475 188.475 54.175 188.483 53.875 188.5C53.5917 188.533 53.3 188.608 53 188.725V186.95C53.2 186.867 53.4 186.808 53.6 186.775C53.8 186.742 53.9917 186.717 54.175 186.7C54.375 186.7 54.575 186.7 54.775 186.7C54.375 186.467 54.0167 186.183 53.7 185.85C53.4 185.517 53.1667 185.142 53 184.725C52.8333 184.308 52.75 183.85 52.75 183.35ZM54.325 183.625C54.325 184.175 54.4333 184.642 54.65 185.025C54.8833 185.408 55.2 185.717 55.6 185.95C56.0167 186.183 56.4917 186.35 57.025 186.45C57.575 186.567 58.1583 186.625 58.775 186.625C59.625 186.625 60.3833 186.517 61.05 186.3C61.7333 186.083 62.2667 185.742 62.65 185.275C63.05 184.808 63.25 184.208 63.25 183.475C63.25 182.975 63.15 182.525 62.95 182.125C62.7667 181.742 62.4917 181.417 62.125 181.15C61.7583 180.9 61.3167 180.708 60.8 180.575C60.3 180.442 59.7333 180.375 59.1 180.375C58.15 180.375 57.3167 180.5 56.6 180.75C55.8833 181 55.325 181.367 54.925 181.85C54.525 182.333 54.325 182.925 54.325 183.625ZM52.725 195.525C52.725 195.075 52.7917 194.65 52.925 194.25C53.0583 193.85 53.2583 193.483 53.525 193.15C53.8083 192.833 54.1583 192.558 54.575 192.325C54.9917 192.092 55.4917 191.908 56.075 191.775C56.6583 191.658 57.3167 191.6 58.05 191.6L64.425 191.625V193.375H58.05C57.3333 193.375 56.725 193.442 56.225 193.575C55.725 193.708 55.325 193.892 55.025 194.125C54.725 194.375 54.5083 194.658 54.375 194.975C54.2417 195.292 54.175 195.625 54.175 195.975C54.175 196.375 54.25 196.758 54.4 197.125C54.5667 197.492 54.8083 197.817 55.125 198.1C55.4417 198.4 55.85 198.633 56.35 198.8C56.85 198.967 57.4417 199.05 58.125 199.05H64.425V200.8H54.775C54.475 200.8 54.175 200.808 53.875 200.825C53.5917 200.858 53.3 200.933 53 201.05V199.325C53.2 199.242 53.3917 199.183 53.575 199.15C53.775 199.117 53.975 199.092 54.175 199.075C54.375 199.075 54.5667 199.075 54.75 199.075C54.4333 198.892 54.15 198.675 53.9 198.425C53.65 198.175 53.4333 197.892 53.25 197.575C53.0833 197.275 52.9583 196.95 52.875 196.6C52.775 196.267 52.725 195.908 52.725 195.525ZM52.725 209.625C52.725 208.792 52.875 208.025 53.175 207.325C53.475 206.625 53.8917 206.017 54.425 205.5C54.9583 205 55.5833 204.608 56.3 204.325C57.0333 204.042 57.8333 203.9 58.7 203.9C59.55 203.9 60.3333 204.042 61.05 204.325C61.7833 204.608 62.4167 205 62.95 205.5C63.4833 206.017 63.9 206.625 64.2 207.325C64.5 208.025 64.65 208.783 64.65 209.6C64.65 210.533 64.4583 211.367 64.075 212.1C63.7083 212.85 63.1917 213.458 62.525 213.925L61.425 212.8L61.25 212.625L61.375 212.5C61.5083 212.5 61.6333 212.467 61.75 212.4C61.8667 212.35 62.025 212.225 62.225 212.025C62.5583 211.658 62.7917 211.267 62.925 210.85C63.0583 210.433 63.125 209.95 63.125 209.4C63.125 208.917 63.025 208.458 62.825 208.025C62.625 207.592 62.3333 207.2 61.95 206.85C61.5833 206.517 61.1333 206.25 60.6 206.05C60.0667 205.85 59.475 205.75 58.825 205.75C58.175 205.75 57.575 205.85 57.025 206.05C56.4917 206.25 56.025 206.525 55.625 206.875C55.225 207.225 54.9083 207.642 54.675 208.125C54.4583 208.625 54.35 209.158 54.35 209.725C54.35 210.108 54.4 210.475 54.5 210.825C54.6167 211.175 54.775 211.508 54.975 211.825C55.1917 212.142 55.45 212.433 55.75 212.7L54.525 213.75C53.925 213.183 53.475 212.55 53.175 211.85C52.875 211.167 52.725 210.425 52.725 209.625ZM52.825 222.475C52.825 221.742 52.95 221.142 53.2 220.675C53.45 220.208 53.8333 219.85 54.35 219.6C54.8833 219.35 55.55 219.183 56.35 219.1C57.15 219.033 58.1 219.017 59.2 219.05L67.35 219.35L67.575 221.225L67.6 221.475L67.425 221.5C67.3083 221.417 67.1917 221.342 67.075 221.275C66.9583 221.225 66.7583 221.183 66.475 221.15L63.65 220.925L63.2 221L59.075 220.825C57.8083 220.775 56.825 220.808 56.125 220.925C55.4417 221.042 54.9667 221.25 54.7 221.55C54.45 221.85 54.325 222.25 54.325 222.75C54.325 223.3 54.4333 223.783 54.65 224.2C54.8667 224.633 55.1417 225.083 55.475 225.55L54.05 226.1C53.6333 225.533 53.325 224.95 53.125 224.35C52.925 223.75 52.825 223.125 52.825 222.475ZM64.425 216.75V224.975H62.95V216.75H64.425ZM53 230H54.45V232.925H62.975V230.15H64.425V234.725H54.45L54.45 237.4H53L53 230ZM66.825 233.725C66.825 233.375 66.95 233.075 67.2 232.825C67.45 232.575 67.75 232.45 68.1 232.45C68.4667 232.45 68.775 232.567 69.025 232.8C69.275 233.05 69.4 233.358 69.4 233.725C69.4 234.075 69.2667 234.375 69 234.625C68.75 234.892 68.45 235.025 68.1 235.025C67.75 235.025 67.45 234.892 67.2 234.625C66.95 234.375 66.825 234.075 66.825 233.725ZM52.8 246.25C52.8 245.217 53.05 244.3 53.55 243.5C54.0667 242.717 54.7667 242.1 55.65 241.65C56.55 241.2 57.575 240.975 58.725 240.975C59.8917 240.975 60.9167 241.2 61.8 241.65C62.7 242.1 63.4 242.717 63.9 243.5C64.4167 244.3 64.675 245.217 64.675 246.25C64.675 247.283 64.4167 248.192 63.9 248.975C63.4 249.775 62.7 250.4 61.8 250.85C60.9167 251.3 59.8917 251.525 58.725 251.525C57.575 251.525 56.55 251.3 55.65 250.85C54.7667 250.4 54.0667 249.775 53.55 248.975C53.05 248.192 52.8 247.283 52.8 246.25ZM54.3 246.25C54.3 246.917 54.4917 247.5 54.875 248C55.2583 248.5 55.7833 248.892 56.45 249.175C57.1167 249.475 57.8833 249.625 58.75 249.625C59.6167 249.625 60.3833 249.475 61.05 249.175C61.7167 248.892 62.2333 248.5 62.6 248C62.9833 247.5 63.175 246.917 63.175 246.25C63.175 245.6 62.9833 245.017 62.6 244.5C62.2333 244 61.7167 243.6 61.05 243.3C60.3833 243.017 59.6167 242.875 58.75 242.875C57.8833 242.875 57.1167 243.017 56.45 243.3C55.7833 243.6 55.2583 244 54.875 244.5C54.4917 245.017 54.3 245.6 54.3 246.25ZM53 254.3H64.425V256.05H62.4C62.8667 256.35 63.2667 256.7 63.6 257.1C63.95 257.5 64.2167 257.942 64.4 258.425C64.6 258.908 64.7 259.408 64.7 259.925C64.7 260.558 64.5417 261.125 64.225 261.625C63.9083 262.125 63.4 262.525 62.7 262.825C62 263.125 61.075 263.275 59.925 263.275H53V261.525H59.875C60.675 261.525 61.3083 261.433 61.775 261.25C62.2583 261.067 62.6 260.817 62.8 260.5C63.0167 260.183 63.125 259.825 63.125 259.425C63.125 259.042 63.0417 258.65 62.875 258.25C62.7083 257.867 62.4667 257.508 62.15 257.175C61.85 256.842 61.4833 256.567 61.05 256.35C60.6167 256.15 60.125 256.05 59.575 256.05H53V254.3ZM52.825 284.975C52.825 284.242 52.95 283.642 53.2 283.175C53.45 282.708 53.8333 282.35 54.35 282.1C54.8833 281.85 55.55 281.683 56.35 281.6C57.15 281.533 58.1 281.517 59.2 281.55L67.35 281.85L67.575 283.725L67.6 283.975L67.425 284C67.3083 283.917 67.1917 283.842 67.075 283.775C66.9583 283.725 66.7583 283.683 66.475 283.65L63.65 283.425L63.2 283.5L59.075 283.325C57.8083 283.275 56.825 283.308 56.125 283.425C55.4417 283.542 54.9667 283.75 54.7 284.05C54.45 284.35 54.325 284.75 54.325 285.25C54.325 285.8 54.4333 286.283 54.65 286.7C54.8667 287.133 55.1417 287.583 55.475 288.05L54.05 288.6C53.6333 288.033 53.325 287.45 53.125 286.85C52.925 286.25 52.825 285.625 52.825 284.975ZM64.425 279.25V287.475H62.95V279.25H64.425ZM52.8 296.25C52.8 295.217 53.05 294.3 53.55 293.5C54.0667 292.717 54.7667 292.1 55.65 291.65C56.55 291.2 57.575 290.975 58.725 290.975C59.8917 290.975 60.9167 291.2 61.8 291.65C62.7 292.1 63.4 292.717 63.9 293.5C64.4167 294.3 64.675 295.217 64.675 296.25C64.675 297.283 64.4167 298.192 63.9 298.975C63.4 299.775 62.7 300.4 61.8 300.85C60.9167 301.3 59.8917 301.525 58.725 301.525C57.575 301.525 56.55 301.3 55.65 300.85C54.7667 300.4 54.0667 299.775 53.55 298.975C53.05 298.192 52.8 297.283 52.8 296.25ZM54.3 296.25C54.3 296.917 54.4917 297.5 54.875 298C55.2583 298.5 55.7833 298.892 56.45 299.175C57.1167 299.475 57.8833 299.625 58.75 299.625C59.6167 299.625 60.3833 299.475 61.05 299.175C61.7167 298.892 62.2333 298.5 62.6 298C62.9833 297.5 63.175 296.917 63.175 296.25C63.175 295.6 62.9833 295.017 62.6 294.5C62.2333 294 61.7167 293.6 61.05 293.3C60.3833 293.017 59.6167 292.875 58.75 292.875C57.8833 292.875 57.1167 293.017 56.45 293.3C55.7833 293.6 55.2583 294 54.875 294.5C54.4917 295.017 54.3 295.6 54.3 296.25Z" fill="#CDEAF5"/>
<path d="M52.67 320.893C52.67 319.353 53.06 318.023 53.84 316.903C54.64 315.783 55.76 314.923 57.2 314.323C58.64 313.743 60.31 313.453 62.21 313.453C63.81 313.433 65.17 313.583 66.29 313.903C67.43 314.243 68.37 314.683 69.11 315.223C69.85 315.763 70.43 316.363 70.85 317.023C71.27 317.683 71.56 318.343 71.72 319.003C71.88 319.663 71.96 320.273 71.96 320.833C71.96 321.613 71.83 322.373 71.57 323.113C71.31 323.853 70.94 324.523 70.46 325.123C70 325.743 69.43 326.233 68.75 326.593L67.04 324.793L66.83 324.553L67.04 324.373C67.2 324.393 67.35 324.373 67.49 324.313C67.63 324.253 67.83 324.123 68.09 323.923C68.39 323.663 68.64 323.383 68.84 323.083C69.04 322.803 69.19 322.483 69.29 322.123C69.41 321.763 69.47 321.343 69.47 320.863C69.47 320.383 69.39 319.923 69.23 319.483C69.09 319.043 68.85 318.633 68.51 318.253C68.19 317.873 67.76 317.543 67.22 317.263C66.68 316.983 66.02 316.763 65.24 316.603C64.48 316.443 63.59 316.363 62.57 316.363C61.33 316.363 60.25 316.473 59.33 316.693C58.41 316.913 57.64 317.213 57.02 317.593C56.4 317.993 55.93 318.473 55.61 319.033C55.29 319.593 55.13 320.213 55.13 320.893C55.13 321.133 55.15 321.383 55.19 321.643C55.23 321.923 55.28 322.193 55.34 322.453C55.42 322.733 55.53 322.993 55.67 323.233C55.81 323.493 55.96 323.733 56.12 323.953H59.93V320.773H62.39L62.39 326.623H54.62C53.94 325.743 53.44 324.813 53.12 323.833C52.82 322.873 52.67 321.893 52.67 320.893ZM66.89 330.553L66.89 333.643L62.93 333.583L63.26 333.223C63.86 333.323 64.4 333.513 64.88 333.793C65.38 334.073 65.8 334.413 66.14 334.813C66.48 335.233 66.74 335.693 66.92 336.193C67.12 336.693 67.22 337.213 67.22 337.753C67.22 338.513 67.09 339.203 66.83 339.823C66.57 340.443 66.18 341.003 65.66 341.503L63.2 340.243L62.93 340.123L63.05 339.883C63.21 339.823 63.37 339.763 63.53 339.703C63.69 339.643 63.88 339.493 64.1 339.253C64.3 338.953 64.45 338.653 64.55 338.353C64.65 338.073 64.7 337.743 64.7 337.363C64.7 336.883 64.61 336.413 64.43 335.953C64.27 335.513 64.01 335.113 63.65 334.753C63.29 334.393 62.83 334.103 62.27 333.883C61.73 333.683 61.07 333.583 60.29 333.583H52.97V330.553H66.89ZM52.67 348.643C52.67 347.103 53.02 345.903 53.72 345.043C54.44 344.203 55.37 343.783 56.51 343.783C57.27 343.783 57.95 343.953 58.55 344.293C59.17 344.653 59.7 345.153 60.14 345.793C60.58 346.453 60.92 347.243 61.16 348.163C61.42 349.083 61.55 350.123 61.55 351.283C61.55 351.523 61.54 351.773 61.52 352.033C61.52 352.313 61.51 352.603 61.49 352.903C61.47 353.223 61.45 353.543 61.43 353.863L59.3 353.953C59.34 353.673 59.37 353.373 59.39 353.053C59.41 352.753 59.42 352.453 59.42 352.153C59.42 351.853 59.42 351.573 59.42 351.313C59.42 350.533 59.36 349.853 59.24 349.273C59.14 348.713 58.98 348.243 58.76 347.863C58.54 347.503 58.27 347.233 57.95 347.053C57.63 346.873 57.26 346.783 56.84 346.783C56.5 346.783 56.2 346.843 55.94 346.963C55.7 347.083 55.51 347.243 55.37 347.443C55.23 347.663 55.12 347.913 55.04 348.193C54.98 348.493 54.95 348.813 54.95 349.153C54.95 349.813 55.06 350.393 55.28 350.893C55.5 351.393 55.82 351.813 56.24 352.153C56.68 352.513 57.22 352.783 57.86 352.963C58.52 353.143 59.29 353.233 60.17 353.233C61.39 353.233 62.34 353.093 63.02 352.813C63.7 352.553 64.17 352.163 64.43 351.643C64.69 351.123 64.82 350.473 64.82 349.693C64.82 349.053 64.71 348.433 64.49 347.833C64.29 347.253 63.91 346.683 63.35 346.123L65.15 344.533C65.87 345.293 66.39 346.123 66.71 347.023C67.03 347.943 67.19 348.883 67.19 349.843C67.19 350.723 67.08 351.533 66.86 352.273C66.66 353.033 66.32 353.693 65.84 354.253C65.36 354.833 64.71 355.273 63.89 355.573C63.07 355.893 62.03 356.053 60.77 356.053H53V352.933H54.71C54.31 352.673 53.97 352.383 53.69 352.063C53.43 351.743 53.22 351.393 53.06 351.013C52.92 350.653 52.82 350.273 52.76 349.873C52.7 349.473 52.67 349.063 52.67 348.643ZM47.99 359.143H66.89L66.89 362.113H64.67C65.27 362.373 65.75 362.703 66.11 363.103C66.49 363.523 66.76 363.983 66.92 364.483C67.1 364.983 67.19 365.523 67.19 366.103C67.19 366.863 67.03 367.573 66.71 368.233C66.41 368.913 65.96 369.513 65.36 370.033C64.76 370.553 64.01 370.963 63.11 371.263C62.21 371.563 61.16 371.713 59.96 371.713C58.74 371.713 57.67 371.553 56.75 371.233C55.83 370.913 55.06 370.483 54.44 369.943C53.84 369.423 53.39 368.823 53.09 368.143C52.79 367.463 52.64 366.763 52.64 366.043C52.64 365.543 52.71 365.043 52.85 364.543C52.97 364.063 53.16 363.623 53.42 363.223C53.7 362.823 54.02 362.473 54.38 362.173H47.99V359.143ZM55.04 365.293C55.04 365.753 55.12 366.183 55.28 366.583C55.46 366.983 55.73 367.343 56.09 367.663C56.47 367.983 56.98 368.233 57.62 368.413C58.28 368.593 59.08 368.683 60.02 368.683C61.02 368.683 61.87 368.553 62.57 368.293C63.27 368.053 63.81 367.693 64.19 367.213C64.57 366.753 64.77 366.193 64.79 365.533C64.81 365.033 64.72 364.573 64.52 364.153C64.34 363.733 64.04 363.373 63.62 363.073C63.22 362.773 62.68 362.543 62 362.383C61.34 362.243 60.55 362.173 59.63 362.173C59.01 362.173 58.45 362.213 57.95 362.293C57.47 362.393 57.04 362.533 56.66 362.713C56.3 362.893 56 363.103 55.76 363.343C55.52 363.603 55.34 363.893 55.22 364.213C55.1 364.553 55.04 364.913 55.04 365.293ZM73.07 374.413V377.353V377.653H72.8C72.68 377.533 72.55 377.453 72.41 377.413C72.27 377.393 72.03 377.383 71.69 377.383H64.85C65.35 377.723 65.77 378.123 66.11 378.583C66.47 379.063 66.74 379.553 66.92 380.053C67.12 380.573 67.22 381.093 67.22 381.613C67.22 382.493 67.02 383.253 66.62 383.893C66.22 384.553 65.59 385.063 64.73 385.423C63.89 385.783 62.77 385.963 61.37 385.963H53V383.023H61.34C62.2 383.023 62.88 382.933 63.38 382.753C63.9 382.573 64.27 382.323 64.49 382.003C64.73 381.683 64.85 381.303 64.85 380.863C64.85 380.503 64.79 380.153 64.67 379.813C64.55 379.493 64.38 379.183 64.16 378.883C63.96 378.583 63.7 378.323 63.38 378.103C63.06 377.883 62.7 377.703 62.3 377.563C61.9 377.443 61.46 377.383 60.98 377.383H53V374.413H73.07ZM53 408.463H69.17V403.363H71.72V416.713H69.17V411.373H53V408.463ZM73.07 419.413V422.353V422.653H72.8C72.68 422.533 72.55 422.453 72.41 422.413C72.27 422.393 72.03 422.383 71.69 422.383H64.85C65.35 422.723 65.77 423.123 66.11 423.583C66.47 424.063 66.74 424.553 66.92 425.053C67.12 425.573 67.22 426.093 67.22 426.613C67.22 427.493 67.02 428.253 66.62 428.893C66.22 429.553 65.59 430.063 64.73 430.423C63.89 430.783 62.77 430.963 61.37 430.963H53V428.023H61.34C62.2 428.023 62.88 427.933 63.38 427.753C63.9 427.573 64.27 427.323 64.49 427.003C64.73 426.683 64.85 426.303 64.85 425.863C64.85 425.503 64.79 425.153 64.67 424.813C64.55 424.493 64.38 424.183 64.16 423.883C63.96 423.583 63.7 423.323 63.38 423.103C63.06 422.883 62.7 422.703 62.3 422.563C61.9 422.443 61.46 422.383 60.98 422.383H53V419.413H73.07ZM52.67 440.713C52.67 439.713 52.83 438.793 53.15 437.953C53.47 437.113 53.93 436.383 54.53 435.763C55.15 435.163 55.91 434.693 56.81 434.353C57.71 434.013 58.73 433.843 59.87 433.843C61.03 433.843 62.06 434.013 62.96 434.353C63.88 434.693 64.65 435.153 65.27 435.733C65.89 436.333 66.37 437.023 66.71 437.803C67.05 438.603 67.22 439.453 67.22 440.353C67.22 441.133 67.08 441.873 66.8 442.573C66.52 443.293 66.1 443.913 65.54 444.433C65 444.973 64.31 445.393 63.47 445.693C62.63 446.013 61.65 446.173 60.53 446.173C60.33 446.173 60.1 446.173 59.84 446.173C59.6 446.173 59.39 446.163 59.21 446.143V436.723C58.49 436.763 57.86 436.903 57.32 437.143C56.8 437.383 56.37 437.683 56.03 438.043C55.69 438.423 55.44 438.853 55.28 439.333C55.12 439.813 55.04 440.313 55.04 440.833C55.04 441.293 55.08 441.713 55.16 442.093C55.26 442.493 55.41 442.873 55.61 443.233C55.81 443.593 56.08 443.923 56.42 444.223L54.89 445.783C54.39 445.363 53.97 444.893 53.63 444.373C53.31 443.853 53.07 443.283 52.91 442.663C52.75 442.063 52.67 441.413 52.67 440.713ZM61.46 436.783V443.263C62.02 443.263 62.51 443.193 62.93 443.053C63.35 442.913 63.71 442.703 64.01 442.423C64.31 442.163 64.53 441.843 64.67 441.463C64.83 441.083 64.91 440.663 64.91 440.203C64.91 439.763 64.84 439.353 64.7 438.973C64.56 438.613 64.35 438.283 64.07 437.983C63.79 437.683 63.43 437.423 62.99 437.203C62.57 437.003 62.06 436.863 61.46 436.783ZM52.7 455.083C52.7 453.823 53 452.703 53.6 451.723C54.22 450.743 55.07 449.963 56.15 449.383C57.25 448.803 58.51 448.513 59.93 448.513C61.33 448.513 62.57 448.803 63.65 449.383C64.75 449.963 65.61 450.743 66.23 451.723C66.87 452.703 67.19 453.823 67.19 455.083C67.19 456.323 66.87 457.433 66.23 458.413C65.61 459.413 64.75 460.203 63.65 460.783C62.57 461.363 61.33 461.653 59.93 461.653C58.53 461.653 57.28 461.363 56.18 460.783C55.1 460.203 54.25 459.413 53.63 458.413C53.01 457.433 52.7 456.323 52.7 455.083ZM55.13 455.083C55.13 455.763 55.33 456.363 55.73 456.883C56.15 457.423 56.72 457.843 57.44 458.143C58.16 458.443 59 458.593 59.96 458.593C60.94 458.593 61.79 458.443 62.51 458.143C63.23 457.843 63.79 457.423 64.19 456.883C64.59 456.363 64.79 455.763 64.79 455.083C64.79 454.403 64.59 453.793 64.19 453.253C63.79 452.733 63.23 452.323 62.51 452.023C61.79 451.723 60.94 451.573 59.96 451.573C59 451.573 58.16 451.723 57.44 452.023C56.72 452.323 56.15 452.733 55.73 453.253C55.33 453.793 55.13 454.403 55.13 455.083ZM66.89 465.553V468.643L62.93 468.583L63.26 468.223C63.86 468.323 64.4 468.513 64.88 468.793C65.38 469.073 65.8 469.413 66.14 469.813C66.48 470.233 66.74 470.693 66.92 471.193C67.12 471.693 67.22 472.213 67.22 472.753C67.22 473.513 67.09 474.203 66.83 474.823C66.57 475.443 66.18 476.003 65.66 476.503L63.2 475.243L62.93 475.123L63.05 474.883C63.21 474.823 63.37 474.763 63.53 474.703C63.69 474.643 63.88 474.493 64.1 474.253C64.3 473.953 64.45 473.653 64.55 473.353C64.65 473.073 64.7 472.743 64.7 472.363C64.7 471.883 64.61 471.413 64.43 470.953C64.27 470.513 64.01 470.113 63.65 469.753C63.29 469.393 62.83 469.103 62.27 468.883C61.73 468.683 61.07 468.583 60.29 468.583H52.97L52.97 465.553H66.89ZM47.75 481.363C47.75 480.703 47.86 480.113 48.08 479.593C48.28 479.073 48.59 478.573 49.01 478.093L51.05 479.203L51.29 479.353L51.17 479.563C51.03 479.623 50.9 479.693 50.78 479.773C50.64 479.873 50.47 480.063 50.27 480.343C50.21 480.503 50.17 480.673 50.15 480.853C50.11 481.033 50.09 481.213 50.09 481.393C50.09 481.853 50.21 482.243 50.45 482.563C50.67 482.883 51.02 483.163 51.5 483.403C51.98 483.663 52.6 483.923 53.36 484.183L61.76 487.063C62.64 487.363 63.49 487.623 64.31 487.843C65.15 488.083 66.01 488.233 66.89 488.293V491.113C65.97 491.033 65.02 490.823 64.04 490.483C63.06 490.163 62.11 489.833 61.19 489.493L51.68 486.043C50.22 485.523 49.2 484.873 48.62 484.093C48.04 483.313 47.75 482.403 47.75 481.363ZM66.89 478.663V481.693L55.97 485.893L52.67 484.393L66.89 478.663Z" fill="#E6F945"/>
<defs>
<filter id="filter0_di_206_8" x="0" y="0" width="121" height="617" filterUnits="userSpaceOnUse" color-interpolation-filters="sRGB">
<feFlood flood-opacity="0" result="BackgroundImageFix"/>
<feColorMatrix in="SourceAlpha" type="matrix" values="0 0 0 0 0 0 0 0 0 0 0 0 0 0 0 0 0 0 127 0" result="hardAlpha"/>
<feMorphology radius="4" operator="dilate" in="SourceAlpha" result="effect1_dropShadow_206_8"/>
<feOffset dy="7"/>
<feGaussianBlur stdDeviation="17.5"/>
<feColorMatrix type="matrix" values="0 0 0 0 0.125542 0 0 0 0 0.119792 0 0 0 0 0.191667 0 0 0 0.2 0"/>
<feBlend mode="normal" in2="BackgroundImageFix" result="effect1_dropShadow_206_8"/>
<feBlend mode="normal" in="SourceGraphic" in2="effect1_dropShadow_206_8" result="shape"/>
<feColorMatrix in="SourceAlpha" type="matrix" values="0 0 0 0 0 0 0 0 0 0 0 0 0 0 0 0 0 0 127 0" result="hardAlpha"/>
<feOffset/>
<feGaussianBlur stdDeviation="5"/>
<feComposite in2="hardAlpha" operator="arithmetic" k2="-1" k3="1"/>
<feColorMatrix type="matrix" values="0 0 0 0 0.165625 0 0 0 0 0.1665 0 0 0 0 0.1875 0 0 0 0.25 0"/>
<feBlend mode="normal" in2="shape" result="effect2_innerShadow_206_8"/>
</filter>
<linearGradient id="paint0_linear_206_8" x1="39" y1="307.089" x2="54.5" y2="307.089" gradientUnits="userSpaceOnUse">
<stop offset="0.145833" stop-opacity="0"/>
<stop offset="0.48408" stop-color="#1A1D37" stop-opacity="0.35"/>
<stop offset="0.854167" stop-opacity="0"/>
</linearGradient>
<linearGradient id="paint1_linear_206_8" x1="68" y1="307.089" x2="83.5" y2="307.089" gradientUnits="userSpaceOnUse">
<stop offset="0.145833" stop-opacity="0"/>
<stop offset="0.48408" stop-color="#1A1D37" stop-opacity="0.35"/>
<stop offset="0.854167" stop-opacity="0"/>
</linearGradient>
</defs>
</svg>
