<svg width="190" height="691" viewBox="0 0 190 691" fill="none" xmlns="http://www.w3.org/2000/svg">
<g filter="url(#filter0_di_206_8)">
<rect x="39" y="32" width="112" height="613" rx="4" fill="#EBECE4"/>
<rect x="39.25" y="32.25" width="111.5" height="612.5" rx="3.75" stroke="#787F8F" stroke-width="0.5"/>
</g>
<path d="M39 367H151V640C151 642.761 148.761 645 146 645H44C41.2386 645 39 642.761 39 640V367Z" fill="#ABA127"/>
<rect x="39" y="32" width="13" height="613" fill="url(#paint0_linear_206_8)" fill-opacity="0.29"/>
<rect x="138" y="32" width="13" height="613" fill="url(#paint1_linear_206_8)" fill-opacity="0.29"/>
<path d="M85.64 76.77C85.64 75.35 85.86 74.07 86.3 72.93C86.76 71.79 87.43 70.82 88.31 70.02C89.21 69.22 90.32 68.6 91.64 68.16C92.98 67.72 94.54 67.5 96.32 67.5C98.08 67.5 99.64 67.72 101 68.16C102.38 68.6 103.53 69.22 104.45 70.02C105.39 70.82 106.1 71.79 106.58 72.93C107.06 74.07 107.3 75.35 107.3 76.77C107.3 78.71 106.9 80.31 106.1 81.57C105.32 82.83 104.08 83.84 102.38 84.6L100.34 80.67C101.22 80.39 101.92 79.95 102.44 79.35C102.98 78.77 103.25 77.91 103.25 76.77C103.25 75.43 102.81 74.35 101.93 73.53C101.07 72.73 99.81 72.33 98.15 72.33L94.79 72.33C93.13 72.33 91.86 72.73 90.98 73.53C90.12 74.35 89.69 75.43 89.69 76.77C89.69 77.89 89.99 78.78 90.59 79.44C91.21 80.12 91.95 80.62 92.81 80.94L90.65 84.66C89.05 83.88 87.81 82.85 86.93 81.57C86.07 80.31 85.64 78.71 85.64 76.77Z" fill="#9E2920"/>
<path d="M86 94.9409L106.94 94.9409V104.841C106.94 105.821 106.77 106.701 106.43 107.481C106.11 108.261 105.66 108.921 105.08 109.461C104.5 110.021 103.79 110.451 102.95 110.751C102.13 111.051 101.23 111.201 100.25 111.201C99.25 111.201 98.34 111.051 97.52 110.751C96.7 110.451 96 110.021 95.42 109.461C94.84 108.921 94.38 108.261 94.04 107.481C93.72 106.701 93.56 105.821 93.56 104.841V99.5009L86 99.5009V94.9409ZM97.52 99.5009V104.301C97.52 104.981 97.69 105.511 98.03 105.891C98.39 106.291 98.91 106.491 99.59 106.491H100.91C101.59 106.491 102.1 106.291 102.44 105.891C102.8 105.511 102.98 104.981 102.98 104.301V99.5009H97.52ZM86 119.188V114.628L106.94 114.628L106.94 124.558C106.94 125.518 106.78 126.388 106.46 127.168C106.14 127.948 105.68 128.608 105.08 129.148C104.5 129.708 103.8 130.138 102.98 130.438C102.16 130.738 101.25 130.888 100.25 130.888C98.83 130.888 97.59 130.568 96.53 129.928C95.47 129.308 94.7 128.358 94.22 127.078L86 131.188V126.118L93.68 122.458V119.188L86 119.188ZM97.52 123.988C97.52 124.668 97.69 125.198 98.03 125.578C98.39 125.978 98.91 126.178 99.59 126.178H100.91C101.59 126.178 102.1 125.978 102.44 125.578C102.8 125.198 102.98 124.668 102.98 123.988V119.188H97.52V123.988ZM85.64 142.95C85.64 141.57 85.87 140.31 86.33 139.17C86.79 138.03 87.47 137.06 88.37 136.26C89.29 135.46 90.42 134.84 91.76 134.4C93.12 133.96 94.69 133.74 96.47 133.74C98.25 133.74 99.81 133.96 101.15 134.4C102.51 134.84 103.64 135.46 104.54 136.26C105.46 137.06 106.15 138.03 106.61 139.17C107.07 140.31 107.3 141.57 107.3 142.95C107.3 144.33 107.07 145.59 106.61 146.73C106.15 147.87 105.46 148.84 104.54 149.64C103.64 150.44 102.51 151.06 101.15 151.5C99.81 151.94 98.25 152.16 96.47 152.16C94.69 152.16 93.12 151.94 91.76 151.5C90.42 151.06 89.29 150.44 88.37 149.64C87.47 148.84 86.79 147.87 86.33 146.73C85.87 145.59 85.64 144.33 85.64 142.95ZM89.69 142.95C89.69 144.33 90.14 145.4 91.04 146.16C91.94 146.94 93.23 147.33 94.91 147.33H98.03C99.71 147.33 101 146.94 101.9 146.16C102.8 145.4 103.25 144.33 103.25 142.95C103.25 141.57 102.8 140.49 101.9 139.71C101 138.95 99.71 138.57 98.03 138.57H94.91C93.23 138.57 91.94 138.95 91.04 139.71C90.14 140.49 89.69 141.57 89.69 142.95ZM89.33 169.256V169.106C88.27 168.946 87.39 168.406 86.69 167.486C85.99 166.566 85.64 165.316 85.64 163.736C85.64 162.536 85.87 161.416 86.33 160.376C86.79 159.336 87.47 158.426 88.37 157.646C89.27 156.866 90.39 156.256 91.73 155.816C93.07 155.376 94.62 155.156 96.38 155.156C98.14 155.156 99.7 155.386 101.06 155.846C102.42 156.306 103.56 156.946 104.48 157.766C105.4 158.606 106.1 159.606 106.58 160.766C107.06 161.926 107.3 163.216 107.3 164.636C107.3 166.516 106.89 168.136 106.07 169.496C105.27 170.856 104.06 171.926 102.44 172.706L100.31 168.986C101.13 168.666 101.82 168.166 102.38 167.486C102.96 166.806 103.25 165.856 103.25 164.636C103.25 163.216 102.84 162.086 102.02 161.246C101.2 160.406 99.91 159.986 98.15 159.986H94.79C93.05 159.986 91.76 160.406 90.92 161.246C90.1 162.086 89.69 163.216 89.69 164.636C89.69 165.196 89.75 165.726 89.87 166.226C90.01 166.726 90.21 167.166 90.47 167.546C90.75 167.926 91.08 168.216 91.46 168.416C91.84 168.636 92.29 168.746 92.81 168.746H93.86V164.846H97.67V173.096H86V169.256H89.33ZM86 182.089L86 177.529H106.94L106.94 187.459C106.94 188.419 106.78 189.289 106.46 190.069C106.14 190.849 105.68 191.509 105.08 192.049C104.5 192.609 103.8 193.039 102.98 193.339C102.16 193.639 101.25 193.789 100.25 193.789C98.83 193.789 97.59 193.469 96.53 192.829C95.47 192.209 94.7 191.259 94.22 189.979L86 194.089V189.019L93.68 185.359V182.089H86ZM97.52 186.889C97.52 187.569 97.69 188.099 98.03 188.479C98.39 188.879 98.91 189.079 99.59 189.079H100.91C101.59 189.079 102.1 188.879 102.44 188.479C102.8 188.099 102.98 187.569 102.98 186.889V182.089H97.52V186.889ZM86 210.644L90.98 209.144V202.154L86 200.654V196.034L106.94 202.934V208.574L86 215.384V210.644ZM102.8 205.694V205.544L94.85 203.234V208.034L102.8 205.694ZM99.74 233.941V233.851L96.68 232.321L89.27 228.241L96.65 224.251L99.95 222.661V222.571H86L86 218.281H106.94V223.111L97.13 228.241V228.301L106.94 233.371V238.231H86V233.941H99.74ZM99.74 258.521V258.431L96.68 256.901L89.27 252.821L96.65 248.831L99.95 247.241V247.151H86L86 242.861H106.94L106.94 247.691L97.13 252.821V252.881L106.94 257.951V262.811H86V258.521H99.74ZM86 266.631H89.63V269.331H103.31V266.631H106.94V276.591H103.31V273.891H89.63V276.591H86V266.631ZM95.9 286.78L100.1 284.77V284.68H86V280.39H106.94L106.94 285.37L97.04 291.1L92.84 293.11V293.2H106.94V297.49H86V292.51L95.9 286.78ZM89.33 315.389V315.239C88.27 315.079 87.39 314.539 86.69 313.619C85.99 312.699 85.64 311.449 85.64 309.869C85.64 308.669 85.87 307.549 86.33 306.509C86.79 305.469 87.47 304.559 88.37 303.779C89.27 302.999 90.39 302.389 91.73 301.949C93.07 301.509 94.62 301.289 96.38 301.289C98.14 301.289 99.7 301.519 101.06 301.979C102.42 302.439 103.56 303.079 104.48 303.899C105.4 304.739 106.1 305.739 106.58 306.899C107.06 308.059 107.3 309.349 107.3 310.769C107.3 312.649 106.89 314.269 106.07 315.629C105.27 316.989 104.06 318.059 102.44 318.839L100.31 315.119C101.13 314.799 101.82 314.299 102.38 313.619C102.96 312.939 103.25 311.989 103.25 310.769C103.25 309.349 102.84 308.219 102.02 307.379C101.2 306.539 99.91 306.119 98.15 306.119H94.79C93.05 306.119 91.76 306.539 90.92 307.379C90.1 308.219 89.69 309.349 89.69 310.769C89.69 311.329 89.75 311.859 89.87 312.359C90.01 312.859 90.21 313.299 90.47 313.679C90.75 314.059 91.08 314.349 91.46 314.549C91.84 314.769 92.29 314.879 92.81 314.879H93.86V310.979H97.67L97.67 319.229H86V315.389H89.33Z" fill="#B7A84D"/>
<path d="M86 327.376V327.016L107 335.986L107.15 336.316L86 343.876V341.326L92.6 338.986V330.226L86 327.376ZM103.76 335.056L92.9 330.346V338.896L103.76 335.056ZM86 356.083V355.693L107 358.303V359.293L87.59 365.593L107 371.863V372.853L86 375.463V372.973L102.8 370.903L86 365.473V363.583L102.59 358.093L86 356.083ZM85.88 385.286C85.88 383.186 86.48 381.476 87.68 380.156C88.88 378.836 90.73 378.176 93.23 378.176C95.73 378.176 97.67 378.856 99.05 380.216C100.43 381.596 101.12 383.336 101.12 385.436C101.12 387.556 100.52 389.276 99.32 390.596C98.12 391.916 96.27 392.576 93.77 392.576C91.27 392.576 89.33 391.886 87.95 390.506C86.57 389.146 85.88 387.406 85.88 385.286ZM100.88 385.496C100.88 383.976 100.2 382.716 98.84 381.716C97.5 380.716 95.62 380.216 93.2 380.216C90.8 380.216 89.02 380.676 87.86 381.596C86.7 382.516 86.12 383.736 86.12 385.256C86.12 386.776 86.79 388.036 88.13 389.036C89.49 390.036 91.37 390.536 93.77 390.536C96.19 390.536 97.98 390.076 99.14 389.156C100.3 388.236 100.88 387.016 100.88 385.496ZM92.96 394.963C95.56 394.963 97.57 395.593 98.99 396.853C100.41 398.113 101.12 400.003 101.12 402.523C101.12 403.703 100.82 404.893 100.22 406.093H108.47V408.193H88.13C87.55 408.193 87.1 408.303 86.78 408.523C86.48 408.763 86.32 409.003 86.3 409.243L86.24 409.573V410.503H86V408.673C86 407.853 86.18 407.223 86.54 406.783C86.9 406.363 87.26 406.143 87.62 406.123L88.13 406.093H88.61C87.91 405.713 87.29 405.083 86.75 404.203C86.21 403.323 85.94 402.283 85.94 401.083C86.04 397.003 88.38 394.963 92.96 394.963ZM86.18 401.113C86.18 402.453 86.54 403.603 87.26 404.563C87.98 405.523 88.69 406.033 89.39 406.093H99.95C100.57 404.673 100.88 403.453 100.88 402.433C100.88 400.653 100.18 399.313 98.78 398.413C97.4 397.513 95.46 397.063 92.96 397.063C88.44 397.063 86.18 398.413 86.18 401.113ZM93.32 413.438C90.84 413.438 89.02 413.868 87.86 414.728C86.7 415.608 86.12 416.758 86.12 418.178C86.12 420.178 86.42 421.958 87.02 423.518L86.81 423.608C86.19 422.008 85.88 420.198 85.88 418.178C85.88 416.178 86.48 414.548 87.68 413.288C88.88 412.028 90.73 411.398 93.23 411.398C95.73 411.398 97.67 412.058 99.05 413.378C100.43 414.698 101.12 416.378 101.12 418.418C101.12 420.058 100.63 421.438 99.65 422.558C98.67 423.678 97.22 424.238 95.3 424.238C95.2 424.238 95.1 424.238 95 424.238L95 413.528C94.46 413.468 93.9 413.438 93.32 413.438ZM95.24 422.198C97.16 422.178 98.58 421.808 99.5 421.088C100.42 420.368 100.88 419.438 100.88 418.298C100.88 417.158 100.38 416.138 99.38 415.238C98.38 414.358 97 413.798 95.24 413.558L95.24 422.198ZM99.71 431.191H100.34C99.98 430.291 99.25 429.471 98.15 428.731C97.07 427.991 96.05 427.601 95.09 427.561H86V425.461H101V427.561H96.23C97.39 427.881 98.48 428.491 99.5 429.391C100.54 430.291 101.08 431.311 101.12 432.451V432.571C101.12 432.971 100.98 433.301 100.7 433.561C100.44 433.841 100.11 433.981 99.71 433.981C99.31 433.981 98.98 433.841 98.72 433.561C98.46 433.301 98.33 432.971 98.33 432.571C98.33 432.171 98.46 431.841 98.72 431.581C98.98 431.321 99.31 431.191 99.71 431.191ZM86 448.692C86 447.872 86.18 447.242 86.54 446.802C86.9 446.382 87.26 446.162 87.62 446.142L88.13 446.112H97.55C99.13 446.112 100.14 445.702 100.58 444.882C100.78 444.462 100.88 443.942 100.88 443.322C100.88 442.042 100.37 440.892 99.35 439.872C98.35 438.852 97.45 438.342 96.65 438.342H86V436.242H101V438.342H97.58C98.44 438.682 99.24 439.312 99.98 440.232C100.74 441.152 101.12 442.162 101.12 443.262C101.12 444.362 101.01 445.252 100.79 445.932C100.59 446.632 100.3 447.142 99.92 447.462C99.3 447.962 98.5 448.212 97.52 448.212H88.13C87.55 448.212 87.1 448.322 86.78 448.542C86.48 448.782 86.32 449.022 86.3 449.262L86.24 449.592V450.522H86V448.692ZM86 461.058V460.698L107 469.668L107.15 469.998L86 477.558V475.008L92.6 472.668V463.908L86 461.058ZM103.76 468.738L92.9 464.028V472.578L103.76 468.738ZM101 479.667V481.767H97.28C98.2 482.107 99.07 482.737 99.89 483.657C100.71 484.577 101.12 485.617 101.12 486.777C101.12 490.837 98.74 492.867 93.98 492.867C88.58 492.867 85.88 490.247 85.88 485.007C85.88 484.067 86.1 482.987 86.54 481.767H78.5V479.667H101ZM100.88 486.747C100.88 485.507 100.34 484.387 99.26 483.387C98.2 482.387 97.24 481.847 96.38 481.767H86.81C86.35 482.987 86.12 484.057 86.12 484.977C86.12 488.837 88.75 490.767 94.01 490.767C98.59 490.767 100.88 489.427 100.88 486.747ZM101 495.575V497.675H97.28C98.2 498.015 99.07 498.645 99.89 499.565C100.71 500.485 101.12 501.525 101.12 502.685C101.12 506.745 98.74 508.775 93.98 508.775C88.58 508.775 85.88 506.155 85.88 500.915C85.88 499.975 86.1 498.895 86.54 497.675H78.5V495.575H101ZM100.88 502.655C100.88 501.415 100.34 500.295 99.26 499.295C98.2 498.295 97.24 497.755 96.38 497.675H86.81C86.35 498.895 86.12 499.965 86.12 500.885C86.12 504.745 88.75 506.675 94.01 506.675C98.59 506.675 100.88 505.335 100.88 502.655ZM99.71 516.913H100.34C99.98 516.013 99.25 515.193 98.15 514.453C97.07 513.713 96.05 513.323 95.09 513.283H86V511.183H101L101 513.283H96.23C97.39 513.603 98.48 514.213 99.5 515.113C100.54 516.013 101.08 517.033 101.12 518.173V518.293C101.12 518.693 100.98 519.023 100.7 519.283C100.44 519.563 100.11 519.703 99.71 519.703C99.31 519.703 98.98 519.563 98.72 519.283C98.46 519.023 98.33 518.693 98.33 518.293C98.33 517.893 98.46 517.563 98.72 517.303C98.98 517.043 99.31 516.913 99.71 516.913ZM85.88 527.873C85.88 525.773 86.48 524.063 87.68 522.743C88.88 521.423 90.73 520.763 93.23 520.763C95.73 520.763 97.67 521.443 99.05 522.803C100.43 524.183 101.12 525.923 101.12 528.023C101.12 530.143 100.52 531.863 99.32 533.183C98.12 534.503 96.27 535.163 93.77 535.163C91.27 535.163 89.33 534.473 87.95 533.093C86.57 531.733 85.88 529.993 85.88 527.873ZM100.88 528.083C100.88 526.563 100.2 525.303 98.84 524.303C97.5 523.303 95.62 522.803 93.2 522.803C90.8 522.803 89.02 523.263 87.86 524.183C86.7 525.103 86.12 526.323 86.12 527.843C86.12 529.363 86.79 530.623 88.13 531.623C89.49 532.623 91.37 533.123 93.77 533.123C96.19 533.123 97.98 532.663 99.14 531.743C100.3 530.823 100.88 529.603 100.88 528.083ZM86 549.941C86 548.581 86.26 547.651 86.78 547.151C87.22 546.691 87.6 546.461 87.92 546.461H88.55C86.77 545.481 85.88 543.911 85.88 541.751C85.88 539.231 87.02 537.801 89.3 537.461C89.54 537.421 89.78 537.401 90.02 537.401C90.28 537.401 90.56 537.441 90.86 537.521C91.16 537.601 91.49 537.831 91.85 538.211C92.57 538.971 93.01 540.641 93.17 543.221C93.23 543.861 93.26 544.451 93.26 544.991C93.26 545.531 93.24 546.021 93.2 546.461H98.18C98.2 546.421 98.29 546.421 98.45 546.461C98.63 546.501 98.85 546.461 99.11 546.341C99.39 546.241 99.66 546.101 99.92 545.921C100.18 545.741 100.4 545.421 100.58 544.961C100.78 544.501 100.88 543.901 100.88 543.161C100.88 542.421 100.74 541.551 100.46 540.551C100.2 539.571 99.94 538.851 99.68 538.391L99.89 538.271C100.71 540.051 101.12 541.861 101.12 543.701C101.12 545.761 100.75 547.121 100.01 547.781C99.43 548.301 98.82 548.561 98.18 548.561H88.13C87.55 548.561 87.1 548.671 86.78 548.891C86.48 549.131 86.32 549.371 86.3 549.611L86.24 549.941V550.871H86V549.941ZM86.12 542.231C86.12 543.291 86.48 544.241 87.2 545.081C87.94 545.941 88.65 546.401 89.33 546.461H92.96C93 545.921 93.02 545.371 93.02 544.811C93.02 544.271 92.99 543.731 92.93 543.191C92.75 541.671 92.41 540.681 91.91 540.221C91.41 539.761 90.72 539.531 89.84 539.531C89.68 539.531 89.5 539.541 89.3 539.561C87.18 539.741 86.12 540.631 86.12 542.231ZM100.88 559.541C100.88 558.121 100.2 556.931 98.84 555.971C97.48 555.031 95.6 554.561 93.2 554.561C90.8 554.561 89.02 554.991 87.86 555.851C86.7 556.731 86.12 557.881 86.12 559.301C86.12 561.081 86.42 562.661 87.02 564.041L86.81 564.131C86.19 562.711 85.88 561.051 85.88 559.151C85.88 557.251 86.48 555.671 87.68 554.411C88.88 553.151 90.73 552.521 93.23 552.521C95.73 552.521 97.67 553.181 99.05 554.501C100.43 555.821 101.12 557.501 101.12 559.541C101.12 560.681 100.86 561.731 100.34 562.691C99.82 563.671 99.03 564.391 97.97 564.851V562.931C98.95 562.631 99.68 562.171 100.16 561.551C100.64 560.951 100.88 560.281 100.88 559.541ZM86 579.565C86 578.745 86.18 578.115 86.54 577.675C86.9 577.255 87.26 577.035 87.62 577.015L88.13 576.985H97.55C99.13 576.985 100.14 576.565 100.58 575.725C100.78 575.325 100.88 574.815 100.88 574.195C100.88 572.955 100.37 571.835 99.35 570.835C98.35 569.855 97.45 569.365 96.65 569.365H86V567.265H108.47V569.365H97.58C98.44 569.685 99.24 570.295 99.98 571.195C100.74 572.095 101.12 573.105 101.12 574.225C101.12 576.165 100.78 577.455 100.1 578.095C99.44 578.755 98.58 579.085 97.52 579.085H88.13C87.55 579.085 87.1 579.195 86.78 579.415C86.48 579.655 86.32 579.885 86.3 580.105L86.24 580.465V581.395H86V579.565Z" fill="#774348"/>
<defs>
<filter id="filter0_di_206_8" x="0" y="0" width="190" height="691" filterUnits="userSpaceOnUse" color-interpolation-filters="sRGB">
<feFlood flood-opacity="0" result="BackgroundImageFix"/>
<feColorMatrix in="SourceAlpha" type="matrix" values="0 0 0 0 0 0 0 0 0 0 0 0 0 0 0 0 0 0 127 0" result="hardAlpha"/>
<feMorphology radius="4" operator="dilate" in="SourceAlpha" result="effect1_dropShadow_206_8"/>
<feOffset dy="7"/>
<feGaussianBlur stdDeviation="17.5"/>
<feColorMatrix type="matrix" values="0 0 0 0 0.125542 0 0 0 0 0.119792 0 0 0 0 0.191667 0 0 0 0.2 0"/>
<feBlend mode="normal" in2="BackgroundImageFix" result="effect1_dropShadow_206_8"/>
<feBlend mode="normal" in="SourceGraphic" in2="effect1_dropShadow_206_8" result="shape"/>
<feColorMatrix in="SourceAlpha" type="matrix" values="0 0 0 0 0 0 0 0 0 0 0 0 0 0 0 0 0 0 127 0" result="hardAlpha"/>
<feOffset/>
<feGaussianBlur stdDeviation="5"/>
<feComposite in2="hardAlpha" operator="arithmetic" k2="-1" k3="1"/>
<feColorMatrix type="matrix" values="0 0 0 0 0.165625 0 0 0 0 0.1665 0 0 0 0 0.1875 0 0 0 0.25 0"/>
<feBlend mode="normal" in2="shape" result="effect2_innerShadow_206_8"/>
</filter>
<linearGradient id="paint0_linear_206_8" x1="39" y1="344.856" x2="54.5" y2="344.856" gradientUnits="userSpaceOnUse">
<stop offset="0.145833" stop-opacity="0"/>
<stop offset="0.48408" stop-color="#1A1D37" stop-opacity="0.35"/>
<stop offset="0.854167" stop-opacity="0"/>
</linearGradient>
<linearGradient id="paint1_linear_206_8" x1="138" y1="344.856" x2="153.5" y2="344.856" gradientUnits="userSpaceOnUse">
<stop offset="0.145833" stop-opacity="0"/>
<stop offset="0.48408" stop-color="#1A1D37" stop-opacity="0.35"/>
<stop offset="0.854167" stop-opacity="0"/>
</linearGradient>
</defs>
</svg>
