<svg width="240" height="821" viewBox="0 0 240 821" fill="none" xmlns="http://www.w3.org/2000/svg">
<g filter="url(#filter0_di_206_8)">
<rect x="39" y="32" width="162" height="743" rx="4" fill="#0B2B51"/>
<rect x="39.25" y="32.25" width="161.5" height="742.5" rx="3.75" stroke="#787F8F" stroke-width="0.5"/>
</g>
<rect x="39" y="66" width="162" height="27" fill="#FAF9FE"/>
<rect x="39" y="32" width="13" height="743" fill="url(#paint0_linear_206_8)" fill-opacity="0.29"/>
<rect x="182" y="32" width="13" height="743" fill="url(#paint1_linear_206_8)" fill-opacity="0.29"/>
<path d="M116.28 222.595C116.28 217.115 118.12 212.815 121.8 209.695C125.52 206.575 130.9 205.015 137.94 205.015C141.46 205.015 144.56 205.415 147.24 206.215C149.92 207.015 152.18 208.175 154.02 209.695C155.86 211.215 157.24 213.055 158.16 215.215C159.12 217.415 159.6 219.875 159.6 222.595C159.6 226.235 158.8 229.275 157.2 231.715C155.6 234.195 153.24 236.135 150.12 237.535L147 231.835C149 231.115 150.58 229.995 151.74 228.475C152.94 226.995 153.54 225.035 153.54 222.595C153.54 219.355 152.44 216.815 150.24 214.975C148.04 213.135 145 212.215 141.12 212.215H134.76C130.88 212.215 127.84 213.135 125.64 214.975C123.44 216.815 122.34 219.355 122.34 222.595C122.34 225.115 122.98 227.155 124.26 228.715C125.58 230.315 127.26 231.495 129.3 232.255L126 237.715C122.96 236.315 120.58 234.355 118.86 231.835C117.14 229.315 116.28 226.235 116.28 222.595ZM117 244.422L148.2 244.422V250.962H142.2V251.262C143.8 251.702 145.2 252.622 146.4 254.022C147.6 255.422 148.2 257.362 148.2 259.842V261.582H141.9V259.002C141.9 256.402 141.48 254.402 140.64 253.002C139.8 251.642 138.56 250.962 136.92 250.962H117V244.422ZM148.2 287.058L148.2 293.358L110.82 280.218C109.78 279.858 108.9 279.438 108.18 278.958C107.42 278.518 106.82 277.978 106.38 277.338C105.9 276.738 105.56 275.998 105.36 275.118C105.12 274.238 105 273.198 105 271.998V268.218H110.34V273.498L115.62 275.298L148.2 263.958V270.498L129.84 276.738L123.06 278.538V278.838L129.84 280.818L148.2 287.058ZM148.2 298.739V305.279H143.04V305.579C144.92 306.259 146.36 307.359 147.36 308.879C148.4 310.439 148.92 312.259 148.92 314.339C148.92 318.299 147.48 321.359 144.6 323.519C141.76 325.679 137.76 326.759 132.6 326.759C127.44 326.759 123.42 325.679 120.54 323.519C117.7 321.359 116.28 318.299 116.28 314.339C116.28 312.259 116.8 310.439 117.84 308.879C118.88 307.359 120.32 306.259 122.16 305.579V305.279H105L105 298.739H148.2ZM121.92 312.359C121.92 314.639 122.64 316.459 124.08 317.819C125.56 319.179 127.5 319.859 129.9 319.859H135.3C137.7 319.859 139.62 319.179 141.06 317.819C142.54 316.459 143.28 314.639 143.28 312.359C143.28 310.359 142.78 308.679 141.78 307.319C140.82 305.959 139.54 305.279 137.94 305.279H127.26C125.66 305.279 124.36 305.959 123.36 307.319C122.4 308.679 121.92 310.359 121.92 312.359ZM117 342.535C117 340.255 117.58 338.535 118.74 337.375C119.94 336.215 121.62 335.635 123.78 335.635H142.86V330.775H148.2V333.415C148.2 334.495 148.44 335.235 148.92 335.635C149.4 336.075 150.18 336.295 151.26 336.295H156.72V342.175H148.2L148.2 348.715H142.86L142.86 342.175H122.34L122.34 348.235H117V342.535ZM116.28 367.815C116.28 365.655 116.66 363.675 117.42 361.875C118.18 360.115 119.26 358.615 120.66 357.375C122.1 356.135 123.82 355.175 125.82 354.495C127.86 353.815 130.12 353.475 132.6 353.475C135.08 353.475 137.32 353.815 139.32 354.495C141.36 355.175 143.08 356.135 144.48 357.375C145.92 358.615 147.02 360.115 147.78 361.875C148.54 363.675 148.92 365.655 148.92 367.815C148.92 369.975 148.54 371.935 147.78 373.695C147.02 375.495 145.92 377.015 144.48 378.255C143.08 379.495 141.36 380.455 139.32 381.135C137.32 381.815 135.08 382.155 132.6 382.155C130.12 382.155 127.86 381.815 125.82 381.135C123.82 380.455 122.1 379.495 120.66 378.255C119.26 377.015 118.18 375.495 117.42 373.695C116.66 371.935 116.28 369.975 116.28 367.815ZM121.68 367.815C121.68 370.055 122.36 371.855 123.72 373.215C125.12 374.575 127.2 375.255 129.96 375.255H135.24C138 375.255 140.06 374.575 141.42 373.215C142.82 371.855 143.52 370.055 143.52 367.815C143.52 365.575 142.82 363.775 141.42 362.415C140.06 361.055 138 360.375 135.24 360.375H129.96C127.2 360.375 125.12 361.055 123.72 362.415C122.36 363.775 121.68 365.575 121.68 367.815ZM114.06 416.802C110.82 416.802 108.38 415.562 106.74 413.082C105.1 410.602 104.28 406.562 104.28 400.962C104.28 398.402 104.46 396.222 104.82 394.422C105.14 392.662 105.62 391.202 106.26 390.042C106.9 388.922 107.68 388.102 108.6 387.582C109.52 387.062 110.58 386.802 111.78 386.802C113.5 386.802 114.84 387.262 115.8 388.182C116.76 389.142 117.42 390.462 117.78 392.142H118.44C119.2 389.782 120.8 388.602 123.24 388.602C124.84 388.602 126.06 389.142 126.9 390.222C127.78 391.302 128.4 392.602 128.76 394.122H129C129.88 392.282 131.1 390.862 132.66 389.862C134.26 388.902 136.12 388.422 138.24 388.422C141.44 388.422 144.02 389.482 145.98 391.602C147.94 393.762 148.92 396.842 148.92 400.842C148.92 403.042 148.6 404.922 147.96 406.482H148.8C150.2 406.482 151.28 406.802 152.04 407.442C152.84 408.122 153.24 409.162 153.24 410.562V415.362H147.96V409.002H146.7C145.78 410.402 144.58 411.482 143.1 412.242C141.66 413.002 140.04 413.382 138.24 413.382C135.08 413.382 132.52 412.302 130.56 410.142C128.64 407.982 127.68 404.902 127.68 400.902C127.68 399.382 127.84 398.022 128.16 396.822C127.88 396.022 127.48 395.322 126.96 394.722C126.48 394.122 125.84 393.822 125.04 393.822C124.2 393.822 123.6 394.202 123.24 394.962C122.88 395.722 122.7 396.802 122.7 398.202V405.882C122.7 409.722 121.92 412.502 120.36 414.222C118.84 415.942 116.74 416.802 114.06 416.802ZM113.34 410.682C114.42 410.682 115.28 410.262 115.92 409.422C116.56 408.622 116.88 407.142 116.88 404.982L116.88 394.422C116.04 392.982 114.84 392.262 113.28 392.262C112 392.262 110.98 392.762 110.22 393.762C109.42 394.802 109.02 396.542 109.02 398.982L109.02 403.062C109.02 408.142 110.46 410.682 113.34 410.682ZM132.42 400.902C132.42 402.822 132.84 404.302 133.68 405.342C134.56 406.422 135.9 406.962 137.7 406.962H138.9C140.7 406.962 142.02 406.422 142.86 405.342C143.74 404.302 144.18 402.822 144.18 400.902C144.18 398.982 143.74 397.482 142.86 396.402C142.02 395.362 140.7 394.842 138.9 394.842H137.7C135.9 394.842 134.56 395.362 133.68 396.402C132.84 397.482 132.42 398.982 132.42 400.902ZM117 421.668H148.2L148.2 428.208H142.2V428.508C143.8 428.948 145.2 429.868 146.4 431.268C147.6 432.668 148.2 434.608 148.2 437.088V438.828H141.9V436.248C141.9 433.648 141.48 431.648 140.64 430.248C139.8 428.888 138.56 428.208 136.92 428.208H117V421.668ZM117 467.028C117 465.308 117.48 463.988 118.44 463.068C119.44 462.148 120.7 461.588 122.22 461.388V461.088C120.26 460.488 118.78 459.388 117.78 457.788C116.78 456.188 116.28 454.248 116.28 451.968C116.28 448.728 117.12 446.228 118.8 444.468C120.48 442.748 122.74 441.888 125.58 441.888C128.7 441.888 131.04 443.008 132.6 445.248C134.16 447.528 134.94 450.848 134.94 455.208V460.848H137.58C139.5 460.848 140.98 460.328 142.02 459.288C143.06 458.248 143.58 456.628 143.58 454.428C143.58 452.588 143.18 451.088 142.38 449.928C141.58 448.768 140.56 447.788 139.32 446.988L142.86 443.088C144.62 444.128 146.06 445.588 147.18 447.468C148.34 449.348 148.92 451.808 148.92 454.848C148.92 458.888 147.98 461.988 146.1 464.148C144.22 466.308 141.52 467.388 138 467.388H122.34V470.688H117L117 467.028ZM121.26 453.828C121.26 455.868 121.7 457.548 122.58 458.868C123.5 460.188 124.72 460.848 126.24 460.848H130.74V455.328C130.74 450.808 129.34 448.548 126.54 448.548H125.46C124.06 448.548 123 449.008 122.28 449.928C121.6 450.888 121.26 452.188 121.26 453.828ZM148.2 477.098V483.638H143.04V483.938C144.92 484.618 146.36 485.718 147.36 487.238C148.4 488.798 148.92 490.618 148.92 492.698C148.92 496.658 147.48 499.718 144.6 501.878C141.76 504.038 137.76 505.118 132.6 505.118C127.44 505.118 123.42 504.038 120.54 501.878C117.7 499.718 116.28 496.658 116.28 492.698C116.28 490.618 116.8 488.798 117.84 487.238C118.88 485.718 120.32 484.618 122.16 483.938V483.638L105 483.638V477.098L148.2 477.098ZM121.92 490.718C121.92 492.998 122.64 494.818 124.08 496.178C125.56 497.538 127.5 498.218 129.9 498.218H135.3C137.7 498.218 139.62 497.538 141.06 496.178C142.54 494.818 143.28 492.998 143.28 490.718C143.28 488.718 142.78 487.038 141.78 485.678C140.82 484.318 139.54 483.638 137.94 483.638H127.26C125.66 483.638 124.36 484.318 123.36 485.678C122.4 487.038 121.92 488.718 121.92 490.718ZM161.4 512.606V519.146H143.04V519.446C144.72 520.126 146.12 521.146 147.24 522.506C148.36 523.906 148.92 525.806 148.92 528.206C148.92 531.406 147.86 533.886 145.74 535.646C143.66 537.446 140.68 538.346 136.8 538.346H117L117 531.806H136.02C140.86 531.806 143.28 529.846 143.28 525.926C143.28 525.086 143.16 524.246 142.92 523.406C142.72 522.606 142.4 521.886 141.96 521.246C141.52 520.606 140.96 520.086 140.28 519.686C139.6 519.326 138.82 519.146 137.94 519.146H117V512.606H161.4ZM148.2 566.082V572.382L110.82 559.242C109.78 558.882 108.9 558.462 108.18 557.982C107.42 557.542 106.82 557.002 106.38 556.362C105.9 555.762 105.56 555.022 105.36 554.142C105.12 553.262 105 552.222 105 551.022V547.242H110.34V552.522L115.62 554.322L148.2 542.982V549.522L129.84 555.762L123.06 557.562V557.862L129.84 559.842L148.2 566.082ZM85.72 277.727L67 277.727V275.207L85.72 275.207V268.547H87.94V284.387H85.72V277.727ZM89.2 287.605V290.005L79.96 290.005V290.125C80.84 290.505 81.54 291.035 82.06 291.715C82.58 292.415 82.84 293.345 82.84 294.505C82.84 296.105 82.32 297.365 81.28 298.285C80.26 299.225 78.81 299.695 76.93 299.695H67V297.295H76.51C79.29 297.295 80.68 296.125 80.68 293.785C80.68 293.305 80.62 292.835 80.5 292.375C80.38 291.935 80.2 291.535 79.96 291.175C79.72 290.815 79.41 290.525 79.03 290.305C78.67 290.105 78.24 290.005 77.74 290.005H67V287.605L89.2 287.605ZM66.64 310.475C66.64 309.415 66.83 308.455 67.21 307.595C67.59 306.755 68.13 306.025 68.83 305.405C69.55 304.805 70.4 304.335 71.38 303.995C72.38 303.675 73.5 303.515 74.74 303.515C75.96 303.515 77.07 303.675 78.07 303.995C79.07 304.335 79.92 304.805 80.62 305.405C81.34 306.025 81.89 306.755 82.27 307.595C82.65 308.455 82.84 309.415 82.84 310.475C82.84 311.515 82.65 312.445 82.27 313.265C81.89 314.085 81.36 314.785 80.68 315.365C80.02 315.945 79.23 316.385 78.31 316.685C77.39 317.005 76.38 317.165 75.28 317.165H74.14V306.035H73.42C72.76 306.035 72.14 306.135 71.56 306.335C71 306.555 70.51 306.855 70.09 307.235C69.67 307.635 69.34 308.115 69.1 308.675C68.86 309.255 68.74 309.905 68.74 310.625C68.74 311.605 68.97 312.455 69.43 313.175C69.89 313.915 70.55 314.485 71.41 314.885L70.18 316.595C69.12 316.095 68.26 315.315 67.6 314.255C66.96 313.195 66.64 311.935 66.64 310.475ZM80.83 310.475C80.83 309.815 80.71 309.215 80.47 308.675C80.25 308.135 79.93 307.665 79.51 307.265C79.09 306.885 78.59 306.585 78.01 306.365C77.45 306.145 76.83 306.035 76.15 306.035H75.94V314.585H76.27C77.65 314.585 78.75 314.205 79.57 313.445C80.41 312.705 80.83 311.715 80.83 310.475ZM66.64 326.97C66.64 325.93 66.83 324.98 67.21 324.12C67.59 323.26 68.13 322.52 68.83 321.9C69.55 321.3 70.4 320.83 71.38 320.49C72.38 320.15 73.5 319.98 74.74 319.98C75.96 319.98 77.07 320.15 78.07 320.49C79.07 320.83 79.92 321.3 80.62 321.9C81.34 322.52 81.89 323.26 82.27 324.12C82.65 324.98 82.84 325.93 82.84 326.97C82.84 328.01 82.65 328.95 82.27 329.79C81.89 330.65 81.34 331.39 80.62 332.01C79.92 332.63 79.07 333.11 78.07 333.45C77.07 333.79 75.96 333.96 74.74 333.96C73.5 333.96 72.38 333.79 71.38 333.45C70.4 333.11 69.55 332.63 68.83 332.01C68.13 331.39 67.59 330.65 67.21 329.79C66.83 328.95 66.64 328.01 66.64 326.97ZM68.77 326.97C68.77 328.27 69.17 329.33 69.97 330.15C70.77 330.97 71.99 331.38 73.63 331.38H75.85C77.49 331.38 78.71 330.97 79.51 330.15C80.31 329.33 80.71 328.27 80.71 326.97C80.71 325.67 80.31 324.61 79.51 323.79C78.71 322.97 77.49 322.56 75.85 322.56H73.63C71.99 322.56 70.77 322.97 69.97 323.79C69.17 324.61 68.77 325.67 68.77 326.97ZM67 337.907H82.48V340.307H79.63V340.457C80.37 340.737 81.03 341.237 81.61 341.957C82.19 342.677 82.48 343.667 82.48 344.927V345.857H80.08V344.447C80.08 343.147 79.83 342.127 79.33 341.387C78.85 340.667 78.24 340.307 77.5 340.307H67V337.907ZM82.48 358.756V361.126L63.4 354.196C62.94 354.016 62.56 353.836 62.26 353.656C61.94 353.476 61.69 353.256 61.51 352.996C61.33 352.736 61.2 352.406 61.12 352.006C61.04 351.626 61 351.156 61 350.596V349.366H63.1V351.796L66.4 352.966L82.48 347.176V349.576L71.95 353.296L69.43 354.016V354.166L71.95 355.006L82.48 358.756ZM67 382.527C67 381.627 67.24 380.977 67.72 380.577C68.2 380.197 68.8 379.957 69.52 379.857V379.707C68.56 379.367 67.84 378.807 67.36 378.027C66.88 377.247 66.64 376.317 66.64 375.237C66.64 373.597 67.06 372.317 67.9 371.397C68.74 370.497 69.88 370.047 71.32 370.047C72.78 370.047 73.9 370.577 74.68 371.637C75.46 372.717 75.85 374.387 75.85 376.647V379.707H77.38C78.48 379.707 79.32 379.407 79.9 378.807C80.48 378.207 80.77 377.287 80.77 376.047C80.77 375.107 80.56 374.317 80.14 373.677C79.72 373.057 79.16 372.537 78.46 372.117L79.81 370.677C80.65 371.097 81.36 371.767 81.94 372.687C82.54 373.607 82.84 374.767 82.84 376.167C82.84 378.047 82.38 379.507 81.46 380.547C80.54 381.587 79.26 382.107 77.62 382.107H69.1V383.877H67V382.527ZM68.68 375.627C68.68 376.227 68.75 376.777 68.89 377.277C69.03 377.777 69.23 378.207 69.49 378.567C69.75 378.927 70.05 379.207 70.39 379.407C70.73 379.607 71.1 379.707 71.5 379.707H74.05V376.527C74.05 375.147 73.85 374.137 73.45 373.497C73.05 372.877 72.47 372.567 71.71 372.567H71.08C70.32 372.567 69.73 372.837 69.31 373.377C68.89 373.937 68.68 374.687 68.68 375.627ZM67 387.302H82.48V389.702H79.96V389.822C80.84 390.202 81.54 390.732 82.06 391.412C82.58 392.112 82.84 393.042 82.84 394.202C82.84 395.802 82.32 397.062 81.28 397.982C80.26 398.922 78.81 399.392 76.93 399.392H67V396.992H76.51C79.29 396.992 80.68 395.822 80.68 393.482C80.68 393.002 80.62 392.532 80.5 392.072C80.38 391.632 80.2 391.232 79.96 390.872C79.72 390.512 79.41 390.222 79.03 390.002C78.67 389.802 78.24 389.702 77.74 389.702H67V387.302ZM69.52 414.253V414.133C67.6 413.193 66.64 411.683 66.64 409.603C66.64 408.643 66.83 407.773 67.21 406.993C67.59 406.213 68.13 405.543 68.83 404.983C69.53 404.443 70.38 404.023 71.38 403.723C72.38 403.443 73.5 403.303 74.74 403.303C75.98 403.303 77.1 403.443 78.1 403.723C79.1 404.023 79.95 404.443 80.65 404.983C81.35 405.543 81.89 406.213 82.27 406.993C82.65 407.773 82.84 408.643 82.84 409.603C82.84 410.683 82.6 411.603 82.12 412.363C81.66 413.143 80.94 413.733 79.96 414.133V414.253H89.2V416.653H67V414.253H69.52ZM68.8 410.263C68.8 410.803 68.87 411.313 69.01 411.793C69.15 412.293 69.35 412.723 69.61 413.083C69.89 413.443 70.22 413.723 70.6 413.923C71 414.143 71.45 414.253 71.95 414.253H77.71C78.13 414.253 78.52 414.143 78.88 413.923C79.26 413.723 79.58 413.443 79.84 413.083C80.1 412.723 80.3 412.293 80.44 411.793C80.6 411.313 80.68 410.803 80.68 410.263C80.68 408.903 80.25 407.833 79.39 407.053C78.55 406.273 77.44 405.883 76.06 405.883H73.42C72.04 405.883 70.92 406.273 70.06 407.053C69.22 407.833 68.8 408.903 68.8 410.263ZM67 429.085H87.94L87.94 437.425C87.94 439.305 87.4 440.745 86.32 441.745C85.26 442.765 83.8 443.275 81.94 443.275C80.08 443.275 78.61 442.765 77.53 441.745C76.47 440.745 75.94 439.305 75.94 437.425L75.94 431.605H67V429.085ZM78.16 431.605L78.16 437.425C78.16 438.425 78.42 439.195 78.94 439.735C79.46 440.295 80.2 440.575 81.16 440.575H82.72C83.68 440.575 84.42 440.295 84.94 439.735C85.46 439.195 85.72 438.425 85.72 437.425L85.72 431.605H78.16ZM67 446.745H82.48V449.145H79.63V449.295C80.37 449.575 81.03 450.075 81.61 450.795C82.19 451.515 82.48 452.505 82.48 453.765V454.695H80.08V453.285C80.08 451.985 79.83 450.965 79.33 450.225C78.85 449.505 78.24 449.145 77.5 449.145H67V446.745ZM67 468.894C67 467.994 67.24 467.344 67.72 466.944C68.2 466.564 68.8 466.324 69.52 466.224V466.074C68.56 465.734 67.84 465.174 67.36 464.394C66.88 463.614 66.64 462.684 66.64 461.604C66.64 459.964 67.06 458.684 67.9 457.764C68.74 456.864 69.88 456.414 71.32 456.414C72.78 456.414 73.9 456.944 74.68 458.004C75.46 459.084 75.85 460.754 75.85 463.014V466.074H77.38C78.48 466.074 79.32 465.774 79.9 465.174C80.48 464.574 80.77 463.654 80.77 462.414C80.77 461.474 80.56 460.684 80.14 460.044C79.72 459.424 79.16 458.904 78.46 458.484L79.81 457.044C80.65 457.464 81.36 458.134 81.94 459.054C82.54 459.974 82.84 461.134 82.84 462.534C82.84 464.414 82.38 465.874 81.46 466.914C80.54 467.954 79.26 468.474 77.62 468.474H69.1V470.244H67V468.894ZM68.68 461.994C68.68 462.594 68.75 463.144 68.89 463.644C69.03 464.144 69.23 464.574 69.49 464.934C69.75 465.294 70.05 465.574 70.39 465.774C70.73 465.974 71.1 466.074 71.5 466.074H74.05V462.894C74.05 461.514 73.85 460.504 73.45 459.864C73.05 459.244 72.47 458.934 71.71 458.934H71.08C70.32 458.934 69.73 459.204 69.31 459.744C68.89 460.304 68.68 461.054 68.68 461.994ZM66.64 479.429C66.64 478.349 66.83 477.379 67.21 476.519C67.59 475.659 68.13 474.929 68.83 474.329C69.53 473.749 70.38 473.299 71.38 472.979C72.38 472.679 73.5 472.529 74.74 472.529C75.98 472.529 77.1 472.679 78.1 472.979C79.1 473.299 79.95 473.749 80.65 474.329C81.35 474.929 81.89 475.659 82.27 476.519C82.65 477.379 82.84 478.349 82.84 479.429C82.84 480.969 82.5 482.199 81.82 483.119C81.16 484.059 80.29 484.759 79.21 485.219L78.19 483.209C78.99 482.929 79.61 482.469 80.05 481.829C80.49 481.189 80.71 480.389 80.71 479.429C80.71 478.709 80.59 478.079 80.35 477.539C80.13 476.999 79.81 476.549 79.39 476.189C78.99 475.829 78.5 475.559 77.92 475.379C77.36 475.199 76.74 475.109 76.06 475.109H73.42C72.06 475.109 70.94 475.469 70.06 476.189C69.2 476.929 68.77 478.009 68.77 479.429C68.77 481.369 69.67 482.769 71.47 483.629L70.3 485.369C69.18 484.869 68.29 484.119 67.63 483.119C66.97 482.139 66.64 480.909 66.64 479.429ZM67 492.177C67 491.337 67.23 490.697 67.69 490.257C68.17 489.837 68.79 489.627 69.55 489.627H80.38V487.077H82.48V488.517C82.48 489.037 82.58 489.387 82.78 489.567C83 489.767 83.37 489.867 83.89 489.867H86.77V492.027H82.48V495.417H80.38V492.027H69.1V495.177H67V492.177ZM86.11 500.475C86.11 499.955 86.23 499.575 86.47 499.335C86.73 499.115 87.06 499.005 87.46 499.005H87.85C88.25 499.005 88.57 499.115 88.81 499.335C89.07 499.575 89.2 499.955 89.2 500.475C89.2 500.995 89.07 501.365 88.81 501.585C88.57 501.825 88.25 501.945 87.85 501.945H87.46C87.06 501.945 86.73 501.825 86.47 501.585C86.23 501.365 86.11 500.995 86.11 500.475ZM82.48 499.275L82.48 501.675H67L67 499.275H82.48ZM66.64 512.535C66.64 511.455 66.83 510.485 67.21 509.625C67.59 508.765 68.13 508.035 68.83 507.435C69.53 506.855 70.38 506.405 71.38 506.085C72.38 505.785 73.5 505.635 74.74 505.635C75.98 505.635 77.1 505.785 78.1 506.085C79.1 506.405 79.95 506.855 80.65 507.435C81.35 508.035 81.89 508.765 82.27 509.625C82.65 510.485 82.84 511.455 82.84 512.535C82.84 514.075 82.5 515.305 81.82 516.225C81.16 517.165 80.29 517.865 79.21 518.325L78.19 516.315C78.99 516.035 79.61 515.575 80.05 514.935C80.49 514.295 80.71 513.495 80.71 512.535C80.71 511.815 80.59 511.185 80.35 510.645C80.13 510.105 79.81 509.655 79.39 509.295C78.99 508.935 78.5 508.665 77.92 508.485C77.36 508.305 76.74 508.215 76.06 508.215H73.42C72.06 508.215 70.94 508.575 70.06 509.295C69.2 510.035 68.77 511.115 68.77 512.535C68.77 514.475 69.67 515.875 71.47 516.735L70.3 518.475C69.18 517.975 68.29 517.225 67.63 516.225C66.97 515.245 66.64 514.015 66.64 512.535ZM66.64 527.507C66.64 526.447 66.83 525.487 67.21 524.627C67.59 523.787 68.13 523.057 68.83 522.437C69.55 521.837 70.4 521.367 71.38 521.027C72.38 520.707 73.5 520.547 74.74 520.547C75.96 520.547 77.07 520.707 78.07 521.027C79.07 521.367 79.92 521.837 80.62 522.437C81.34 523.057 81.89 523.787 82.27 524.627C82.65 525.487 82.84 526.447 82.84 527.507C82.84 528.547 82.65 529.477 82.27 530.297C81.89 531.117 81.36 531.817 80.68 532.397C80.02 532.977 79.23 533.417 78.31 533.717C77.39 534.037 76.38 534.197 75.28 534.197H74.14L74.14 523.067H73.42C72.76 523.067 72.14 523.167 71.56 523.367C71 523.587 70.51 523.887 70.09 524.267C69.67 524.667 69.34 525.147 69.1 525.707C68.86 526.287 68.74 526.937 68.74 527.657C68.74 528.637 68.97 529.487 69.43 530.207C69.89 530.947 70.55 531.517 71.41 531.917L70.18 533.627C69.12 533.127 68.26 532.347 67.6 531.287C66.96 530.227 66.64 528.967 66.64 527.507ZM80.83 527.507C80.83 526.847 80.71 526.247 80.47 525.707C80.25 525.167 79.93 524.697 79.51 524.297C79.09 523.917 78.59 523.617 78.01 523.397C77.45 523.177 76.83 523.067 76.15 523.067H75.94V531.617H76.27C77.65 531.617 78.75 531.237 79.57 530.477C80.41 529.737 80.83 528.747 80.83 527.507Z" fill="#F7B976"/>
<defs>
<filter id="filter0_di_206_8" x="0" y="0" width="240" height="821" filterUnits="userSpaceOnUse" color-interpolation-filters="sRGB">
<feFlood flood-opacity="0" result="BackgroundImageFix"/>
<feColorMatrix in="SourceAlpha" type="matrix" values="0 0 0 0 0 0 0 0 0 0 0 0 0 0 0 0 0 0 127 0" result="hardAlpha"/>
<feMorphology radius="4" operator="dilate" in="SourceAlpha" result="effect1_dropShadow_206_8"/>
<feOffset dy="7"/>
<feGaussianBlur stdDeviation="17.5"/>
<feColorMatrix type="matrix" values="0 0 0 0 0.125542 0 0 0 0 0.119792 0 0 0 0 0.191667 0 0 0 0.2 0"/>
<feBlend mode="normal" in2="BackgroundImageFix" result="effect1_dropShadow_206_8"/>
<feBlend mode="normal" in="SourceGraphic" in2="effect1_dropShadow_206_8" result="shape"/>
<feColorMatrix in="SourceAlpha" type="matrix" values="0 0 0 0 0 0 0 0 0 0 0 0 0 0 0 0 0 0 127 0" result="hardAlpha"/>
<feOffset/>
<feGaussianBlur stdDeviation="5"/>
<feComposite in2="hardAlpha" operator="arithmetic" k2="-1" k3="1"/>
<feColorMatrix type="matrix" values="0 0 0 0 0.165625 0 0 0 0 0.1665 0 0 0 0 0.1875 0 0 0 0.25 0"/>
<feBlend mode="normal" in2="shape" result="effect2_innerShadow_206_8"/>
</filter>
<linearGradient id="paint0_linear_206_8" x1="39" y1="411.204" x2="54.5" y2="411.204" gradientUnits="userSpaceOnUse">
<stop offset="0.145833" stop-opacity="0"/>
<stop offset="0.48408" stop-color="#1A1D37" stop-opacity="0.35"/>
<stop offset="0.854167" stop-opacity="0"/>
</linearGradient>
<linearGradient id="paint1_linear_206_8" x1="182" y1="411.204" x2="197.5" y2="411.204" gradientUnits="userSpaceOnUse">
<stop offset="0.145833" stop-opacity="0"/>
<stop offset="0.48408" stop-color="#1A1D37" stop-opacity="0.35"/>
<stop offset="0.854167" stop-opacity="0"/>
</linearGradient>
</defs>
</svg>
