<svg width="146" height="669" viewBox="0 0 146 669" fill="none" xmlns="http://www.w3.org/2000/svg">
<g filter="url(#filter0_di_206_8)">
<rect x="39" y="32" width="68" height="591" rx="4" fill="#E9CB97"/>
<rect x="39.25" y="32.25" width="67.5" height="590.5" rx="3.75" stroke="#787F8F" stroke-width="0.5"/>
</g>
<rect x="39" y="566" width="68" height="27" fill="#9F62B1"/>
<rect x="39" y="32" width="13" height="591" fill="url(#paint0_linear_206_8)" fill-opacity="0.29"/>
<rect x="94" y="32" width="13" height="591" fill="url(#paint1_linear_206_8)" fill-opacity="0.29"/>
<path d="M80.075 91.8328L66 91.8328V88.0328H80.075V83.3078L83.45 83.3078V96.5578H80.075V91.8328ZM84.5 98.9574V102.657H76.9V102.807C77.5833 103.041 78.175 103.449 78.675 104.032C79.175 104.616 79.425 105.424 79.425 106.457C79.425 107.807 78.975 108.824 78.075 109.507C77.175 110.207 75.8917 110.557 74.225 110.557H66V106.857H73.925C74.775 106.857 75.4 106.724 75.8 106.457C76.2167 106.191 76.425 105.716 76.425 105.032C76.425 104.732 76.3833 104.441 76.3 104.157C76.2333 103.874 76.1167 103.616 75.95 103.382C75.7833 103.166 75.575 102.991 75.325 102.857C75.0917 102.724 74.8167 102.657 74.5 102.657H66L66 98.9574L84.5 98.9574ZM65.7 119.325C65.7 118.325 65.8583 117.433 66.175 116.65C66.5083 115.867 66.9667 115.2 67.55 114.65C68.15 114.117 68.875 113.708 69.725 113.425C70.575 113.158 71.525 113.025 72.575 113.025C73.6083 113.025 74.5417 113.158 75.375 113.425C76.225 113.692 76.95 114.083 77.55 114.6C78.15 115.133 78.6083 115.783 78.925 116.55C79.2583 117.317 79.425 118.192 79.425 119.175C79.425 120.258 79.2417 121.183 78.875 121.95C78.5083 122.733 78.0167 123.367 77.4 123.85C76.7833 124.35 76.0667 124.708 75.25 124.925C74.45 125.158 73.6083 125.275 72.725 125.275H71.625V116.85H71.425C70.5583 116.85 69.8667 117.083 69.35 117.55C68.85 118.017 68.6 118.75 68.6 119.75C68.6 120.517 68.75 121.142 69.05 121.625C69.3667 122.108 69.7417 122.558 70.175 122.975L67.875 124.825C67.1917 124.242 66.6583 123.475 66.275 122.525C65.8917 121.592 65.7 120.525 65.7 119.325ZM76.7 119.25C76.7 118.5 76.45 117.908 75.95 117.475C75.4667 117.058 74.8167 116.85 74 116.85H73.8V121.45H74.025C74.825 121.45 75.4667 121.267 75.95 120.9C76.45 120.55 76.7 120 76.7 119.25ZM83.45 133.996V140.571C83.45 141.721 83.2667 142.771 82.9 143.721C82.5333 144.671 81.9833 145.48 81.25 146.146C80.5333 146.813 79.625 147.33 78.525 147.696C77.4417 148.063 76.175 148.246 74.725 148.246C73.275 148.246 72 148.063 70.9 147.696C69.8167 147.33 68.9083 146.813 68.175 146.146C67.4583 145.48 66.9167 144.671 66.55 143.721C66.1833 142.771 66 141.721 66 140.571V133.996H83.45ZM69.375 140.571C69.375 141.705 69.6917 142.596 70.325 143.246C70.9583 143.896 71.975 144.221 73.375 144.221H76.075C77.475 144.221 78.4917 143.896 79.125 143.246C79.7583 142.596 80.075 141.705 80.075 140.571V137.796H69.375V140.571ZM65.7 156.703C65.7 155.703 65.8583 154.811 66.175 154.028C66.5083 153.245 66.9667 152.578 67.55 152.028C68.15 151.495 68.875 151.086 69.725 150.803C70.575 150.536 71.525 150.403 72.575 150.403C73.6083 150.403 74.5417 150.536 75.375 150.803C76.225 151.07 76.95 151.461 77.55 151.978C78.15 152.511 78.6083 153.161 78.925 153.928C79.2583 154.695 79.425 155.57 79.425 156.553C79.425 157.636 79.2417 158.561 78.875 159.328C78.5083 160.111 78.0167 160.745 77.4 161.228C76.7833 161.728 76.0667 162.086 75.25 162.303C74.45 162.536 73.6083 162.653 72.725 162.653H71.625V154.228H71.425C70.5583 154.228 69.8667 154.461 69.35 154.928C68.85 155.395 68.6 156.128 68.6 157.128C68.6 157.895 68.75 158.52 69.05 159.003C69.3667 159.486 69.7417 159.936 70.175 160.353L67.875 162.203C67.1917 161.62 66.6583 160.853 66.275 159.903C65.8917 158.97 65.7 157.903 65.7 156.703ZM76.7 156.628C76.7 155.878 76.45 155.286 75.95 154.853C75.4667 154.436 74.8167 154.228 74 154.228H73.8V158.828H74.025C74.825 158.828 75.4667 158.645 75.95 158.278C76.45 157.928 76.7 157.378 76.7 156.628ZM65.7 169.716C65.7 168.449 65.9 167.383 66.3 166.516C66.7167 165.649 67.3 164.874 68.05 164.191L70.25 166.366C69.7333 166.833 69.325 167.349 69.025 167.916C68.725 168.483 68.575 169.124 68.575 169.841C68.575 170.574 68.6833 171.083 68.9 171.366C69.1333 171.649 69.4417 171.791 69.825 171.791C70.4417 171.791 70.8083 171.349 70.925 170.466L71.1 169.041C71.4667 166.091 72.8167 164.616 75.15 164.616C75.7833 164.616 76.3583 164.733 76.875 164.966C77.4083 165.216 77.8583 165.558 78.225 165.991C78.6083 166.441 78.9 166.974 79.1 167.591C79.3167 168.224 79.425 168.933 79.425 169.716C79.425 170.399 79.375 170.999 79.275 171.516C79.1917 172.049 79.0583 172.516 78.875 172.916C78.7083 173.333 78.4917 173.708 78.225 174.041C77.975 174.391 77.6917 174.733 77.375 175.066L75.2 172.941C75.6167 172.524 75.9417 172.049 76.175 171.516C76.425 170.999 76.55 170.466 76.55 169.916C76.55 169.283 76.45 168.833 76.25 168.566C76.05 168.299 75.7833 168.166 75.45 168.166C75.1 168.166 74.825 168.258 74.625 168.441C74.4417 168.641 74.3083 169.008 74.225 169.541L74.025 171.016C73.6417 173.899 72.325 175.341 70.075 175.341C69.4417 175.341 68.8583 175.208 68.325 174.941C67.7917 174.674 67.325 174.291 66.925 173.791C66.5417 173.308 66.2417 172.716 66.025 172.016C65.8083 171.333 65.7 170.566 65.7 169.716ZM80.525 179.714C80.525 178.964 80.6917 178.414 81.025 178.064C81.375 177.73 81.8167 177.564 82.35 177.564H82.9C83.4333 177.564 83.8667 177.73 84.2 178.064C84.55 178.414 84.725 178.964 84.725 179.714C84.725 180.464 84.55 181.005 84.2 181.339C83.8667 181.689 83.4333 181.864 82.9 181.864H82.35C81.8167 181.864 81.375 181.689 81.025 181.339C80.6917 181.005 80.525 180.464 80.525 179.714ZM79.125 177.864V181.564H66V177.864H79.125ZM65.05 197.167C64.35 197.167 63.7333 197.042 63.2 196.792C62.6667 196.559 62.2167 196.167 61.85 195.617C61.4667 195.067 61.1833 194.334 61 193.417C60.8 192.517 60.7 191.4 60.7 190.067C60.7 188.934 60.775 187.967 60.925 187.167C61.0583 186.384 61.2583 185.742 61.525 185.242C61.775 184.759 62.0917 184.4 62.475 184.167C62.8417 183.95 63.2667 183.842 63.75 183.842C64.4833 183.842 65.0583 184.059 65.475 184.492C65.8917 184.925 66.15 185.525 66.25 186.292H66.525C66.6417 185.659 66.9083 185.184 67.325 184.867C67.7583 184.55 68.2583 184.392 68.825 184.392C69.175 184.392 69.475 184.459 69.725 184.592C69.9917 184.742 70.2167 184.925 70.4 185.142C70.6 185.375 70.7583 185.642 70.875 185.942C70.9917 186.242 71.0833 186.542 71.15 186.842H71.25C71.6167 186.042 72.1167 185.45 72.75 185.067C73.4 184.684 74.15 184.492 75 184.492C76.3333 184.492 77.4 184.95 78.2 185.867C79.0167 186.8 79.425 188.217 79.425 190.117C79.425 190.984 79.3417 191.725 79.175 192.342H79.675C80.375 192.342 80.875 192.509 81.175 192.842C81.4917 193.192 81.65 193.684 81.65 194.317V196.392H78.9V193.492H78.75C78.3833 194.259 77.875 194.825 77.225 195.192C76.5917 195.559 75.85 195.742 75 195.742C73.6833 195.742 72.625 195.275 71.825 194.342C71.0417 193.425 70.65 192.017 70.65 190.117C70.65 189.267 70.7417 188.492 70.925 187.792C70.675 187.409 70.325 187.217 69.875 187.217C69.5583 187.217 69.3083 187.334 69.125 187.567C68.9583 187.817 68.875 188.225 68.875 188.792V192.592C68.875 194.192 68.5417 195.35 67.875 196.067C67.2083 196.8 66.2667 197.167 65.05 197.167ZM64.55 193.692C64.9333 193.692 65.225 193.542 65.425 193.242C65.625 192.942 65.725 192.417 65.725 191.667V187.167C65.5583 187 65.375 186.875 65.175 186.792C64.9583 186.725 64.75 186.692 64.55 186.692C64.0667 186.692 63.7167 186.9 63.5 187.317C63.2667 187.734 63.15 188.442 63.15 189.442V190.942C63.15 191.942 63.2667 192.65 63.5 193.067C63.7167 193.484 64.0667 193.692 64.55 193.692ZM73.075 190.117C73.075 190.85 73.225 191.392 73.525 191.742C73.8417 192.109 74.2917 192.292 74.875 192.292H75.175C75.7583 192.292 76.2 192.109 76.5 191.742C76.8167 191.392 76.975 190.85 76.975 190.117C76.975 189.384 76.8167 188.834 76.5 188.467C76.2 188.117 75.7583 187.942 75.175 187.942H74.875C74.2917 187.942 73.8417 188.117 73.525 188.467C73.225 188.834 73.075 189.384 73.075 190.117ZM66 198.811L79.125 198.811V202.511H76.9V202.661C77.5833 202.894 78.175 203.303 78.675 203.886C79.175 204.469 79.425 205.278 79.425 206.311C79.425 207.661 78.975 208.678 78.075 209.361C77.175 210.061 75.8917 210.411 74.225 210.411L66 210.411V206.711L73.925 206.711C74.775 206.711 75.4 206.578 75.8 206.311C76.2167 206.044 76.425 205.569 76.425 204.886C76.425 204.586 76.3833 204.294 76.3 204.011C76.2333 203.728 76.1167 203.469 75.95 203.236C75.7833 203.019 75.575 202.844 75.325 202.711C75.0917 202.578 74.8167 202.511 74.5 202.511L66 202.511V198.811ZM66 229.312C66 228.645 66.2083 228.087 66.625 227.637C67.0417 227.203 67.6 226.928 68.3 226.812V226.662C67.45 226.462 66.8 226.02 66.35 225.337C65.9167 224.653 65.7 223.812 65.7 222.812C65.7 221.495 66.05 220.487 66.75 219.787C67.45 219.087 68.375 218.737 69.525 218.737C70.9083 218.737 71.9333 219.237 72.6 220.237C73.2833 221.253 73.625 222.628 73.625 224.362V226.437H74.45C75.0833 226.437 75.5833 226.27 75.95 225.937C76.3333 225.603 76.525 225.045 76.525 224.262C76.525 223.528 76.3667 222.945 76.05 222.512C75.7333 222.078 75.375 221.72 74.975 221.437L76.925 219.237C77.7083 219.77 78.3167 220.437 78.75 221.237C79.2 222.053 79.425 223.153 79.425 224.537C79.425 226.403 79.0167 227.803 78.2 228.737C77.3833 229.67 76.1917 230.137 74.625 230.137H68.875V231.362L66 231.362V229.312ZM68.275 224.187C68.275 224.803 68.4083 225.328 68.675 225.762C68.9417 226.212 69.375 226.437 69.975 226.437H71.525V224.637C71.525 223.187 71.0333 222.462 70.05 222.462H69.675C69.1917 222.462 68.8333 222.612 68.6 222.912C68.3833 223.212 68.275 223.637 68.275 224.187ZM66 233.845L79.125 233.845L79.125 237.545H76.9V237.695C77.5833 237.928 78.175 238.337 78.675 238.92C79.175 239.503 79.425 240.312 79.425 241.345C79.425 242.695 78.975 243.712 78.075 244.395C77.175 245.095 75.8917 245.445 74.225 245.445L66 245.445V241.745L73.925 241.745C74.775 241.745 75.4 241.612 75.8 241.345C76.2167 241.078 76.425 240.603 76.425 239.92C76.425 239.62 76.3833 239.328 76.3 239.045C76.2333 238.762 76.1167 238.503 75.95 238.27C75.7833 238.053 75.575 237.878 75.325 237.745C75.0917 237.612 74.8167 237.545 74.5 237.545L66 237.545V233.845ZM68.2 256.788V256.663C67.85 256.563 67.5167 256.404 67.2 256.188C66.9 255.971 66.6333 255.704 66.4 255.388C66.1833 255.088 66.0167 254.738 65.9 254.338C65.7667 253.954 65.7 253.554 65.7 253.138C65.7 251.471 66.2833 250.213 67.45 249.363C68.6333 248.513 70.3417 248.088 72.575 248.088C74.8083 248.088 76.5083 248.513 77.675 249.363C78.8417 250.213 79.425 251.471 79.425 253.138C79.425 253.988 79.1917 254.738 78.725 255.388C78.2583 256.054 77.6583 256.479 76.925 256.663V256.788H84.5V260.488H66V256.788H68.2ZM68.7 254.363C68.7 255.063 68.8667 255.638 69.2 256.088C69.55 256.554 70.025 256.788 70.625 256.788H74.5C75.1 256.788 75.5667 256.554 75.9 256.088C76.25 255.638 76.425 255.063 76.425 254.363C76.425 253.663 76.175 253.079 75.675 252.613C75.1917 252.163 74.5333 251.938 73.7 251.938H71.425C70.5917 251.938 69.925 252.163 69.425 252.613C68.9417 253.079 68.7 253.663 68.7 254.363ZM66 280.806L70.15 279.556L70.15 273.731L66 272.481V268.631L83.45 274.381L83.45 279.081L66 284.756L66 280.806ZM80 276.681V276.556L73.375 274.631V278.631L80 276.681ZM66 286.97H79.125V290.67H76.9V290.82C77.5833 291.053 78.175 291.462 78.675 292.045C79.175 292.628 79.425 293.437 79.425 294.47C79.425 295.82 78.975 296.837 78.075 297.52C77.175 298.22 75.8917 298.57 74.225 298.57H66V294.87H73.925C74.775 294.87 75.4 294.737 75.8 294.47C76.2167 294.203 76.425 293.728 76.425 293.045C76.425 292.745 76.3833 292.453 76.3 292.17C76.2333 291.887 76.1167 291.628 75.95 291.395C75.7833 291.178 75.575 291.003 75.325 290.87C75.0917 290.737 74.8167 290.67 74.5 290.67H66V286.97ZM66 311.563C66 310.896 66.2083 310.338 66.625 309.888C67.0417 309.454 67.6 309.179 68.3 309.063V308.913C67.45 308.713 66.8 308.271 66.35 307.588C65.9167 306.904 65.7 306.063 65.7 305.063C65.7 303.746 66.05 302.738 66.75 302.038C67.45 301.338 68.375 300.988 69.525 300.988C70.9083 300.988 71.9333 301.488 72.6 302.488C73.2833 303.504 73.625 304.879 73.625 306.613V308.688H74.45C75.0833 308.688 75.5833 308.521 75.95 308.188C76.3333 307.854 76.525 307.296 76.525 306.513C76.525 305.779 76.3667 305.196 76.05 304.763C75.7333 304.329 75.375 303.971 74.975 303.688L76.925 301.488C77.7083 302.021 78.3167 302.688 78.75 303.488C79.2 304.304 79.425 305.404 79.425 306.788C79.425 308.654 79.0167 310.054 78.2 310.988C77.3833 311.921 76.1917 312.388 74.625 312.388H68.875V313.613H66V311.563ZM68.275 306.438C68.275 307.054 68.4083 307.579 68.675 308.013C68.9417 308.463 69.375 308.688 69.975 308.688H71.525V306.888C71.525 305.438 71.0333 304.713 70.05 304.713H69.675C69.1917 304.713 68.8333 304.863 68.6 305.163C68.3833 305.463 68.275 305.888 68.275 306.438ZM66 319.771C66 318.504 66.3083 317.571 66.925 316.971C67.5417 316.388 68.4333 316.096 69.6 316.096H84.5V319.796H68.875V321.446H66V319.771ZM79.125 331.543V334.993L63.975 329.943C62.9583 329.61 62.2083 329.135 61.725 328.518C61.2417 327.918 61 327.051 61 325.918V323.618H63.875V326.093L65.325 326.543L79.125 321.943V325.618L73 327.543L69.2 328.493V328.643L73 329.618L79.125 331.543ZM65.7 341.103C65.7 339.836 65.9 338.769 66.3 337.903C66.7167 337.036 67.3 336.261 68.05 335.578L70.25 337.753C69.7333 338.219 69.325 338.736 69.025 339.303C68.725 339.869 68.575 340.511 68.575 341.228C68.575 341.961 68.6833 342.469 68.9 342.753C69.1333 343.036 69.4417 343.178 69.825 343.178C70.4417 343.178 70.8083 342.736 70.925 341.853L71.1 340.428C71.4667 337.478 72.8167 336.003 75.15 336.003C75.7833 336.003 76.3583 336.119 76.875 336.353C77.4083 336.603 77.8583 336.944 78.225 337.378C78.6083 337.828 78.9 338.361 79.1 338.978C79.3167 339.611 79.425 340.319 79.425 341.103C79.425 341.786 79.375 342.386 79.275 342.903C79.1917 343.436 79.0583 343.903 78.875 344.303C78.7083 344.719 78.4917 345.094 78.225 345.428C77.975 345.778 77.6917 346.119 77.375 346.453L75.2 344.328C75.6167 343.911 75.9417 343.436 76.175 342.903C76.425 342.386 76.55 341.853 76.55 341.303C76.55 340.669 76.45 340.219 76.25 339.953C76.05 339.686 75.7833 339.553 75.45 339.553C75.1 339.553 74.825 339.644 74.625 339.828C74.4417 340.028 74.3083 340.394 74.225 340.928L74.025 342.403C73.6417 345.286 72.325 346.728 70.075 346.728C69.4417 346.728 68.8583 346.594 68.325 346.328C67.7917 346.061 67.325 345.678 66.925 345.178C66.5417 344.694 66.2417 344.103 66.025 343.403C65.8083 342.719 65.7 341.953 65.7 341.103ZM80.525 351.1C80.525 350.35 80.6917 349.8 81.025 349.45C81.375 349.117 81.8167 348.95 82.35 348.95H82.9C83.4333 348.95 83.8667 349.117 84.2 349.45C84.55 349.8 84.725 350.35 84.725 351.1C84.725 351.85 84.55 352.392 84.2 352.725C83.8667 353.075 83.4333 353.25 82.9 353.25H82.35C81.8167 353.25 81.375 353.075 81.025 352.725C80.6917 352.392 80.525 351.85 80.525 351.1ZM79.125 349.25V352.95H66V349.25H79.125ZM65.7 360.854C65.7 359.587 65.9 358.52 66.3 357.654C66.7167 356.787 67.3 356.012 68.05 355.329L70.25 357.504C69.7333 357.97 69.325 358.487 69.025 359.054C68.725 359.62 68.575 360.262 68.575 360.979C68.575 361.712 68.6833 362.22 68.9 362.504C69.1333 362.787 69.4417 362.929 69.825 362.929C70.4417 362.929 70.8083 362.487 70.925 361.604L71.1 360.179C71.4667 357.229 72.8167 355.754 75.15 355.754C75.7833 355.754 76.3583 355.87 76.875 356.104C77.4083 356.354 77.8583 356.695 78.225 357.129C78.6083 357.579 78.9 358.112 79.1 358.729C79.3167 359.362 79.425 360.07 79.425 360.854C79.425 361.537 79.375 362.137 79.275 362.654C79.1917 363.187 79.0583 363.654 78.875 364.054C78.7083 364.47 78.4917 364.845 78.225 365.179C77.975 365.529 77.6917 365.87 77.375 366.204L75.2 364.079C75.6167 363.662 75.9417 363.187 76.175 362.654C76.425 362.137 76.55 361.604 76.55 361.054C76.55 360.42 76.45 359.97 76.25 359.704C76.05 359.437 75.7833 359.304 75.45 359.304C75.1 359.304 74.825 359.395 74.625 359.579C74.4417 359.779 74.3083 360.145 74.225 360.679L74.025 362.154C73.6417 365.037 72.325 366.479 70.075 366.479C69.4417 366.479 68.8583 366.345 68.325 366.079C67.7917 365.812 67.325 365.429 66.925 364.929C66.5417 364.445 66.2417 363.854 66.025 363.154C65.8083 362.47 65.7 361.704 65.7 360.854ZM65.7 380.235C65.7 379.268 65.8583 378.401 66.175 377.635C66.4917 376.885 66.95 376.243 67.55 375.71C68.15 375.193 68.875 374.793 69.725 374.51C70.575 374.226 71.525 374.085 72.575 374.085C73.625 374.085 74.575 374.226 75.425 374.51C76.275 374.793 76.9917 375.193 77.575 375.71C78.175 376.243 78.6333 376.885 78.95 377.635C79.2667 378.401 79.425 379.268 79.425 380.235C79.425 381.201 79.2667 382.06 78.95 382.81C78.6333 383.576 78.175 384.218 77.575 384.735C76.9917 385.268 76.275 385.676 75.425 385.96C74.575 386.243 73.625 386.385 72.575 386.385C71.525 386.385 70.575 386.243 69.725 385.96C68.875 385.676 68.15 385.268 67.55 384.735C66.95 384.218 66.4917 383.576 66.175 382.81C65.8583 382.06 65.7 381.201 65.7 380.235ZM68.625 380.235C68.625 380.968 68.85 381.535 69.3 381.935C69.75 382.335 70.3917 382.535 71.225 382.535H73.9C74.7333 382.535 75.375 382.335 75.825 381.935C76.275 381.535 76.5 380.968 76.5 380.235C76.5 379.501 76.275 378.935 75.825 378.535C75.375 378.135 74.7333 377.935 73.9 377.935H71.225C70.3917 377.935 69.75 378.135 69.3 378.535C68.85 378.935 68.625 379.501 68.625 380.235ZM76.25 389.524V387.674H79.125V389.524H80.675C81.9417 389.524 82.8917 389.858 83.525 390.524C84.175 391.191 84.5 392.166 84.5 393.449V395.849H81.625V393.224H79.125V395.849H76.25V393.224H66V389.524H76.25ZM66 414.766L70.15 413.516L70.15 407.691L66 406.441V402.591L83.45 408.341L83.45 413.041L66 418.716L66 414.766ZM80 410.641V410.516L73.375 408.591L73.375 412.591L80 410.641ZM66 424.605C66 423.338 66.3083 422.405 66.925 421.805C67.5417 421.222 68.4333 420.93 69.6 420.93H84.5V424.63H68.875V426.28H66V424.605ZM65.05 440.648C64.35 440.648 63.7333 440.523 63.2 440.273C62.6667 440.04 62.2167 439.648 61.85 439.098C61.4667 438.548 61.1833 437.815 61 436.898C60.8 435.998 60.7 434.882 60.7 433.548C60.7 432.415 60.775 431.448 60.925 430.648C61.0583 429.865 61.2583 429.223 61.525 428.723C61.775 428.24 62.0917 427.882 62.475 427.648C62.8417 427.432 63.2667 427.323 63.75 427.323C64.4833 427.323 65.0583 427.54 65.475 427.973C65.8917 428.407 66.15 429.007 66.25 429.773H66.525C66.6417 429.14 66.9083 428.665 67.325 428.348C67.7583 428.032 68.2583 427.873 68.825 427.873C69.175 427.873 69.475 427.94 69.725 428.073C69.9917 428.223 70.2167 428.407 70.4 428.623C70.6 428.857 70.7583 429.123 70.875 429.423C70.9917 429.723 71.0833 430.023 71.15 430.323H71.25C71.6167 429.523 72.1167 428.932 72.75 428.548C73.4 428.165 74.15 427.973 75 427.973C76.3333 427.973 77.4 428.432 78.2 429.348C79.0167 430.282 79.425 431.698 79.425 433.598C79.425 434.465 79.3417 435.207 79.175 435.823H79.675C80.375 435.823 80.875 435.99 81.175 436.323C81.4917 436.673 81.65 437.165 81.65 437.798V439.873H78.9V436.973H78.75C78.3833 437.74 77.875 438.307 77.225 438.673C76.5917 439.04 75.85 439.223 75 439.223C73.6833 439.223 72.625 438.757 71.825 437.823C71.0417 436.907 70.65 435.498 70.65 433.598C70.65 432.748 70.7417 431.973 70.925 431.273C70.675 430.89 70.325 430.698 69.875 430.698C69.5583 430.698 69.3083 430.815 69.125 431.048C68.9583 431.298 68.875 431.707 68.875 432.273V436.073C68.875 437.673 68.5417 438.832 67.875 439.548C67.2083 440.282 66.2667 440.648 65.05 440.648ZM64.55 437.173C64.9333 437.173 65.225 437.023 65.425 436.723C65.625 436.423 65.725 435.898 65.725 435.148L65.725 430.648C65.5583 430.482 65.375 430.357 65.175 430.273C64.9583 430.207 64.75 430.173 64.55 430.173C64.0667 430.173 63.7167 430.382 63.5 430.798C63.2667 431.215 63.15 431.923 63.15 432.923V434.423C63.15 435.423 63.2667 436.132 63.5 436.548C63.7167 436.965 64.0667 437.173 64.55 437.173ZM73.075 433.598C73.075 434.332 73.225 434.873 73.525 435.223C73.8417 435.59 74.2917 435.773 74.875 435.773H75.175C75.7583 435.773 76.2 435.59 76.5 435.223C76.8167 434.873 76.975 434.332 76.975 433.598C76.975 432.865 76.8167 432.315 76.5 431.948C76.2 431.598 75.7583 431.423 75.175 431.423H74.875C74.2917 431.423 73.8417 431.598 73.525 431.948C73.225 432.315 73.075 432.865 73.075 433.598ZM65.7 447.471C65.7 446.504 65.8583 445.638 66.175 444.871C66.4917 444.121 66.95 443.479 67.55 442.946C68.15 442.429 68.875 442.029 69.725 441.746C70.575 441.463 71.525 441.321 72.575 441.321C73.625 441.321 74.575 441.463 75.425 441.746C76.275 442.029 76.9917 442.429 77.575 442.946C78.175 443.479 78.6333 444.121 78.95 444.871C79.2667 445.638 79.425 446.504 79.425 447.471C79.425 448.438 79.2667 449.296 78.95 450.046C78.6333 450.813 78.175 451.454 77.575 451.971C76.9917 452.504 76.275 452.913 75.425 453.196C74.575 453.479 73.625 453.621 72.575 453.621C71.525 453.621 70.575 453.479 69.725 453.196C68.875 452.913 68.15 452.504 67.55 451.971C66.95 451.454 66.4917 450.813 66.175 450.046C65.8583 449.296 65.7 448.438 65.7 447.471ZM68.625 447.471C68.625 448.204 68.85 448.771 69.3 449.171C69.75 449.571 70.3917 449.771 71.225 449.771H73.9C74.7333 449.771 75.375 449.571 75.825 449.171C76.275 448.771 76.5 448.204 76.5 447.471C76.5 446.738 76.275 446.171 75.825 445.771C75.375 445.371 74.7333 445.171 73.9 445.171H71.225C70.3917 445.171 69.75 445.371 69.3 445.771C68.85 446.171 68.625 446.738 68.625 447.471ZM66 456.257H79.125V459.957H76.275V460.082C76.6417 460.149 76.9917 460.266 77.325 460.432C77.675 460.599 77.9833 460.816 78.25 461.082C78.5167 461.366 78.725 461.699 78.875 462.082C79.0417 462.466 79.125 462.916 79.125 463.432V464.082H75.675V463.157C75.675 462.074 75.5333 461.266 75.25 460.732C74.9667 460.216 74.4417 459.957 73.675 459.957H66V456.257ZM80.525 468.215C80.525 467.465 80.6917 466.915 81.025 466.565C81.375 466.231 81.8167 466.065 82.35 466.065H82.9C83.4333 466.065 83.8667 466.231 84.2 466.565C84.55 466.915 84.725 467.465 84.725 468.215C84.725 468.965 84.55 469.506 84.2 469.84C83.8667 470.19 83.4333 470.365 82.9 470.365H82.35C81.8167 470.365 81.375 470.19 81.025 469.84C80.6917 469.506 80.525 468.965 80.525 468.215ZM79.125 466.365V470.065H66V466.365H79.125ZM66 478.118C66 476.835 66.325 475.86 66.975 475.193C67.625 474.543 68.575 474.218 69.825 474.218H76.25V472.368H79.125V473.293C79.125 473.793 79.2417 474.135 79.475 474.318C79.725 474.501 80.075 474.593 80.525 474.593H82.675L82.675 477.918H79.125V480.518H76.25V477.918H68.875V480.318H66V478.118ZM84.5 483.088V486.788H76.9V486.938C77.5833 487.172 78.175 487.58 78.675 488.163C79.175 488.747 79.425 489.555 79.425 490.588C79.425 491.938 78.975 492.955 78.075 493.638C77.175 494.338 75.8917 494.688 74.225 494.688H66V490.988H73.925C74.775 490.988 75.4 490.855 75.8 490.588C76.2167 490.322 76.425 489.847 76.425 489.163C76.425 488.863 76.3833 488.572 76.3 488.288C76.2333 488.005 76.1167 487.747 75.95 487.513C75.7833 487.297 75.575 487.122 75.325 486.988C75.0917 486.855 74.8167 486.788 74.5 486.788H66V483.088H84.5ZM66 497.981H79.125V501.681H76.9V501.831C77.6 502.064 78.1917 502.464 78.675 503.031C79.175 503.598 79.425 504.373 79.425 505.356C79.425 506.256 79.2 507.023 78.75 507.656C78.3 508.289 77.6417 508.748 76.775 509.031V509.106C77.1417 509.223 77.4833 509.398 77.8 509.631C78.1333 509.881 78.4167 510.181 78.65 510.531C78.8833 510.881 79.0667 511.273 79.2 511.706C79.35 512.139 79.425 512.606 79.425 513.106C79.425 514.373 78.975 515.339 78.075 516.006C77.175 516.689 75.8917 517.031 74.225 517.031H66V513.331H73.925C75.5917 513.331 76.425 512.731 76.425 511.531C76.425 510.981 76.2667 510.481 75.95 510.031C75.6333 509.581 75.15 509.356 74.5 509.356H66V505.656H73.925C75.5917 505.656 76.425 505.056 76.425 503.856C76.425 503.589 76.3833 503.323 76.3 503.056C76.2333 502.806 76.1167 502.573 75.95 502.356C75.7833 502.156 75.575 501.989 75.325 501.856C75.0917 501.739 74.8167 501.681 74.5 501.681H66L66 497.981ZM65.7 524.77C65.7 523.503 65.9 522.436 66.3 521.57C66.7167 520.703 67.3 519.928 68.05 519.245L70.25 521.42C69.7333 521.886 69.325 522.403 69.025 522.97C68.725 523.536 68.575 524.178 68.575 524.895C68.575 525.628 68.6833 526.136 68.9 526.42C69.1333 526.703 69.4417 526.845 69.825 526.845C70.4417 526.845 70.8083 526.403 70.925 525.52L71.1 524.095C71.4667 521.145 72.8167 519.67 75.15 519.67C75.7833 519.67 76.3583 519.786 76.875 520.02C77.4083 520.27 77.8583 520.611 78.225 521.045C78.6083 521.495 78.9 522.028 79.1 522.645C79.3167 523.278 79.425 523.986 79.425 524.77C79.425 525.453 79.375 526.053 79.275 526.57C79.1917 527.103 79.0583 527.57 78.875 527.97C78.7083 528.386 78.4917 528.761 78.225 529.095C77.975 529.445 77.6917 529.786 77.375 530.12L75.2 527.995C75.6167 527.578 75.9417 527.103 76.175 526.57C76.425 526.053 76.55 525.52 76.55 524.97C76.55 524.336 76.45 523.886 76.25 523.62C76.05 523.353 75.7833 523.22 75.45 523.22C75.1 523.22 74.825 523.311 74.625 523.495C74.4417 523.695 74.3083 524.061 74.225 524.595L74.025 526.07C73.6417 528.953 72.325 530.395 70.075 530.395C69.4417 530.395 68.8583 530.261 68.325 529.995C67.7917 529.728 67.325 529.345 66.925 528.845C66.5417 528.361 66.2417 527.77 66.025 527.07C65.8083 526.386 65.7 525.62 65.7 524.77Z" fill="black"/>
<defs>
<filter id="filter0_di_206_8" x="0" y="0" width="146" height="669" filterUnits="userSpaceOnUse" color-interpolation-filters="sRGB">
<feFlood flood-opacity="0" result="BackgroundImageFix"/>
<feColorMatrix in="SourceAlpha" type="matrix" values="0 0 0 0 0 0 0 0 0 0 0 0 0 0 0 0 0 0 127 0" result="hardAlpha"/>
<feMorphology radius="4" operator="dilate" in="SourceAlpha" result="effect1_dropShadow_206_8"/>
<feOffset dy="7"/>
<feGaussianBlur stdDeviation="17.5"/>
<feColorMatrix type="matrix" values="0 0 0 0 0.125542 0 0 0 0 0.119792 0 0 0 0 0.191667 0 0 0 0.2 0"/>
<feBlend mode="normal" in2="BackgroundImageFix" result="effect1_dropShadow_206_8"/>
<feBlend mode="normal" in="SourceGraphic" in2="effect1_dropShadow_206_8" result="shape"/>
<feColorMatrix in="SourceAlpha" type="matrix" values="0 0 0 0 0 0 0 0 0 0 0 0 0 0 0 0 0 0 127 0" result="hardAlpha"/>
<feOffset/>
<feGaussianBlur stdDeviation="5"/>
<feComposite in2="hardAlpha" operator="arithmetic" k2="-1" k3="1"/>
<feColorMatrix type="matrix" values="0 0 0 0 0.165625 0 0 0 0 0.1665 0 0 0 0 0.1875 0 0 0 0.25 0"/>
<feBlend mode="normal" in2="shape" result="effect2_innerShadow_206_8"/>
</filter>
<linearGradient id="paint0_linear_206_8" x1="39" y1="333.628" x2="54.5" y2="333.628" gradientUnits="userSpaceOnUse">
<stop offset="0.145833" stop-opacity="0"/>
<stop offset="0.48408" stop-color="#1A1D37" stop-opacity="0.35"/>
<stop offset="0.854167" stop-opacity="0"/>
</linearGradient>
<linearGradient id="paint1_linear_206_8" x1="94" y1="333.628" x2="109.5" y2="333.628" gradientUnits="userSpaceOnUse">
<stop offset="0.145833" stop-opacity="0"/>
<stop offset="0.48408" stop-color="#1A1D37" stop-opacity="0.35"/>
<stop offset="0.854167" stop-opacity="0"/>
</linearGradient>
</defs>
</svg>
