<svg width="120" height="512" viewBox="0 0 120 512" fill="none" xmlns="http://www.w3.org/2000/svg">
<rect width="42" height="434" transform="translate(39 32)" fill="#F6E57B"/>
<g filter="url(#filter0_di_203_33)">
<rect x="39.25" y="32.25" width="41.5" height="433.5" rx="3.75" stroke="#787F8F" stroke-width="0.5"/>
</g>
<rect x="38" y="435" width="42" height="31" fill="#80B06A"/>
<rect x="39" y="435" width="42" height="11" fill="black"/>
<rect x="39" y="32" width="13" height="434" fill="url(#paint0_linear_203_33)" fill-opacity="0.29"/>
<rect x="68" y="32" width="13" height="434" fill="url(#paint1_linear_203_33)" fill-opacity="0.29"/>
<path d="M50.8418 48.1826C50.8418 46.6299 51.1055 45.2852 51.6328 44.1484C52.1602 43.0176 52.9482 42.1416 53.9971 41.5205C55.0459 40.9053 56.3496 40.5977 57.9082 40.5977C59.4609 40.5977 60.7383 40.8994 61.7402 41.5029C62.7422 42.1123 63.4863 42.9795 63.9727 44.1045C64.459 45.2295 64.7021 46.5654 64.7021 48.1123C64.7021 49.2314 64.6025 50.2363 64.4033 51.127C64.2041 52.0176 63.9346 52.835 63.5947 53.5791H59.2178L59.2178 50.9336C59.6455 50.6992 60.0117 50.4092 60.3164 50.0635C60.627 49.7178 60.7822 49.2988 60.7822 48.8066C60.7822 48.1973 60.6533 47.6904 60.3955 47.2861C60.1377 46.8877 59.8037 46.5889 59.3936 46.3896C58.9834 46.1963 58.5498 46.0996 58.0928 46.0996C57.3545 46.0996 56.7715 46.249 56.3438 46.5479C55.916 46.8525 55.6113 47.2539 55.4297 47.752C55.2539 48.2559 55.166 48.8096 55.166 49.4131C55.166 50.1104 55.251 50.8281 55.4209 51.5664C55.5967 52.3047 55.7988 52.9756 56.0273 53.5791L51.7383 53.5791C51.457 52.7471 51.2373 51.8945 51.0791 51.0215C50.9209 50.1484 50.8418 49.2021 50.8418 48.1826ZM51 54.6074L54.8145 54.6074L55.0342 55.9961H60.4658L60.6855 54.6074H64.5L64.5 62.5264C64.5 63.4932 64.4561 64.3984 64.3682 65.2422C64.2861 66.0859 64.1045 66.8242 63.8232 67.457C63.5479 68.0957 63.126 68.5938 62.5576 68.9512C61.9951 69.3086 61.2334 69.4873 60.2725 69.4873C59.5635 69.4873 58.9834 69.373 58.5322 69.1445C58.0869 68.9219 57.7266 68.6084 57.4512 68.2041C57.1758 67.8057 56.9326 67.3428 56.7217 66.8154C55.9951 67.2666 55.3271 67.7295 54.7178 68.2041C54.1143 68.6787 53.6104 69.1064 53.2061 69.4873H51V63.8975C52.5879 62.9951 54.1963 62.3389 55.8252 61.9287V61.6211L51 61.6211L51 54.6074ZM58.418 61.6211C58.418 62.0723 58.4502 62.4648 58.5146 62.7988C58.585 63.1387 58.7285 63.4023 58.9453 63.5898C59.168 63.7773 59.5049 63.8711 59.9561 63.8711C60.4072 63.8711 60.7412 63.7773 60.958 63.5898C61.1807 63.4023 61.3271 63.1387 61.3975 62.7988C61.4736 62.4648 61.5117 62.0723 61.5117 61.6211H58.418ZM51 70.8232L55.4297 70.8232L55.6494 71.9043L64.5 74.4971V81.7568L55.6494 84.3584L55.4297 85.4395L51 85.4395V80.4385L53.2676 79.9639V76.29L51 75.8242V70.8232ZM56.2822 77.0459V79.208L61.3711 78.127L56.2822 77.0459ZM50.8418 94.3076C50.8418 92.7549 51.1055 91.4102 51.6328 90.2734C52.1602 89.1426 52.9482 88.2666 53.9971 87.6455C55.0459 87.0303 56.3496 86.7227 57.9082 86.7227C59.4609 86.7227 60.7383 87.0244 61.7402 87.6279C62.7422 88.2373 63.4863 89.1045 63.9727 90.2295C64.459 91.3545 64.7021 92.6904 64.7021 94.2373C64.7021 95.3564 64.6025 96.3613 64.4033 97.252C64.2041 98.1426 63.9346 98.96 63.5947 99.7041H59.2178V97.0586C59.6455 96.8242 60.0117 96.5342 60.3164 96.1885C60.627 95.8428 60.7822 95.4238 60.7822 94.9316C60.7822 94.3223 60.6533 93.8154 60.3955 93.4111C60.1377 93.0127 59.8037 92.7139 59.3936 92.5146C58.9834 92.3213 58.5498 92.2246 58.0928 92.2246C57.3545 92.2246 56.7715 92.374 56.3437 92.6729C55.916 92.9775 55.6113 93.3789 55.4297 93.877C55.2539 94.3809 55.166 94.9346 55.166 95.5381C55.166 96.2354 55.251 96.9531 55.4209 97.6914C55.5967 98.4297 55.7988 99.1006 56.0273 99.7041H51.7383C51.457 98.8721 51.2373 98.0195 51.0791 97.1465C50.9209 96.2734 50.8418 95.3271 50.8418 94.3076ZM51 100.785L54.8145 100.785L55.0342 102.174H60.4658L60.6855 100.785H64.5V107.799L59.0859 107.799L64.5 110.286V117.256H62.3379C61.7461 116.441 61.0693 115.694 60.3076 115.015C59.5459 114.335 58.7461 113.714 57.9082 113.151C57.0586 113.772 56.2002 114.411 55.333 115.067C54.4658 115.729 53.6865 116.453 52.9951 117.238H51V110.286L56.6338 107.799H51V100.785ZM51 118.328H54.8145L55.0342 119.717L60.4658 119.717L60.6855 118.328H64.5L64.5 126.73H60.6855L60.4658 125.342L55.0342 125.342L54.8145 126.73H51L51 118.328ZM51 127.864H54.8145L55.0342 129.235H60.4658L60.6855 127.864H64.5V134.86L57.583 139.36H60.4482L60.6855 138.235H64.5V144.106H60.6855L60.4658 142.735H51V137.102L57.583 132.61H55.0342L54.8232 133.735H51V127.864ZM50.8418 152.79C50.8418 150.464 51.4365 148.645 52.626 147.332C53.8213 146.025 55.582 145.372 57.9082 145.372C60.1699 145.372 61.8662 146.005 62.9971 147.271C64.1338 148.536 64.7021 150.291 64.7021 152.535C64.7021 153.742 64.6055 154.814 64.4121 155.752C64.2246 156.695 63.9434 157.562 63.5684 158.354H59.5518V155.708C59.8857 155.474 60.1729 155.184 60.4131 154.838C60.6592 154.492 60.7822 154.073 60.7822 153.581C60.7822 153.054 60.6533 152.597 60.3955 152.21C60.1436 151.829 59.8008 151.533 59.3672 151.322C58.9336 151.111 58.4473 151.006 57.9082 151.006C56.959 151.006 56.2324 151.22 55.7285 151.647C55.2305 152.081 54.9814 152.752 54.9814 153.66C54.9814 153.895 54.9932 154.117 55.0166 154.328C55.0459 154.539 55.0811 154.744 55.1221 154.943H56.1855V153.256H58.5937V158.723H52.1777C51.8262 157.885 51.5156 156.977 51.2461 155.998C50.9766 155.025 50.8418 153.956 50.8418 152.79ZM50.8418 173.04C50.8418 171.487 51.1055 170.143 51.6328 169.006C52.1602 167.875 52.9482 166.999 53.9971 166.378C55.0459 165.763 56.3496 165.455 57.9082 165.455C59.4609 165.455 60.7383 165.757 61.7402 166.36C62.7422 166.97 63.4863 167.837 63.9727 168.962C64.459 170.087 64.7021 171.423 64.7021 172.97C64.7021 174.089 64.6025 175.094 64.4033 175.984C64.2041 176.875 63.9346 177.692 63.5947 178.437H59.2178V175.791C59.6455 175.557 60.0117 175.267 60.3164 174.921C60.627 174.575 60.7822 174.156 60.7822 173.664C60.7822 173.055 60.6533 172.548 60.3955 172.144C60.1377 171.745 59.8037 171.446 59.3936 171.247C58.9834 171.054 58.5498 170.957 58.0928 170.957C57.3545 170.957 56.7715 171.106 56.3437 171.405C55.916 171.71 55.6113 172.111 55.4297 172.609C55.2539 173.113 55.166 173.667 55.166 174.271C55.166 174.968 55.251 175.686 55.4209 176.424C55.5967 177.162 55.7988 177.833 56.0273 178.437H51.7383C51.457 177.604 51.2373 176.752 51.0791 175.879C50.9209 175.006 50.8418 174.06 50.8418 173.04ZM50.8418 187.577C50.8418 185.954 51.0908 184.554 51.5889 183.376C52.0928 182.198 52.8662 181.293 53.9092 180.66C54.9521 180.027 56.2852 179.711 57.9082 179.711C59.4727 179.711 60.7559 180.039 61.7578 180.695C62.7598 181.357 63.501 182.28 63.9814 183.464C64.4619 184.647 64.7021 186.019 64.7021 187.577C64.7021 189.142 64.4619 190.516 63.9814 191.699C63.501 192.883 62.7598 193.806 61.7578 194.468C60.7559 195.13 59.4727 195.461 57.9082 195.461C56.2969 195.461 54.9668 195.139 53.918 194.494C52.875 193.85 52.1016 192.936 51.5977 191.752C51.0937 190.574 50.8418 189.183 50.8418 187.577ZM55.0869 187.577C55.0869 188.444 55.3447 189.036 55.8604 189.353C56.376 189.675 57.0586 189.836 57.9082 189.836C58.7637 189.836 59.4404 189.675 59.9385 189.353C60.4365 189.03 60.6855 188.438 60.6855 187.577C60.6855 186.716 60.4365 186.127 59.9385 185.811C59.4404 185.494 58.7637 185.336 57.9082 185.336C57.0586 185.336 56.376 185.491 55.8604 185.802C55.3447 186.118 55.0869 186.71 55.0869 187.577ZM51 196.173H54.8145L55.0342 197.579H60.791L61.0107 196.173H64.5V206.693C64.2656 207.801 63.8848 208.768 63.3574 209.594C62.8359 210.42 62.1299 211.062 61.2393 211.519C60.3545 211.976 59.2441 212.204 57.9082 212.204C56.5898 212.204 55.4854 211.984 54.5947 211.545C53.71 211.105 53.0039 210.484 52.4766 209.682C51.9492 208.879 51.5713 207.927 51.3428 206.825C51.1143 205.729 51 204.522 51 203.204V196.173ZM55.0342 203.204V204.065C55.0342 204.815 55.1514 205.401 55.3857 205.823C55.626 206.245 56.0742 206.482 56.7305 206.535C56.9062 206.547 57.0908 206.556 57.2842 206.562C57.4834 206.567 57.6914 206.57 57.9082 206.57C58.5996 206.57 59.1562 206.509 59.5781 206.386C60 206.263 60.3076 206.022 60.501 205.665C60.6943 205.308 60.791 204.774 60.791 204.065V203.204H55.0342ZM51 212.969H54.8145L55.0342 214.357H60.4482L60.668 212.969H64.5L64.5 224.983H60V223.568C60.3105 223.123 60.5742 222.604 60.791 222.013C61.0137 221.427 61.125 220.75 61.125 219.982H58.7256L59.2969 222.619H56.1855L56.7568 219.982H54.375C54.375 220.738 54.4805 221.409 54.6914 221.995C54.9082 222.581 55.1777 223.088 55.5 223.516V224.983H51L51 212.969ZM50.8418 231.865C50.8418 230.775 50.9121 229.768 51.0527 228.842C51.1992 227.922 51.4717 227.078 51.8701 226.311H55.3418L55.3418 228.956C55.002 229.202 54.7119 229.504 54.4717 229.861C54.2314 230.225 54.1113 230.661 54.1113 231.171C54.1113 231.581 54.2197 231.871 54.4365 232.041C54.6592 232.211 54.9844 232.296 55.4121 232.296C55.4824 231.505 55.6055 230.743 55.7812 230.011C55.957 229.284 56.2148 228.634 56.5547 228.06C56.9004 227.485 57.3574 227.031 57.9258 226.697C58.5 226.363 59.2178 226.196 60.0791 226.196C61.2334 226.196 62.1416 226.451 62.8037 226.961C63.4658 227.477 63.9375 228.183 64.2187 229.079C64.5 229.981 64.6406 231.01 64.6406 232.164C64.6406 233.307 64.5527 234.317 64.377 235.196C64.2012 236.075 63.9404 236.887 63.5947 237.631H60.167V234.985C60.501 234.751 60.7881 234.461 61.0283 234.115C61.2744 233.77 61.3975 233.351 61.3975 232.858C61.3975 232.448 61.2715 232.152 61.0195 231.971C60.7734 231.789 60.4336 231.698 60 231.698C59.9707 232.595 59.877 233.421 59.7187 234.177C59.5605 234.938 59.3027 235.598 58.9453 236.154C58.5937 236.717 58.1162 237.15 57.5127 237.455C56.915 237.766 56.1562 237.921 55.2363 237.921C54.3984 237.921 53.6953 237.766 53.127 237.455C52.5645 237.145 52.1162 236.714 51.7822 236.163C51.4482 235.612 51.208 234.971 51.0615 234.238C50.915 233.506 50.8418 232.715 50.8418 231.865ZM50.9912 249.496L60.4746 245.901L60.6855 244.302H64.5V253.1H60.6855L60.4746 252.133L55.4736 253.653L60.4746 255.174L60.6855 254.207H64.5L64.5 262.741H60.6855L60.4746 261.774L55.4736 263.295L60.4746 264.815L60.6855 263.849H64.5V270.581H60.6855L60.4746 268.99L50.9912 265.396L50.9912 259.138L56.1592 257.441L50.9912 255.754L50.9912 249.496ZM51 271.416H54.8145L55.0342 272.805H60.4658L60.6855 271.416H64.5V279.818H60.6855L60.4658 278.43H55.0342L54.8145 279.818H51V271.416ZM51 282.912H54.8145L55.0342 284.301H61.125C61.125 283.838 61.002 283.457 60.7559 283.158C60.5156 282.859 60.2637 282.607 60 282.402V280.926H64.5L64.5 293.301H60L60 291.824C60.2637 291.625 60.5156 291.373 60.7559 291.068C61.002 290.77 61.125 290.389 61.125 289.926H55.0342L54.8145 291.314H51L51 282.912ZM51 294.716H54.8145L55.0342 296.087H60.4482L60.668 294.716H64.5V303.013H60.668L60.4482 301.712H58.7871V306.212H60.4482L60.668 304.911H64.5V313.208H60.668L60.4482 311.837H55.0342L54.8145 313.208H51V304.911H54.8145L55.0342 306.212H56.8008V301.712H55.0342L54.8145 303.013H51V294.716ZM51 319.738H54.8145L55.0342 321.127H60.4658L60.6855 319.738H64.5L64.5 327.657C64.5 328.601 64.4561 329.491 64.3682 330.329C64.2803 331.173 64.0986 331.917 63.8232 332.562C63.5479 333.206 63.1348 333.71 62.584 334.073C62.0332 334.442 61.292 334.627 60.3604 334.627C59.5811 334.627 58.9336 334.483 58.418 334.196C57.9082 333.909 57.501 333.511 57.1963 333.001C56.8975 332.497 56.6748 331.911 56.5283 331.243C56.3877 330.581 56.2939 329.866 56.2471 329.099C56.2061 328.331 56.1855 327.549 56.1855 326.752H55.0342L54.8145 328.141H51L51 319.738ZM58.6025 326.752C58.6025 327.449 58.7021 327.997 58.9014 328.396C59.1006 328.8 59.5518 329.002 60.2549 329.002C60.7178 329.002 61.0635 328.908 61.292 328.721C61.5264 328.539 61.6816 328.281 61.7578 327.947C61.834 327.613 61.8721 327.215 61.8721 326.752H58.6025ZM51 339.953H54.7969L55.0781 341.078L60.4746 337.22L60.6855 335.62H64.5V343.302H60.6855L60.4746 342.423L57.7148 344.207L60.4746 345.991L60.6855 345.112H64.5V352.873H60.6855L60.4746 351.194L55.0781 347.336L54.7969 348.461H51V339.953ZM51 355.967H54.8145L55.0342 357.355H61.125C61.125 356.893 61.002 356.512 60.7559 356.213C60.5156 355.914 60.2637 355.662 60 355.457V353.98H64.5V366.355H60V364.879C60.2637 364.68 60.5156 364.428 60.7559 364.123C61.002 363.824 61.125 363.443 61.125 362.98H55.0342L54.8145 364.369H51L51 355.967ZM51 367.771H54.8145L55.0342 369.142H60.4482L60.668 367.771H64.5V376.067H60.668L60.4482 374.767H58.7871V379.267H60.4482L60.668 377.966H64.5V386.263H60.668L60.4482 384.892H55.0342L54.8145 386.263H51L51 377.966H54.8145L55.0342 379.267H56.8008V374.767H55.0342L54.8145 376.067H51V367.771ZM50.8418 395.456C50.8418 393.833 51.0908 392.433 51.5889 391.255C52.0928 390.077 52.8662 389.172 53.9092 388.539C54.9521 387.906 56.2852 387.59 57.9082 387.59C59.4727 387.59 60.7559 387.918 61.7578 388.574C62.7598 389.236 63.501 390.159 63.9814 391.343C64.4619 392.526 64.7021 393.897 64.7021 395.456C64.7021 397.021 64.4619 398.395 63.9814 399.578C63.501 400.762 62.7598 401.685 61.7578 402.347C60.7559 403.009 59.4727 403.34 57.9082 403.34C56.2969 403.34 54.9668 403.018 53.918 402.373C52.875 401.729 52.1016 400.814 51.5977 399.631C51.0937 398.453 50.8418 397.062 50.8418 395.456ZM55.0869 395.456C55.0869 396.323 55.3447 396.915 55.8604 397.231C56.376 397.554 57.0586 397.715 57.9082 397.715C58.7637 397.715 59.4404 397.554 59.9385 397.231C60.4365 396.909 60.6855 396.317 60.6855 395.456C60.6855 394.595 60.4365 394.006 59.9385 393.689C59.4404 393.373 58.7637 393.215 57.9082 393.215C57.0586 393.215 56.376 393.37 55.8604 393.681C55.3447 393.997 55.0869 394.589 55.0869 395.456ZM51 404.649H54.8145L55.0342 406.021H60.4658L60.6855 404.649H64.5V411.646L57.583 416.146H60.4482L60.6855 415.021H64.5L64.5 420.892H60.6855L60.4658 419.521H51L51 413.887L57.583 409.396H55.0342L54.8232 410.521H51V404.649Z" fill="black"/>
<defs>
<filter id="filter0_di_203_33" x="0" y="0" width="120" height="512" filterUnits="userSpaceOnUse" color-interpolation-filters="sRGB">
<feFlood flood-opacity="0" result="BackgroundImageFix"/>
<feColorMatrix in="SourceAlpha" type="matrix" values="0 0 0 0 0 0 0 0 0 0 0 0 0 0 0 0 0 0 127 0" result="hardAlpha"/>
<feMorphology radius="4" operator="dilate" in="SourceAlpha" result="effect1_dropShadow_203_33"/>
<feOffset dy="7"/>
<feGaussianBlur stdDeviation="17.5"/>
<feColorMatrix type="matrix" values="0 0 0 0 0.125542 0 0 0 0 0.119792 0 0 0 0 0.191667 0 0 0 0.2 0"/>
<feBlend mode="normal" in2="BackgroundImageFix" result="effect1_dropShadow_203_33"/>
<feBlend mode="normal" in="SourceGraphic" in2="effect1_dropShadow_203_33" result="shape"/>
<feColorMatrix in="SourceAlpha" type="matrix" values="0 0 0 0 0 0 0 0 0 0 0 0 0 0 0 0 0 0 127 0" result="hardAlpha"/>
<feOffset/>
<feGaussianBlur stdDeviation="5"/>
<feComposite in2="hardAlpha" operator="arithmetic" k2="-1" k3="1"/>
<feColorMatrix type="matrix" values="0 0 0 0 0.165625 0 0 0 0 0.1665 0 0 0 0 0.1875 0 0 0 0.25 0"/>
<feBlend mode="normal" in2="shape" result="effect2_innerShadow_203_33"/>
</filter>
<linearGradient id="paint0_linear_203_33" x1="39" y1="253.5" x2="54.5" y2="253.5" gradientUnits="userSpaceOnUse">
<stop offset="0.145833" stop-opacity="0"/>
<stop offset="0.48408" stop-color="#1A1D37" stop-opacity="0.35"/>
<stop offset="0.854167" stop-opacity="0"/>
</linearGradient>
<linearGradient id="paint1_linear_203_33" x1="68" y1="253.5" x2="83.5" y2="253.5" gradientUnits="userSpaceOnUse">
<stop offset="0.145833" stop-opacity="0"/>
<stop offset="0.48408" stop-color="#1A1D37" stop-opacity="0.35"/>
<stop offset="0.854167" stop-opacity="0"/>
</linearGradient>
</defs>
</svg>
