<svg width="121" height="526" viewBox="0 0 121 526" fill="none" xmlns="http://www.w3.org/2000/svg">
<g filter="url(#filter0_di_206_8)">
<rect x="39" y="32" width="43" height="448" rx="4" fill="#0177C1"/>
<rect x="39.25" y="32.25" width="42.5" height="447.5" rx="3.75" stroke="#787F8F" stroke-width="0.5"/>
</g>
<rect x="39" y="32" width="13" height="448" fill="url(#paint0_linear_206_8)" fill-opacity="0.29"/>
<rect x="68" y="32" width="13" height="448" fill="url(#paint1_linear_206_8)" fill-opacity="0.29"/>
<path d="M49 64.305C49 64.0717 49.0817 63.8617 49.245 63.675C49.4317 63.5117 49.6417 63.43 49.875 63.43L66.85 63.43C67.1067 63.43 67.3167 63.5117 67.48 63.675C67.6433 63.8617 67.725 64.0717 67.725 64.305V69.17C67.725 70.1967 67.5733 71.06 67.27 71.76C66.9667 72.46 66.605 73.0317 66.185 73.475C65.7883 73.8717 65.2867 74.1867 64.68 74.42C64.0967 74.6533 63.525 74.77 62.965 74.77C62.335 74.77 61.7283 74.6533 61.145 74.42C60.585 74.1867 60.1067 73.8717 59.71 73.475C59.64 73.405 59.5583 73.3233 59.465 73.23C59.395 73.16 59.325 73.0667 59.255 72.95C58.9283 73.7433 58.5083 74.3967 57.995 74.91C56.9683 75.9367 55.7433 76.45 54.32 76.45C53.69 76.45 53.06 76.3333 52.43 76.1C51.8233 75.8667 51.275 75.505 50.785 75.015C50.2717 74.5017 49.84 73.825 49.49 72.985C49.1633 72.145 49 71.06 49 69.73V64.305ZM59.85 69.485C59.8967 70.0917 60.025 70.6283 60.235 71.095C60.4683 71.585 60.7133 71.9583 60.97 72.215C61.46 72.7517 62.125 73.02 62.965 73.02C63.735 73.02 64.3883 72.7517 64.925 72.215C65.2517 71.9117 65.5083 71.5033 65.695 70.99C65.8817 70.5 65.975 69.8933 65.975 69.17V65.18L59.85 65.18V69.485ZM58.1 65.18H50.75V69.73C50.75 70.7567 50.8667 71.585 51.1 72.215C51.3333 72.8683 51.6483 73.3817 52.045 73.755C52.675 74.385 53.4333 74.7 54.32 74.7C55.23 74.7 56.035 74.35 56.735 73.65C57.645 72.74 58.1 71.4683 58.1 69.835V65.18ZM49 87.6612C49 85.4212 49.5833 83.6129 50.75 82.2362C51.9167 80.8829 53.5617 80.2062 55.685 80.2062C57.1083 80.2062 58.345 80.5095 59.395 81.1162C60.445 81.7229 61.2617 82.5279 61.845 83.5312C62.4283 84.5579 62.72 85.6895 62.72 86.9262C62.72 88.1629 62.475 89.2012 61.985 90.0412C61.495 90.8812 60.8883 91.5112 60.165 91.9312C59.4417 92.3745 58.73 92.5962 58.03 92.5962C57.19 92.5962 56.4667 92.3279 55.86 91.7912C55.2533 91.2779 54.95 90.2979 54.95 88.8512V81.9912C53.55 82.1779 52.5 82.7845 51.8 83.8112C51.1 84.8612 50.75 86.1445 50.75 87.6612C50.75 88.2445 50.7967 88.7695 50.89 89.2362C50.9833 89.7262 51.0767 90.0995 51.17 90.3562C51.2633 90.6129 51.3217 90.7762 51.345 90.8462C51.3683 90.9395 51.38 91.0095 51.38 91.0562C51.38 91.2895 51.2867 91.4879 51.1 91.6512C50.9367 91.8379 50.7383 91.9312 50.505 91.9312C50.1083 91.9312 49.84 91.7445 49.7 91.3712C49.5133 90.8812 49.35 90.3095 49.21 89.6562C49.07 89.0029 49 88.3379 49 87.6612ZM60.97 86.9262C60.97 85.6895 60.5733 84.6162 59.78 83.7062C59.01 82.7962 57.9833 82.2362 56.7 82.0262V88.8862C56.7 90.2162 57.1433 90.8812 58.03 90.8812C58.7533 90.8812 59.4183 90.5195 60.025 89.7962C60.655 89.0729 60.97 88.1162 60.97 86.9262ZM42.665 100.431C42.665 100.197 42.7583 99.9874 42.945 99.8007C43.1083 99.6374 43.3067 99.5557 43.54 99.5557C43.7733 99.5557 43.9833 99.6374 44.17 99.8007C44.3333 99.9874 44.415 100.197 44.415 100.431C44.415 102.927 45.0683 104.747 46.375 105.891C47.6583 107.057 49.3617 107.641 51.485 107.641H51.625C50.9017 106.871 50.3533 106.031 49.98 105.121C49.6067 104.211 49.42 103.277 49.42 102.321C49.42 101.364 49.63 100.431 50.05 99.5207C50.47 98.6341 51.135 97.8991 52.045 97.3157C52.955 96.7557 54.1217 96.4757 55.545 96.4757C57.015 96.4757 58.2867 96.8141 59.36 97.4907C60.4333 98.1674 61.2617 99.0424 61.845 100.116C62.4283 101.212 62.72 102.344 62.72 103.511C62.72 104.327 62.65 105.051 62.51 105.681C62.37 106.334 62.1717 106.987 61.915 107.641C62.1717 107.687 62.37 107.792 62.51 107.956C62.65 108.119 62.72 108.306 62.72 108.516C62.72 108.772 62.6383 108.982 62.475 109.146C62.3117 109.309 62.1017 109.391 61.845 109.391L51.485 109.391C48.825 109.391 46.69 108.679 45.08 107.256C43.47 105.832 42.665 103.557 42.665 100.431ZM51.17 102.321C51.17 103.324 51.4267 104.292 51.94 105.226C52.4767 106.159 53.2467 106.964 54.25 107.641H59.99C60.3167 106.917 60.5617 106.252 60.725 105.646C60.8883 105.039 60.97 104.327 60.97 103.511C60.97 102.624 60.7483 101.772 60.305 100.956C59.8617 100.139 59.2317 99.4741 58.415 98.9607C57.5983 98.4707 56.6417 98.2257 55.545 98.2257C54.5417 98.2257 53.7133 98.4241 53.06 98.8207C52.4067 99.2174 51.9283 99.7307 51.625 100.361C51.3217 100.991 51.17 101.644 51.17 102.321ZM69.895 116.388C69.895 116.785 69.7317 117.123 69.405 117.403C69.1017 117.683 68.6817 117.823 68.145 117.823C67.6083 117.823 67.2 117.683 66.92 117.403C66.64 117.123 66.5 116.797 66.5 116.423C66.5 116.003 66.64 115.642 66.92 115.338C67.2233 115.058 67.6317 114.918 68.145 114.918C68.6817 114.918 69.1017 115.058 69.405 115.338C69.7317 115.618 69.895 115.968 69.895 116.388ZM61.845 115.548C62.1017 115.548 62.3117 115.63 62.475 115.793C62.6383 115.98 62.72 116.19 62.72 116.423C62.72 116.68 62.6383 116.89 62.475 117.053C62.3117 117.217 62.1017 117.298 61.845 117.298L49.875 117.298C49.6417 117.298 49.4317 117.217 49.245 117.053C49.0817 116.89 49 116.68 49 116.423C49 116.19 49.0817 115.98 49.245 115.793C49.4317 115.63 49.6417 115.548 49.875 115.548L61.845 115.548ZM49 134.393C49 134.16 49.0817 133.95 49.245 133.763C49.4317 133.6 49.6417 133.518 49.875 133.518H56.875C58.3217 133.518 59.36 133.238 59.99 132.678C60.6433 132.141 60.97 131.406 60.97 130.473C60.97 129.493 60.7017 128.56 60.165 127.673C59.6517 126.786 59.0217 125.97 58.275 125.223H49.875C49.6417 125.223 49.4317 125.141 49.245 124.978C49.0817 124.815 49 124.605 49 124.348C49 124.115 49.0817 123.905 49.245 123.718C49.4317 123.555 49.6417 123.473 49.875 123.473L61.845 123.473C62.1017 123.473 62.3117 123.555 62.475 123.718C62.6383 123.905 62.72 124.115 62.72 124.348C62.72 124.605 62.6383 124.815 62.475 124.978C62.3117 125.141 62.1017 125.223 61.845 125.223L60.585 125.223C61.215 126.016 61.7283 126.845 62.125 127.708C62.5217 128.571 62.72 129.493 62.72 130.473C62.72 131.36 62.545 132.165 62.195 132.888C61.845 133.611 61.2383 134.183 60.375 134.603C59.535 135.046 58.3683 135.268 56.875 135.268H49.875C49.6417 135.268 49.4317 135.186 49.245 135.023C49.0817 134.86 49 134.65 49 134.393ZM49 157.744C49 155.597 49.4433 154.069 50.33 153.159C51.24 152.249 52.4533 151.794 53.97 151.794H60.97V149.589C60.97 149.355 61.0517 149.145 61.215 148.959C61.4017 148.795 61.6117 148.714 61.845 148.714C62.1017 148.714 62.3117 148.795 62.475 148.959C62.6383 149.145 62.72 149.355 62.72 149.589V151.794H66.255C66.5117 151.794 66.7217 151.875 66.885 152.039C67.0483 152.225 67.13 152.435 67.13 152.669C67.13 152.925 67.0483 153.135 66.885 153.299C66.7217 153.462 66.5117 153.544 66.255 153.544H62.72V158.199C62.72 158.455 62.6383 158.665 62.475 158.829C62.3117 158.992 62.1017 159.074 61.845 159.074C61.6117 159.074 61.4017 158.992 61.215 158.829C61.0517 158.665 60.97 158.455 60.97 158.199V153.544H53.97C51.8233 153.544 50.75 154.944 50.75 157.744C50.75 158 50.6567 158.21 50.47 158.374C50.3067 158.537 50.1083 158.619 49.875 158.619C49.6417 158.619 49.4317 158.525 49.245 158.339C49.0817 158.175 49 157.977 49 157.744ZM62.86 168.655C62.86 170.078 62.5333 171.303 61.88 172.33C61.25 173.38 60.3867 174.185 59.29 174.745C58.2167 175.328 57.015 175.62 55.685 175.62C54.4017 175.62 53.2467 175.328 52.22 174.745C51.1933 174.185 50.3767 173.38 49.77 172.33C49.1633 171.303 48.86 170.078 48.86 168.655C48.86 167.255 49.1633 166.03 49.77 164.98C50.3767 163.93 51.205 163.113 52.255 162.53C53.305 161.97 54.4717 161.69 55.755 161.69C57.0617 161.69 58.2517 161.97 59.325 162.53C60.3983 163.09 61.25 163.895 61.88 164.945C62.5333 165.995 62.86 167.231 62.86 168.655ZM61.11 168.655C61.11 167.581 60.865 166.648 60.375 165.855C59.885 165.085 59.2317 164.49 58.415 164.07C57.6217 163.65 56.735 163.44 55.755 163.44C54.3083 163.44 53.0833 163.906 52.08 164.84C51.1 165.796 50.61 167.068 50.61 168.655C50.61 170.241 51.1 171.501 52.08 172.435C53.06 173.391 54.2617 173.87 55.685 173.87C56.6883 173.87 57.5983 173.66 58.415 173.24C59.2317 172.82 59.885 172.213 60.375 171.42C60.865 170.65 61.11 169.728 61.11 168.655ZM65.38 203.452C65.9867 202.309 66.29 200.862 66.29 199.112C66.29 197.712 65.9517 196.417 65.275 195.227C64.5983 194.06 63.6533 193.115 62.44 192.392C61.25 191.669 59.85 191.307 58.24 191.307C56.77 191.307 55.44 191.622 54.25 192.252C53.0833 192.882 52.15 193.792 51.45 194.982C50.7733 196.195 50.435 197.642 50.435 199.322C50.435 200.162 50.5167 200.944 50.68 201.667C50.8433 202.414 51.0767 203.079 51.38 203.662C51.45 203.779 51.485 203.907 51.485 204.047C51.485 204.304 51.4033 204.514 51.24 204.677C51.0767 204.84 50.8667 204.922 50.61 204.922C50.2367 204.922 49.98 204.759 49.84 204.432C49.4667 203.732 49.1867 202.95 49 202.087C48.79 201.224 48.685 200.302 48.685 199.322C48.685 197.269 49.105 195.507 49.945 194.037C50.785 192.59 51.9283 191.482 53.375 190.712C54.8217 189.942 56.4433 189.557 58.24 189.557C60.2 189.557 61.915 190 63.385 190.887C64.855 191.774 65.9983 192.94 66.815 194.387C67.6317 195.834 68.04 197.409 68.04 199.112C68.04 201.212 67.6667 202.939 66.92 204.292C66.7333 204.595 66.4767 204.747 66.15 204.747C65.94 204.747 65.7417 204.665 65.555 204.502C65.3683 204.339 65.275 204.129 65.275 203.872C65.275 203.732 65.31 203.592 65.38 203.452ZM62.86 215.891C62.86 217.314 62.5333 218.539 61.88 219.566C61.25 220.616 60.3867 221.421 59.29 221.981C58.2167 222.564 57.015 222.856 55.685 222.856C54.4017 222.856 53.2467 222.564 52.22 221.981C51.1933 221.421 50.3767 220.616 49.77 219.566C49.1633 218.539 48.86 217.314 48.86 215.891C48.86 214.491 49.1633 213.266 49.77 212.216C50.3767 211.166 51.205 210.349 52.255 209.766C53.305 209.206 54.4717 208.926 55.755 208.926C57.0617 208.926 58.2517 209.206 59.325 209.766C60.3983 210.326 61.25 211.131 61.88 212.181C62.5333 213.231 62.86 214.468 62.86 215.891ZM61.11 215.891C61.11 214.818 60.865 213.884 60.375 213.091C59.885 212.321 59.2317 211.726 58.415 211.306C57.6217 210.886 56.735 210.676 55.755 210.676C54.3083 210.676 53.0833 211.143 52.08 212.076C51.1 213.033 50.61 214.304 50.61 215.891C50.61 217.478 51.1 218.738 52.08 219.671C53.06 220.628 54.2617 221.106 55.685 221.106C56.6883 221.106 57.5983 220.896 58.415 220.476C59.2317 220.056 59.885 219.449 60.375 218.656C60.865 217.886 61.11 216.964 61.11 215.891ZM49 238.571C49 238.338 49.0817 238.128 49.245 237.941C49.4317 237.778 49.6417 237.696 49.875 237.696H51.345C50.6217 237.019 50.05 236.249 49.63 235.386C49.21 234.546 49 233.613 49 232.586C49 231.443 49.2683 230.404 49.805 229.471C50.3417 228.561 51.1 227.826 52.08 227.266C53.0833 226.729 54.25 226.461 55.58 226.461C56.98 226.461 58.2167 226.753 59.29 227.336C60.3633 227.943 61.2033 228.759 61.81 229.786C62.4167 230.836 62.72 232.014 62.72 233.321C62.72 234.161 62.6033 234.931 62.37 235.631C62.16 236.354 61.8567 237.043 61.46 237.696H67.76C68.0167 237.696 68.2267 237.778 68.39 237.941C68.5533 238.128 68.635 238.338 68.635 238.571C68.635 238.828 68.5533 239.038 68.39 239.201C68.2267 239.364 68.0167 239.446 67.76 239.446H49.875C49.6417 239.446 49.4317 239.364 49.245 239.201C49.0817 239.038 49 238.828 49 238.571ZM50.75 232.586C50.75 233.753 51.0533 234.744 51.66 235.561C52.2667 236.401 53.0483 237.113 54.005 237.696H59.36C59.8733 237.043 60.27 236.366 60.55 235.666C60.83 234.989 60.97 234.208 60.97 233.321C60.97 232.341 60.7367 231.466 60.27 230.696C59.8033 229.926 59.1617 229.319 58.345 228.876C57.5517 228.433 56.63 228.211 55.58 228.211C54.1567 228.211 52.99 228.619 52.08 229.436C51.1933 230.276 50.75 231.326 50.75 232.586ZM49 251.587C49 249.347 49.5833 247.539 50.75 246.162C51.9167 244.809 53.5617 244.132 55.685 244.132C57.1083 244.132 58.345 244.435 59.395 245.042C60.445 245.649 61.2617 246.454 61.845 247.457C62.4283 248.484 62.72 249.615 62.72 250.852C62.72 252.089 62.475 253.127 61.985 253.967C61.495 254.807 60.8883 255.437 60.165 255.857C59.4417 256.3 58.73 256.522 58.03 256.522C57.19 256.522 56.4667 256.254 55.86 255.717C55.2533 255.204 54.95 254.224 54.95 252.777L54.95 245.917C53.55 246.104 52.5 246.71 51.8 247.737C51.1 248.787 50.75 250.07 50.75 251.587C50.75 252.17 50.7967 252.695 50.89 253.162C50.9833 253.652 51.0767 254.025 51.17 254.282C51.2633 254.539 51.3217 254.702 51.345 254.772C51.3683 254.865 51.38 254.935 51.38 254.982C51.38 255.215 51.2867 255.414 51.1 255.577C50.9367 255.764 50.7383 255.857 50.505 255.857C50.1083 255.857 49.84 255.67 49.7 255.297C49.5133 254.807 49.35 254.235 49.21 253.582C49.07 252.929 49 252.264 49 251.587ZM60.97 250.852C60.97 249.615 60.5733 248.542 59.78 247.632C59.01 246.722 57.9833 246.162 56.7 245.952L56.7 252.812C56.7 254.142 57.1433 254.807 58.03 254.807C58.7533 254.807 59.4183 254.445 60.025 253.722C60.655 252.999 60.97 252.042 60.97 250.852Z" fill="#CDEAF5"/>
<path d="M48.86 286.064C48.86 285.714 49.0117 285.457 49.315 285.294C50.6217 284.594 52.1033 283.859 53.76 283.089C55.44 282.342 57.2483 281.595 59.185 280.849C58.0417 280.429 56.875 279.95 55.685 279.414C54.495 278.877 53.3517 278.34 52.255 277.804C51.1817 277.29 50.225 276.824 49.385 276.404C49.0583 276.24 48.895 275.984 48.895 275.634V275.564C48.895 275.19 49.0583 274.922 49.385 274.759C50.9017 274.035 52.43 273.382 53.97 272.799C55.51 272.215 57.19 271.632 59.01 271.049C59.8967 270.769 60.5617 270.57 61.005 270.454C61.4483 270.337 61.7167 270.279 61.81 270.279C62.0433 270.279 62.2417 270.36 62.405 270.524C62.5917 270.687 62.685 270.897 62.685 271.154C62.685 271.597 62.475 271.877 62.055 271.994C60.1417 272.53 58.2983 273.114 56.525 273.744C54.7517 274.397 53.1533 275.027 51.73 275.634C52.71 276.124 53.7717 276.625 54.915 277.139C56.0583 277.675 57.2133 278.177 58.38 278.644C59.5467 279.134 60.655 279.542 61.705 279.869C61.8917 279.915 62.0433 280.02 62.16 280.184C62.2767 280.37 62.335 280.545 62.335 280.709V280.919C62.335 281.105 62.2767 281.28 62.16 281.444C62.0667 281.607 61.9267 281.724 61.74 281.794C59.8267 282.47 58.0183 283.17 56.315 283.894C54.6117 284.64 53.0717 285.352 51.695 286.029C53.165 286.659 54.8217 287.312 56.665 287.989C58.5083 288.665 60.2933 289.237 62.02 289.704C62.44 289.82 62.65 290.1 62.65 290.544C62.65 290.8 62.5567 291.01 62.37 291.174C62.2067 291.337 62.0083 291.419 61.775 291.419C61.7283 291.419 61.6117 291.395 61.425 291.349C61.2617 291.302 61.0867 291.255 60.9 291.209C58.8467 290.625 56.7933 289.937 54.74 289.144C52.6867 288.35 50.9017 287.615 49.385 286.939C49.035 286.775 48.86 286.507 48.86 286.134V286.064ZM69.895 297.096C69.895 297.493 69.7317 297.831 69.405 298.111C69.1017 298.391 68.6817 298.531 68.145 298.531C67.6083 298.531 67.2 298.391 66.92 298.111C66.64 297.831 66.5 297.505 66.5 297.131C66.5 296.711 66.64 296.35 66.92 296.046C67.2233 295.766 67.6317 295.626 68.145 295.626C68.6817 295.626 69.1017 295.766 69.405 296.046C69.7317 296.326 69.895 296.676 69.895 297.096ZM61.845 296.256C62.1017 296.256 62.3117 296.338 62.475 296.501C62.6383 296.688 62.72 296.898 62.72 297.131C62.72 297.388 62.6383 297.598 62.475 297.761C62.3117 297.925 62.1017 298.006 61.845 298.006H49.875C49.6417 298.006 49.4317 297.925 49.245 297.761C49.0817 297.598 49 297.388 49 297.131C49 296.898 49.0817 296.688 49.245 296.501C49.4317 296.338 49.6417 296.256 49.875 296.256H61.845ZM49 310.971C49 308.824 49.4433 307.296 50.33 306.386C51.24 305.476 52.4533 305.021 53.97 305.021H60.97L60.97 302.816C60.97 302.583 61.0517 302.373 61.215 302.186C61.4017 302.023 61.6117 301.941 61.845 301.941C62.1017 301.941 62.3117 302.023 62.475 302.186C62.6383 302.373 62.72 302.583 62.72 302.816V305.021H66.255C66.5117 305.021 66.7217 305.103 66.885 305.266C67.0483 305.453 67.13 305.663 67.13 305.896C67.13 306.153 67.0483 306.363 66.885 306.526C66.7217 306.689 66.5117 306.771 66.255 306.771H62.72V311.426C62.72 311.683 62.6383 311.893 62.475 312.056C62.3117 312.219 62.1017 312.301 61.845 312.301C61.6117 312.301 61.4017 312.219 61.215 312.056C61.0517 311.893 60.97 311.683 60.97 311.426V306.771H53.97C51.8233 306.771 50.75 308.171 50.75 310.971C50.75 311.228 50.6567 311.438 50.47 311.601C50.3067 311.764 50.1083 311.846 49.875 311.846C49.6417 311.846 49.4317 311.753 49.245 311.566C49.0817 311.403 49 311.204 49 310.971ZM49 327.474C49 327.241 49.0817 327.031 49.245 326.844C49.4317 326.681 49.6417 326.599 49.875 326.599H56.875C58.3217 326.599 59.36 326.319 59.99 325.759C60.6433 325.222 60.97 324.487 60.97 323.554C60.97 322.574 60.7017 321.641 60.165 320.754C59.6517 319.867 59.0217 319.051 58.275 318.304H49.875C49.6417 318.304 49.4317 318.222 49.245 318.059C49.0817 317.896 49 317.686 49 317.429C49 317.196 49.0817 316.986 49.245 316.799C49.4317 316.636 49.6417 316.554 49.875 316.554H67.76C68.0167 316.554 68.2267 316.636 68.39 316.799C68.5533 316.986 68.635 317.196 68.635 317.429C68.635 317.686 68.5533 317.896 68.39 318.059C68.2267 318.222 68.0167 318.304 67.76 318.304H60.585C61.1917 319.097 61.6933 319.926 62.09 320.789C62.51 321.652 62.72 322.574 62.72 323.554C62.72 324.441 62.545 325.246 62.195 325.969C61.845 326.692 61.2383 327.264 60.375 327.684C59.535 328.127 58.3683 328.349 56.875 328.349H49.875C49.6417 328.349 49.4317 328.267 49.245 328.104C49.0817 327.941 49 327.731 49 327.474ZM49 345.365C49 345.131 49.0817 344.921 49.245 344.735C49.4317 344.571 49.6417 344.49 49.875 344.49H66.85C67.1067 344.49 67.3167 344.571 67.48 344.735C67.6433 344.921 67.725 345.131 67.725 345.365V350.37C67.725 351.746 67.445 352.948 66.885 353.975C66.3483 355.001 65.6133 355.795 64.68 356.355C63.7467 356.938 62.6733 357.23 61.46 357.23C60.34 357.23 59.3017 356.973 58.345 356.46C57.3883 355.97 56.6183 355.211 56.035 354.185C55.4517 353.181 55.16 351.91 55.16 350.37V346.24H49.875C49.6417 346.24 49.4317 346.158 49.245 345.995C49.0817 345.831 49 345.621 49 345.365ZM65.975 346.24H56.91V350.37C56.91 352.026 57.3417 353.286 58.205 354.15C59.0917 355.036 60.1767 355.48 61.46 355.48C62.8133 355.48 63.8983 355.001 64.715 354.045C65.555 353.088 65.975 351.863 65.975 350.37V346.24ZM42.91 361.483C42.91 361.273 42.9917 361.063 43.155 360.853C43.3183 360.666 43.5167 360.573 43.75 360.573C44.1 360.573 44.3683 360.725 44.555 361.028C45.115 362.008 45.7917 362.953 46.585 363.863C47.355 364.773 48.44 365.66 49.84 366.523C51.24 365.636 52.8617 364.691 54.705 363.688C56.5483 362.708 58.4617 361.845 60.445 361.098C60.9817 360.911 61.3317 360.783 61.495 360.713C61.6817 360.666 61.8217 360.643 61.915 360.643C62.1017 360.643 62.2883 360.725 62.475 360.888C62.6617 361.051 62.755 361.25 62.755 361.483C62.755 361.67 62.6967 361.845 62.58 362.008C62.4867 362.171 62.3467 362.288 62.16 362.358C59.8967 363.175 57.89 364.038 56.14 364.948C54.39 365.858 52.8617 366.71 51.555 367.503C52.5583 368.063 53.655 368.611 54.845 369.148C56.035 369.708 57.2483 370.221 58.485 370.688C59.745 371.178 60.9467 371.586 62.09 371.913C62.51 372.03 62.72 372.31 62.72 372.753C62.72 373.01 62.6267 373.22 62.44 373.383C62.2767 373.546 62.0783 373.628 61.845 373.628C61.775 373.628 61.6 373.581 61.32 373.488C61.04 373.418 60.795 373.348 60.585 373.278C59.5583 372.951 58.38 372.52 57.05 371.983C55.7433 371.446 54.4133 370.863 53.06 370.233C51.73 369.626 50.5283 369.008 49.455 368.378C47.705 367.351 46.3633 366.301 45.43 365.228C44.4967 364.155 43.6917 363.035 43.015 361.868C42.945 361.775 42.91 361.646 42.91 361.483ZM49 385.449C49 383.302 49.4433 381.774 50.33 380.864C51.24 379.954 52.4533 379.499 53.97 379.499H60.97L60.97 377.294C60.97 377.06 61.0517 376.85 61.215 376.664C61.4017 376.5 61.6117 376.419 61.845 376.419C62.1017 376.419 62.3117 376.5 62.475 376.664C62.6383 376.85 62.72 377.06 62.72 377.294V379.499H66.255C66.5117 379.499 66.7217 379.58 66.885 379.744C67.0483 379.93 67.13 380.14 67.13 380.374C67.13 380.63 67.0483 380.84 66.885 381.004C66.7217 381.167 66.5117 381.249 66.255 381.249H62.72V385.904C62.72 386.16 62.6383 386.37 62.475 386.534C62.3117 386.697 62.1017 386.779 61.845 386.779C61.6117 386.779 61.4017 386.697 61.215 386.534C61.0517 386.37 60.97 386.16 60.97 385.904V381.249H53.97C51.8233 381.249 50.75 382.649 50.75 385.449C50.75 385.705 50.6567 385.915 50.47 386.079C50.3067 386.242 50.1083 386.324 49.875 386.324C49.6417 386.324 49.4317 386.23 49.245 386.044C49.0817 385.88 49 385.682 49 385.449ZM49 401.952C49 401.718 49.0817 401.508 49.245 401.322C49.4317 401.158 49.6417 401.077 49.875 401.077H56.875C58.3217 401.077 59.36 400.797 59.99 400.237C60.6433 399.7 60.97 398.965 60.97 398.032C60.97 397.052 60.7017 396.118 60.165 395.232C59.6517 394.345 59.0217 393.528 58.275 392.782H49.875C49.6417 392.782 49.4317 392.7 49.245 392.537C49.0817 392.373 49 392.163 49 391.907C49 391.673 49.0817 391.463 49.245 391.277C49.4317 391.113 49.6417 391.032 49.875 391.032H67.76C68.0167 391.032 68.2267 391.113 68.39 391.277C68.5533 391.463 68.635 391.673 68.635 391.907C68.635 392.163 68.5533 392.373 68.39 392.537C68.2267 392.7 68.0167 392.782 67.76 392.782H60.585C61.1917 393.575 61.6933 394.403 62.09 395.267C62.51 396.13 62.72 397.052 62.72 398.032C62.72 398.918 62.545 399.723 62.195 400.447C61.845 401.17 61.2383 401.742 60.375 402.162C59.535 402.605 58.3683 402.827 56.875 402.827H49.875C49.6417 402.827 49.4317 402.745 49.245 402.582C49.0817 402.418 49 402.208 49 401.952ZM62.86 414.099C62.86 415.522 62.5333 416.747 61.88 417.774C61.25 418.824 60.3867 419.629 59.29 420.189C58.2167 420.772 57.015 421.064 55.685 421.064C54.4017 421.064 53.2467 420.772 52.22 420.189C51.1933 419.629 50.3767 418.824 49.77 417.774C49.1633 416.747 48.86 415.522 48.86 414.099C48.86 412.699 49.1633 411.474 49.77 410.424C50.3767 409.374 51.205 408.557 52.255 407.974C53.305 407.414 54.4717 407.134 55.755 407.134C57.0617 407.134 58.2517 407.414 59.325 407.974C60.3983 408.534 61.25 409.339 61.88 410.389C62.5333 411.439 62.86 412.676 62.86 414.099ZM61.11 414.099C61.11 413.026 60.865 412.092 60.375 411.299C59.885 410.529 59.2317 409.934 58.415 409.514C57.6217 409.094 56.735 408.884 55.755 408.884C54.3083 408.884 53.0833 409.351 52.08 410.284C51.1 411.241 50.61 412.512 50.61 414.099C50.61 415.686 51.1 416.946 52.08 417.879C53.06 418.836 54.2617 419.314 55.685 419.314C56.6883 419.314 57.5983 419.104 58.415 418.684C59.2317 418.264 59.885 417.657 60.375 416.864C60.865 416.094 61.11 415.172 61.11 414.099ZM49 436.678C49 436.445 49.0817 436.235 49.245 436.048C49.4317 435.885 49.6417 435.803 49.875 435.803H56.875C58.3217 435.803 59.36 435.523 59.99 434.963C60.6433 434.427 60.97 433.692 60.97 432.758C60.97 431.778 60.7017 430.845 60.165 429.958C59.6517 429.072 59.0217 428.255 58.275 427.508H49.875C49.6417 427.508 49.4317 427.427 49.245 427.263C49.0817 427.1 49 426.89 49 426.633C49 426.4 49.0817 426.19 49.245 426.003C49.4317 425.84 49.6417 425.758 49.875 425.758H61.845C62.1017 425.758 62.3117 425.84 62.475 426.003C62.6383 426.19 62.72 426.4 62.72 426.633C62.72 426.89 62.6383 427.1 62.475 427.263C62.3117 427.427 62.1017 427.508 61.845 427.508H60.585C61.215 428.302 61.7283 429.13 62.125 429.993C62.5217 430.857 62.72 431.778 62.72 432.758C62.72 433.645 62.545 434.45 62.195 435.173C61.845 435.897 61.2383 436.468 60.375 436.888C59.535 437.332 58.3683 437.553 56.875 437.553H49.875C49.6417 437.553 49.4317 437.472 49.245 437.308C49.0817 437.145 49 436.935 49 436.678Z" fill="#E6F945"/>
<defs>
<filter id="filter0_di_206_8" x="0" y="0" width="121" height="526" filterUnits="userSpaceOnUse" color-interpolation-filters="sRGB">
<feFlood flood-opacity="0" result="BackgroundImageFix"/>
<feColorMatrix in="SourceAlpha" type="matrix" values="0 0 0 0 0 0 0 0 0 0 0 0 0 0 0 0 0 0 127 0" result="hardAlpha"/>
<feMorphology radius="4" operator="dilate" in="SourceAlpha" result="effect1_dropShadow_206_8"/>
<feOffset dy="7"/>
<feGaussianBlur stdDeviation="17.5"/>
<feColorMatrix type="matrix" values="0 0 0 0 0.125542 0 0 0 0 0.119792 0 0 0 0 0.191667 0 0 0 0.2 0"/>
<feBlend mode="normal" in2="BackgroundImageFix" result="effect1_dropShadow_206_8"/>
<feBlend mode="normal" in="SourceGraphic" in2="effect1_dropShadow_206_8" result="shape"/>
<feColorMatrix in="SourceAlpha" type="matrix" values="0 0 0 0 0 0 0 0 0 0 0 0 0 0 0 0 0 0 127 0" result="hardAlpha"/>
<feOffset/>
<feGaussianBlur stdDeviation="5"/>
<feComposite in2="hardAlpha" operator="arithmetic" k2="-1" k3="1"/>
<feColorMatrix type="matrix" values="0 0 0 0 0.165625 0 0 0 0 0.1665 0 0 0 0 0.1875 0 0 0 0.25 0"/>
<feBlend mode="normal" in2="shape" result="effect2_innerShadow_206_8"/>
</filter>
<linearGradient id="paint0_linear_206_8" x1="39" y1="260.645" x2="54.5" y2="260.645" gradientUnits="userSpaceOnUse">
<stop offset="0.145833" stop-opacity="0"/>
<stop offset="0.48408" stop-color="#1A1D37" stop-opacity="0.35"/>
<stop offset="0.854167" stop-opacity="0"/>
</linearGradient>
<linearGradient id="paint1_linear_206_8" x1="68" y1="260.645" x2="83.5" y2="260.645" gradientUnits="userSpaceOnUse">
<stop offset="0.145833" stop-opacity="0"/>
<stop offset="0.48408" stop-color="#1A1D37" stop-opacity="0.35"/>
<stop offset="0.854167" stop-opacity="0"/>
</linearGradient>
</defs>
</svg>
