<svg width="159" height="638" viewBox="0 0 159 638" fill="none" xmlns="http://www.w3.org/2000/svg">
<g filter="url(#filter0_di_206_8)">
<rect x="39" y="32" width="81" height="560" rx="4" fill="white"/>
<rect x="39.25" y="32.25" width="80.5" height="559.5" rx="3.75" stroke="#787F8F" stroke-width="0.5"/>
</g>
<rect x="39" y="32" width="13" height="560" fill="url(#paint0_linear_206_8)" fill-opacity="0.29"/>
<rect x="107" y="32" width="13" height="560" fill="url(#paint1_linear_206_8)" fill-opacity="0.29"/>
<path d="M69.38 70.64V73.49L87.47 73.49V68.21H83.9V66.05H88.94V83.51H83.9V81.35H87.47V76.07L69.38 76.07V78.92H68V70.64H69.38ZM69.38 86.2203V88.4703L87.56 88.4703V86.2203H88.94V93.3003H87.56V91.0503H79.4V101.7H87.56V99.4503H88.94V106.53H87.56V104.28L69.38 104.28V106.53H68V99.4503H69.38V101.7L77.93 101.7V91.0503L69.38 91.0503V93.3003H68V86.2203H69.38ZM69.38 109.834L69.38 112.084L87.56 112.084V109.834H88.94L88.94 125.314H83.9V123.154H87.47V114.664H79.52V120.604H81.92V122.404H75.65V120.604H78.05V114.664L69.47 114.664V123.454L73.31 123.454V125.614L68 125.614L68 109.834H69.38ZM67.64 144.635C67.64 143.315 67.89 142.115 68.39 141.035C68.89 139.955 69.61 139.035 70.55 138.275C71.49 137.515 72.63 136.925 73.97 136.505C75.31 136.085 76.81 135.875 78.47 135.875C80.21 135.875 81.75 136.085 83.09 136.505C84.43 136.925 85.56 137.505 86.48 138.245C87.4 139.005 88.1 139.915 88.58 140.975C89.06 142.035 89.3 143.205 89.3 144.485C89.3 145.785 89.08 146.865 88.64 147.725C88.22 148.605 87.69 149.185 87.05 149.465V149.585H88.94L88.94 151.745H82.82L82.82 149.585H84.38C85.38 149.585 86.18 149.145 86.78 148.265C87.4 147.385 87.71 146.235 87.71 144.815C87.71 143.755 87.51 142.835 87.11 142.055C86.73 141.295 86.2 140.665 85.52 140.165C84.86 139.685 84.08 139.325 83.18 139.085C82.3 138.865 81.37 138.755 80.39 138.755H76.76C75.66 138.755 74.67 138.895 73.79 139.175C72.91 139.475 72.15 139.895 71.51 140.435C70.89 140.995 70.41 141.675 70.07 142.475C69.73 143.275 69.56 144.185 69.56 145.205C69.56 146.625 69.93 147.815 70.67 148.775C71.41 149.735 72.35 150.435 73.49 150.875L72.92 152.045C72.34 151.865 71.74 151.575 71.12 151.175C70.5 150.775 69.93 150.265 69.41 149.645C68.89 149.045 68.46 148.325 68.12 147.485C67.8 146.645 67.64 145.695 67.64 144.635ZM69.38 162.48V164.73H87.56V162.48H88.94V172.26C88.94 174.16 88.46 175.61 87.5 176.61C86.56 177.63 85.17 178.14 83.33 178.14C81.51 178.14 80.1 177.62 79.1 176.58C78.1 175.54 77.6 174.08 77.6 172.2V167.31H69.38V170.16H68V162.48H69.38ZM79.07 167.31V172.05C79.07 173.13 79.41 173.95 80.09 174.51C80.77 175.09 81.6 175.38 82.58 175.38H83.96C84.94 175.38 85.77 175.09 86.45 174.51C87.13 173.95 87.47 173.13 87.47 172.05V167.31H79.07ZM69.38 181.23V183.48H87.56V181.23H88.94V191.01C88.94 192.87 88.47 194.31 87.53 195.33C86.61 196.37 85.23 196.89 83.39 196.89C81.97 196.89 80.78 196.49 79.82 195.69C78.88 194.91 78.27 193.76 77.99 192.24L71.48 195.75C70.76 196.15 70.23 196.6 69.89 197.1C69.55 197.6 69.38 198.22 69.38 198.96V199.23H68V197.31C68 196.73 68.06 196.24 68.18 195.84C68.3 195.46 68.47 195.12 68.69 194.82C68.91 194.52 69.19 194.25 69.53 194.01C69.87 193.79 70.26 193.56 70.7 193.32L77.63 189.6V186.06H69.38V188.31H68V181.23H69.38ZM79.1 186.06V190.77C79.1 191.85 79.43 192.68 80.09 193.26C80.77 193.84 81.6 194.13 82.58 194.13H83.96C84.94 194.13 85.77 193.84 86.45 193.26C87.13 192.68 87.47 191.85 87.47 190.77V186.06H79.1ZM69.23 210.183C69.23 211.203 69.41 212.103 69.77 212.883C70.15 213.683 70.67 214.353 71.33 214.893C72.01 215.433 72.81 215.843 73.73 216.123C74.65 216.403 75.66 216.543 76.76 216.543H80.18C81.28 216.543 82.29 216.403 83.21 216.123C84.13 215.843 84.92 215.433 85.58 214.893C86.26 214.353 86.78 213.683 87.14 212.883C87.52 212.103 87.71 211.203 87.71 210.183C87.71 209.163 87.52 208.253 87.14 207.453C86.78 206.673 86.26 206.013 85.58 205.473C84.92 204.933 84.13 204.523 83.21 204.243C82.29 203.963 81.28 203.823 80.18 203.823H76.76C75.66 203.823 74.65 203.963 73.73 204.243C72.81 204.523 72.01 204.933 71.33 205.473C70.67 206.013 70.15 206.673 69.77 207.453C69.41 208.253 69.23 209.163 69.23 210.183ZM67.64 210.183C67.64 208.803 67.89 207.543 68.39 206.403C68.89 205.263 69.61 204.283 70.55 203.463C71.49 202.663 72.62 202.043 73.94 201.603C75.28 201.163 76.79 200.943 78.47 200.943C80.15 200.943 81.65 201.163 82.97 201.603C84.31 202.043 85.45 202.663 86.39 203.463C87.33 204.283 88.05 205.263 88.55 206.403C89.05 207.543 89.3 208.803 89.3 210.183C89.3 211.563 89.05 212.823 88.55 213.963C88.05 215.103 87.33 216.073 86.39 216.873C85.45 217.693 84.31 218.323 82.97 218.763C81.65 219.203 80.15 219.423 78.47 219.423C76.79 219.423 75.28 219.203 73.94 218.763C72.62 218.323 71.49 217.693 70.55 216.873C69.61 216.073 68.89 215.103 68.39 213.963C67.89 212.823 67.64 211.563 67.64 210.183ZM67.64 231.441C67.64 230.121 67.89 228.921 68.39 227.841C68.89 226.781 69.6 225.871 70.52 225.111C71.46 224.351 72.6 223.761 73.94 223.341C75.28 222.921 76.79 222.711 78.47 222.711C80.21 222.711 81.75 222.921 83.09 223.341C84.45 223.761 85.59 224.361 86.51 225.141C87.43 225.921 88.12 226.861 88.58 227.961C89.06 229.081 89.3 230.331 89.3 231.711C89.3 233.331 89.07 234.581 88.61 235.461C88.17 236.341 87.64 236.901 87.02 237.141V237.291H88.94V239.451H82.82V237.291H84.29C85.41 237.291 86.26 236.821 86.84 235.881C87.42 234.941 87.71 233.661 87.71 232.041C87.71 230.941 87.53 229.981 87.17 229.161C86.83 228.361 86.34 227.691 85.7 227.151C85.06 226.631 84.29 226.241 83.39 225.981C82.51 225.721 81.52 225.591 80.42 225.591H76.58C75.5 225.591 74.51 225.731 73.61 226.011C72.73 226.311 71.98 226.731 71.36 227.271C70.74 227.811 70.26 228.461 69.92 229.221C69.58 229.981 69.41 230.821 69.41 231.741C69.41 232.501 69.51 233.211 69.71 233.871C69.91 234.531 70.2 235.101 70.58 235.581C70.96 236.061 71.43 236.431 71.99 236.691C72.55 236.971 73.2 237.111 73.94 237.111H76.73V233.391H78.11V241.641H76.73V239.721H68V238.731L70.91 237.291V237.171C70.51 237.011 70.11 236.771 69.71 236.451C69.33 236.131 68.98 235.731 68.66 235.251C68.36 234.791 68.12 234.241 67.94 233.601C67.74 232.961 67.64 232.241 67.64 231.441ZM69.38 244.482V246.732H87.56L87.56 244.482H88.94L88.94 254.262C88.94 256.122 88.47 257.562 87.53 258.582C86.61 259.622 85.23 260.142 83.39 260.142C81.97 260.142 80.78 259.742 79.82 258.942C78.88 258.162 78.27 257.012 77.99 255.492L71.48 259.002C70.76 259.402 70.23 259.852 69.89 260.352C69.55 260.852 69.38 261.472 69.38 262.212V262.482H68V260.562C68 259.982 68.06 259.492 68.18 259.092C68.3 258.712 68.47 258.372 68.69 258.072C68.91 257.772 69.19 257.502 69.53 257.262C69.87 257.042 70.26 256.812 70.7 256.572L77.63 252.852V249.312H69.38V251.562H68V244.482H69.38ZM79.1 249.312V254.022C79.1 255.102 79.43 255.932 80.09 256.512C80.77 257.092 81.6 257.382 82.58 257.382H83.96C84.94 257.382 85.77 257.092 86.45 256.512C87.13 255.932 87.47 255.102 87.47 254.022V249.312H79.1ZM69.38 263.761V265.351L88.94 272.161V275.011L69.38 281.791V283.381H68V276.301H69.38V279.001L74.81 277.141V268.981L69.38 267.121V269.821H68V263.761H69.38ZM76.25 269.401V276.691L86.75 273.181V273.001L76.25 269.401ZM69.38 285.498V287.748H87.56V285.498H88.94V290.778L75.98 296.898V296.988L88.94 303.408V308.358H87.56V306.108H69.38V308.358H68V301.278H69.38V303.528H85.91V303.408L83 302.088L71.51 296.328L82.25 291.198L85.91 289.518V289.398H69.38V291.648H68V285.498H69.38ZM69.38 311.66V313.91H87.56V311.66H88.94V316.94L75.98 323.06V323.15L88.94 329.57V334.52H87.56V332.27H69.38V334.52H68V327.44H69.38V329.69H85.91V329.57L83 328.25L71.51 322.49L82.25 317.36L85.91 315.68V315.56H69.38V317.81H68V311.66H69.38ZM69.38 337.822V340.072H87.56V337.822H88.94V344.902H87.56V342.652H69.38V344.902H68V337.822H69.38ZM69.38 348.193V350.443H87.56L87.56 348.193H88.94L88.94 353.263L72.14 364.513V364.633H87.56V362.383H88.94V368.533H87.56V366.283H68V364.273L86.03 352.213V352.093H69.38V354.343H68L68 348.193H69.38ZM67.64 380.123C67.64 378.803 67.89 377.603 68.39 376.523C68.89 375.463 69.6 374.553 70.52 373.793C71.46 373.033 72.6 372.443 73.94 372.023C75.28 371.603 76.79 371.393 78.47 371.393C80.21 371.393 81.75 371.603 83.09 372.023C84.45 372.443 85.59 373.043 86.51 373.823C87.43 374.603 88.12 375.543 88.58 376.643C89.06 377.763 89.3 379.013 89.3 380.393C89.3 382.013 89.07 383.263 88.61 384.143C88.17 385.023 87.64 385.583 87.02 385.823V385.973H88.94V388.133H82.82V385.973H84.29C85.41 385.973 86.26 385.503 86.84 384.563C87.42 383.623 87.71 382.343 87.71 380.723C87.71 379.623 87.53 378.663 87.17 377.843C86.83 377.043 86.34 376.373 85.7 375.833C85.06 375.313 84.29 374.923 83.39 374.663C82.51 374.403 81.52 374.273 80.42 374.273H76.58C75.5 374.273 74.51 374.413 73.61 374.693C72.73 374.993 71.98 375.413 71.36 375.953C70.74 376.493 70.26 377.143 69.92 377.903C69.58 378.663 69.41 379.503 69.41 380.423C69.41 381.183 69.51 381.893 69.71 382.553C69.91 383.213 70.2 383.783 70.58 384.263C70.96 384.743 71.43 385.113 71.99 385.373C72.55 385.653 73.2 385.793 73.94 385.793H76.73V382.073H78.11V390.323H76.73V388.403H68V387.413L70.91 385.973V385.853C70.51 385.693 70.11 385.453 69.71 385.133C69.33 384.813 68.98 384.413 68.66 383.933C68.36 383.473 68.12 382.923 67.94 382.283C67.74 381.643 67.64 380.923 67.64 380.123ZM69.38 400.136V402.386H87.56V400.136H88.94V407.216H87.56V404.966H69.47V412.646H73.31V414.806H68V400.136H69.38ZM69.38 417.072L69.38 418.662L88.94 425.472V428.322L69.38 435.102V436.692H68V429.612H69.38V432.312L74.81 430.452V422.292L69.38 420.432V423.132H68L68 417.072H69.38ZM76.25 422.712V430.002L86.75 426.492V426.312L76.25 422.712ZM69.38 438.808V441.058H87.56V438.808H88.94V443.878L72.14 455.128V455.248H87.56V452.998H88.94V459.148H87.56V456.898H68V454.888L86.03 442.828V442.708H69.38V444.958H68L68 438.808H69.38ZM67.64 470.738C67.64 469.418 67.89 468.218 68.39 467.138C68.89 466.078 69.6 465.168 70.52 464.408C71.46 463.648 72.6 463.058 73.94 462.638C75.28 462.218 76.79 462.008 78.47 462.008C80.21 462.008 81.75 462.218 83.09 462.638C84.45 463.058 85.59 463.658 86.51 464.438C87.43 465.218 88.12 466.158 88.58 467.258C89.06 468.378 89.3 469.628 89.3 471.008C89.3 472.628 89.07 473.878 88.61 474.758C88.17 475.638 87.64 476.198 87.02 476.438V476.588H88.94V478.748H82.82V476.588H84.29C85.41 476.588 86.26 476.118 86.84 475.178C87.42 474.238 87.71 472.958 87.71 471.338C87.71 470.238 87.53 469.278 87.17 468.458C86.83 467.658 86.34 466.988 85.7 466.448C85.06 465.928 84.29 465.538 83.39 465.278C82.51 465.018 81.52 464.888 80.42 464.888H76.58C75.5 464.888 74.51 465.028 73.61 465.308C72.73 465.608 71.98 466.028 71.36 466.568C70.74 467.108 70.26 467.758 69.92 468.518C69.58 469.278 69.41 470.118 69.41 471.038C69.41 471.798 69.51 472.508 69.71 473.168C69.91 473.828 70.2 474.398 70.58 474.878C70.96 475.358 71.43 475.728 71.99 475.988C72.55 476.268 73.2 476.408 73.94 476.408H76.73V472.688H78.11V480.938H76.73V479.018H68V478.028L70.91 476.588V476.468C70.51 476.308 70.11 476.068 69.71 475.748C69.33 475.428 68.98 475.028 68.66 474.548C68.36 474.088 68.12 473.538 67.94 472.898C67.74 472.258 67.64 471.538 67.64 470.738ZM67.64 493.379C67.64 492.019 67.79 490.849 68.09 489.869C68.39 488.909 68.88 488.119 69.56 487.499C70.24 486.879 71.11 486.429 72.17 486.149C73.23 485.869 74.53 485.729 76.07 485.729H87.56V483.479H88.94V490.559H87.56V488.309H75.59C74.53 488.309 73.61 488.399 72.83 488.579C72.05 488.759 71.4 489.049 70.88 489.449C70.38 489.869 70 490.409 69.74 491.069C69.48 491.729 69.35 492.549 69.35 493.529C69.35 495.489 69.86 496.879 70.88 497.699C71.92 498.519 73.49 498.929 75.59 498.929H87.56V496.679H88.94V502.829H87.56V500.579H76.46C74.94 500.579 73.62 500.459 72.5 500.219C71.4 499.979 70.49 499.569 69.77 498.989C69.05 498.429 68.51 497.689 68.15 496.769C67.81 495.849 67.64 494.719 67.64 493.379ZM69.38 503.908V505.498L88.94 512.308V515.158L69.38 521.938V523.528H68V516.448H69.38V519.148L74.81 517.288V509.128L69.38 507.268L69.38 509.968H68L68 503.908H69.38ZM76.25 509.548V516.838L86.75 513.328V513.148L76.25 509.548ZM67.64 533.462C67.64 532.142 67.89 530.942 68.39 529.862C68.89 528.802 69.6 527.892 70.52 527.132C71.46 526.372 72.6 525.782 73.94 525.362C75.28 524.942 76.79 524.732 78.47 524.732C80.21 524.732 81.75 524.942 83.09 525.362C84.45 525.782 85.59 526.382 86.51 527.162C87.43 527.942 88.12 528.882 88.58 529.982C89.06 531.102 89.3 532.352 89.3 533.732C89.3 535.352 89.07 536.602 88.61 537.482C88.17 538.362 87.64 538.922 87.02 539.162V539.312H88.94V541.472H82.82V539.312H84.29C85.41 539.312 86.26 538.842 86.84 537.902C87.42 536.962 87.71 535.682 87.71 534.062C87.71 532.962 87.53 532.002 87.17 531.182C86.83 530.382 86.34 529.712 85.7 529.172C85.06 528.652 84.29 528.262 83.39 528.002C82.51 527.742 81.52 527.612 80.42 527.612H76.58C75.5 527.612 74.51 527.752 73.61 528.032C72.73 528.332 71.98 528.752 71.36 529.292C70.74 529.832 70.26 530.482 69.92 531.242C69.58 532.002 69.41 532.842 69.41 533.762C69.41 534.522 69.51 535.232 69.71 535.892C69.91 536.552 70.2 537.122 70.58 537.602C70.96 538.082 71.43 538.452 71.99 538.712C72.55 538.992 73.2 539.132 73.94 539.132H76.73V535.412H78.11V543.662H76.73V541.742H68V540.752L70.91 539.312V539.192C70.51 539.032 70.11 538.792 69.71 538.472C69.33 538.152 68.98 537.752 68.66 537.272C68.36 536.812 68.12 536.262 67.94 535.622C67.74 534.982 67.64 534.262 67.64 533.462ZM69.38 546.504V548.754H87.56L87.56 546.504H88.94L88.94 561.984H83.9V559.824H87.47V551.334H79.52V557.274H81.92V559.074H75.65V557.274H78.05V551.334H69.47V560.124H73.31V562.284H68L68 546.504H69.38Z" fill="#1F1B1C"/>
<line x1="39" y1="57.5" x2="120" y2="57.5" stroke="black"/>
<line x1="39" y1="53.5" x2="120" y2="53.5" stroke="black"/>
<line x1="39" y1="572.5" x2="120" y2="572.5" stroke="black"/>
<line x1="39" y1="576.5" x2="120" y2="576.5" stroke="black"/>
<defs>
<filter id="filter0_di_206_8" x="0" y="0" width="159" height="638" filterUnits="userSpaceOnUse" color-interpolation-filters="sRGB">
<feFlood flood-opacity="0" result="BackgroundImageFix"/>
<feColorMatrix in="SourceAlpha" type="matrix" values="0 0 0 0 0 0 0 0 0 0 0 0 0 0 0 0 0 0 127 0" result="hardAlpha"/>
<feMorphology radius="4" operator="dilate" in="SourceAlpha" result="effect1_dropShadow_206_8"/>
<feOffset dy="7"/>
<feGaussianBlur stdDeviation="17.5"/>
<feColorMatrix type="matrix" values="0 0 0 0 0.125542 0 0 0 0 0.119792 0 0 0 0 0.191667 0 0 0 0.2 0"/>
<feBlend mode="normal" in2="BackgroundImageFix" result="effect1_dropShadow_206_8"/>
<feBlend mode="normal" in="SourceGraphic" in2="effect1_dropShadow_206_8" result="shape"/>
<feColorMatrix in="SourceAlpha" type="matrix" values="0 0 0 0 0 0 0 0 0 0 0 0 0 0 0 0 0 0 127 0" result="hardAlpha"/>
<feOffset/>
<feGaussianBlur stdDeviation="5"/>
<feComposite in2="hardAlpha" operator="arithmetic" k2="-1" k3="1"/>
<feColorMatrix type="matrix" values="0 0 0 0 0.165625 0 0 0 0 0.1665 0 0 0 0 0.1875 0 0 0 0.25 0"/>
<feBlend mode="normal" in2="shape" result="effect2_innerShadow_206_8"/>
</filter>
<linearGradient id="paint0_linear_206_8" x1="39" y1="317.806" x2="54.5" y2="317.806" gradientUnits="userSpaceOnUse">
<stop offset="0.145833" stop-opacity="0"/>
<stop offset="0.48408" stop-color="#1A1D37" stop-opacity="0.35"/>
<stop offset="0.854167" stop-opacity="0"/>
</linearGradient>
<linearGradient id="paint1_linear_206_8" x1="107" y1="317.806" x2="122.5" y2="317.806" gradientUnits="userSpaceOnUse">
<stop offset="0.145833" stop-opacity="0"/>
<stop offset="0.48408" stop-color="#1A1D37" stop-opacity="0.35"/>
<stop offset="0.854167" stop-opacity="0"/>
</linearGradient>
</defs>
</svg>
