<svg width="112" height="575" viewBox="0 0 112 575" fill="none" xmlns="http://www.w3.org/2000/svg">
<g filter="url(#filter0_di_206_8)">
<rect x="39" y="32" width="34" height="497" rx="4" fill="#EBECE4"/>
<rect x="39.25" y="32.25" width="33.5" height="496.5" rx="3.75" stroke="#787F8F" stroke-width="0.5"/>
</g>
<path d="M39 492C39 491.448 39.4477 491 40 491H72C72.5523 491 73 491.448 73 492V524C73 526.761 70.7614 529 68 529H44C41.2386 529 39 526.761 39 524V492Z" fill="#231F20"/>
<rect x="39" y="32" width="13" height="497" fill="url(#paint0_linear_206_8)" fill-opacity="0.29"/>
<rect x="60" y="32" width="13" height="497" fill="url(#paint1_linear_206_8)" fill-opacity="0.29"/>
<path d="M62.849 104.879L53.533 104.879C51.2097 104.879 50.048 103.825 50.048 101.717C50.048 101.275 50.116 100.844 50.252 100.425H52.003C51.8557 100.867 51.782 101.258 51.782 101.598C51.782 102.55 52.3543 103.026 53.499 103.026L62.849 103.026V104.879ZM50.184 112.534H51.085C50.3597 111.978 49.997 111.179 49.997 110.137C49.997 109.003 50.3143 108.165 50.949 107.621C51.4137 107.235 51.9803 107.043 52.649 107.043C54.961 107.043 56.117 108.743 56.117 112.143V112.398H56.423C57.5337 112.398 58.089 111.882 58.089 110.851C58.089 109.921 57.8453 109.003 57.358 108.097H59.024C59.466 108.958 59.687 109.91 59.687 110.953C59.687 112.041 59.432 112.834 58.922 113.333C58.3667 113.865 57.5053 114.132 56.338 114.132L52.377 114.132C51.3343 114.132 50.6033 114.166 50.184 114.234V112.534ZM54.536 112.398V112.041C54.536 111.157 54.4567 110.477 54.298 110.001C54.0487 109.241 53.5557 108.862 52.819 108.862C52.003 108.862 51.595 109.332 51.595 110.273C51.595 111.689 52.4563 112.398 54.179 112.398H54.536ZM59.449 123.837L50.269 120.607V118.924L59.449 115.813V117.666L52.768 119.808L59.449 122.018L59.449 123.837ZM50.184 130.447H51.085C50.3597 129.892 49.997 129.093 49.997 128.05C49.997 126.917 50.3143 126.078 50.949 125.534C51.4137 125.149 51.9803 124.956 52.649 124.956C54.961 124.956 56.117 126.656 56.117 130.056V130.311H56.423C57.5337 130.311 58.089 129.795 58.089 128.764C58.089 127.835 57.8453 126.917 57.358 126.01H59.024C59.466 126.871 59.687 127.823 59.687 128.866C59.687 129.954 59.432 130.747 58.922 131.246C58.3667 131.779 57.5053 132.045 56.338 132.045H52.377C51.3343 132.045 50.6033 132.079 50.184 132.147V130.447ZM54.536 130.311V129.954C54.536 129.07 54.4567 128.39 54.298 127.914C54.0487 127.155 53.5557 126.775 52.819 126.775C52.003 126.775 51.595 127.245 51.595 128.186C51.595 129.603 52.4563 130.311 54.179 130.311H54.536ZM60.928 140.799C61.2113 140.232 61.353 139.473 61.353 138.521C61.353 137.047 60.809 136.311 59.721 136.311C59.1997 136.311 58.65 136.77 58.072 137.688C57.5847 138.447 57.1993 139.042 56.916 139.473C56.6327 139.903 56.4457 140.164 56.355 140.255C55.5503 141.173 54.621 141.632 53.567 141.632C52.3883 141.632 51.4647 141.178 50.796 140.272C50.2293 139.501 49.946 138.577 49.946 137.501C49.946 136.424 50.1443 135.438 50.541 134.543L52.428 134.764C51.952 135.614 51.714 136.549 51.714 137.569C51.714 139.076 52.377 139.83 53.703 139.83C54.2243 139.83 54.791 139.371 55.403 138.453C55.9583 137.625 56.3833 136.996 56.678 136.566C56.9727 136.146 57.1313 135.92 57.154 135.886C57.936 134.979 58.7917 134.526 59.721 134.526C60.775 134.526 61.6193 134.934 62.254 135.75C62.8207 136.486 63.104 137.416 63.104 138.538C63.104 139.467 62.9567 140.323 62.662 141.105L60.928 140.799ZM50.354 150.351C50.15 149.717 50.048 148.906 50.048 147.92C50.048 146.526 50.5353 145.427 51.51 144.622C52.3827 143.897 53.499 143.534 54.859 143.534C56.253 143.534 57.4033 143.954 58.31 144.792C59.2053 145.642 59.653 146.713 59.653 148.005C59.653 148.867 59.534 149.649 59.296 150.351L57.647 150.215C57.919 149.547 58.055 148.85 58.055 148.124C58.055 147.24 57.7603 146.549 57.171 146.05C56.593 145.563 55.8223 145.319 54.859 145.319C53.9523 145.319 53.1873 145.569 52.564 146.067C51.952 146.555 51.646 147.201 51.646 148.005C51.646 148.742 51.782 149.479 52.054 150.215L50.354 150.351ZM57.8 156.716C57.8227 156.568 57.8397 156.432 57.851 156.308C57.8737 156.183 57.885 156.058 57.885 155.934C57.885 155.276 57.562 154.789 56.916 154.472C56.3493 154.177 55.6467 154.03 54.808 154.03H50.201L50.201 152.211H57.205C57.6357 152.211 58.038 152.199 58.412 152.177C58.7973 152.165 59.1543 152.148 59.483 152.126V153.962H58.344C59.2393 154.483 59.687 155.146 59.687 155.951C59.687 156.2 59.653 156.455 59.585 156.716H57.8ZM50.201 160.256V158.437H59.721V160.256H50.201ZM61.353 160.256V158.437H63.478V160.256H61.353ZM47.77 164.638V162.853H59.5V164.638L58.463 164.587C58.5197 164.633 58.5877 164.689 58.667 164.757C58.7577 164.825 58.8483 164.905 58.939 164.995C59.4377 165.494 59.687 166.168 59.687 167.018C59.687 168.265 59.2677 169.223 58.429 169.891C57.6583 170.481 56.5703 170.775 55.165 170.775C53.737 170.775 52.6037 170.464 51.765 169.84C50.8697 169.183 50.422 168.225 50.422 166.967C50.422 165.959 50.7903 165.182 51.527 164.638H47.77ZM58.038 166.814C58.038 166.112 57.7433 165.568 57.154 165.182C56.6213 164.82 55.9243 164.638 55.063 164.638C54.2243 164.638 53.5273 164.814 52.972 165.165C52.3713 165.562 52.071 166.1 52.071 166.78C52.071 168.254 53.0853 168.99 55.114 168.99C57.0633 168.99 58.038 168.265 58.038 166.814ZM50.269 177.651C50.0877 177.22 49.997 176.733 49.997 176.189C49.997 175.112 50.286 174.415 50.864 174.098C51.2493 173.86 51.9917 173.741 53.091 173.741H57.902V172.279H59.585V173.741H61.608L62.203 175.577H59.585L59.585 177.379H57.902V175.577H52.615C51.9577 175.577 51.629 175.877 51.629 176.478C51.629 176.875 51.7027 177.22 51.85 177.515L50.269 177.651ZM55.199 191.141L60.435 189.084L55.199 187.01L55.199 191.141ZM50.201 195.085V193.113L53.448 191.821L53.448 186.313L50.201 185.004V183.049L62.883 188.217L62.883 190.07L50.201 195.085ZM52.02 198.827V199.677C52.02 201.626 52.666 202.601 53.958 202.601C54.7853 202.601 55.3463 202.266 55.641 201.598C55.8337 201.156 55.93 200.453 55.93 199.49V198.827H52.02ZM57.681 198.861V199.796C57.681 201.428 58.293 202.244 59.517 202.244C60.5823 202.244 61.115 201.524 61.115 200.085V198.861H57.681ZM62.849 197.008V200.085C62.849 202.725 61.7837 204.046 59.653 204.046C58.2363 204.046 57.3127 203.354 56.882 201.972C56.6667 202.72 56.304 203.309 55.794 203.74C55.2727 204.193 54.655 204.42 53.941 204.42C51.493 204.42 50.269 202.827 50.269 199.643V197.008H62.849ZM60.928 213.148C61.2113 212.581 61.353 211.822 61.353 210.87C61.353 209.397 60.809 208.66 59.721 208.66C59.1997 208.66 58.65 209.119 58.072 210.037C57.5847 210.796 57.1993 211.391 56.916 211.822C56.6327 212.253 56.4457 212.513 56.355 212.604C55.5503 213.522 54.621 213.981 53.567 213.981C52.3883 213.981 51.4647 213.528 50.796 212.621C50.2293 211.85 49.946 210.927 49.946 209.85C49.946 208.773 50.1443 207.787 50.541 206.892L52.428 207.113C51.952 207.963 51.714 208.898 51.714 209.918C51.714 211.425 52.377 212.179 53.703 212.179C54.2243 212.179 54.791 211.72 55.403 210.802C55.9583 209.975 56.3833 209.346 56.678 208.915C56.9727 208.496 57.1313 208.269 57.154 208.235C57.936 207.328 58.7917 206.875 59.721 206.875C60.775 206.875 61.6193 207.283 62.254 208.099C62.8207 208.836 63.104 209.765 63.104 210.887C63.104 211.816 62.9567 212.672 62.662 213.454L60.928 213.148ZM61.387 221.698C61.387 220.519 60.8883 219.59 59.891 218.91C58.9957 218.286 57.885 217.975 56.559 217.975C55.2217 217.975 54.1053 218.286 53.21 218.91C52.2127 219.59 51.714 220.519 51.714 221.698C51.714 222.876 52.2127 223.806 53.21 224.486C54.1053 225.098 55.2217 225.404 56.559 225.404C57.8737 225.404 58.9843 225.098 59.891 224.486C60.8883 223.806 61.387 222.876 61.387 221.698ZM63.104 221.698C63.104 223.511 62.4297 224.922 61.081 225.931C59.8797 226.826 58.3723 227.268 56.559 227.257C54.5757 227.234 53.0117 226.769 51.867 225.863C50.6203 224.877 49.997 223.488 49.997 221.698C49.997 219.918 50.6203 218.524 51.867 217.516C53.0343 216.586 54.5983 216.122 56.559 216.122C58.395 216.122 59.908 216.564 61.098 217.448C62.4353 218.445 63.104 219.862 63.104 221.698ZM50.269 236.286V229.894H62.849V231.73H52.02V236.286H50.269ZM62.883 247.41H54.672C52.972 247.41 51.7197 246.872 50.915 245.795C50.303 244.99 49.997 243.993 49.997 242.803C49.997 241.624 50.303 240.627 50.915 239.811C51.7083 238.746 52.9607 238.213 54.672 238.213H62.883V240.066H54.757C53.839 240.066 53.1137 240.298 52.581 240.763C52.0143 241.239 51.731 241.919 51.731 242.803C51.731 243.687 52.0143 244.378 52.581 244.877C53.1023 245.33 53.8277 245.557 54.757 245.557H62.883V247.41ZM61.166 258.044L61.166 254.593H50.269L50.269 252.74H61.166V249.306H62.849L62.849 258.044H61.166ZM50.201 266.322V259.862H62.883V266.135H61.149V261.715H57.613V265.897H55.879V261.715H51.952V266.322H50.201ZM52.02 275.675V276.525C52.02 278.475 52.666 279.449 53.958 279.449C54.7853 279.449 55.3463 279.115 55.641 278.446C55.8337 278.004 55.93 277.302 55.93 276.338V275.675H52.02ZM57.681 275.709V276.644C57.681 278.276 58.293 279.092 59.517 279.092C60.5823 279.092 61.115 278.373 61.115 276.933L61.115 275.709H57.681ZM62.849 273.856L62.849 276.933C62.849 279.574 61.7837 280.894 59.653 280.894C58.2363 280.894 57.3127 280.203 56.882 278.82C56.6667 279.568 56.304 280.158 55.794 280.588C55.2727 281.042 54.655 281.268 53.941 281.268C51.493 281.268 50.269 279.676 50.269 276.491V273.856H62.849ZM50.201 290.66L50.201 284.2H62.883L62.883 290.473H61.149L61.149 286.053H57.613L57.613 290.235H55.879L55.879 286.053H51.952L51.952 290.66H50.201ZM57.392 303.476H50.813C50.303 302.264 50.048 300.938 50.048 299.498C50.048 297.549 50.6487 295.996 51.85 294.84C53.0287 293.707 54.5983 293.14 56.559 293.14C58.5197 293.14 60.0893 293.724 61.268 294.891C62.4693 296.059 63.07 297.6 63.07 299.515C63.07 300.989 62.866 302.15 62.458 303L60.656 302.779C61.1093 301.952 61.336 300.864 61.336 299.515C61.336 298.121 60.8883 297.016 59.993 296.2C59.1317 295.407 57.987 295.01 56.559 295.01C55.1197 295.01 53.9693 295.396 53.108 296.166C52.224 296.96 51.782 298.07 51.782 299.498C51.782 300.416 51.8727 301.113 52.054 301.589H55.658V298.971H57.392V303.476ZM50.269 308.51V306.64H62.849V308.51H50.269ZM50.201 320.591L50.201 318.551L59.704 313.111H50.201L50.201 311.275H62.883V313.23L53.227 318.755H62.883V320.591H50.201ZM50.201 332.943V330.903L59.704 325.463H50.201V323.627H62.883V325.582L53.227 331.107H62.883V332.943H50.201ZM50.201 342.523V336.063H62.883V342.336H61.149V337.916H57.613V342.098H55.879V337.916H51.952V342.523H50.201ZM57.647 347.265V348.132C57.647 348.88 57.783 349.469 58.055 349.9C58.361 350.421 58.8257 350.682 59.449 350.682C60.1857 350.682 60.6673 350.461 60.894 350.019C61.0413 349.713 61.115 349.089 61.115 348.149V347.265H57.647ZM50.269 353.589L50.269 351.634L54.519 349.798C55.097 349.548 55.4597 349.322 55.607 349.118C55.7997 348.868 55.896 348.472 55.896 347.928V347.265H50.269V345.446H62.849V348.778C62.849 351.271 61.7157 352.518 59.449 352.518C58.701 352.518 58.0777 352.285 57.579 351.821C57.0803 351.356 56.7573 350.75 56.61 350.002C56.4853 350.636 56.066 351.107 55.352 351.413L50.269 353.589ZM61.336 357.421C60.7693 357.421 60.3613 357.325 60.112 357.132C59.772 356.849 59.5737 356.418 59.517 355.84H60.537C60.537 356.044 60.622 356.209 60.792 356.333C60.8713 356.401 61.047 356.435 61.319 356.435H61.625V355.721H63.478V357.421H61.336ZM60.928 366.397C61.2113 365.831 61.353 365.071 61.353 364.119C61.353 362.646 60.809 361.909 59.721 361.909C59.1997 361.909 58.65 362.368 58.072 363.286C57.5847 364.046 57.1993 364.641 56.916 365.071C56.6327 365.502 56.4457 365.763 56.355 365.853C55.5503 366.771 54.621 367.23 53.567 367.23C52.3883 367.23 51.4647 366.777 50.796 365.87C50.2293 365.1 49.946 364.176 49.946 363.099C49.946 362.023 50.1443 361.037 50.541 360.141L52.428 360.362C51.952 361.212 51.714 362.147 51.714 363.167C51.714 364.675 52.377 365.428 53.703 365.428C54.2243 365.428 54.791 364.969 55.403 364.051C55.9583 363.224 56.3833 362.595 56.678 362.164C56.9727 361.745 57.1313 361.518 57.154 361.484C57.936 360.578 58.7917 360.124 59.721 360.124C60.775 360.124 61.6193 360.532 62.254 361.348C62.8207 362.085 63.104 363.014 63.104 364.136C63.104 365.066 62.9567 365.921 62.662 366.703L60.928 366.397ZM57.392 384.641H50.813C50.303 383.429 50.048 382.103 50.048 380.663C50.048 378.714 50.6487 377.161 51.85 376.005C53.0287 374.872 54.5983 374.305 56.559 374.305C58.5197 374.305 60.0893 374.889 61.268 376.056C62.4693 377.224 63.07 378.765 63.07 380.68C63.07 382.154 62.866 383.315 62.458 384.165L60.656 383.944C61.1093 383.117 61.336 382.029 61.336 380.68C61.336 379.286 60.8883 378.181 59.993 377.365C59.1317 376.572 57.987 376.175 56.559 376.175C55.1197 376.175 53.9693 376.561 53.108 377.331C52.224 378.125 51.782 379.235 51.782 380.663C51.782 381.581 51.8727 382.278 52.054 382.754H55.658V380.136H57.392V384.641ZM62.883 397.189H54.672C52.972 397.189 51.7197 396.651 50.915 395.574C50.303 394.77 49.997 393.772 49.997 392.582C49.997 391.404 50.303 390.406 50.915 389.59C51.7083 388.525 52.9607 387.992 54.672 387.992H62.883L62.883 389.845H54.757C53.839 389.845 53.1137 390.078 52.581 390.542C52.0143 391.018 51.731 391.698 51.731 392.582C51.731 393.466 52.0143 394.158 52.581 394.656C53.1023 395.11 53.8277 395.336 54.757 395.336H62.883V397.189ZM50.269 402.044V400.174H62.849V402.044H50.269ZM52.02 406.712V407.324C52.02 410.769 53.5613 412.492 56.644 412.492C59.6247 412.492 61.115 411.019 61.115 408.072V406.712H52.02ZM62.849 404.859V408.072C62.849 410.203 62.2597 411.806 61.081 412.883C60.0157 413.846 58.5197 414.328 56.593 414.328C54.417 414.328 52.7907 413.637 51.714 412.254C50.7507 411.041 50.269 409.358 50.269 407.205V404.859H62.849ZM50.201 423.705L50.201 417.245H62.883L62.883 423.518H61.149L61.149 419.098H57.613L57.613 423.28H55.879L55.879 419.098H51.952L51.952 423.705H50.201Z" fill="#1F1B1C"/>
<defs>
<filter id="filter0_di_206_8" x="0" y="0" width="112" height="575" filterUnits="userSpaceOnUse" color-interpolation-filters="sRGB">
<feFlood flood-opacity="0" result="BackgroundImageFix"/>
<feColorMatrix in="SourceAlpha" type="matrix" values="0 0 0 0 0 0 0 0 0 0 0 0 0 0 0 0 0 0 127 0" result="hardAlpha"/>
<feMorphology radius="4" operator="dilate" in="SourceAlpha" result="effect1_dropShadow_206_8"/>
<feOffset dy="7"/>
<feGaussianBlur stdDeviation="17.5"/>
<feColorMatrix type="matrix" values="0 0 0 0 0.125542 0 0 0 0 0.119792 0 0 0 0 0.191667 0 0 0 0.2 0"/>
<feBlend mode="normal" in2="BackgroundImageFix" result="effect1_dropShadow_206_8"/>
<feBlend mode="normal" in="SourceGraphic" in2="effect1_dropShadow_206_8" result="shape"/>
<feColorMatrix in="SourceAlpha" type="matrix" values="0 0 0 0 0 0 0 0 0 0 0 0 0 0 0 0 0 0 127 0" result="hardAlpha"/>
<feOffset/>
<feGaussianBlur stdDeviation="5"/>
<feComposite in2="hardAlpha" operator="arithmetic" k2="-1" k3="1"/>
<feColorMatrix type="matrix" values="0 0 0 0 0.165625 0 0 0 0 0.1665 0 0 0 0 0.1875 0 0 0 0.25 0"/>
<feBlend mode="normal" in2="shape" result="effect2_innerShadow_206_8"/>
</filter>
<linearGradient id="paint0_linear_206_8" x1="39" y1="285.653" x2="54.5" y2="285.653" gradientUnits="userSpaceOnUse">
<stop offset="0.145833" stop-opacity="0"/>
<stop offset="0.48408" stop-color="#1A1D37" stop-opacity="0.35"/>
<stop offset="0.854167" stop-opacity="0"/>
</linearGradient>
<linearGradient id="paint1_linear_206_8" x1="60" y1="285.653" x2="75.5" y2="285.653" gradientUnits="userSpaceOnUse">
<stop offset="0.145833" stop-opacity="0"/>
<stop offset="0.48408" stop-color="#1A1D37" stop-opacity="0.35"/>
<stop offset="0.854167" stop-opacity="0"/>
</linearGradient>
</defs>
</svg>
