<svg width="177" height="806" viewBox="0 0 177 806" fill="none" xmlns="http://www.w3.org/2000/svg">
<g filter="url(#filter0_di_206_8)">
<rect x="39" y="32" width="99" height="728" rx="4" fill="#6FA4C6"/>
<rect x="39.25" y="32.25" width="98.5" height="727.5" rx="3.75" stroke="#787F8F" stroke-width="0.5"/>
</g>
<path d="M39 37C39 34.2386 41.2386 32 44 32H133C135.761 32 138 34.2386 138 37V179H39V37Z" fill="white"/>
<path d="M39 617H138V755C138 757.761 135.761 760 133 760H44C41.2386 760 39 757.761 39 755V617Z" fill="#0E365F"/>
<rect x="39" y="32" width="13" height="728" fill="url(#paint0_linear_206_8)" fill-opacity="0.29"/>
<rect x="118" y="32" width="13" height="728" fill="url(#paint1_linear_206_8)" fill-opacity="0.29"/>
<path d="M102.336 198.624V206.752C102.336 208.203 102.101 209.515 101.632 210.688C101.163 211.883 100.459 212.896 99.52 213.728C98.6027 214.581 97.44 215.232 96.032 215.68C94.6453 216.149 93.024 216.384 91.168 216.384C89.312 216.384 87.68 216.149 86.272 215.68C84.8853 215.232 83.7227 214.581 82.784 213.728C81.8667 212.896 81.1733 211.883 80.704 210.688C80.2347 209.515 80 208.203 80 206.752V198.624L102.336 198.624ZM83.744 206.752C83.744 208.331 84.2027 209.579 85.12 210.496C86.0587 211.435 87.488 211.904 89.408 211.904H92.928C94.848 211.904 96.2667 211.435 97.184 210.496C98.1227 209.579 98.592 208.331 98.592 206.752V202.848H83.744V206.752ZM80 232.719C80 231.823 80.256 231.108 80.768 230.575C81.3013 230.063 82.0053 229.743 82.88 229.615V229.423C81.792 229.145 80.9707 228.58 80.416 227.727C79.8827 226.873 79.616 225.817 79.616 224.559C79.616 222.852 80.064 221.54 80.96 220.623C81.856 219.705 83.0507 219.247 84.544 219.247C86.272 219.247 87.552 219.865 88.384 221.103C89.2373 222.34 89.664 224.1 89.664 226.383V229.231H90.88C91.8187 229.231 92.544 228.985 93.056 228.495C93.568 228.004 93.824 227.215 93.824 226.127C93.824 225.167 93.6107 224.388 93.184 223.791C92.7787 223.215 92.288 222.724 91.712 222.319L93.888 219.887C94.848 220.505 95.616 221.327 96.192 222.351C96.7893 223.375 97.088 224.729 97.088 226.415C97.088 228.676 96.576 230.393 95.552 231.567C94.528 232.74 93.056 233.327 91.136 233.327H83.264V234.991H80V232.719ZM82.592 225.935C82.592 226.852 82.7947 227.631 83.2 228.271C83.6053 228.911 84.2027 229.231 84.992 229.231H87.2V226.607C87.2 224.473 86.5173 223.407 85.152 223.407H84.608C83.9253 223.407 83.4133 223.62 83.072 224.047C82.752 224.495 82.592 225.124 82.592 225.935ZM80 243.397C80 241.989 80.3627 240.911 81.088 240.165C81.8347 239.439 82.8907 239.077 84.256 239.077H93.44V236.613H96.704V237.893C96.704 238.511 96.8427 238.927 97.12 239.141C97.4187 239.375 97.856 239.493 98.432 239.493H101.28V243.173H96.704V246.597H93.44V243.173H83.264V246.341H80V243.397ZM80 262.437C80 261.541 80.256 260.827 80.768 260.293C81.3013 259.781 82.0053 259.461 82.88 259.333V259.141C81.792 258.864 80.9707 258.299 80.416 257.445C79.8827 256.592 79.616 255.536 79.616 254.277C79.616 252.571 80.064 251.259 80.96 250.341C81.856 249.424 83.0507 248.965 84.544 248.965C86.272 248.965 87.552 249.584 88.384 250.821C89.2373 252.059 89.664 253.819 89.664 256.101V258.949H90.88C91.8187 258.949 92.544 258.704 93.056 258.213C93.568 257.723 93.824 256.933 93.824 255.845C93.824 254.885 93.6107 254.107 93.184 253.509C92.7787 252.933 92.288 252.443 91.712 252.037L93.888 249.605C94.848 250.224 95.616 251.045 96.192 252.069C96.7893 253.093 97.088 254.448 97.088 256.133C97.088 258.395 96.576 260.112 95.552 261.285C94.528 262.459 93.056 263.045 91.136 263.045H83.264V264.709H80V262.437ZM82.592 255.653C82.592 256.571 82.7947 257.349 83.2 257.989C83.6053 258.629 84.2027 258.949 84.992 258.949H87.2V256.325C87.2 254.192 86.5173 253.125 85.152 253.125H84.608C83.9253 253.125 83.4133 253.339 83.072 253.765C82.752 254.213 82.592 254.843 82.592 255.653ZM103.68 268.024V272.12H93.952V272.248C94.912 272.547 95.6693 273.112 96.224 273.944C96.8 274.776 97.088 275.747 97.088 276.856C97.088 278.99 96.3307 280.611 94.816 281.72C93.3227 282.851 91.1787 283.416 88.384 283.416C85.568 283.416 83.4027 282.851 81.888 281.72C80.3733 280.611 79.616 278.99 79.616 276.856C79.616 275.747 79.904 274.776 80.48 273.944C81.056 273.134 81.824 272.568 82.784 272.248V272.12H80V268.024H103.68ZM83.008 275.544C83.008 276.611 83.36 277.475 84.064 278.136C84.768 278.798 85.7173 279.128 86.912 279.128H89.792C90.9867 279.128 91.936 278.798 92.64 278.136C93.3653 277.475 93.728 276.611 93.728 275.544C93.728 274.563 93.4827 273.742 92.992 273.08C92.5013 272.44 91.8507 272.12 91.04 272.12H85.728C84.8533 272.12 84.1813 272.44 83.712 273.08C83.2427 273.742 83.008 274.563 83.008 275.544ZM80 299.5C80 298.604 80.256 297.889 80.768 297.356C81.3013 296.844 82.0053 296.524 82.88 296.396V296.204C81.792 295.926 80.9707 295.361 80.416 294.508C79.8827 293.654 79.616 292.598 79.616 291.34C79.616 289.633 80.064 288.321 80.96 287.404C81.856 286.486 83.0507 286.028 84.544 286.028C86.272 286.028 87.552 286.646 88.384 287.884C89.2373 289.121 89.664 290.881 89.664 293.164V296.012H90.88C91.8187 296.012 92.544 295.766 93.056 295.276C93.568 294.785 93.824 293.996 93.824 292.908C93.824 291.948 93.6107 291.169 93.184 290.572C92.7787 289.996 92.288 289.505 91.712 289.1L93.888 286.668C94.848 287.286 95.616 288.108 96.192 289.132C96.7893 290.156 97.088 291.51 97.088 293.196C97.088 295.457 96.576 297.174 95.552 298.348C94.528 299.521 93.056 300.108 91.136 300.108H83.264V301.772H80V299.5ZM82.592 292.716C82.592 293.633 82.7947 294.412 83.2 295.052C83.6053 295.692 84.2027 296.012 84.992 296.012H87.2V293.388C87.2 291.254 86.5173 290.188 85.152 290.188H84.608C83.9253 290.188 83.4133 290.401 83.072 290.828C82.752 291.276 82.592 291.905 82.592 292.716ZM79.616 310.559C79.616 308.959 79.8827 307.615 80.416 306.527C80.9707 305.439 81.728 304.479 82.688 303.647L85.12 306.143C84.416 306.761 83.8613 307.433 83.456 308.159C83.0507 308.905 82.848 309.759 82.848 310.719C82.848 311.7 83.0187 312.404 83.36 312.831C83.7013 313.279 84.1707 313.503 84.768 313.503C85.2587 313.503 85.6427 313.343 85.92 313.023C86.2187 312.724 86.4213 312.201 86.528 311.455L86.752 309.791C86.9867 307.977 87.4987 306.591 88.288 305.631C89.0987 304.692 90.272 304.223 91.808 304.223C92.6187 304.223 93.344 304.372 93.984 304.671C94.6453 304.969 95.2 305.396 95.648 305.951C96.1173 306.505 96.4693 307.167 96.704 307.935C96.96 308.724 97.088 309.599 97.088 310.559C97.088 311.369 97.024 312.084 96.896 312.703C96.7893 313.343 96.6187 313.919 96.384 314.431C96.1707 314.943 95.8933 315.412 95.552 315.839C95.232 316.265 94.8693 316.681 94.464 317.087L92.064 314.687C92.576 314.196 93.0027 313.609 93.344 312.927C93.6853 312.244 93.856 311.497 93.856 310.687C93.856 309.791 93.696 309.14 93.376 308.735C93.056 308.351 92.64 308.159 92.128 308.159C91.5733 308.159 91.1467 308.319 90.848 308.639C90.5707 308.98 90.368 309.545 90.24 310.335L90.016 312.031C89.504 315.636 87.8613 317.439 85.088 317.439C84.2773 317.439 83.5307 317.268 82.848 316.927C82.1867 316.607 81.6107 316.148 81.12 315.551C80.6507 314.953 80.2773 314.228 80 313.375C79.744 312.543 79.616 311.604 79.616 310.559ZM79.616 327.808C79.616 326.57 79.8187 325.461 80.224 324.48C80.6507 323.52 81.2373 322.698 81.984 322.016C82.752 321.354 83.6693 320.842 84.736 320.48C85.824 320.117 87.04 319.936 88.384 319.936C89.7067 319.936 90.9013 320.106 91.968 320.448C93.0347 320.81 93.9413 321.322 94.688 321.984C95.456 322.645 96.0427 323.456 96.448 324.416C96.8747 325.376 97.088 326.464 97.088 327.68C97.088 328.981 96.864 330.112 96.416 331.072C95.968 332.032 95.36 332.821 94.592 333.44C93.824 334.058 92.928 334.517 91.904 334.816C90.9013 335.136 89.824 335.296 88.672 335.296H87.328V324.192H86.912C85.696 324.192 84.7147 324.533 83.968 325.216C83.2427 325.898 82.88 326.912 82.88 328.256C82.88 329.28 83.0933 330.112 83.52 330.752C83.9467 331.413 84.4907 332 85.152 332.512L82.688 334.72C81.728 334.037 80.9707 333.098 80.416 331.904C79.8827 330.73 79.616 329.365 79.616 327.808ZM94.016 327.744C94.016 326.656 93.6533 325.792 92.928 325.152C92.2027 324.512 91.264 324.192 90.112 324.192H89.856V331.04H90.144C91.296 331.04 92.224 330.752 92.928 330.176C93.6533 329.621 94.016 328.81 94.016 327.744ZM79.616 353.662C79.616 351.742 79.9573 350.11 80.64 348.766C81.3227 347.443 82.2187 346.302 83.328 345.342L86.08 348.19C85.184 348.958 84.5013 349.811 84.032 350.75C83.5627 351.71 83.328 352.766 83.328 353.918C83.328 355.219 83.6053 356.2 84.16 356.862C84.736 357.523 85.504 357.854 86.464 357.854C87.2107 357.854 87.8187 357.64 88.288 357.214C88.7573 356.787 89.0987 355.987 89.312 354.814L89.632 352.702C90.336 348.243 92.5013 346.014 96.128 346.014C97.1307 346.014 98.0373 346.195 98.848 346.558C99.6587 346.942 100.352 347.486 100.928 348.19C101.504 348.894 101.941 349.736 102.24 350.718C102.56 351.72 102.72 352.851 102.72 354.11C102.72 355.795 102.443 357.267 101.888 358.526C101.333 359.784 100.512 360.862 99.424 361.758L96.704 358.878C97.3867 358.323 97.9413 357.651 98.368 356.862C98.7947 356.072 99.008 355.08 99.008 353.886C99.008 352.67 98.7733 351.752 98.304 351.134C97.856 350.536 97.216 350.238 96.384 350.238C95.5307 350.238 94.9013 350.483 94.496 350.974C94.0907 351.464 93.792 352.254 93.6 353.342L93.216 355.422C92.8107 357.683 92.0853 359.347 91.04 360.414C90.016 361.502 88.576 362.046 86.72 362.046C85.6533 362.046 84.6827 361.854 83.808 361.47C82.9547 361.107 82.208 360.563 81.568 359.838C80.9493 359.134 80.4693 358.259 80.128 357.214C79.7867 356.19 79.616 355.006 79.616 353.662ZM96.704 376.264V380.104L77.024 373.384C76.4267 373.171 75.9147 372.926 75.488 372.648C75.04 372.392 74.6773 372.083 74.4 371.72C74.1227 371.358 73.92 370.92 73.792 370.408C73.664 369.896 73.6 369.299 73.6 368.616V366.152H76.864V369.16L79.2 369.928L96.704 363.944V368.008L87.872 370.92L83.648 372.008V372.2L87.872 373.352L96.704 376.264ZM79.616 388.028C79.616 386.428 79.8827 385.084 80.416 383.996C80.9707 382.908 81.728 381.948 82.688 381.116L85.12 383.612C84.416 384.23 83.8613 384.902 83.456 385.628C83.0507 386.374 82.848 387.228 82.848 388.188C82.848 389.169 83.0187 389.873 83.36 390.3C83.7013 390.748 84.1707 390.972 84.768 390.972C85.2587 390.972 85.6427 390.812 85.92 390.492C86.2187 390.193 86.4213 389.67 86.528 388.924L86.752 387.26C86.9867 385.446 87.4987 384.06 88.288 383.1C89.0987 382.161 90.272 381.692 91.808 381.692C92.6187 381.692 93.344 381.841 93.984 382.14C94.6453 382.438 95.2 382.865 95.648 383.42C96.1173 383.974 96.4693 384.636 96.704 385.404C96.96 386.193 97.088 387.068 97.088 388.028C97.088 388.838 97.024 389.553 96.896 390.172C96.7893 390.812 96.6187 391.388 96.384 391.9C96.1707 392.412 95.8933 392.881 95.552 393.308C95.232 393.734 94.8693 394.15 94.464 394.556L92.064 392.156C92.576 391.665 93.0027 391.078 93.344 390.396C93.6853 389.713 93.856 388.966 93.856 388.156C93.856 387.26 93.696 386.609 93.376 386.204C93.056 385.82 92.64 385.628 92.128 385.628C91.5733 385.628 91.1467 385.788 90.848 386.108C90.5707 386.449 90.368 387.014 90.24 387.804L90.016 389.5C89.504 393.105 87.8613 394.908 85.088 394.908C84.2773 394.908 83.5307 394.737 82.848 394.396C82.1867 394.076 81.6107 393.617 81.12 393.02C80.6507 392.422 80.2773 391.697 80 390.844C79.744 390.012 79.616 389.073 79.616 388.028ZM80 403.49C80 402.082 80.3627 401.005 81.088 400.258C81.8347 399.533 82.8907 399.17 84.256 399.17H93.44V396.706H96.704V397.986C96.704 398.605 96.8427 399.021 97.12 399.234C97.4187 399.469 97.856 399.586 98.432 399.586H101.28V403.266H96.704V406.69H93.44V403.266H83.264V406.434H80V403.49ZM79.616 416.87C79.616 415.633 79.8187 414.523 80.224 413.542C80.6507 412.582 81.2373 411.761 81.984 411.078C82.752 410.417 83.6693 409.905 84.736 409.542C85.824 409.179 87.04 408.998 88.384 408.998C89.7067 408.998 90.9013 409.169 91.968 409.51C93.0347 409.873 93.9413 410.385 94.688 411.046C95.456 411.707 96.0427 412.518 96.448 413.478C96.8747 414.438 97.088 415.526 97.088 416.742C97.088 418.043 96.864 419.174 96.416 420.134C95.968 421.094 95.36 421.883 94.592 422.502C93.824 423.121 92.928 423.579 91.904 423.878C90.9013 424.198 89.824 424.358 88.672 424.358H87.328L87.328 413.254H86.912C85.696 413.254 84.7147 413.595 83.968 414.278C83.2427 414.961 82.88 415.974 82.88 417.318C82.88 418.342 83.0933 419.174 83.52 419.814C83.9467 420.475 84.4907 421.062 85.152 421.574L82.688 423.782C81.728 423.099 80.9707 422.161 80.416 420.966C79.8827 419.793 79.616 418.427 79.616 416.87ZM94.016 416.806C94.016 415.718 93.6533 414.854 92.928 414.214C92.2027 413.574 91.264 413.254 90.112 413.254H89.856L89.856 420.102H90.144C91.296 420.102 92.224 419.814 92.928 419.238C93.6533 418.683 94.016 417.873 94.016 416.806ZM80 427.962H96.704V432.058H93.92V432.218C94.7947 432.538 95.5413 433.05 96.16 433.754C96.7787 434.458 97.088 435.439 97.088 436.698C97.088 437.85 96.8107 438.842 96.256 439.674C95.7013 440.506 94.8587 441.124 93.728 441.53V441.594C94.6667 441.892 95.456 442.479 96.096 443.354C96.7573 444.25 97.088 445.37 97.088 446.714C97.088 448.356 96.5227 449.615 95.392 450.49C94.2613 451.386 92.6507 451.834 90.56 451.834H80V447.738H90.144C92.5333 447.738 93.728 446.842 93.728 445.05C93.728 444.644 93.664 444.25 93.536 443.866C93.4293 443.503 93.2587 443.172 93.024 442.874C92.8107 442.596 92.5333 442.372 92.192 442.202C91.872 442.031 91.488 441.946 91.04 441.946H80V437.85H90.144C92.5333 437.85 93.728 436.954 93.728 435.162C93.728 434.778 93.664 434.394 93.536 434.01C93.4293 433.647 93.2587 433.316 93.024 433.018C92.8107 432.74 92.5333 432.506 92.192 432.314C91.872 432.143 91.488 432.058 91.04 432.058H80V427.962ZM79.616 472.859C79.616 471.387 79.8507 470.053 80.32 468.859C80.8107 467.685 81.536 466.672 82.496 465.819C83.456 464.987 84.64 464.347 86.048 463.899C87.4773 463.451 89.1307 463.227 91.008 463.227C92.8853 463.227 94.5493 463.451 96 463.899C97.472 464.347 98.6987 464.987 99.68 465.819C100.683 466.672 101.44 467.685 101.952 468.859C102.464 470.053 102.72 471.387 102.72 472.859C102.72 474.864 102.293 476.528 101.44 477.851C100.587 479.173 99.296 480.229 97.568 481.019L95.648 477.403C96.6507 477.083 97.4507 476.56 98.048 475.835C98.6667 475.109 98.976 474.117 98.976 472.859C98.976 471.28 98.4427 470.021 97.376 469.083C96.3093 468.165 94.816 467.707 92.896 467.707H89.376C87.4347 467.707 85.9413 468.165 84.896 469.083C83.872 470.021 83.36 471.28 83.36 472.859C83.36 474.117 83.7013 475.141 84.384 475.931C85.0667 476.741 85.9093 477.328 86.912 477.691L84.896 481.115C83.232 480.304 81.9307 479.227 80.992 477.883C80.0747 476.539 79.616 474.864 79.616 472.859ZM79.616 491.086C79.616 489.891 79.8187 488.814 80.224 487.854C80.6293 486.915 81.216 486.104 81.984 485.422C82.752 484.76 83.6693 484.248 84.736 483.886C85.824 483.523 87.04 483.342 88.384 483.342C89.728 483.342 90.9333 483.523 92 483.886C93.0667 484.248 93.9733 484.76 94.72 485.422C95.488 486.104 96.0747 486.915 96.48 487.854C96.8853 488.814 97.088 489.891 97.088 491.086C97.088 492.28 96.8853 493.358 96.48 494.318C96.0747 495.278 95.488 496.088 94.72 496.75C93.9733 497.432 93.0667 497.955 92 498.318C90.9333 498.68 89.728 498.862 88.384 498.862C87.04 498.862 85.824 498.68 84.736 498.318C83.6693 497.955 82.752 497.432 81.984 496.75C81.216 496.088 80.6293 495.278 80.224 494.318C79.8187 493.358 79.616 492.28 79.616 491.086ZM82.912 491.086C82.912 492.174 83.2427 493.027 83.904 493.646C84.5653 494.264 85.536 494.574 86.816 494.574H89.92C91.1787 494.574 92.1387 494.264 92.8 493.646C93.4613 493.027 93.792 492.174 93.792 491.086C93.792 490.019 93.4613 489.176 92.8 488.558C92.1387 487.939 91.1787 487.63 89.92 487.63H86.816C85.536 487.63 84.5653 487.939 83.904 488.558C83.2427 489.176 82.912 490.019 82.912 491.086ZM80 502.493H96.704V506.589H93.92V506.749C94.816 507.09 95.5627 507.624 96.16 508.349C96.7787 509.096 97.088 510.12 97.088 511.421C97.088 513.149 96.5227 514.472 95.392 515.389C94.2613 516.306 92.6507 516.765 90.56 516.765H80V512.669H90.144C91.3387 512.669 92.2347 512.456 92.832 512.029C93.4293 511.602 93.728 510.898 93.728 509.917C93.728 509.49 93.664 509.074 93.536 508.669C93.4293 508.285 93.2587 507.933 93.024 507.613C92.8107 507.314 92.5333 507.069 92.192 506.877C91.872 506.685 91.488 506.589 91.04 506.589H80L80 502.493ZM79.616 527.898C79.616 526.66 79.8187 525.562 80.224 524.602C80.6293 523.641 81.216 522.831 81.984 522.17C82.752 521.53 83.6693 521.039 84.736 520.698C85.824 520.356 87.04 520.186 88.384 520.186C89.728 520.186 90.9333 520.356 92 520.698C93.0667 521.039 93.9733 521.53 94.72 522.17C95.488 522.831 96.0747 523.641 96.48 524.602C96.8853 525.562 97.088 526.66 97.088 527.898C97.088 529.583 96.7147 530.97 95.968 532.058C95.2213 533.167 94.1867 533.967 92.864 534.458L91.36 531.098C92.064 530.906 92.64 530.543 93.088 530.01C93.5573 529.498 93.792 528.794 93.792 527.898C93.792 526.746 93.4293 525.882 92.704 525.306C91.9787 524.751 91.0293 524.474 89.856 524.474H86.816C85.6427 524.474 84.6933 524.751 83.968 525.306C83.264 525.882 82.912 526.746 82.912 527.898C82.912 528.879 83.1573 529.636 83.648 530.17C84.16 530.703 84.7893 531.119 85.536 531.418L84.032 534.554C82.56 533.999 81.4507 533.156 80.704 532.026C79.9787 530.895 79.616 529.519 79.616 527.898ZM79.616 544.308C79.616 543.07 79.8187 541.961 80.224 540.98C80.6507 540.02 81.2373 539.198 81.984 538.516C82.752 537.854 83.6693 537.342 84.736 536.98C85.824 536.617 87.04 536.436 88.384 536.436C89.7067 536.436 90.9013 536.606 91.968 536.948C93.0347 537.31 93.9413 537.822 94.688 538.484C95.456 539.145 96.0427 539.956 96.448 540.916C96.8747 541.876 97.088 542.964 97.088 544.18C97.088 545.481 96.864 546.612 96.416 547.572C95.968 548.532 95.36 549.321 94.592 549.94C93.824 550.558 92.928 551.017 91.904 551.316C90.9013 551.636 89.824 551.796 88.672 551.796H87.328L87.328 540.692H86.912C85.696 540.692 84.7147 541.033 83.968 541.716C83.2427 542.398 82.88 543.412 82.88 544.756C82.88 545.78 83.0933 546.612 83.52 547.252C83.9467 547.913 84.4907 548.5 85.152 549.012L82.688 551.22C81.728 550.537 80.9707 549.598 80.416 548.404C79.8827 547.23 79.616 545.865 79.616 544.308ZM94.016 544.244C94.016 543.156 93.6533 542.292 92.928 541.652C92.2027 541.012 91.264 540.692 90.112 540.692H89.856V547.54H90.144C91.296 547.54 92.224 547.252 92.928 546.676C93.6533 546.121 94.016 545.31 94.016 544.244ZM96.704 555.399V559.495H93.952V559.623C94.912 559.922 95.6693 560.487 96.224 561.319C96.8 562.151 97.088 563.122 97.088 564.231C97.088 566.365 96.3307 567.986 94.816 569.095C93.3227 570.226 91.1787 570.791 88.384 570.791C85.568 570.791 83.4027 570.226 81.888 569.095C80.3733 567.986 79.616 566.365 79.616 564.231C79.616 563.122 79.904 562.151 80.48 561.319C81.056 560.509 81.824 559.943 82.784 559.623V559.495H73.6V555.399H96.704ZM83.008 562.919C83.008 563.986 83.36 564.85 84.064 565.511C84.768 566.173 85.7173 566.503 86.912 566.503H89.792C90.9867 566.503 91.936 566.173 92.64 565.511C93.3653 564.85 93.728 563.986 93.728 562.919C93.728 561.938 93.4827 561.117 92.992 560.455C92.5013 559.815 91.8507 559.495 91.04 559.495H85.728C84.8533 559.495 84.1813 559.815 83.712 560.455C83.2427 561.117 83.008 561.938 83.008 562.919ZM80 579.615C80 578.207 80.3627 577.13 81.088 576.383C81.8347 575.658 82.8907 575.295 84.256 575.295H93.44L93.44 572.831H96.704L96.704 574.111C96.704 574.73 96.8427 575.146 97.12 575.359C97.4187 575.594 97.856 575.711 98.432 575.711H101.28V579.391H96.704V582.815H93.44V579.391H83.264V582.559H80V579.615ZM79.616 591.84C79.616 590.24 79.8827 588.896 80.416 587.808C80.9707 586.72 81.728 585.76 82.688 584.928L85.12 587.424C84.416 588.043 83.8613 588.715 83.456 589.44C83.0507 590.187 82.848 591.04 82.848 592C82.848 592.981 83.0187 593.685 83.36 594.112C83.7013 594.56 84.1707 594.784 84.768 594.784C85.2587 594.784 85.6427 594.624 85.92 594.304C86.2187 594.005 86.4213 593.483 86.528 592.736L86.752 591.072C86.9867 589.259 87.4987 587.872 88.288 586.912C89.0987 585.973 90.272 585.504 91.808 585.504C92.6187 585.504 93.344 585.653 93.984 585.952C94.6453 586.251 95.2 586.677 95.648 587.232C96.1173 587.787 96.4693 588.448 96.704 589.216C96.96 590.005 97.088 590.88 97.088 591.84C97.088 592.651 97.024 593.365 96.896 593.984C96.7893 594.624 96.6187 595.2 96.384 595.712C96.1707 596.224 95.8933 596.693 95.552 597.12C95.232 597.547 94.8693 597.963 94.464 598.368L92.064 595.968C92.576 595.477 93.0027 594.891 93.344 594.208C93.6853 593.525 93.856 592.779 93.856 591.968C93.856 591.072 93.696 590.421 93.376 590.016C93.056 589.632 92.64 589.44 92.128 589.44C91.5733 589.44 91.1467 589.6 90.848 589.92C90.5707 590.261 90.368 590.827 90.24 591.616L90.016 593.312C89.504 596.917 87.8613 598.72 85.088 598.72C84.2773 598.72 83.5307 598.549 82.848 598.208C82.1867 597.888 81.6107 597.429 81.12 596.832C80.6507 596.235 80.2773 595.509 80 594.656C79.744 593.824 79.616 592.885 79.616 591.84Z" fill="#013A57"/>
<defs>
<filter id="filter0_di_206_8" x="0" y="0" width="177" height="806" filterUnits="userSpaceOnUse" color-interpolation-filters="sRGB">
<feFlood flood-opacity="0" result="BackgroundImageFix"/>
<feColorMatrix in="SourceAlpha" type="matrix" values="0 0 0 0 0 0 0 0 0 0 0 0 0 0 0 0 0 0 127 0" result="hardAlpha"/>
<feMorphology radius="4" operator="dilate" in="SourceAlpha" result="effect1_dropShadow_206_8"/>
<feOffset dy="7"/>
<feGaussianBlur stdDeviation="17.5"/>
<feColorMatrix type="matrix" values="0 0 0 0 0.125542 0 0 0 0 0.119792 0 0 0 0 0.191667 0 0 0 0.2 0"/>
<feBlend mode="normal" in2="BackgroundImageFix" result="effect1_dropShadow_206_8"/>
<feBlend mode="normal" in="SourceGraphic" in2="effect1_dropShadow_206_8" result="shape"/>
<feColorMatrix in="SourceAlpha" type="matrix" values="0 0 0 0 0 0 0 0 0 0 0 0 0 0 0 0 0 0 127 0" result="hardAlpha"/>
<feOffset/>
<feGaussianBlur stdDeviation="5"/>
<feComposite in2="hardAlpha" operator="arithmetic" k2="-1" k3="1"/>
<feColorMatrix type="matrix" values="0 0 0 0 0.165625 0 0 0 0 0.1665 0 0 0 0 0.1875 0 0 0 0.25 0"/>
<feBlend mode="normal" in2="shape" result="effect2_innerShadow_206_8"/>
</filter>
<linearGradient id="paint0_linear_206_8" x1="39" y1="403.548" x2="54.5" y2="403.548" gradientUnits="userSpaceOnUse">
<stop offset="0.145833" stop-opacity="0"/>
<stop offset="0.48408" stop-color="#1A1D37" stop-opacity="0.35"/>
<stop offset="0.854167" stop-opacity="0"/>
</linearGradient>
<linearGradient id="paint1_linear_206_8" x1="118" y1="403.548" x2="133.5" y2="403.548" gradientUnits="userSpaceOnUse">
<stop offset="0.145833" stop-opacity="0"/>
<stop offset="0.48408" stop-color="#1A1D37" stop-opacity="0.35"/>
<stop offset="0.854167" stop-opacity="0"/>
</linearGradient>
</defs>
</svg>
