<svg width="225" height="806" viewBox="0 0 225 806" fill="none" xmlns="http://www.w3.org/2000/svg">
<g filter="url(#filter0_di_206_8)">
<rect x="39" y="32" width="147" height="728" rx="4" fill="white"/>
<rect x="39.25" y="32.25" width="146.5" height="727.5" rx="3.75" stroke="#787F8F" stroke-width="0.5"/>
</g>
<rect x="39" y="32" width="13" height="728" fill="url(#paint0_linear_206_8)" fill-opacity="0.29"/>
<rect x="173" y="32" width="13" height="728" fill="url(#paint1_linear_206_8)" fill-opacity="0.29"/>
<g filter="url(#filter1_d_206_8)">
<path d="M125.16 73.96V76.88H148.76V73.96H150.92V86.24C150.92 88.1067 150.613 89.8267 150 91.4C149.413 92.9733 148.533 94.3333 147.36 95.48C146.187 96.6267 144.733 97.5067 143 98.12C141.267 98.76 139.253 99.08 136.96 99.08C134.667 99.08 132.653 98.76 130.92 98.12C129.187 97.5067 127.733 96.6267 126.56 95.48C125.387 94.3333 124.493 92.9733 123.88 91.4C123.293 89.8267 123 88.1067 123 86.24V73.96H125.16ZM125.36 81.64V85.56C125.36 88.3067 126.093 90.3733 127.56 91.76C129.027 93.1467 131.173 93.84 134 93.84H139.92C142.747 93.84 144.893 93.1467 146.36 91.76C147.827 90.3733 148.56 88.3067 148.56 85.56V81.64H125.36ZM125.16 103.062V105.982L148.76 105.982V103.062H150.92L150.92 113.662H148.76V110.742L125.16 110.742L125.16 113.662H123L123 103.062H125.16ZM122.52 127.833C122.52 126.179 122.8 124.833 123.36 123.793C123.92 122.779 124.587 122.086 125.36 121.713V121.513H123V117.873L131.2 117.873V121.513H129.4C128.013 121.513 126.933 121.966 126.16 122.873C125.387 123.806 125 125.286 125 127.313C125 129.446 125.44 130.993 126.32 131.953C127.2 132.913 128.373 133.393 129.84 133.393C131.147 133.393 132.147 133.033 132.84 132.313C133.56 131.593 134.133 130.379 134.56 128.673L135.04 126.633C135.333 125.326 135.72 124.153 136.2 123.113C136.68 122.073 137.267 121.193 137.96 120.473C138.653 119.753 139.467 119.193 140.4 118.793C141.333 118.419 142.427 118.233 143.68 118.233C144.827 118.233 145.867 118.446 146.8 118.873C147.76 119.299 148.573 119.899 149.24 120.673C149.933 121.473 150.467 122.433 150.84 123.553C151.213 124.673 151.4 125.939 151.4 127.353C151.4 128.953 151.133 130.233 150.6 131.193C150.067 132.153 149.44 132.819 148.72 133.193V133.393H150.92V137.033H142.96V133.393H144.76C146.12 133.393 147.147 132.926 147.84 131.993C148.56 131.086 148.92 129.646 148.92 127.673C148.92 125.833 148.507 124.459 147.68 123.553C146.88 122.673 145.853 122.233 144.6 122.233C143.267 122.233 142.24 122.633 141.52 123.433C140.8 124.259 140.213 125.606 139.76 127.473L139.36 129.353C138.747 131.939 137.773 133.939 136.44 135.353C135.133 136.766 133.333 137.473 131.04 137.473C129.813 137.473 128.68 137.246 127.64 136.793C126.6 136.366 125.693 135.739 124.92 134.913C124.173 134.113 123.587 133.113 123.16 131.913C122.733 130.713 122.52 129.353 122.52 127.833ZM122.52 153.892C122.52 152.025 122.867 150.345 123.56 148.852C124.28 147.385 125.267 146.132 126.52 145.092C127.8 144.052 129.32 143.252 131.08 142.692C132.867 142.158 134.827 141.892 136.96 141.892C139.28 141.892 141.333 142.185 143.12 142.772C144.933 143.385 146.453 144.212 147.68 145.252C148.907 146.292 149.827 147.518 150.44 148.932C151.08 150.372 151.4 151.918 151.4 153.572C151.4 155.305 151.107 156.692 150.52 157.732C149.933 158.798 149.253 159.518 148.48 159.892V160.092H150.92V163.732H142.44V160.092H144.4C145.76 160.092 146.84 159.558 147.64 158.492C148.467 157.452 148.88 156.025 148.88 154.212C148.88 153.012 148.667 151.958 148.24 151.052C147.84 150.172 147.253 149.438 146.48 148.852C145.733 148.292 144.827 147.865 143.76 147.572C142.72 147.278 141.573 147.132 140.32 147.132H134.08C131.333 147.132 129.227 147.812 127.76 149.172C126.293 150.558 125.56 152.438 125.56 154.812C125.56 156.625 126.027 158.145 126.96 159.372C127.92 160.625 129.16 161.545 130.68 162.132L129.68 164.012C128.8 163.718 127.933 163.278 127.08 162.692C126.227 162.132 125.453 161.425 124.76 160.572C124.093 159.718 123.547 158.732 123.12 157.612C122.72 156.492 122.52 155.252 122.52 153.892ZM125.16 168.062V170.982H148.76V168.062H150.92V182.262C150.92 183.488 150.773 184.595 150.48 185.582C150.187 186.595 149.733 187.448 149.12 188.142C148.533 188.862 147.773 189.408 146.84 189.782C145.933 190.182 144.867 190.382 143.64 190.382C141.72 190.382 140.133 189.822 138.88 188.702C137.653 187.608 136.853 186.115 136.48 184.222L127.8 189.102C126.867 189.635 126.187 190.208 125.76 190.822C125.36 191.462 125.16 192.248 125.16 193.182V193.462H123V190.382C123 189.528 123.067 188.795 123.2 188.182C123.36 187.595 123.587 187.075 123.88 186.622C124.2 186.168 124.587 185.768 125.04 185.422C125.52 185.075 126.08 184.742 126.72 184.422L135.64 179.742V175.742H125.16V178.662H123V168.062H125.16ZM137.88 175.742V181.062C137.88 182.475 138.28 183.555 139.08 184.302C139.88 185.075 140.947 185.462 142.28 185.462H144.16C145.493 185.462 146.56 185.075 147.36 184.302C148.16 183.555 148.56 182.475 148.56 181.062V175.742H137.88ZM125.16 196.03V198.95H148.76V196.03H150.92V217.39H143.88V213.75H148.56V203.71H138.64V210.51H141.48V213.15L133.44 213.15V210.51L136.28 210.51V203.71L125.36 203.71V214.15H130.56V217.79H123V196.03H125.16ZM125.16 227.487L125.16 231.207L148.56 231.207V224.967H143.88V221.327H150.92L150.92 245.847H143.88V242.207H148.56L148.56 235.967L125.16 235.967V239.687H123L123 227.487H125.16ZM125.16 249.077V251.997L148.76 251.997V249.077H150.92V270.437H143.88V266.797H148.56V256.757H138.64V263.557H141.48V266.197H133.44V263.557H136.28V256.757H125.36V267.197H130.56V270.837H123V249.077H125.16ZM122.52 290.271C122.52 288.191 123.027 286.617 124.04 285.551C125.08 284.511 126.493 283.991 128.28 283.991C130.307 283.991 131.84 284.711 132.88 286.151C133.92 287.591 134.44 289.937 134.44 293.191L134.44 296.071H137.16C138.787 296.071 140.027 295.711 140.88 294.991C141.733 294.271 142.16 293.137 142.16 291.591C142.16 290.284 141.973 289.297 141.6 288.631H141.44C141.307 288.924 141.067 289.191 140.72 289.431C140.4 289.697 139.947 289.831 139.36 289.831C138.613 289.831 138.013 289.604 137.56 289.151C137.107 288.724 136.88 288.097 136.88 287.271C136.88 286.577 137.107 285.991 137.56 285.511C138.04 285.057 138.68 284.831 139.48 284.831C140.093 284.831 140.68 285.004 141.24 285.351C141.827 285.724 142.347 286.257 142.8 286.951C143.253 287.644 143.613 288.484 143.88 289.471C144.147 290.484 144.28 291.644 144.28 292.951C144.28 295.457 143.693 297.351 142.52 298.631C141.347 299.911 139.707 300.551 137.6 300.551H125.12V303.271H123.32C123.107 302.897 122.92 302.417 122.76 301.831C122.6 301.244 122.52 300.617 122.52 299.951C122.52 298.724 122.827 297.817 123.44 297.231C124.08 296.671 124.893 296.391 125.88 296.391H126.08V296.191C125.627 296.004 125.187 295.764 124.76 295.471C124.36 295.177 123.987 294.791 123.64 294.311C123.293 293.857 123.027 293.297 122.84 292.631C122.627 291.964 122.52 291.177 122.52 290.271ZM125.32 292.031C125.32 293.204 125.6 294.164 126.16 294.911C126.72 295.684 127.64 296.071 128.92 296.071H132.48L132.48 293.671C132.48 291.777 132.173 290.457 131.56 289.711C130.947 288.964 130.067 288.591 128.92 288.591H128.16C127.2 288.591 126.48 288.897 126 289.511C125.547 290.124 125.32 290.964 125.32 292.031ZM125.16 306.26V308.98H140.6L141.12 306.26H142.88L144.28 313.34H140.56V313.54C141.013 313.7 141.467 313.94 141.92 314.26C142.373 314.607 142.773 315.02 143.12 315.5C143.467 316.007 143.747 316.58 143.96 317.22C144.173 317.887 144.28 318.633 144.28 319.46C144.28 321.993 143.627 323.793 142.32 324.86C141.04 325.927 139.107 326.46 136.52 326.46H125.16V329.18H123V319.34H125.16V321.98H136.28C138.013 321.98 139.28 321.647 140.08 320.98C140.88 320.313 141.28 319.26 141.28 317.82C141.28 317.287 141.2 316.753 141.04 316.22C140.907 315.713 140.68 315.247 140.36 314.82C140.067 314.42 139.693 314.087 139.24 313.82C138.787 313.58 138.24 313.46 137.6 313.46H125.16V316.1H123L123 306.26H125.16ZM122.52 340.717C122.52 339.438 122.76 338.278 123.24 337.238C123.747 336.198 124.467 335.318 125.4 334.598C126.333 333.878 127.467 333.318 128.8 332.918C130.16 332.518 131.693 332.318 133.4 332.318C135.107 332.318 136.627 332.518 137.96 332.918C139.32 333.318 140.467 333.878 141.4 334.598C142.333 335.318 143.04 336.198 143.52 337.238C144.027 338.278 144.28 339.438 144.28 340.717C144.28 342.291 143.92 343.544 143.2 344.478C142.48 345.438 141.64 346.131 140.68 346.558V346.758H149.72L150.24 344.038H152L153.4 351.238H126.2L125.68 353.957H123.92L122.52 346.758H126.12V346.558C125.16 346.131 124.32 345.438 123.6 344.478C122.88 343.518 122.52 342.264 122.52 340.717ZM125.4 342.118C125.4 342.704 125.48 343.278 125.64 343.838C125.827 344.398 126.093 344.891 126.44 345.318C126.787 345.771 127.2 346.118 127.68 346.358C128.16 346.624 128.707 346.758 129.32 346.758H137.48C138.093 346.758 138.64 346.624 139.12 346.358C139.6 346.118 140.013 345.771 140.36 345.318C140.707 344.891 140.96 344.398 141.12 343.838C141.307 343.278 141.4 342.704 141.4 342.118C141.4 340.598 140.88 339.384 139.84 338.478C138.8 337.571 137.36 337.118 135.52 337.118H131.28C129.44 337.118 128 337.571 126.96 338.478C125.92 339.384 125.4 340.598 125.4 342.118ZM122.52 378.54C122.52 376.673 122.867 374.993 123.56 373.5C124.28 372.033 125.267 370.78 126.52 369.74C127.8 368.7 129.32 367.9 131.08 367.34C132.867 366.807 134.827 366.54 136.96 366.54C139.28 366.54 141.333 366.833 143.12 367.42C144.933 368.033 146.453 368.86 147.68 369.9C148.907 370.94 149.827 372.167 150.44 373.58C151.08 375.02 151.4 376.567 151.4 378.22C151.4 379.953 151.107 381.34 150.52 382.38C149.933 383.447 149.253 384.167 148.48 384.54V384.74H150.92V388.38H142.44V384.74H144.4C145.76 384.74 146.84 384.207 147.64 383.14C148.467 382.1 148.88 380.673 148.88 378.86C148.88 377.66 148.667 376.607 148.24 375.7C147.84 374.82 147.253 374.087 146.48 373.5C145.733 372.94 144.827 372.513 143.76 372.22C142.72 371.927 141.573 371.78 140.32 371.78H134.08C131.333 371.78 129.227 372.46 127.76 373.82C126.293 375.207 125.56 377.087 125.56 379.46C125.56 381.273 126.027 382.793 126.96 384.02C127.92 385.273 129.16 386.193 130.68 386.78L129.68 388.66C128.8 388.367 127.933 387.927 127.08 387.34C126.227 386.78 125.453 386.073 124.76 385.22C124.093 384.367 123.547 383.38 123.12 382.26C122.72 381.14 122.52 379.9 122.52 378.54ZM125 404.962C125 407.256 125.76 409.069 127.28 410.402C128.827 411.736 130.973 412.402 133.72 412.402H140.2C142.947 412.402 145.08 411.736 146.6 410.402C148.147 409.069 148.92 407.256 148.92 404.962C148.92 402.669 148.147 400.856 146.6 399.522C145.08 398.189 142.947 397.522 140.2 397.522H133.72C130.973 397.522 128.827 398.189 127.28 399.522C125.76 400.856 125 402.669 125 404.962ZM122.52 404.962C122.52 403.096 122.84 401.389 123.48 399.842C124.147 398.296 125.093 396.962 126.32 395.842C127.573 394.722 129.093 393.842 130.88 393.202C132.667 392.589 134.693 392.282 136.96 392.282C139.227 392.282 141.253 392.589 143.04 393.202C144.827 393.842 146.333 394.722 147.56 395.842C148.813 396.962 149.76 398.296 150.4 399.842C151.067 401.389 151.4 403.096 151.4 404.962C151.4 406.829 151.067 408.536 150.4 410.082C149.76 411.629 148.813 412.962 147.56 414.082C146.333 415.202 144.827 416.069 143.04 416.682C141.253 417.322 139.227 417.642 136.96 417.642C134.693 417.642 132.667 417.322 130.88 416.682C129.093 416.069 127.573 415.202 126.32 414.082C125.093 412.962 124.147 411.629 123.48 410.082C122.84 408.536 122.52 406.829 122.52 404.962ZM125.16 421.655V424.575H148.76V421.655H150.92V429.975L135.28 437.335V437.455L150.92 444.855V453.015H148.76V450.095H125.16V453.015H123L123 442.455H125.16L125.16 445.375H146.52V445.175L141.8 443.175L127.52 436.255L141.8 429.375L146.52 427.375V427.175H125.16L125.16 430.095H123L123 421.655H125.16ZM125.16 456.929V459.849H148.76V456.929H150.92V470.769C150.92 473.515 150.307 475.582 149.08 476.969C147.853 478.355 146.267 479.049 144.32 479.049C143.333 479.049 142.453 478.889 141.68 478.569C140.933 478.249 140.293 477.822 139.76 477.289C139.227 476.782 138.787 476.195 138.44 475.529C138.093 474.862 137.853 474.169 137.72 473.449H137.52C137.44 474.195 137.253 474.955 136.96 475.729C136.667 476.529 136.24 477.249 135.68 477.889C135.12 478.555 134.427 479.089 133.6 479.489C132.8 479.915 131.853 480.129 130.76 480.129C128.333 480.129 126.427 479.395 125.04 477.929C123.68 476.462 123 474.422 123 471.809V456.929H125.16ZM125.32 464.609V470.449C125.32 471.969 125.733 473.142 126.56 473.969C127.413 474.795 128.52 475.209 129.88 475.209H131.68C133.04 475.209 134.133 474.795 134.96 473.969C135.813 473.142 136.24 471.969 136.24 470.449V464.609H125.32ZM138.6 464.609V469.769C138.6 471.209 138.973 472.289 139.72 473.009C140.467 473.755 141.467 474.129 142.72 474.129H144.48C145.733 474.129 146.733 473.755 147.48 473.009C148.227 472.289 148.6 471.209 148.6 469.769V464.609H138.6ZM125.16 484.312V487.232H148.76V484.312H150.92V494.912H148.76V491.992H125.16L125.16 494.912H123L123 484.312H125.16ZM125.16 498.843V501.763H148.76V498.843H150.92L150.92 507.323L129.6 520.803V521.003H148.76V518.083H150.92V526.523H148.76V523.603H123V519.563L146.72 504.563V504.363H125.16V507.283H123V498.843H125.16ZM125.16 528.342V530.422L150.92 539.302V543.862L125.16 552.742V554.822H123V544.382H125.16V547.822L131.84 545.582V535.462L125.16 533.222V536.662H123V528.342H125.16ZM134.12 536.102V544.942L147.16 540.622V540.422L134.12 536.102ZM125.16 560.612L125.16 564.332H148.56V558.092H143.88V554.452H150.92L150.92 578.972H143.88V575.332H148.56V569.092H125.16V572.812H123L123 560.612H125.16ZM125 594.415C125 596.709 125.76 598.522 127.28 599.855C128.827 601.189 130.973 601.855 133.72 601.855H140.2C142.947 601.855 145.08 601.189 146.6 599.855C148.147 598.522 148.92 596.709 148.92 594.415C148.92 592.122 148.147 590.309 146.6 588.975C145.08 587.642 142.947 586.975 140.2 586.975H133.72C130.973 586.975 128.827 587.642 127.28 588.975C125.76 590.309 125 592.122 125 594.415ZM122.52 594.415C122.52 592.549 122.84 590.842 123.48 589.295C124.147 587.749 125.093 586.415 126.32 585.295C127.573 584.175 129.093 583.295 130.88 582.655C132.667 582.042 134.693 581.735 136.96 581.735C139.227 581.735 141.253 582.042 143.04 582.655C144.827 583.295 146.333 584.175 147.56 585.295C148.813 586.415 149.76 587.749 150.4 589.295C151.067 590.842 151.4 592.549 151.4 594.415C151.4 596.282 151.067 597.989 150.4 599.535C149.76 601.082 148.813 602.415 147.56 603.535C146.333 604.655 144.827 605.522 143.04 606.135C141.253 606.775 139.227 607.095 136.96 607.095C134.693 607.095 132.667 606.775 130.88 606.135C129.093 605.522 127.573 604.655 126.32 603.535C125.093 602.415 124.147 601.082 123.48 599.535C122.84 597.989 122.52 596.282 122.52 594.415ZM125.16 611.108V614.028H148.76V611.108H150.92V625.308C150.92 626.535 150.773 627.642 150.48 628.628C150.187 629.642 149.733 630.495 149.12 631.188C148.533 631.908 147.773 632.455 146.84 632.828C145.933 633.228 144.867 633.428 143.64 633.428C141.72 633.428 140.133 632.868 138.88 631.748C137.653 630.655 136.853 629.162 136.48 627.268L127.8 632.148C126.867 632.682 126.187 633.255 125.76 633.868C125.36 634.508 125.16 635.295 125.16 636.228V636.508H123V633.428C123 632.575 123.067 631.842 123.2 631.228C123.36 630.642 123.587 630.122 123.88 629.668C124.2 629.215 124.587 628.815 125.04 628.468C125.52 628.122 126.08 627.788 126.72 627.468L135.64 622.788V618.788H125.16V621.708H123V611.108H125.16ZM137.88 618.788V624.108C137.88 625.522 138.28 626.602 139.08 627.348C139.88 628.122 140.947 628.508 142.28 628.508H144.16C145.493 628.508 146.56 628.122 147.36 627.348C148.16 626.602 148.56 625.522 148.56 624.108V618.788H137.88ZM125.16 639.077V641.997H148.76L148.76 639.077H150.92L150.92 649.677H148.76V646.757H125.16V649.677H123L123 639.077H125.16ZM125.16 652.248V654.328L150.92 663.208V667.768L125.16 676.648V678.728H123V668.288H125.16V671.728L131.84 669.488V659.368L125.16 657.128V660.568H123V652.248H125.16ZM134.12 660.008V668.848L147.16 664.528V664.328L134.12 660.008ZM125.16 681.304V684.224H148.76V681.304H150.92V691.904H148.76V688.984H125.36L125.36 698.104H130.56V701.744H123L123 681.304H125.16ZM73.16 232.007V234.927H96.76V232.007H98.92V240.327L83.28 247.687V247.807L98.92 255.207V263.367H96.76V260.447H73.16V263.367H71L71 252.807H73.16L73.16 255.727H94.52V255.527L89.8 253.527L75.52 246.607L89.8 239.727L94.52 237.727V237.527H73.16V240.447H71V232.007H73.16ZM73.16 265.92V268L98.92 276.88V281.44L73.16 290.32V292.4H71L71 281.96H73.16V285.4L79.84 283.16V273.04L73.16 270.8V274.24H71V265.92H73.16ZM82.12 273.68V282.52L95.16 278.2V278L82.12 273.68ZM73.16 298.19V301.91H96.56V295.67H91.88V292.03H98.92V316.55H91.88V312.91H96.56V306.67H73.16V310.39H71V298.19H73.16ZM73.16 319.78L73.16 322.7H96.76L96.76 319.78H98.92L98.92 330.38H96.76V327.46H86.48V340.14H96.76V337.22H98.92V347.82H96.76V344.9H73.16V347.82H71V337.22H73.16V340.14H84.12V327.46H73.16V330.38H71L71 319.78H73.16ZM73.16 351.733L73.16 354.653H96.76L96.76 351.733H98.92L98.92 373.093H91.88V369.453H96.56V359.413H86.64V366.213H89.48V368.853H81.44V366.213H84.28V359.413H73.36V369.853H78.56V373.493H71L71 351.733H73.16ZM73.16 377.71V380.63H96.76V377.71H98.92V386.03L83.28 393.39V393.51L98.92 400.91V409.07H96.76V406.15H73.16V409.07H71V398.51H73.16V401.43H94.52V401.23L89.8 399.23L75.52 392.31L89.8 385.43L94.52 383.43V383.23H73.16V386.15H71V377.71H73.16ZM73.16 411.623V413.703L98.92 422.583V427.143L73.16 436.023V438.103H71V427.663H73.16V431.103L79.84 428.863L79.84 418.743L73.16 416.503V419.943H71V411.623H73.16ZM82.12 419.383L82.12 428.223L95.16 423.903V423.703L82.12 419.383ZM73.16 443.893V447.613H96.56V441.373H91.88V437.733H98.92L98.92 462.253H91.88V458.613H96.56L96.56 452.373H73.16L73.16 456.093H71L71 443.893H73.16ZM73.16 465.483V468.403H96.76V465.483H98.92V476.083H96.76V473.163H73.16V476.083H71V465.483H73.16ZM70.52 492.095C70.52 490.228 70.8667 488.548 71.56 487.055C72.28 485.588 73.2667 484.335 74.52 483.295C75.8 482.255 77.32 481.455 79.08 480.895C80.8667 480.361 82.8267 480.095 84.96 480.095C87.28 480.095 89.3333 480.388 91.12 480.975C92.9333 481.588 94.4533 482.415 95.68 483.455C96.9067 484.495 97.8267 485.721 98.44 487.135C99.08 488.575 99.4 490.121 99.4 491.775C99.4 493.508 99.1067 494.895 98.52 495.935C97.9333 497.001 97.2533 497.721 96.48 498.095V498.295H98.92V501.935H90.44V498.295H92.4C93.76 498.295 94.84 497.761 95.64 496.695C96.4667 495.655 96.88 494.228 96.88 492.415C96.88 491.215 96.6667 490.161 96.24 489.255C95.84 488.375 95.2533 487.641 94.48 487.055C93.7333 486.495 92.8267 486.068 91.76 485.775C90.72 485.481 89.5733 485.335 88.32 485.335H82.08C79.3333 485.335 77.2267 486.015 75.76 487.375C74.2933 488.761 73.56 490.641 73.56 493.015C73.56 494.828 74.0267 496.348 74.96 497.575C75.92 498.828 77.16 499.748 78.68 500.335L77.68 502.215C76.8 501.921 75.9333 501.481 75.08 500.895C74.2267 500.335 73.4533 499.628 72.76 498.775C72.0933 497.921 71.5467 496.935 71.12 495.815C70.72 494.695 70.52 493.455 70.52 492.095ZM70.52 516.505C70.52 514.851 70.8 513.505 71.36 512.465C71.92 511.451 72.5867 510.758 73.36 510.385V510.185H71V506.545H79.2V510.185H77.4C76.0133 510.185 74.9333 510.638 74.16 511.545C73.3867 512.478 73 513.958 73 515.985C73 518.118 73.44 519.665 74.32 520.625C75.2 521.585 76.3733 522.065 77.84 522.065C79.1467 522.065 80.1467 521.705 80.84 520.985C81.56 520.265 82.1333 519.051 82.56 517.345L83.04 515.305C83.3333 513.998 83.72 512.825 84.2 511.785C84.68 510.745 85.2667 509.865 85.96 509.145C86.6533 508.425 87.4667 507.865 88.4 507.465C89.3333 507.091 90.4267 506.905 91.68 506.905C92.8267 506.905 93.8667 507.118 94.8 507.545C95.76 507.971 96.5733 508.571 97.24 509.345C97.9333 510.145 98.4667 511.105 98.84 512.225C99.2133 513.345 99.4 514.611 99.4 516.025C99.4 517.625 99.1333 518.905 98.6 519.865C98.0667 520.825 97.44 521.491 96.72 521.865V522.065H98.92V525.705H90.96V522.065H92.76C94.12 522.065 95.1467 521.598 95.84 520.665C96.56 519.758 96.92 518.318 96.92 516.345C96.92 514.505 96.5067 513.131 95.68 512.225C94.88 511.345 93.8533 510.905 92.6 510.905C91.2667 510.905 90.24 511.305 89.52 512.105C88.8 512.931 88.2133 514.278 87.76 516.145L87.36 518.025C86.7467 520.611 85.7733 522.611 84.44 524.025C83.1333 525.438 81.3333 526.145 79.04 526.145C77.8133 526.145 76.68 525.918 75.64 525.465C74.6 525.038 73.6933 524.411 72.92 523.585C72.1733 522.785 71.5867 521.785 71.16 520.585C70.7333 519.385 70.52 518.025 70.52 516.505Z" fill="#017DA7"/>
</g>
<defs>
<filter id="filter0_di_206_8" x="0" y="0" width="225" height="806" filterUnits="userSpaceOnUse" color-interpolation-filters="sRGB">
<feFlood flood-opacity="0" result="BackgroundImageFix"/>
<feColorMatrix in="SourceAlpha" type="matrix" values="0 0 0 0 0 0 0 0 0 0 0 0 0 0 0 0 0 0 127 0" result="hardAlpha"/>
<feMorphology radius="4" operator="dilate" in="SourceAlpha" result="effect1_dropShadow_206_8"/>
<feOffset dy="7"/>
<feGaussianBlur stdDeviation="17.5"/>
<feColorMatrix type="matrix" values="0 0 0 0 0.125542 0 0 0 0 0.119792 0 0 0 0 0.191667 0 0 0 0.2 0"/>
<feBlend mode="normal" in2="BackgroundImageFix" result="effect1_dropShadow_206_8"/>
<feBlend mode="normal" in="SourceGraphic" in2="effect1_dropShadow_206_8" result="shape"/>
<feColorMatrix in="SourceAlpha" type="matrix" values="0 0 0 0 0 0 0 0 0 0 0 0 0 0 0 0 0 0 127 0" result="hardAlpha"/>
<feOffset/>
<feGaussianBlur stdDeviation="5"/>
<feComposite in2="hardAlpha" operator="arithmetic" k2="-1" k3="1"/>
<feColorMatrix type="matrix" values="0 0 0 0 0.165625 0 0 0 0 0.1665 0 0 0 0 0.1875 0 0 0 0.25 0"/>
<feBlend mode="normal" in2="shape" result="effect2_innerShadow_206_8"/>
</filter>
<filter id="filter1_d_206_8" x="66.52" y="73.96" width="90.88" height="635.784" filterUnits="userSpaceOnUse" color-interpolation-filters="sRGB">
<feFlood flood-opacity="0" result="BackgroundImageFix"/>
<feColorMatrix in="SourceAlpha" type="matrix" values="0 0 0 0 0 0 0 0 0 0 0 0 0 0 0 0 0 0 127 0" result="hardAlpha"/>
<feOffset dy="4"/>
<feGaussianBlur stdDeviation="2"/>
<feComposite in2="hardAlpha" operator="out"/>
<feColorMatrix type="matrix" values="0 0 0 0 0 0 0 0 0 0 0 0 0 0 0 0 0 0 0.25 0"/>
<feBlend mode="normal" in2="BackgroundImageFix" result="effect1_dropShadow_206_8"/>
<feBlend mode="normal" in="SourceGraphic" in2="effect1_dropShadow_206_8" result="shape"/>
</filter>
<linearGradient id="paint0_linear_206_8" x1="39" y1="403.548" x2="54.5" y2="403.548" gradientUnits="userSpaceOnUse">
<stop offset="0.145833" stop-opacity="0"/>
<stop offset="0.48408" stop-color="#1A1D37" stop-opacity="0.35"/>
<stop offset="0.854167" stop-opacity="0"/>
</linearGradient>
<linearGradient id="paint1_linear_206_8" x1="173" y1="403.548" x2="188.5" y2="403.548" gradientUnits="userSpaceOnUse">
<stop offset="0.145833" stop-opacity="0"/>
<stop offset="0.48408" stop-color="#1A1D37" stop-opacity="0.35"/>
<stop offset="0.854167" stop-opacity="0"/>
</linearGradient>
</defs>
</svg>
