<svg width="120" height="512" viewBox="0 0 120 512" fill="none" xmlns="http://www.w3.org/2000/svg">
<rect width="42" height="434" transform="translate(39 32)" fill="#F6E57B"/>
<g filter="url(#filter0_di_203_33)">
<rect x="39.25" y="32.25" width="41.5" height="433.5" rx="3.75" stroke="#787F8F" stroke-width="0.5"/>
</g>
<rect x="38" y="435" width="42" height="31" fill="#009A79"/>
<rect x="39" y="435" width="42" height="11" fill="black"/>
<rect x="39" y="32" width="13" height="434" fill="url(#paint0_linear_203_33)" fill-opacity="0.29"/>
<rect x="68" y="32" width="13" height="434" fill="url(#paint1_linear_203_33)" fill-opacity="0.29"/>
<path d="M50.8506 54.728C50.8506 53.2616 51.0996 51.9915 51.5977 50.918C52.0957 49.8499 52.84 49.0226 53.8306 48.436C54.8211 47.855 56.0524 47.5645 57.5244 47.5645C58.9909 47.5645 60.1973 47.8494 61.1436 48.4194C62.0898 48.995 62.7926 49.814 63.252 50.8765C63.7113 51.939 63.9409 53.2007 63.9409 54.6616C63.9409 55.7186 63.8468 56.6676 63.6587 57.5088C63.4705 58.3499 63.216 59.1219 62.895 59.8247H58.7612L58.7612 57.3262C59.1652 57.1048 59.5111 56.8309 59.7988 56.5044C60.0921 56.1779 60.2388 55.7822 60.2388 55.3174C60.2388 54.7419 60.117 54.2632 59.8735 53.8813C59.63 53.505 59.3146 53.2228 58.9272 53.0347C58.5399 52.8521 58.1304 52.7607 57.6987 52.7607C57.0015 52.7607 56.4508 52.9019 56.0469 53.1841C55.6429 53.4718 55.3551 53.8509 55.1836 54.3213C55.0176 54.7972 54.9346 55.3201 54.9346 55.8901C54.9346 56.5487 55.0148 57.2266 55.1753 57.9238C55.3413 58.6211 55.5322 59.2547 55.748 59.8247L51.6973 59.8247C51.4316 59.0389 51.2241 58.2337 51.0747 57.4092C50.9253 56.5846 50.8506 55.6909 50.8506 54.728ZM50.8506 67.6108C50.8506 66.1942 51.0664 64.9629 51.498 63.917C51.9297 62.8711 52.5993 62.0604 53.5068 61.4849C54.4144 60.9149 55.5793 60.6299 57.0015 60.6299C58.396 60.6299 59.5332 60.9232 60.4131 61.5098C61.2985 62.0964 61.9515 62.9126 62.3721 63.9585C62.7926 65.0099 63.0029 66.2274 63.0029 67.6108C63.0029 68.9943 62.7926 70.2118 62.3721 71.2632C61.9515 72.3146 61.2985 73.1336 60.4131 73.7202C59.5332 74.3123 58.396 74.6084 57.0015 74.6084C55.5793 74.6084 54.4144 74.3234 53.5068 73.7534C52.5993 73.1834 51.9297 72.3755 51.498 71.3296C51.0664 70.2837 50.8506 69.0441 50.8506 67.6108ZM54.4697 67.6108C54.4697 68.3856 54.7021 68.9141 55.167 69.1963C55.6318 69.4785 56.2433 69.6196 57.0015 69.6196C57.7596 69.6196 58.36 69.4757 58.8027 69.188C59.2454 68.9058 59.4668 68.38 59.4668 67.6108C59.4668 66.8582 59.251 66.3381 58.8193 66.0503C58.3877 65.7681 57.7956 65.627 57.043 65.627C56.2738 65.627 55.6512 65.7598 55.1753 66.0254C54.7049 66.2965 54.4697 66.825 54.4697 67.6108ZM51 75.3057H54.312L54.5029 76.3018L59.2261 76.3018L59.417 75.3057H62.6875V81.2905L58.2217 83.8057L62.6875 86.2959L62.6875 92.2808H59.417L59.2261 91.2847H54.5029L54.312 92.2808L51 92.2808V86.2959L56.7192 86.2959L52.5024 83.8057L56.7192 81.2905L51 81.2905V75.3057ZM51 93.418L54.312 93.418L54.5029 94.4141H59.2261L59.417 93.418H62.6875V100.216C62.6875 101.041 62.6515 101.824 62.5796 102.565C62.5132 103.307 62.3638 103.965 62.1313 104.541C61.8989 105.117 61.5448 105.57 61.0688 105.902C60.5929 106.234 59.9482 106.4 59.1348 106.4C58.277 106.4 57.6019 106.204 57.1094 105.811C56.6224 105.418 56.2627 104.887 56.0303 104.217C55.8034 103.553 55.6595 102.803 55.5986 101.968C55.5378 101.138 55.5073 100.285 55.5073 99.4111H54.5029L54.312 100.407L51 100.407V93.418ZM57.6074 99.4111C57.6074 100.064 57.7098 100.559 57.9146 100.897C58.1193 101.24 58.5509 101.412 59.2095 101.412C59.8403 101.412 60.2443 101.235 60.4214 100.88C60.604 100.526 60.6953 100.036 60.6953 99.4111H57.6074ZM50.8506 114.485C50.8506 112.432 51.3569 110.839 52.3696 109.704C53.3879 108.57 54.9318 108.002 57.0015 108.002H59.2261L59.417 107.006H62.6875V113.489L59.417 113.489L59.2261 112.493H57.8398C57.7236 112.493 57.6074 112.493 57.4912 112.493C57.375 112.499 57.2643 112.501 57.1592 112.501H56.9849C56.2378 112.501 55.6457 112.643 55.2085 112.925C54.7713 113.213 54.5527 113.733 54.5527 114.485C54.5527 115.243 54.7713 115.766 55.2085 116.054C55.6512 116.347 56.2489 116.494 57.0015 116.494H57.1924C57.292 116.494 57.3971 116.491 57.5078 116.486C57.624 116.486 57.7402 116.486 57.8564 116.486H59.2261L59.417 115.49L62.6875 115.49V121.25L59.417 121.25L59.2261 120.246C59.1431 120.241 59.0601 120.238 58.9771 120.238C58.8996 120.238 58.8221 120.238 58.7446 120.238H57.0015C55.0535 120.238 53.54 119.759 52.4609 118.802C51.3874 117.844 50.8506 116.406 50.8506 114.485ZM51 124.372H54.312L54.5029 125.368L59.5996 125.368C59.5996 125.097 59.5553 124.823 59.4668 124.546C59.3783 124.275 59.2482 124.048 59.0767 123.865C58.9051 123.683 58.6921 123.591 58.4375 123.591V122.205L62.6875 122.205L62.6875 133.527H58.4375V132.141C58.6921 132.141 58.9051 132.047 59.0767 131.859C59.2482 131.676 59.3783 131.449 59.4668 131.178C59.5553 130.907 59.5996 130.636 59.5996 130.365H54.5029L54.312 131.361H51L51 124.372ZM51 134.606H54.312L54.5029 135.603H59.2095L59.4004 134.606H62.6875L62.6875 144.866H58.4375V143.729C58.7142 143.358 58.9355 142.904 59.1016 142.368C59.2676 141.831 59.3506 141.242 59.3506 140.6H57.5493L58.0391 142.899H55.6733L56.1714 140.6H54.3369C54.3369 141.247 54.4172 141.839 54.5776 142.376C54.7381 142.918 54.9622 143.369 55.25 143.729V144.866H51V134.606ZM51 146.045H54.312L54.5029 147.041H59.2261L59.417 146.045H62.6875V152.843C62.6875 153.563 62.6626 154.263 62.6128 154.943C62.563 155.624 62.4523 156.247 62.2808 156.811C62.1092 157.375 61.8491 157.843 61.5005 158.214C61.1519 158.59 60.6787 158.831 60.0811 158.936C59.7712 158.991 59.4308 159.019 59.0601 159.019C58.4347 159.019 57.9284 158.917 57.541 158.712C57.1536 158.513 56.841 158.236 56.603 157.882C56.3651 157.528 56.1548 157.115 55.9722 156.645C55.4243 156.922 54.8875 157.29 54.3618 157.749C53.8416 158.208 53.3602 158.632 52.9175 159.019H51L51 154.055C51.6309 153.718 52.2894 153.388 52.9756 153.067C53.6673 152.752 54.4061 152.5 55.1919 152.312V152.038H51V146.045ZM57.4414 152.038C57.4414 152.674 57.5327 153.167 57.7153 153.516C57.8979 153.864 58.3075 154.039 58.9438 154.039C59.5802 154.039 59.9925 153.861 60.1807 153.507C60.3688 153.159 60.4629 152.669 60.4629 152.038H57.4414ZM50.8506 171.603C50.8506 169.561 51.3625 167.953 52.3862 166.78C53.4155 165.607 54.9539 165.021 57.0015 165.021C58.3794 165.021 59.5111 165.289 60.3965 165.826C61.2819 166.368 61.9377 167.137 62.3638 168.133C62.7899 169.135 63.0029 170.322 63.0029 171.694C63.0029 172.685 62.9144 173.576 62.7373 174.367C62.5658 175.164 62.3333 175.889 62.04 176.542H58.4292V174.193C58.7391 173.983 58.9937 173.742 59.1929 173.471C59.3976 173.205 59.5 172.818 59.5 172.309C59.5 171.556 59.2759 170.986 58.8276 170.599C58.3794 170.217 57.7707 170.026 57.0015 170.026C56.0994 170.026 55.4243 170.195 54.9761 170.532C54.5334 170.875 54.312 171.49 54.312 172.375C54.312 172.624 54.3286 172.851 54.3618 173.056C54.395 173.266 54.4448 173.476 54.5112 173.687H55.4575V172.018H57.4995V176.874H51.9878C51.6724 176.121 51.404 175.316 51.1826 174.458C50.9613 173.601 50.8506 172.649 50.8506 171.603ZM51 177.953H54.312L54.5029 178.949H59.2261L59.417 177.953H62.6875V184.751C62.6875 185.471 62.6626 186.171 62.6128 186.852C62.563 187.532 62.4523 188.155 62.2808 188.719C62.1092 189.284 61.8491 189.751 61.5005 190.122C61.1519 190.498 60.6787 190.739 60.0811 190.844C59.7712 190.9 59.4308 190.927 59.0601 190.927C58.4347 190.927 57.9284 190.825 57.541 190.62C57.1536 190.421 56.841 190.144 56.603 189.79C56.3651 189.436 56.1548 189.024 55.9722 188.553C55.4243 188.83 54.8875 189.198 54.3618 189.657C53.8416 190.117 53.3602 190.54 52.9175 190.927H51V185.963C51.6309 185.626 52.2894 185.297 52.9756 184.976C53.6673 184.66 54.4061 184.408 55.1919 184.22V183.946H51V177.953ZM57.4414 183.946C57.4414 184.583 57.5327 185.075 57.7153 185.424C57.8979 185.772 58.3075 185.947 58.9438 185.947C59.5802 185.947 59.9925 185.77 60.1807 185.416C60.3688 185.067 60.4629 184.577 60.4629 183.946H57.4414ZM51 191.865H54.8516L55.0425 192.828L62.6875 195.127V201.569L55.0425 203.885L54.8516 204.839H51V200.398L52.9673 199.983V196.721L51 196.306L51 191.865ZM55.5903 197.228V199.477L60.1807 198.348L55.5903 197.228ZM51 205.877H54.312L54.5029 206.873H59.2261L59.417 205.877H62.6875V212.675C62.6875 213.5 62.6515 214.283 62.5796 215.024C62.5132 215.766 62.3638 216.424 62.1313 217C61.8989 217.576 61.5448 218.029 61.0688 218.361C60.5929 218.693 59.9482 218.859 59.1348 218.859C58.277 218.859 57.6019 218.663 57.1094 218.27C56.6224 217.877 56.2627 217.346 56.0303 216.676C55.8034 216.012 55.6595 215.262 55.5986 214.427C55.5378 213.597 55.5073 212.744 55.5073 211.87H54.5029L54.312 212.866H51V205.877ZM57.6074 211.87C57.6074 212.523 57.7098 213.018 57.9146 213.356C58.1193 213.699 58.5509 213.871 59.2095 213.871C59.8403 213.871 60.2443 213.694 60.4214 213.339C60.604 212.985 60.6953 212.495 60.6953 211.87H57.6074ZM51 219.59H54.312L54.5029 220.586H59.2095L59.4004 219.59H62.6875L62.6875 226.579H59.4004L59.2095 225.583H57.8398V229.576H59.2095L59.4004 228.58H62.729L62.729 235.569H59.4004L59.2095 234.573H54.5029L54.312 235.569H51L51 228.58H54.312L54.5029 229.576H55.8892V225.583H54.5029L54.312 226.579H51L51 219.59ZM51 236.706H54.312L54.5029 237.702H59.2261L59.417 236.706H62.6875V243.695H59.417L59.2261 242.699H54.5029L54.312 243.695H51V236.706ZM50.8506 251.174C50.8506 249.802 51.0747 248.609 51.5229 247.597C51.9767 246.59 52.6574 245.812 53.5649 245.264C54.478 244.716 55.6235 244.442 57.0015 244.442C58.3794 244.442 59.5111 244.711 60.3965 245.248C61.2819 245.79 61.9377 246.559 62.3638 247.555C62.7899 248.557 63.0029 249.744 63.0029 251.116C63.0029 252.107 62.9144 252.998 62.7373 253.789C62.5658 254.586 62.3333 255.311 62.04 255.964H58.4292V253.615C58.7225 253.404 58.9743 253.147 59.1846 252.843C59.3949 252.544 59.5 252.173 59.5 251.73C59.5 251.033 59.2593 250.477 58.7778 250.062C58.3019 249.653 57.7098 249.448 57.0015 249.448C56.1437 249.448 55.5073 249.666 55.0923 250.104C54.6828 250.541 54.478 251.183 54.478 252.029C54.478 252.732 54.5527 253.399 54.7021 254.03C54.8516 254.666 55.0231 255.311 55.2168 255.964H51.606C51.1024 254.315 50.8506 252.718 50.8506 251.174ZM50.8506 261.965C50.8506 260.969 50.917 260.095 51.0498 259.342C51.1826 258.595 51.4067 257.909 51.7222 257.284H54.6025L54.6025 259.633C54.3148 259.815 54.0658 260.045 53.8555 260.322C53.6452 260.604 53.54 260.947 53.54 261.351C53.54 261.744 53.6646 262.007 53.9136 262.14C54.1626 262.278 54.4974 262.347 54.918 262.347C54.9788 261.661 55.0812 260.994 55.2251 260.347C55.369 259.699 55.5848 259.118 55.8726 258.604C56.1603 258.094 56.5477 257.688 57.0347 257.383C57.5216 257.084 58.1387 256.935 58.8857 256.935C59.915 256.935 60.7285 257.162 61.3262 257.616C61.9294 258.075 62.3582 258.703 62.6128 259.5C62.8729 260.302 63.0029 261.213 63.0029 262.231C63.0029 263.199 62.9144 264.063 62.7373 264.821C62.5658 265.584 62.3333 266.285 62.04 266.921H59.1348L59.1348 264.406C59.4336 264.251 59.6992 264.049 59.9316 263.8C60.1641 263.551 60.2803 263.235 60.2803 262.854C60.2803 262.45 60.1309 262.176 59.832 262.032C59.5332 261.888 59.168 261.816 58.7363 261.816C58.7087 262.596 58.6284 263.321 58.4956 263.991C58.3683 264.66 58.1553 265.247 57.8564 265.75C57.5632 266.254 57.1592 266.644 56.6445 266.921C56.1299 267.203 55.4741 267.344 54.6772 267.344C53.6756 267.344 52.8981 267.106 52.3447 266.63C51.7913 266.154 51.404 265.51 51.1826 264.696C50.9613 263.888 50.8506 262.978 50.8506 261.965ZM51 273.429H54.312L54.5029 274.425H59.2095L59.4004 273.429H62.6875V283.083H58.4375V281.696C58.6865 281.458 58.8996 281.143 59.0767 280.75C59.2593 280.357 59.3506 279.914 59.3506 279.422H57.3003L57.79 281.547H55.2583L55.7563 279.422H54.5029L54.2871 280.418H51V273.429ZM51 284.153H54.312L54.5029 285.149H59.2261L59.417 284.153H62.6875L62.6875 290.952C62.6875 291.671 62.6626 292.371 62.6128 293.052C62.563 293.732 62.4523 294.355 62.2808 294.919C62.1092 295.484 61.8491 295.951 61.5005 296.322C61.1519 296.699 60.6787 296.939 60.0811 297.044C59.7712 297.1 59.4308 297.127 59.0601 297.127C58.4347 297.127 57.9284 297.025 57.541 296.82C57.1536 296.621 56.841 296.344 56.603 295.99C56.3651 295.636 56.1548 295.224 55.9722 294.753C55.4243 295.03 54.8875 295.398 54.3618 295.857C53.8416 296.317 53.3602 296.74 52.9175 297.127H51V292.164C51.6309 291.826 52.2894 291.497 52.9756 291.176C53.6673 290.86 54.4061 290.609 55.1919 290.42V290.146H51V284.153ZM57.4414 290.146C57.4414 290.783 57.5327 291.275 57.7153 291.624C57.8979 291.973 58.3075 292.147 58.9438 292.147C59.5802 292.147 59.9925 291.97 60.1807 291.616C60.3688 291.267 60.4629 290.777 60.4629 290.146H57.4414ZM50.8506 304.831C50.8506 303.414 51.0664 302.183 51.498 301.137C51.9297 300.091 52.5993 299.28 53.5068 298.705C54.4144 298.135 55.5793 297.85 57.0015 297.85C58.396 297.85 59.5332 298.143 60.4131 298.729C61.2985 299.316 61.9515 300.132 62.3721 301.178C62.7926 302.23 63.0029 303.447 63.0029 304.831C63.0029 306.214 62.7926 307.431 62.3721 308.483C61.9515 309.534 61.2985 310.353 60.4131 310.94C59.5332 311.532 58.396 311.828 57.0015 311.828C55.5793 311.828 54.4144 311.543 53.5068 310.973C52.5993 310.403 51.9297 309.595 51.498 308.549C51.0664 307.503 50.8506 306.264 50.8506 304.831ZM54.4697 304.831C54.4697 305.605 54.7021 306.134 55.167 306.416C55.6318 306.698 56.2433 306.839 57.0015 306.839C57.7596 306.839 58.36 306.695 58.8027 306.408C59.2454 306.125 59.4668 305.6 59.4668 304.831C59.4668 304.078 59.251 303.558 58.8193 303.27C58.3877 302.988 57.7956 302.847 57.043 302.847C56.2738 302.847 55.6512 302.979 55.1753 303.245C54.7049 303.516 54.4697 304.045 54.4697 304.831ZM51 312.525H54.312L54.5029 313.521H59.2261L59.417 312.525H62.6875V318.51L58.2217 321.025L62.6875 323.516V329.5H59.417L59.2261 328.504H54.5029L54.312 329.5H51L51 323.516H56.7192L52.5024 321.025L56.7192 318.51H51V312.525ZM50.8506 340.657C50.8506 339.661 50.917 338.786 51.0498 338.034C51.1826 337.287 51.4067 336.6 51.7222 335.975H54.6025V338.324C54.3148 338.507 54.0658 338.736 53.8555 339.013C53.6452 339.295 53.54 339.639 53.54 340.042C53.54 340.435 53.6646 340.698 53.9136 340.831C54.1626 340.969 54.4974 341.039 54.918 341.039C54.9788 340.352 55.0812 339.686 55.2251 339.038C55.369 338.391 55.5848 337.81 55.8726 337.295C56.1603 336.786 56.5477 336.379 57.0347 336.075C57.5216 335.776 58.1387 335.626 58.8857 335.626C59.915 335.626 60.7285 335.853 61.3262 336.307C61.9294 336.766 62.3582 337.395 62.6128 338.191C62.8729 338.994 63.0029 339.904 63.0029 340.922C63.0029 341.891 62.9144 342.754 62.7373 343.512C62.5658 344.276 62.3333 344.976 62.04 345.612H59.1348V343.097C59.4336 342.942 59.6992 342.74 59.9316 342.491C60.1641 342.242 60.2803 341.927 60.2803 341.545C60.2803 341.141 60.1309 340.867 59.832 340.723C59.5332 340.579 59.168 340.507 58.7363 340.507C58.7087 341.288 58.6284 342.013 58.4956 342.682C58.3683 343.352 58.1553 343.938 57.8564 344.442C57.5632 344.945 57.1592 345.336 56.6445 345.612C56.1299 345.895 55.4741 346.036 54.6772 346.036C53.6756 346.036 52.8981 345.798 52.3447 345.322C51.7913 344.846 51.404 344.201 51.1826 343.388C50.9613 342.58 50.8506 341.669 50.8506 340.657ZM50.8506 353.39C50.8506 352.018 51.0747 350.825 51.5229 349.812C51.9767 348.805 52.6574 348.028 53.5649 347.48C54.478 346.932 55.6235 346.658 57.0015 346.658C58.3794 346.658 59.5111 346.927 60.3965 347.463C61.2819 348.006 61.9377 348.775 62.3638 349.771C62.7899 350.773 63.0029 351.96 63.0029 353.332C63.0029 354.323 62.9144 355.214 62.7373 356.005C62.5658 356.802 62.3333 357.527 62.04 358.18H58.4292L58.4292 355.831C58.7225 355.62 58.9743 355.363 59.1846 355.059C59.3949 354.76 59.5 354.389 59.5 353.946C59.5 353.249 59.2593 352.693 58.7778 352.278C58.3019 351.868 57.7098 351.664 57.0015 351.664C56.1437 351.664 55.5073 351.882 55.0923 352.319C54.6828 352.757 54.478 353.398 54.478 354.245C54.478 354.948 54.5527 355.615 54.7021 356.246C54.8516 356.882 55.0231 357.527 55.2168 358.18H51.606C51.1024 356.531 50.8506 354.934 50.8506 353.39ZM51 359.358H54.312L54.5029 360.354H59.2261L59.417 359.358H62.6875V366.157C62.6875 366.876 62.6626 367.576 62.6128 368.257C62.563 368.938 62.4523 369.56 62.2808 370.125C62.1092 370.689 61.8491 371.157 61.5005 371.527C61.1519 371.904 60.6787 372.144 60.0811 372.25C59.7712 372.305 59.4308 372.333 59.0601 372.333C58.4347 372.333 57.9284 372.23 57.541 372.025C57.1536 371.826 56.841 371.549 56.603 371.195C56.3651 370.841 56.1548 370.429 55.9722 369.958C55.4243 370.235 54.8875 370.603 54.3618 371.062C53.8416 371.522 53.3602 371.945 52.9175 372.333H51V367.369C51.6309 367.031 52.2894 366.702 52.9756 366.381C53.6673 366.065 54.4061 365.814 55.1919 365.625V365.352H51V359.358ZM57.4414 365.352C57.4414 365.988 57.5327 366.48 57.7153 366.829C57.8979 367.178 58.3075 367.352 58.9438 367.352C59.5802 367.352 59.9925 367.175 60.1807 366.821C60.3688 366.472 60.4629 365.982 60.4629 365.352H57.4414ZM51 373.271H54.8516L55.0425 374.233L62.6875 376.533V382.974L55.0425 385.29L54.8516 386.245H51V381.804L52.9673 381.389V378.126L51 377.711V373.271ZM55.5903 378.633V380.882L60.1807 379.753L55.5903 378.633ZM51 388.668H54.312L54.5029 389.665H59.5996C59.5996 389.393 59.5553 389.119 59.4668 388.843C59.3783 388.572 59.2482 388.345 59.0767 388.162C58.9051 387.979 58.6921 387.888 58.4375 387.888V386.502H62.6875L62.6875 397.824H58.4375V396.438C58.6921 396.438 58.9051 396.344 59.0767 396.156C59.2482 395.973 59.3783 395.746 59.4668 395.475C59.5553 395.204 59.5996 394.933 59.5996 394.662H54.5029L54.312 395.658H51L51 388.668ZM50.8506 405.37C50.8506 403.997 51.0747 402.805 51.5229 401.792C51.9767 400.785 52.6574 400.007 53.5649 399.459C54.478 398.912 55.6235 398.638 57.0015 398.638C58.3794 398.638 59.5111 398.906 60.3965 399.443C61.2819 399.985 61.9377 400.754 62.3638 401.75C62.7899 402.752 63.0029 403.939 63.0029 405.312C63.0029 406.302 62.9144 407.193 62.7373 407.984C62.5658 408.781 62.3333 409.506 62.04 410.159H58.4292V407.81C58.7225 407.6 58.9743 407.342 59.1846 407.038C59.3949 406.739 59.5 406.368 59.5 405.926C59.5 405.229 59.2593 404.672 58.7778 404.257C58.3019 403.848 57.7098 403.643 57.0015 403.643C56.1437 403.643 55.5073 403.862 55.0923 404.299C54.6828 404.736 54.478 405.378 54.478 406.225C54.478 406.927 54.5527 407.594 54.7021 408.225C54.8516 408.861 55.0231 409.506 55.2168 410.159H51.606C51.1024 408.51 50.8506 406.914 50.8506 405.37ZM51 411.338H54.312L54.5029 412.334H59.2095L59.4004 411.338H62.6875V418.327H59.4004L59.2095 417.331H57.8398V421.324H59.2095L59.4004 420.328H62.729L62.729 427.317H59.4004L59.2095 426.321H54.5029L54.312 427.317H51L51 420.328H54.312L54.5029 421.324H55.8892V417.331H54.5029L54.312 418.327H51V411.338Z" fill="black"/>
<defs>
<filter id="filter0_di_203_33" x="0" y="0" width="120" height="512" filterUnits="userSpaceOnUse" color-interpolation-filters="sRGB">
<feFlood flood-opacity="0" result="BackgroundImageFix"/>
<feColorMatrix in="SourceAlpha" type="matrix" values="0 0 0 0 0 0 0 0 0 0 0 0 0 0 0 0 0 0 127 0" result="hardAlpha"/>
<feMorphology radius="4" operator="dilate" in="SourceAlpha" result="effect1_dropShadow_203_33"/>
<feOffset dy="7"/>
<feGaussianBlur stdDeviation="17.5"/>
<feColorMatrix type="matrix" values="0 0 0 0 0.125542 0 0 0 0 0.119792 0 0 0 0 0.191667 0 0 0 0.2 0"/>
<feBlend mode="normal" in2="BackgroundImageFix" result="effect1_dropShadow_203_33"/>
<feBlend mode="normal" in="SourceGraphic" in2="effect1_dropShadow_203_33" result="shape"/>
<feColorMatrix in="SourceAlpha" type="matrix" values="0 0 0 0 0 0 0 0 0 0 0 0 0 0 0 0 0 0 127 0" result="hardAlpha"/>
<feOffset/>
<feGaussianBlur stdDeviation="5"/>
<feComposite in2="hardAlpha" operator="arithmetic" k2="-1" k3="1"/>
<feColorMatrix type="matrix" values="0 0 0 0 0.165625 0 0 0 0 0.1665 0 0 0 0 0.1875 0 0 0 0.25 0"/>
<feBlend mode="normal" in2="shape" result="effect2_innerShadow_203_33"/>
</filter>
<linearGradient id="paint0_linear_203_33" x1="39" y1="253.5" x2="54.5" y2="253.5" gradientUnits="userSpaceOnUse">
<stop offset="0.145833" stop-opacity="0"/>
<stop offset="0.48408" stop-color="#1A1D37" stop-opacity="0.35"/>
<stop offset="0.854167" stop-opacity="0"/>
</linearGradient>
<linearGradient id="paint1_linear_203_33" x1="68" y1="253.5" x2="83.5" y2="253.5" gradientUnits="userSpaceOnUse">
<stop offset="0.145833" stop-opacity="0"/>
<stop offset="0.48408" stop-color="#1A1D37" stop-opacity="0.35"/>
<stop offset="0.854167" stop-opacity="0"/>
</linearGradient>
</defs>
</svg>
