<svg width="120" height="512" viewBox="0 0 120 512" fill="none" xmlns="http://www.w3.org/2000/svg">
<g filter="url(#filter0_d_203_33)">
<g filter="url(#filter1_di_203_33)">
<rect x="39" y="32" width="42" height="434" rx="4" fill="#02AAB5"/>
<rect x="39.25" y="32.25" width="41.5" height="433.5" rx="3.75" stroke="#787F8F" stroke-width="0.5"/>
</g>
<path d="M39 37C39 34.2386 41.2386 32 44 32H76C78.7614 32 81 34.2386 81 37V64H39V37Z" fill="black"/>
<rect x="39" y="32" width="13" height="434" fill="url(#paint0_linear_203_33)" fill-opacity="0.29"/>
<rect x="68" y="32" width="13" height="434" fill="url(#paint1_linear_203_33)" fill-opacity="0.29"/>
<path d="M52 92.9V85.54L65.48 85.54V87.16L53.46 87.16V92.9H52ZM52.52 102.391C52.1067 101.605 51.9 100.645 51.9 99.5113C51.9 97.9779 52.3667 96.7379 53.3 95.7913C54.2467 94.8579 55.4933 94.3913 57.04 94.3913C58.6533 94.3913 59.9267 94.8113 60.86 95.6513C61.7933 96.4913 62.26 97.5713 62.26 98.8913C62.26 100.158 61.8533 101.165 61.04 101.911C60.2267 102.658 59.0733 103.031 57.58 103.031C57.1533 103.031 56.76 102.998 56.4 102.931L56.4 96.0113C55.4 96.1313 54.6333 96.5113 54.1 97.1513C53.5667 97.7913 53.3 98.6313 53.3 99.6713C53.3 100.805 53.5333 101.711 54 102.391H52.52ZM60.88 98.8913C60.88 98.1313 60.6067 97.4846 60.06 96.9513C59.5133 96.4179 58.7333 96.1046 57.72 96.0113L57.72 101.451H58.12C58.96 101.451 59.6267 101.225 60.12 100.771C60.6267 100.318 60.88 99.6913 60.88 98.8913ZM53.22 108.54C53.22 109.26 53.42 109.834 53.82 110.26C54.2333 110.687 54.7533 110.9 55.38 110.9H56.68V109.14C56.68 108.287 56.5133 107.647 56.18 107.22C55.8467 106.794 55.4267 106.58 54.92 106.58C54.4133 106.58 54 106.747 53.68 107.08C53.3733 107.414 53.22 107.9 53.22 108.54ZM53.2 110.92C52.3333 110.4 51.9 109.454 51.9 108.08C51.9 107.134 52.18 106.367 52.74 105.78C53.3 105.207 54.0067 104.92 54.86 104.92C55.8333 104.92 56.5867 105.287 57.12 106.02C57.6667 106.767 57.94 107.78 57.94 109.06V110.9H58.46C59.26 110.9 59.86 110.72 60.26 110.36C60.6733 110 60.88 109.394 60.88 108.54C60.88 107.46 60.5933 106.5 60.02 105.66H61.6C62.0667 106.42 62.3 107.42 62.3 108.66C62.3 111.207 61.0067 112.48 58.42 112.48H52V110.92H53.2ZM52 116.844V115.264L62.14 115.284V116.844H60.36C61.6133 117.378 62.24 118.298 62.24 119.604C62.24 119.844 62.2267 120.031 62.2 120.164H60.64C60.7333 119.884 60.78 119.598 60.78 119.304C60.78 118.598 60.4533 118.011 59.8 117.544C59.1467 117.078 58.3933 116.844 57.54 116.844L52 116.844ZM52 129.808L52 128.228H58.56C59.3067 128.228 59.8733 128.034 60.26 127.648C60.66 127.274 60.86 126.781 60.86 126.168C60.86 125.408 60.5667 124.748 59.98 124.188C59.3933 123.641 58.58 123.368 57.54 123.368L52 123.368V121.808L62.14 121.808V123.368H60.38C61.6467 123.968 62.28 125.034 62.28 126.568C62.28 127.554 61.98 128.341 61.38 128.928C60.78 129.514 59.98 129.808 58.98 129.808H52ZM52 138.067H56.8706L57.1514 139.532H64.0972L64.3779 138.067H69.1875V148.065C69.1875 149.278 69.1346 150.429 69.0288 151.52C68.9312 152.61 68.7114 153.578 68.3696 154.425C68.0278 155.271 67.507 155.938 66.8071 156.427C66.1073 156.915 65.1592 157.159 63.9629 157.159C62.7015 157.159 61.7087 156.87 60.9844 156.292C60.2682 155.715 59.7393 154.933 59.3975 153.949C59.0638 152.972 58.8522 151.869 58.7627 150.641C58.6732 149.42 58.6284 148.167 58.6284 146.881H57.1514L56.8706 148.346H52V138.067ZM61.7168 146.881C61.7168 147.841 61.8674 148.569 62.1685 149.066C62.4696 149.57 63.1043 149.823 64.0728 149.823C65.0005 149.823 65.5946 149.562 65.855 149.042C66.1235 148.521 66.2578 147.8 66.2578 146.881H61.7168ZM52 163.519H56.8462L57.2124 164.984L64.1094 159.942L64.3779 158.087H69.1875V167.889H64.3779L64.1094 166.742L60.5815 169.073L64.1094 171.393L64.3779 170.245H69.1875V180.035H64.3779L64.1094 178.192L57.2124 173.15L56.8462 174.627H52L52 163.519ZM52 184.662H56.8706L57.1514 186.126H64.6465C64.6465 185.728 64.5814 185.325 64.4512 184.918C64.321 184.519 64.1297 184.186 63.8774 183.917C63.6252 183.648 63.3118 183.514 62.9375 183.514V181.476H69.1875L69.1875 198.126H62.9375V196.087C63.3118 196.087 63.6252 195.949 63.8774 195.672C64.1297 195.404 64.321 195.07 64.4512 194.671C64.5814 194.273 64.6465 193.874 64.6465 193.475H57.1514L56.8706 194.94H52V184.662ZM52 199.713H56.8706L57.1514 201.178H64.0728L64.3535 199.713H69.1875V209.991H64.3535L64.0728 208.526H62.0586V214.398H64.0728L64.3535 212.933H69.2485V223.211H64.3535L64.0728 221.747H57.1514L56.8706 223.211H52V212.933H56.8706L57.1514 214.398H59.1899V208.526H57.1514L56.8706 209.991H52L52 199.713ZM51.7803 234.564C51.7803 232.481 52.0977 230.67 52.7324 229.132C53.3672 227.594 54.3519 226.402 55.6865 225.555C57.0212 224.717 58.7342 224.298 60.8257 224.298C62.8765 224.298 64.5488 224.729 65.8428 225.592C67.1449 226.454 68.1051 227.655 68.7236 229.193C69.3421 230.739 69.6514 232.529 69.6514 234.564C69.6514 236.598 69.3421 238.389 68.7236 239.935C68.1051 241.481 67.1449 242.686 65.8428 243.548C64.5488 244.419 62.8765 244.854 60.8257 244.854C58.7342 244.854 57.0212 244.435 55.6865 243.597C54.3519 242.759 53.3672 241.571 52.7324 240.033C52.0977 238.495 51.7803 236.672 51.7803 234.564ZM57.1025 234.564C57.1025 235.703 57.4443 236.48 58.1279 236.896C58.8115 237.311 59.7108 237.518 60.8257 237.518C61.9406 237.518 62.8236 237.306 63.4746 236.883C64.1257 236.468 64.4512 235.695 64.4512 234.564C64.4512 233.457 64.1338 232.692 63.499 232.269C62.8643 231.854 61.9935 231.646 60.8867 231.646C59.7555 231.646 58.84 231.842 58.1401 232.232C57.4484 232.631 57.1025 233.408 57.1025 234.564ZM52 245.88H56.8706L57.1514 247.345H64.0972L64.3779 245.88H69.1875V254.693L59.9224 260.565H64.0728L64.3779 259.1H69.1875L69.1875 266.437H64.3779L64.0972 264.972H57.1514L56.8706 266.437H52L52 257.623L61.021 251.751H57.1514L56.8828 253.229H52V245.88ZM51.646 284.161C51.646 282.468 51.7762 280.934 52.0366 279.559C52.3052 278.192 52.6795 276.926 53.1597 275.763H58.1157V279.437C57.6437 279.819 57.2409 280.279 56.9072 280.816C56.5736 281.354 56.4067 282 56.4067 282.757C56.4067 283.376 56.5492 283.925 56.834 284.405C57.1188 284.894 57.5583 285.138 58.1523 285.138C58.5837 285.138 58.9255 284.991 59.1777 284.698C59.43 284.413 59.5562 284.051 59.5562 283.612V280.45H63.1694V283.612C63.1694 284.051 63.2956 284.413 63.5479 284.698C63.8083 284.991 64.1501 285.138 64.5732 285.138C65.1673 285.138 65.6068 284.894 65.8916 284.405C66.1764 283.925 66.3188 283.376 66.3188 282.757C66.3188 282 66.152 281.354 65.8184 280.816C65.4928 280.279 65.09 279.819 64.6099 279.437V275.763H69.4927C69.9728 276.926 70.3472 278.192 70.6157 279.559C70.8924 280.926 71.0308 282.46 71.0308 284.161C71.0308 286.106 70.7093 287.807 70.0664 289.264C69.4316 290.729 68.4876 291.778 67.2344 292.413C66.502 292.771 65.7655 292.95 65.0249 292.95C64.0809 292.95 63.2956 292.743 62.6689 292.328C62.0505 291.913 61.6151 291.367 61.3628 290.692C61.0861 291.343 60.6426 291.88 60.0322 292.303C59.43 292.735 58.6528 292.95 57.7007 292.95C56.6672 292.95 55.7842 292.714 55.0518 292.242C54.3275 291.77 53.7293 291.16 53.2573 290.411C52.7935 289.662 52.4313 288.869 52.1709 288.031C51.821 286.932 51.646 285.642 51.646 284.161ZM52.26 305.394C52.02 304.954 51.9 304.461 51.9 303.914C51.9 301.914 52.92 300.914 54.96 300.914H60.86V299.294H62.14V300.914H64.66L64.66 302.494H62.14L62.14 305.294H60.86L60.86 302.494H54.92C53.84 302.494 53.3 303.001 53.3 304.014C53.3 304.534 53.4533 304.994 53.76 305.394H52.26ZM52 315.697V314.117H58.56C59.2933 314.117 59.86 313.924 60.26 313.537C60.66 313.164 60.86 312.671 60.86 312.057C60.86 311.311 60.5733 310.657 60 310.097C59.4267 309.537 58.6067 309.257 57.54 309.257H52V307.697H66.14V309.257H60.38C61.6467 309.857 62.28 310.924 62.28 312.457C62.28 313.431 61.98 314.211 61.38 314.797C60.78 315.397 59.9667 315.697 58.94 315.697H52ZM52.52 325.898C52.1067 325.111 51.9 324.151 51.9 323.018C51.9 321.485 52.3667 320.245 53.3 319.298C54.2467 318.365 55.4933 317.898 57.04 317.898C58.6533 317.898 59.9267 318.318 60.86 319.158C61.7933 319.998 62.26 321.078 62.26 322.398C62.26 323.665 61.8533 324.671 61.04 325.418C60.2267 326.165 59.0733 326.538 57.58 326.538C57.1533 326.538 56.76 326.505 56.4 326.438V319.518C55.4 319.638 54.6333 320.018 54.1 320.658C53.5667 321.298 53.3 322.138 53.3 323.178C53.3 324.311 53.5333 325.218 54 325.898H52.52ZM60.88 322.398C60.88 321.638 60.6067 320.991 60.06 320.458C59.5133 319.925 58.7333 319.611 57.72 319.518V324.958H58.12C58.96 324.958 59.6267 324.731 60.12 324.278C60.6267 323.825 60.88 323.198 60.88 322.398Z" fill="black"/>
<path d="M52 346.021V342.921H57.38V337.981H52L52 334.901H65.48V337.981H60V342.921H65.48V346.021H52ZM57.72 352.692L57.24 352.552V355.792L57.72 355.652C59.0267 355.265 60.14 354.945 61.06 354.692C61.98 354.452 62.5733 354.305 62.84 354.252L63.24 354.172C62.5067 354.065 60.6667 353.572 57.72 352.692ZM52 350.992V347.772L65.48 352.272V356.152L52 360.652V357.352L54.76 356.532V351.812L52 350.992ZM62.98 367.02V365.5H59.18V366.96C59.18 368.293 59.8333 368.96 61.14 368.96C61.7133 368.96 62.16 368.787 62.48 368.44C62.8133 368.093 62.98 367.62 62.98 367.02ZM52 365.5V362.42H65.48V367.08C65.48 368.587 65.08 369.793 64.28 370.7C63.48 371.62 62.44 372.08 61.16 372.08C59.24 372.08 57.9133 371.26 57.18 369.62L52 373.04L52 369.36L56.68 366.44V365.5H52ZM52 379.305V374.705H65.48V379.345C65.48 381.372 64.8533 383.032 63.6 384.325C62.36 385.619 60.8133 386.265 58.96 386.265C56.8 386.265 55.1 385.625 53.86 384.345C52.62 383.079 52 381.399 52 379.305ZM62.94 379.245V377.865H54.52V379.265C54.52 380.505 54.9067 381.459 55.68 382.125C56.4533 382.805 57.5467 383.145 58.96 383.145C60.16 383.145 61.12 382.805 61.84 382.125C62.5733 381.445 62.94 380.485 62.94 379.245ZM52 399.498V396.058L65.48 392.438V395.678L60.52 396.918C59.4533 397.184 58.4867 397.404 57.62 397.578C56.7667 397.751 56.1733 397.858 55.84 397.898L55.36 397.978C56.4 398.204 58.12 398.658 60.52 399.338L65.28 400.678V402.958L60.52 404.278C59.52 404.558 58.5867 404.804 57.72 405.018C56.8667 405.244 56.26 405.398 55.9 405.478L55.36 405.598C56.5467 405.771 58.2733 406.144 60.54 406.718L65.48 407.958V411.098L52 407.498V404.058L56.26 402.878C57.2867 402.598 58.1533 402.364 58.86 402.178C59.5667 402.004 60.02 401.898 60.22 401.858L60.52 401.818C59.9733 401.778 58.5533 401.418 56.26 400.738L52 399.498ZM57.72 416.852L57.24 416.712V419.952L57.72 419.812C59.0267 419.425 60.14 419.105 61.06 418.852C61.98 418.612 62.5733 418.465 62.84 418.412L63.24 418.332C62.5067 418.225 60.6667 417.732 57.72 416.852ZM52 415.152V411.932L65.48 416.432V420.312L52 424.812V421.512L54.76 420.692V415.972L52 415.152ZM52 433.22V430.14H56.94L65.48 425.54V429.14L63.52 429.96C62.5067 430.387 61.64 430.74 60.92 431.02C60.2 431.3 59.7333 431.48 59.52 431.56L59.2 431.66C59.8 431.794 61.24 432.38 63.52 433.42L65.48 434.3V437.88L56.96 433.22H52Z" fill="#F2F2F2"/>
</g>
<defs>
<filter id="filter0_d_203_33" x="35" y="32" width="50" height="442" filterUnits="userSpaceOnUse" color-interpolation-filters="sRGB">
<feFlood flood-opacity="0" result="BackgroundImageFix"/>
<feColorMatrix in="SourceAlpha" type="matrix" values="0 0 0 0 0 0 0 0 0 0 0 0 0 0 0 0 0 0 127 0" result="hardAlpha"/>
<feOffset dy="4"/>
<feGaussianBlur stdDeviation="2"/>
<feComposite in2="hardAlpha" operator="out"/>
<feColorMatrix type="matrix" values="0 0 0 0 0 0 0 0 0 0 0 0 0 0 0 0 0 0 0.25 0"/>
<feBlend mode="normal" in2="BackgroundImageFix" result="effect1_dropShadow_203_33"/>
<feBlend mode="normal" in="SourceGraphic" in2="effect1_dropShadow_203_33" result="shape"/>
</filter>
<filter id="filter1_di_203_33" x="0" y="0" width="120" height="512" filterUnits="userSpaceOnUse" color-interpolation-filters="sRGB">
<feFlood flood-opacity="0" result="BackgroundImageFix"/>
<feColorMatrix in="SourceAlpha" type="matrix" values="0 0 0 0 0 0 0 0 0 0 0 0 0 0 0 0 0 0 127 0" result="hardAlpha"/>
<feMorphology radius="4" operator="dilate" in="SourceAlpha" result="effect1_dropShadow_203_33"/>
<feOffset dy="7"/>
<feGaussianBlur stdDeviation="17.5"/>
<feColorMatrix type="matrix" values="0 0 0 0 0.125542 0 0 0 0 0.119792 0 0 0 0 0.191667 0 0 0 0.2 0"/>
<feBlend mode="normal" in2="BackgroundImageFix" result="effect1_dropShadow_203_33"/>
<feBlend mode="normal" in="SourceGraphic" in2="effect1_dropShadow_203_33" result="shape"/>
<feColorMatrix in="SourceAlpha" type="matrix" values="0 0 0 0 0 0 0 0 0 0 0 0 0 0 0 0 0 0 127 0" result="hardAlpha"/>
<feOffset/>
<feGaussianBlur stdDeviation="5"/>
<feComposite in2="hardAlpha" operator="arithmetic" k2="-1" k3="1"/>
<feColorMatrix type="matrix" values="0 0 0 0 0.165625 0 0 0 0 0.1665 0 0 0 0 0.1875 0 0 0 0.25 0"/>
<feBlend mode="normal" in2="shape" result="effect2_innerShadow_203_33"/>
</filter>
<linearGradient id="paint0_linear_203_33" x1="39" y1="253.5" x2="54.5" y2="253.5" gradientUnits="userSpaceOnUse">
<stop offset="0.145833" stop-opacity="0"/>
<stop offset="0.48408" stop-color="#1A1D37" stop-opacity="0.35"/>
<stop offset="0.854167" stop-opacity="0"/>
</linearGradient>
<linearGradient id="paint1_linear_203_33" x1="68" y1="253.5" x2="83.5" y2="253.5" gradientUnits="userSpaceOnUse">
<stop offset="0.145833" stop-opacity="0"/>
<stop offset="0.48408" stop-color="#1A1D37" stop-opacity="0.35"/>
<stop offset="0.854167" stop-opacity="0"/>
</linearGradient>
</defs>
</svg>
