<svg width="112" height="575" viewBox="0 0 112 575" fill="none" xmlns="http://www.w3.org/2000/svg">
<g filter="url(#filter0_di_206_8)">
<rect x="39" y="32" width="34" height="497" rx="4" fill="white"/>
<rect x="39.25" y="32.25" width="33.5" height="496.5" rx="3.75" stroke="#787F8F" stroke-width="0.5"/>
</g>
<path d="M39 492C39 491.448 39.4477 491 40 491H72C72.5523 491 73 491.448 73 492V524C73 526.761 70.7614 529 68 529H44C41.2386 529 39 526.761 39 524V492Z" fill="#231F20"/>
<rect x="39" y="32" width="13" height="497" fill="url(#paint0_linear_206_8)" fill-opacity="0.29"/>
<rect x="60" y="32" width="13" height="497" fill="url(#paint1_linear_206_8)" fill-opacity="0.29"/>
<path d="M50.575 72.523C50.2237 71.8883 50.048 70.8967 50.048 69.548C50.048 67.61 50.6373 66.063 51.816 64.907C53.0173 63.7623 54.5983 63.19 56.559 63.19C58.497 63.19 60.0667 63.7737 61.268 64.941C62.4693 66.1083 63.07 67.644 63.07 69.548C63.07 70.9307 62.917 71.9223 62.611 72.523L60.877 72.387C61.183 71.6163 61.336 70.67 61.336 69.548C61.336 68.1767 60.894 67.083 60.01 66.267C59.126 65.451 57.9757 65.043 56.559 65.043C55.0857 65.043 53.9297 65.4397 53.091 66.233C52.2183 67.0377 51.782 68.1427 51.782 69.548C51.782 70.738 51.969 71.6843 52.343 72.387L50.575 72.523ZM57.086 82.6522L57.086 83.0772C57.086 84.0972 57.2107 84.8169 57.46 85.2362C57.766 85.7689 58.327 86.0352 59.143 86.0352C60.4803 86.0352 61.149 85.4062 61.149 84.1482V82.6522H57.086ZM62.883 80.7992V83.9952C62.883 85.2419 62.5713 86.1939 61.948 86.8512C61.3133 87.5539 60.3783 87.9052 59.143 87.9052C57.9643 87.9052 57.0237 87.5199 56.321 86.7492C55.675 86.0125 55.352 85.0549 55.352 83.8762L55.352 82.6522L50.201 82.6522V80.7992L62.883 80.7992ZM57.8 94.2449C57.8227 94.0975 57.8397 93.9615 57.851 93.8369C57.8737 93.7122 57.885 93.5875 57.885 93.4629C57.885 92.8055 57.562 92.3182 56.916 92.0009C56.3493 91.7062 55.6467 91.5589 54.808 91.5589L50.201 91.5589V89.7399L57.205 89.7399C57.6357 89.7399 58.038 89.7285 58.412 89.7059C58.7973 89.6945 59.1543 89.6775 59.483 89.6549V91.4909H58.344C59.2393 92.0122 59.687 92.6752 59.687 93.4799C59.687 93.7292 59.653 93.9842 59.585 94.2449H57.8ZM58.089 99.7747C58.089 99.004 57.783 98.392 57.171 97.9387C56.5703 97.508 55.794 97.2927 54.842 97.2927C53.89 97.2927 53.1137 97.508 52.513 97.9387C51.901 98.392 51.595 99.004 51.595 99.7747C51.595 100.545 51.901 101.152 52.513 101.594C53.1023 102.036 53.8787 102.257 54.842 102.257C55.794 102.257 56.5703 102.036 57.171 101.594C57.783 101.152 58.089 100.545 58.089 99.7747ZM59.687 99.7747C59.687 101.18 59.1827 102.274 58.174 103.056C57.2787 103.758 56.168 104.11 54.842 104.11C53.516 104.11 52.4053 103.758 51.51 103.056C50.5013 102.274 49.997 101.18 49.997 99.7747C49.997 98.358 50.5013 97.2587 51.51 96.4767C52.3827 95.7853 53.4933 95.4397 54.842 95.4397C56.1907 95.4397 57.3013 95.7853 58.174 96.4767C59.1827 97.2587 59.687 98.358 59.687 99.7747ZM58.004 109.897C58.004 108.458 57.001 107.738 54.995 107.738C53.1363 107.738 52.207 108.435 52.207 109.829C52.207 110.577 52.4677 111.144 52.989 111.529C53.4763 111.881 54.145 112.056 54.995 112.056C56.0603 112.056 56.8253 111.881 57.29 111.529C57.766 111.189 58.004 110.645 58.004 109.897ZM59.449 113.773H52.173C49.2377 113.773 47.77 112.345 47.77 109.489C47.77 108.435 47.94 107.478 48.28 106.616L50.014 106.769C49.5947 107.608 49.385 108.52 49.385 109.506C49.385 111.127 50.099 111.966 51.527 112.022L51.612 112.039C50.9093 111.541 50.558 110.804 50.558 109.829C50.558 108.503 51.0453 107.489 52.02 106.786C52.8247 106.197 53.8333 105.902 55.046 105.902C56.4853 105.902 57.6017 106.214 58.395 106.837C59.2337 107.506 59.653 108.469 59.653 109.727C59.653 110.759 59.3923 111.535 58.871 112.056H59.449V113.773ZM57.8 121.04C57.8227 120.892 57.8397 120.756 57.851 120.632C57.8737 120.507 57.885 120.382 57.885 120.258C57.885 119.6 57.562 119.113 56.916 118.796C56.3493 118.501 55.6467 118.354 54.808 118.354H50.201V116.535H57.205C57.6357 116.535 58.038 116.523 58.412 116.501C58.7973 116.489 59.1543 116.472 59.483 116.45L59.483 118.286H58.344C59.2393 118.807 59.687 119.47 59.687 120.275C59.687 120.524 59.653 120.779 59.585 121.04H57.8ZM50.184 127.709H51.085C50.3597 127.153 49.997 126.354 49.997 125.312C49.997 124.178 50.3143 123.34 50.949 122.796C51.4137 122.41 51.9803 122.218 52.649 122.218C54.961 122.218 56.117 123.918 56.117 127.318V127.573H56.423C57.5337 127.573 58.089 127.057 58.089 126.026C58.089 125.096 57.8453 124.178 57.358 123.272H59.024C59.466 124.133 59.687 125.085 59.687 126.128C59.687 127.216 59.432 128.009 58.922 128.508C58.3667 129.04 57.5053 129.307 56.338 129.307H52.377C51.3343 129.307 50.6033 129.341 50.184 129.409V127.709ZM54.536 127.573V127.216C54.536 126.332 54.4567 125.652 54.298 125.176C54.0487 124.416 53.5557 124.037 52.819 124.037C52.003 124.037 51.595 124.507 51.595 125.448C51.595 126.864 52.4563 127.573 54.179 127.573H54.536ZM50.269 144.537V142.769H56.253C57.4543 142.769 58.055 142.237 58.055 141.171C58.055 140.65 57.8397 140.219 57.409 139.879C56.9103 139.471 56.2077 139.267 55.301 139.267H50.269V137.482H56.253C57.4543 137.482 58.055 136.95 58.055 135.884C58.055 135.352 57.8453 134.927 57.426 134.609C56.9273 134.213 56.219 134.014 55.301 134.014H50.269V132.212H57.12C57.6413 132.212 58.0947 132.207 58.48 132.195C58.8653 132.184 59.1883 132.167 59.449 132.144V133.912H58.616C59.3073 134.422 59.653 135.221 59.653 136.309C59.653 136.774 59.517 137.239 59.245 137.703C58.9503 138.179 58.582 138.514 58.14 138.706C59.1487 139.341 59.653 140.287 59.653 141.545C59.653 142.509 59.364 143.257 58.786 143.789C58.2533 144.288 57.5223 144.537 56.593 144.537H50.269ZM50.269 159.977V158.209H56.253C57.4543 158.209 58.055 157.676 58.055 156.611C58.055 156.089 57.8397 155.659 57.409 155.319C56.9103 154.911 56.2077 154.707 55.301 154.707H50.269V152.922H56.253C57.4543 152.922 58.055 152.389 58.055 151.324C58.055 150.791 57.8453 150.366 57.426 150.049C56.9273 149.652 56.219 149.454 55.301 149.454H50.269L50.269 147.652H57.12C57.6413 147.652 58.0947 147.646 58.48 147.635C58.8653 147.623 59.1883 147.606 59.449 147.584V149.352H58.616C59.3073 149.862 59.653 150.661 59.653 151.749C59.653 152.213 59.517 152.678 59.245 153.143C58.9503 153.619 58.582 153.953 58.14 154.146C59.1487 154.78 59.653 155.727 59.653 156.985C59.653 157.948 59.364 158.696 58.786 159.229C58.2533 159.727 57.5223 159.977 56.593 159.977H50.269ZM50.201 164.723V162.904H59.721V164.723H50.201ZM61.353 164.723V162.904H63.478V164.723H61.353ZM50.201 174.749L50.201 172.981H55.896C57.358 172.981 58.089 172.449 58.089 171.383C58.089 170.658 57.8 170.108 57.222 169.734C56.7233 169.428 56.083 169.275 55.301 169.275H50.201V167.507H57.12C57.562 167.507 57.9757 167.496 58.361 167.473C58.7577 167.462 59.1317 167.445 59.483 167.422V169.122H58.548C59.3073 169.678 59.687 170.499 59.687 171.587C59.687 173.695 58.514 174.749 56.168 174.749H50.201ZM58.004 181.251C58.004 179.811 57.001 179.092 54.995 179.092C53.1363 179.092 52.207 179.789 52.207 181.183C52.207 181.931 52.4677 182.497 52.989 182.883C53.4763 183.234 54.145 183.41 54.995 183.41C56.0603 183.41 56.8253 183.234 57.29 182.883C57.766 182.543 58.004 181.999 58.004 181.251ZM59.449 185.127H52.173C49.2377 185.127 47.77 183.699 47.77 180.843C47.77 179.789 47.94 178.831 48.28 177.97L50.014 178.123C49.5947 178.961 49.385 179.874 49.385 180.86C49.385 182.48 50.099 183.319 51.527 183.376L51.612 183.393C50.9093 182.894 50.558 182.157 50.558 181.183C50.558 179.857 51.0453 178.842 52.02 178.14C52.8247 177.55 53.8333 177.256 55.046 177.256C56.4853 177.256 57.6017 177.567 58.395 178.191C59.2337 178.859 59.653 179.823 59.653 181.081C59.653 182.112 59.3923 182.888 58.871 183.41H59.449L59.449 185.127ZM55.199 199.742L60.435 197.685L55.199 195.611V199.742ZM50.201 203.686V201.714L53.448 200.422V194.914L50.201 193.605V191.65L62.883 196.818V198.671L50.201 203.686ZM52.02 207.427V208.277C52.02 210.226 52.666 211.201 53.958 211.201C54.7853 211.201 55.3463 210.867 55.641 210.198C55.8337 209.756 55.93 209.053 55.93 208.09V207.427H52.02ZM57.681 207.461V208.396C57.681 210.028 58.293 210.844 59.517 210.844C60.5823 210.844 61.115 210.124 61.115 208.685V207.461H57.681ZM62.849 205.608V208.685C62.849 211.326 61.7837 212.646 59.653 212.646C58.2363 212.646 57.3127 211.955 56.882 210.572C56.6667 211.32 56.304 211.909 55.794 212.34C55.2727 212.793 54.655 213.02 53.941 213.02C51.493 213.02 50.269 211.428 50.269 208.243L50.269 205.608H62.849ZM60.928 221.749C61.2113 221.182 61.353 220.423 61.353 219.471C61.353 217.997 60.809 217.261 59.721 217.261C59.1997 217.261 58.65 217.72 58.072 218.638C57.5847 219.397 57.1993 219.992 56.916 220.423C56.6327 220.853 56.4457 221.114 56.355 221.205C55.5503 222.123 54.621 222.582 53.567 222.582C52.3883 222.582 51.4647 222.128 50.796 221.222C50.2293 220.451 49.946 219.527 49.946 218.451C49.946 217.374 50.1443 216.388 50.541 215.493L52.428 215.714C51.952 216.564 51.714 217.499 51.714 218.519C51.714 220.026 52.377 220.78 53.703 220.78C54.2243 220.78 54.791 220.321 55.403 219.403C55.9583 218.575 56.3833 217.946 56.678 217.516C56.9727 217.096 57.1313 216.87 57.154 216.836C57.936 215.929 58.7917 215.476 59.721 215.476C60.775 215.476 61.6193 215.884 62.254 216.7C62.8207 217.436 63.104 218.366 63.104 219.488C63.104 220.417 62.9567 221.273 62.662 222.055L60.928 221.749ZM61.387 230.298C61.387 229.12 60.8883 228.19 59.891 227.51C58.9957 226.887 57.885 226.575 56.559 226.575C55.2217 226.575 54.1053 226.887 53.21 227.51C52.2127 228.19 51.714 229.12 51.714 230.298C51.714 231.477 52.2127 232.406 53.21 233.086C54.1053 233.698 55.2217 234.004 56.559 234.004C57.8737 234.004 58.9843 233.698 59.891 233.086C60.8883 232.406 61.387 231.477 61.387 230.298ZM63.104 230.298C63.104 232.112 62.4297 233.523 61.081 234.531C59.8797 235.427 58.3723 235.869 56.559 235.857C54.5757 235.835 53.0117 235.37 51.867 234.463C50.6203 233.477 49.997 232.089 49.997 230.298C49.997 228.519 50.6203 227.125 51.867 226.116C53.0343 225.187 54.5983 224.722 56.559 224.722C58.395 224.722 59.908 225.164 61.098 226.048C62.4353 227.046 63.104 228.462 63.104 230.298ZM50.269 244.886L50.269 238.494H62.849V240.33H52.02V244.886H50.269ZM62.883 256.011H54.672C52.972 256.011 51.7197 255.472 50.915 254.396C50.303 253.591 49.997 252.594 49.997 251.404C49.997 250.225 50.303 249.228 50.915 248.412C51.7083 247.346 52.9607 246.814 54.672 246.814H62.883V248.667H54.757C53.839 248.667 53.1137 248.899 52.581 249.364C52.0143 249.84 51.731 250.52 51.731 251.404C51.731 252.288 52.0143 252.979 52.581 253.478C53.1023 253.931 53.8277 254.158 54.757 254.158H62.883V256.011ZM61.166 266.645V263.194H50.269V261.341H61.166V257.907H62.849V266.645H61.166ZM50.201 274.922L50.201 268.462H62.883L62.883 274.735H61.149L61.149 270.315H57.613L57.613 274.497H55.879L55.879 270.315H51.952L51.952 274.922H50.201ZM52.02 284.276V285.126C52.02 287.075 52.666 288.05 53.958 288.05C54.7853 288.05 55.3463 287.715 55.641 287.047C55.8337 286.605 55.93 285.902 55.93 284.939V284.276H52.02ZM57.681 284.31V285.245C57.681 286.877 58.293 287.693 59.517 287.693C60.5823 287.693 61.115 286.973 61.115 285.534V284.31H57.681ZM62.849 282.457L62.849 285.534C62.849 288.174 61.7837 289.495 59.653 289.495C58.2363 289.495 57.3127 288.803 56.882 287.421C56.6667 288.169 56.304 288.758 55.794 289.189C55.2727 289.642 54.655 289.869 53.941 289.869C51.493 289.869 50.269 288.276 50.269 285.092V282.457H62.849ZM50.201 299.26V292.8H62.883V299.073H61.149V294.653H57.613V298.835H55.879V294.653H51.952V299.26H50.201ZM57.392 312.077H50.813C50.303 310.864 50.048 309.538 50.048 308.099C50.048 306.15 50.6487 304.597 51.85 303.441C53.0287 302.308 54.5983 301.741 56.559 301.741C58.5197 301.741 60.0893 302.325 61.268 303.492C62.4693 304.659 63.07 306.201 63.07 308.116C63.07 309.589 62.866 310.751 62.458 311.601L60.656 311.38C61.1093 310.553 61.336 309.465 61.336 308.116C61.336 306.722 60.8883 305.617 59.993 304.801C59.1317 304.008 57.987 303.611 56.559 303.611C55.1197 303.611 53.9693 303.996 53.108 304.767C52.224 305.56 51.782 306.671 51.782 308.099C51.782 309.017 51.8727 309.714 52.054 310.19H55.658V307.572H57.392V312.077ZM50.269 317.111V315.241H62.849L62.849 317.111H50.269ZM50.201 329.192V327.152L59.704 321.712H50.201V319.876H62.883V321.831L53.227 327.356H62.883V329.192H50.201ZM50.201 341.543L50.201 339.503L59.704 334.063H50.201V332.227H62.883V334.182L53.227 339.707H62.883V341.543H50.201ZM50.201 351.124L50.201 344.664H62.883L62.883 350.937H61.149L61.149 346.517H57.613L57.613 350.699H55.879L55.879 346.517H51.952L51.952 351.124H50.201ZM57.647 355.865V356.732C57.647 357.48 57.783 358.07 58.055 358.5C58.361 359.022 58.8257 359.282 59.449 359.282C60.1857 359.282 60.6673 359.061 60.894 358.619C61.0413 358.313 61.115 357.69 61.115 356.749V355.865H57.647ZM50.269 362.189V360.234L54.519 358.398C55.097 358.149 55.4597 357.922 55.607 357.718C55.7997 357.469 55.896 357.072 55.896 356.528V355.865H50.269V354.046H62.849V357.378C62.849 359.872 61.7157 361.118 59.449 361.118C58.701 361.118 58.0777 360.886 57.579 360.421C57.0803 359.957 56.7573 359.35 56.61 358.602C56.4853 359.237 56.066 359.707 55.352 360.013L50.269 362.189ZM61.336 366.022C60.7693 366.022 60.3613 365.926 60.112 365.733C59.772 365.45 59.5737 365.019 59.517 364.441H60.537C60.537 364.645 60.622 364.809 60.792 364.934C60.8713 365.002 61.047 365.036 61.319 365.036H61.625V364.322H63.478V366.022H61.336ZM60.928 374.998C61.2113 374.431 61.353 373.672 61.353 372.72C61.353 371.246 60.809 370.51 59.721 370.51C59.1997 370.51 58.65 370.969 58.072 371.887C57.5847 372.646 57.1993 373.241 56.916 373.672C56.6327 374.102 56.4457 374.363 56.355 374.454C55.5503 375.372 54.621 375.831 53.567 375.831C52.3883 375.831 51.4647 375.377 50.796 374.471C50.2293 373.7 49.946 372.776 49.946 371.7C49.946 370.623 50.1443 369.637 50.541 368.742L52.428 368.963C51.952 369.813 51.714 370.748 51.714 371.768C51.714 373.275 52.377 374.029 53.703 374.029C54.2243 374.029 54.791 373.57 55.403 372.652C55.9583 371.824 56.3833 371.195 56.678 370.765C56.9727 370.345 57.1313 370.119 57.154 370.085C57.936 369.178 58.7917 368.725 59.721 368.725C60.775 368.725 61.6193 369.133 62.254 369.949C62.8207 370.685 63.104 371.615 63.104 372.737C63.104 373.666 62.9567 374.522 62.662 375.304L60.928 374.998ZM57.392 393.242H50.813C50.303 392.029 50.048 390.703 50.048 389.264C50.048 387.315 50.6487 385.762 51.85 384.606C53.0287 383.473 54.5983 382.906 56.559 382.906C58.5197 382.906 60.0893 383.49 61.268 384.657C62.4693 385.824 63.07 387.366 63.07 389.281C63.07 390.754 62.866 391.916 62.458 392.766L60.656 392.545C61.1093 391.718 61.336 390.63 61.336 389.281C61.336 387.887 60.8883 386.782 59.993 385.966C59.1317 385.173 57.987 384.776 56.559 384.776C55.1197 384.776 53.9693 385.161 53.108 385.932C52.224 386.725 51.782 387.836 51.782 389.264C51.782 390.182 51.8727 390.879 52.054 391.355H55.658V388.737H57.392V393.242ZM62.883 405.79H54.672C52.972 405.79 51.7197 405.252 50.915 404.175C50.303 403.37 49.997 402.373 49.997 401.183C49.997 400.004 50.303 399.007 50.915 398.191C51.7083 397.126 52.9607 396.593 54.672 396.593H62.883V398.446H54.757C53.839 398.446 53.1137 398.678 52.581 399.143C52.0143 399.619 51.731 400.299 51.731 401.183C51.731 402.067 52.0143 402.758 52.581 403.257C53.1023 403.71 53.8277 403.937 54.757 403.937H62.883V405.79ZM50.269 410.644V408.774H62.849V410.644H50.269ZM52.02 415.313V415.925C52.02 419.37 53.5613 421.093 56.644 421.093C59.6247 421.093 61.115 419.619 61.115 416.673L61.115 415.313H52.02ZM62.849 413.46L62.849 416.673C62.849 418.803 62.2597 420.407 61.081 421.484C60.0157 422.447 58.5197 422.929 56.593 422.929C54.417 422.929 52.7907 422.237 51.714 420.855C50.7507 419.642 50.269 417.959 50.269 415.806L50.269 413.46H62.849ZM50.201 432.305V425.845H62.883V432.118H61.149V427.698H57.613V431.88H55.879V427.698H51.952V432.305H50.201Z" fill="#1F1B1C"/>
<defs>
<filter id="filter0_di_206_8" x="0" y="0" width="112" height="575" filterUnits="userSpaceOnUse" color-interpolation-filters="sRGB">
<feFlood flood-opacity="0" result="BackgroundImageFix"/>
<feColorMatrix in="SourceAlpha" type="matrix" values="0 0 0 0 0 0 0 0 0 0 0 0 0 0 0 0 0 0 127 0" result="hardAlpha"/>
<feMorphology radius="4" operator="dilate" in="SourceAlpha" result="effect1_dropShadow_206_8"/>
<feOffset dy="7"/>
<feGaussianBlur stdDeviation="17.5"/>
<feColorMatrix type="matrix" values="0 0 0 0 0.125542 0 0 0 0 0.119792 0 0 0 0 0.191667 0 0 0 0.2 0"/>
<feBlend mode="normal" in2="BackgroundImageFix" result="effect1_dropShadow_206_8"/>
<feBlend mode="normal" in="SourceGraphic" in2="effect1_dropShadow_206_8" result="shape"/>
<feColorMatrix in="SourceAlpha" type="matrix" values="0 0 0 0 0 0 0 0 0 0 0 0 0 0 0 0 0 0 127 0" result="hardAlpha"/>
<feOffset/>
<feGaussianBlur stdDeviation="5"/>
<feComposite in2="hardAlpha" operator="arithmetic" k2="-1" k3="1"/>
<feColorMatrix type="matrix" values="0 0 0 0 0.165625 0 0 0 0 0.1665 0 0 0 0 0.1875 0 0 0 0.25 0"/>
<feBlend mode="normal" in2="shape" result="effect2_innerShadow_206_8"/>
</filter>
<linearGradient id="paint0_linear_206_8" x1="39" y1="285.653" x2="54.5" y2="285.653" gradientUnits="userSpaceOnUse">
<stop offset="0.145833" stop-opacity="0"/>
<stop offset="0.48408" stop-color="#1A1D37" stop-opacity="0.35"/>
<stop offset="0.854167" stop-opacity="0"/>
</linearGradient>
<linearGradient id="paint1_linear_206_8" x1="60" y1="285.653" x2="75.5" y2="285.653" gradientUnits="userSpaceOnUse">
<stop offset="0.145833" stop-opacity="0"/>
<stop offset="0.48408" stop-color="#1A1D37" stop-opacity="0.35"/>
<stop offset="0.854167" stop-opacity="0"/>
</linearGradient>
</defs>
</svg>
