<svg width="26" height="21" viewBox="0 0 26 21" fill="none" xmlns="http://www.w3.org/2000/svg">
<path d="M21.1039 0C22.5859 2.16617 22.6023 5.29977 22.1156 8.04508C21.525 7.25211 20.9344 6.4482 20.3383 5.67711C19.3375 4.38648 18.3367 3.16695 17.3141 2.17711C17.7516 1.53672 18.4789 0.994219 19.2391 0.616328C19.95 0.259766 20.6883 0.0623437 21.1039 0ZM4.83984 0C5.25547 0.0623437 5.99375 0.259766 6.70469 0.616328C7.46484 0.994219 8.19219 1.53672 8.62969 2.17711C7.60703 3.16695 6.60625 4.38648 5.60547 5.67711C5.00938 6.4482 4.41875 7.24664 3.82813 8.03961C3.34141 5.2943 3.35234 2.1607 4.83984 0ZM16.6906 5.08102C17.5164 5.08102 18.3367 5.26148 19.0313 5.61148C19.2063 5.83023 19.3813 6.05445 19.5563 6.27867C21.6508 9.00211 23.7508 12.1357 25.9438 14.1482C25.282 14.4107 24.6094 14.7716 23.9258 15.1873C23.9258 14.3834 23.6086 13.5412 23.1109 12.7427C22.3563 11.5232 21.1586 10.331 19.7805 9.30289C18.6813 8.48258 17.6859 8.0943 16.8164 8.05602C16.6906 8.05055 16.5648 8.05055 16.4445 8.06148C15.4875 8.12711 14.7328 8.6357 14.2625 9.28648C13.7922 9.93727 13.568 10.7248 13.5953 11.4521C13.6227 11.999 13.8031 12.5513 14.1859 12.9232H11.7578C12.1406 12.5513 12.3211 11.999 12.3484 11.4521C12.3758 10.7248 12.1516 9.93727 11.6813 9.28648C11.2109 8.6357 10.4563 8.12711 9.49922 8.06148C9.43906 8.05602 9.37891 8.05055 9.31328 8.05055C9.25313 8.05055 9.1875 8.05055 9.12734 8.05602C8.25781 8.0943 7.2625 8.48258 6.16328 9.30289C4.78516 10.331 3.58203 11.5232 2.82734 12.7427C2.32969 13.5412 2.0125 14.3834 2.0125 15.1873C1.32891 14.7662 0.661719 14.4107 0 14.1482C2.1875 12.1357 4.2875 9.00758 6.3875 6.27867C6.5625 6.05445 6.7375 5.83023 6.9125 5.61148C7.60703 5.26148 8.42734 5.08102 9.25313 5.08102C10.5383 5.08102 11.8125 5.51305 12.6219 6.32789L12.9719 6.67242L13.3219 6.32789C14.1313 5.51305 15.4055 5.08102 16.6906 5.08102ZM16.6906 9.20445C17.768 9.20445 18.6867 10.0357 18.6867 11.0912C18.6867 12.1466 17.768 12.9779 16.6906 12.9779C15.6133 12.9779 14.6945 12.1466 14.6945 11.0912C14.6945 10.0357 15.6133 9.20445 16.6906 9.20445ZM9.25313 9.20445C10.3305 9.20445 11.2492 10.0357 11.2492 11.0912C11.2492 12.1466 10.3305 12.9779 9.25313 12.9779C8.17578 12.9779 7.25703 12.1466 7.25703 11.0912C7.25703 10.0357 8.17578 9.20445 9.25313 9.20445ZM16.6906 10.1888C16.1055 10.1888 15.6789 10.6099 15.6789 11.0912C15.6789 11.5724 16.1055 11.9935 16.6906 11.9935C17.2758 11.9935 17.7023 11.5724 17.7023 11.0912C17.7023 10.6099 17.2758 10.1888 16.6906 10.1888ZM9.25313 10.1888C8.66797 10.1888 8.24141 10.6099 8.24141 11.0912C8.24141 11.5724 8.66797 11.9935 9.25313 11.9935C9.83828 11.9935 10.2648 11.5724 10.2648 11.0912C10.2648 10.6099 9.83828 10.1888 9.25313 10.1888ZM15.318 13.5302C16.7016 14.1482 17.768 14.613 18.4953 15.1818C19.2938 15.7998 19.7367 16.5052 19.8953 17.8396C17.7297 19.2013 15.4164 20.3552 12.9719 20.3552C10.5273 20.3552 8.21406 19.2013 6.04844 17.8396C6.20703 16.5052 6.65 15.7998 7.44844 15.1818C8.17578 14.613 9.24219 14.1482 10.6258 13.5302C10.6586 14.1154 10.9484 14.6459 11.3477 15.0396C11.6266 15.324 11.9711 15.5482 12.3594 15.6685C12.2008 16.1552 12.0203 16.467 11.8617 16.6365C11.6539 16.8607 11.5172 16.8826 11.3586 16.8607C11.2 16.8443 11.0141 16.7349 10.8773 16.5873C10.7406 16.4396 10.675 16.2482 10.675 16.199H9.69063C9.69063 16.6146 9.88203 16.9646 10.15 17.2545C10.4234 17.5443 10.7898 17.7849 11.2383 17.8396C11.6867 17.8943 12.1953 17.7193 12.5836 17.3091C12.7258 17.156 12.857 16.9755 12.9719 16.7623C13.0867 16.9755 13.218 17.156 13.3602 17.3091C13.7484 17.7193 14.257 17.8943 14.7055 17.8396C15.1539 17.7849 15.5203 17.5443 15.7938 17.2545C16.0617 16.9646 16.2531 16.6146 16.2531 16.199H15.2688C15.2688 16.2482 15.2031 16.4396 15.0664 16.5873C14.9297 16.7349 14.7438 16.8443 14.5852 16.8607C14.4266 16.8826 14.2898 16.8607 14.082 16.6365C13.9234 16.467 13.743 16.1552 13.5844 15.6685C13.9727 15.5482 14.3172 15.324 14.5961 15.0396C14.9953 14.6459 15.2852 14.1154 15.318 13.5302ZM14.2133 13.9076C14.1367 14.0607 14.0328 14.2138 13.9016 14.3451C13.6281 14.6185 13.2727 14.7826 12.9719 14.7826C12.6711 14.7826 12.3156 14.6185 12.0422 14.3451C11.9109 14.2138 11.807 14.0607 11.7305 13.9076H14.2133Z" fill="black"/>
</svg>
